<?xml version="1.0" encoding="UTF-8" standalone="no"?>
<!DOCTYPE svg PUBLIC "-//W3C//DTD SVG 1.1//EN" "http://www.w3.org/Graphics/SVG/1.1/DTD/svg11.dtd">
<svg width="100%" height="100%" viewBox="0 0 128 128" version="1.1" xmlns="http://www.w3.org/2000/svg" xmlns:xlink="http://www.w3.org/1999/xlink" xml:space="preserve" style="fill-rule:evenodd;clip-rule:evenodd;stroke-linejoin:round;stroke-miterlimit:1.41421;">
    <g transform="matrix(1,0,0,1,0,-481)">
        <g id="about" transform="matrix(1,0,0,1.09402,0,43.3932)">
            <rect x="0" y="400" width="128" height="117" style="fill:none;"/>
            <g transform="matrix(1,0,0,0.914062,0,400)">
                <path d="M104,9L24,9C15.716,9 9,15.716 9,24L9,104C9,112.284 15.716,119 24,119L104,119C112.284,119 119,112.284 119,104L119,24C119,15.716 112.284,9 104,9Z" style="fill:rgb(26,145,208);fill-rule:nonzero;"/>
            </g>
            <g transform="matrix(1,0,0,0.914062,0,400)">
                <path d="M76,102.889C76,104.467 75.451,105.8 74.364,106.866C73.275,107.957 71.935,108.501 70.353,108.501L57.647,108.501C56.065,108.501 54.722,107.939 53.635,106.836C52.547,105.724 52,104.414 52,102.89L52,62.102C52,60.524 52.547,59.202 53.635,58.122C54.722,57.034 56.065,56.5 57.647,56.5L70.353,56.5C71.935,56.5 73.275,57.034 74.364,58.122C75.451,59.202 76,60.524 76,62.102L76,102.889Z" style="fill:white;fill-rule:nonzero;"/>
                <path d="M76,39.422C76,41.053 75.451,42.43 74.364,43.531C73.275,44.658 71.935,45.22 70.353,45.22L57.647,45.22C56.065,45.22 54.722,44.64 53.635,43.499C52.547,42.35 52,40.999 52,39.422L52,27.007C52,25.377 52.547,24.011 53.635,22.895C54.722,21.771 56.065,21.22 57.647,21.22L70.353,21.22C71.935,21.22 73.275,21.772 74.364,22.895C75.451,24.011 76,25.377 76,27.007L76,39.422Z" style="fill:white;fill-rule:nonzero;"/>
            </g>
        </g>
    </g>
</svg>
