<?xml version="1.0" encoding="UTF-8" standalone="no"?><!DOCTYPE svg PUBLIC "-//W3C//DTD SVG 1.1//EN" "http://www.w3.org/Graphics/SVG/1.1/DTD/svg11.dtd"><svg width="100%" height="100%" viewBox="0 0 128 128" version="1.1" xmlns="http://www.w3.org/2000/svg" xmlns:xlink="http://www.w3.org/1999/xlink" xml:space="preserve" style="fill-rule:evenodd;clip-rule:evenodd;stroke-linejoin:round;stroke-miterlimit:1.41421;"><rect id="add" x="0" y="0" width="128" height="128" style="fill:none;"/><path id="Ebene_4_Kopie_Kopie" d="M117.72,55.879c-1.455,-1.473 -3.302,-2.229 -5.472,-2.229l-37.899,0l0,-37.899c0,-2.15 -0.747,-4.002 -2.22,-5.504c-1.514,-1.495 -3.371,-2.248 -5.532,-2.248l-5.184,0c-2.167,0 -4.028,0.753 -5.531,2.237c-1.484,1.513 -2.231,3.365 -2.231,5.515l0,37.899l-37.883,0c-2.092,0 -3.93,0.75 -5.461,2.23c-1.532,1.485 -2.307,3.344 -2.307,5.526l0,5.183c0,2.213 0.768,4.074 2.284,5.53c1.448,1.471 3.3,2.226 5.484,2.226l37.884,0l0,37.887c0,2.076 0.743,3.911 2.208,5.455c1.542,1.541 3.403,2.313 5.553,2.313l5.184,0c2.146,0 4.004,-0.763 5.522,-2.266c1.482,-1.509 2.229,-3.357 2.229,-5.502l0,-37.887l37.899,0c2.172,0 4.019,-0.755 5.489,-2.243c1.496,-1.44 2.263,-3.301 2.263,-5.513l0,-5.183c0.001,-2.21 -0.766,-4.069 -2.279,-5.527Z" style="fill:#1ca037;fill-rule:nonzero;"/></svg>