<?xml version="1.0" encoding="UTF-8" standalone="no"?><!DOCTYPE svg PUBLIC "-//W3C//DTD SVG 1.1//EN" "http://www.w3.org/Graphics/SVG/1.1/DTD/svg11.dtd"><svg width="100%" height="100%" viewBox="0 0 128 128" version="1.1" xmlns="http://www.w3.org/2000/svg" xmlns:xlink="http://www.w3.org/1999/xlink" xml:space="preserve" style="fill-rule:evenodd;clip-rule:evenodd;stroke-linejoin:round;stroke-miterlimit:1.41421;"><rect id="add_folder" x="0" y="0" width="128" height="128" style="fill:none;"/><path d="M110.406,30.915l-45.547,0l0,-6.016c0,-4.746 -3.847,-8.594 -8.594,-8.594l-38.671,0c-4.746,0.001 -8.594,3.848 -8.594,8.594l0,78.202c0,4.746 3.848,8.594 8.594,8.594l92.813,0c4.747,0 8.594,-3.848 8.594,-8.594l0,-57.577l0,-0.859l0,-5.156c-0.001,-4.746 -3.848,-8.594 -8.595,-8.594Z" style="fill:#afa201;fill-rule:nonzero;"/><path d="M85.875,78.253l-15.624,0l0,15.623c0,0.875 -0.305,1.622 -0.907,2.225c-0.598,0.598 -1.339,0.9 -2.217,0.9l-6.249,0c-0.879,0 -1.622,-0.314 -2.223,-0.927c-0.601,-0.609 -0.906,-1.348 -0.906,-2.198l0,-15.623l-15.623,0c-0.879,0 -1.623,-0.316 -2.223,-0.931c-0.599,-0.612 -0.903,-1.339 -0.903,-2.194l0,-6.25c0,-0.879 0.304,-1.62 0.903,-2.222c0.6,-0.599 1.344,-0.907 2.223,-0.907l15.623,0l0,-15.622c0,-0.879 0.305,-1.623 0.906,-2.223c0.601,-0.596 1.344,-0.903 2.223,-0.903l6.249,0c0.878,0 1.619,0.306 2.217,0.903c0.603,0.6 0.907,1.344 0.907,2.223l0,15.622l15.624,0c0.875,0 1.622,0.309 2.225,0.907c0.598,0.602 0.9,1.343 0.9,2.222l0,6.25c0,0.855 -0.303,1.582 -0.9,2.194c-0.603,0.615 -1.35,0.931 -2.225,0.931Z" style="fill:#404547;fill-rule:nonzero;"/></svg>