<?xml version="1.0" encoding="UTF-8" standalone="no"?><!DOCTYPE svg PUBLIC "-//W3C//DTD SVG 1.1//EN" "http://www.w3.org/Graphics/SVG/1.1/DTD/svg11.dtd"><svg width="100%" height="100%" viewBox="0 0 128 128" version="1.1" xmlns="http://www.w3.org/2000/svg" xmlns:xlink="http://www.w3.org/1999/xlink" xml:space="preserve" style="fill-rule:evenodd;clip-rule:evenodd;stroke-linejoin:round;stroke-miterlimit:1.41421;"><rect id="add_foe" x="0" y="0" width="128" height="128" style="fill:none;"/><path d="M51.172,90.874c0,-10.999 4.688,-20.918 12.163,-27.883c-0.935,-0.846 -1.607,-1.616 -1.596,-2.05c0.019,-0.075 0.045,-0.147 0.101,-0.208c3.98,-4.316 5.752,-5.666 7.824,-10.766l0.662,-1.623l1.479,-0.759c1.221,-0.63 2.846,-3.052 3.732,-7.053c0.504,-2.279 0.605,-4.581 0.285,-6.317c-0.232,-1.245 -0.613,-1.896 -0.891,-2.092l-1.729,-1.211l-0.256,-2.226c-1.335,-11.664 -8.013,-19.687 -19.939,-19.687c-0.001,0 -0.002,0 -0.003,0c0,0 -0.001,0 -0.002,0c-11.926,0 -18.604,8.023 -19.94,19.688l-0.257,2.226l-1.728,1.211c-0.277,0.196 -0.659,0.847 -0.892,2.092c-0.32,1.736 -0.219,4.038 0.285,6.317c0.888,4 2.512,6.423 3.733,7.053l1.477,0.759l0.663,1.623c2.073,5.1 3.844,6.45 7.825,10.766c0.056,0.061 0.082,0.133 0.101,0.208c0.028,1.072 -4.099,4.202 -6.161,5.447c-0.243,0.141 -0.465,0.264 -0.64,0.353c-1.369,0.687 -2.756,1.076 -4.219,1.491c-4.07,1.139 -8.684,2.439 -14.287,10.972c-4.208,6.423 -6.143,28.463 -6.384,39.796l51.01,0c-7.624,-6.977 -12.416,-17.002 -12.416,-28.127Z" style="fill:#426180;fill-rule:nonzero;"/><path d="M90.876,62.75c-15.533,0 -28.126,12.593 -28.126,28.124c0,15.534 12.593,28.126 28.126,28.126c15.532,0 28.124,-12.592 28.124,-28.126c0,-15.531 -12.592,-28.124 -28.124,-28.124Z" style="fill:#c90709;fill-rule:nonzero;"/><path d="M108.375,93.291c0,0.606 -0.204,1.122 -0.628,1.53c-0.408,0.413 -0.917,0.619 -1.521,0.619l-10.786,0l0,10.782c0,0.604 -0.208,1.11 -0.615,1.524c-0.421,0.417 -0.927,0.629 -1.533,0.629l-4.831,0c-0.607,0 -1.115,-0.216 -1.536,-0.637c-0.407,-0.429 -0.615,-0.935 -0.615,-1.517l0,-10.781l-10.782,0c-0.604,0 -1.117,-0.206 -1.524,-0.619c-0.425,-0.408 -0.629,-0.924 -0.629,-1.53l0,-4.831c0,-0.607 0.216,-1.121 0.637,-1.529c0.428,-0.413 0.927,-0.62 1.517,-0.62l10.781,0l0,-10.787c0,-0.604 0.208,-1.113 0.615,-1.528c0.421,-0.416 0.929,-0.62 1.536,-0.62l4.831,0c0.606,0 1.112,0.204 1.533,0.62c0.407,0.415 0.615,0.924 0.615,1.528l0,10.786l10.786,0c0.604,0 1.112,0.207 1.521,0.62c0.424,0.408 0.628,0.922 0.628,1.529l0,4.832Z" style="fill:#fff;fill-rule:nonzero;"/></svg>