<?xml version="1.0" encoding="UTF-8" standalone="no"?><!DOCTYPE svg PUBLIC "-//W3C//DTD SVG 1.1//EN" "http://www.w3.org/Graphics/SVG/1.1/DTD/svg11.dtd"><svg width="100%" height="100%" viewBox="0 0 128 128" version="1.1" xmlns="http://www.w3.org/2000/svg" xmlns:xlink="http://www.w3.org/1999/xlink" xml:space="preserve" style="fill-rule:evenodd;clip-rule:evenodd;stroke-linejoin:round;stroke-miterlimit:1.41421;"><rect id="addon.-collection" x="0" y="0" width="128" height="128" style="fill:none;"/><clipPath id="_clip1"><rect x="0" y="0" width="128" height="128"/></clipPath><g clip-path="url(#_clip1)"><path id="Layer_1.-2" d="M127.34,55.139c-0.701,-5.327 -2.116,-10.535 -4.206,-15.484c-3.608,-8.774 -8.876,-16.436 -15.946,-22.759c-15.879,-14.193 -34.449,-19.579 -55.315,-15.646c-18.939,3.564 -33.393,14.067 -43.202,30.692c-6.99,11.845 -9.704,24.725 -8.322,38.444c0.051,0.433 0.108,0.867 0.157,1.29c1.16,10.088 4.358,19.482 10.206,27.786c14.882,21.156 35.302,30.857 61.022,28.07c18.815,-2.034 33.696,-11.391 44.665,-26.86c2.57,-3.699 4.761,-7.649 6.539,-11.788c2.601,-5.892 3.846,-12.145 4.66,-18.501c0.724,-5.097 0.366,-10.181 -0.258,-15.244Zm-29.291,15.226c-0.823,0.97 -1.872,1.29 -3.134,1.29c-7.292,-0.025 -14.581,0 -21.872,-0.036c-1.144,0 -1.546,0.222 -1.528,1.476c0.059,7.255 0.023,14.512 0.015,21.766c0,2.787 -0.992,3.765 -3.804,3.768c-2.619,0 -5.237,0 -7.856,0c-2.345,0 -3.435,-1.102 -3.441,-3.469c-0.012,-7.386 -0.036,-14.772 0,-22.16c0,-1.076 -0.257,-1.386 -1.36,-1.378c-7.333,0.052 -14.668,0 -21.998,0.057c-1.328,0.013 -2.333,-0.341 -3.17,-1.314c-0.316,-0.815 -0.465,-1.684 -0.441,-2.557c0.026,-2.713 0.049,-5.42 -0.013,-8.132c-0.041,-1.806 0.879,-3.174 3.07,-3.161c2.358,0.015 4.716,0 7.075,0c5.064,0 10.131,-0.042 15.206,0.028c1.265,0.018 1.698,-0.224 1.683,-1.621c-0.088,-7.213 -0.049,-14.425 -0.049,-21.641c-0.016,-0.435 0.005,-0.871 0.062,-1.303c0.258,-1.608 0.801,-2.302 2.415,-2.4c3.309,-0.222 6.63,-0.217 9.938,0.013c1.843,0.139 2.691,1.365 2.691,3.37c0,7.303 0.023,14.604 -0.039,21.905c-0.013,1.264 0.219,1.7 1.614,1.685c7.203,-0.083 14.41,-0.039 21.613,-0.036c2.763,0 3.769,1.032 3.769,3.811c0,2.449 -0.019,4.904 0,7.347c0.001,0.915 -0.15,1.824 -0.446,2.69l0,0.002Z" style="fill:url(#_Linear2);fill-rule:nonzero;"/></g><defs><linearGradient id="_Linear2" x1="0" y1="0" x2="1" y2="0" gradientUnits="userSpaceOnUse" gradientTransform="matrix(8.22199e-15,134.447,-134.275,8.23253e-15,63.9991,-4.05868)"><stop offset="0" style="stop-color:#728dae;stop-opacity:1"/><stop offset="1" style="stop-color:#426080;stop-opacity:1"/></linearGradient></defs></svg>