<?xml version="1.0" encoding="UTF-8" standalone="no"?><!DOCTYPE svg PUBLIC "-//W3C//DTD SVG 1.1//EN" "http://www.w3.org/Graphics/SVG/1.1/DTD/svg11.dtd"><svg width="100%" height="100%" viewBox="0 0 128 128" version="1.1" xmlns="http://www.w3.org/2000/svg" xmlns:xlink="http://www.w3.org/1999/xlink" xml:space="preserve" style="fill-rule:evenodd;clip-rule:evenodd;stroke-linejoin:round;stroke-miterlimit:1.41421;"><rect id="addon" x="0" y="0" width="128" height="128" style="fill:none;"/><path d="M95.839,99.904c0,1.068 -0.587,0.88 -1.195,0.88c-8.045,0 -16.09,0.02 -24.132,-0.022c-1.183,0 -1.64,0.292 -1.563,1.547c0.063,1 0.1,2 0.25,3c0.235,1.683 0.815,3.025 2.33,4.165c4.723,3.55 4.75,9.5 0.118,13.17c-4.305,3.423 -9.235,4.1 -14.428,2.583c-2.205,-0.645 -4.295,-1.62 -5.945,-3.413c-3.5,-3.797 -3.285,-8.852 0.695,-12.13c1.41,-1.162 2.973,-2.19 3.555,-4c0.44,-1.367 0.718,-2.797 0.463,-4.275c-0.143,-0.847 -0.75,-0.612 -1.25,-0.612c-7.04,0 -14.078,-0.035 -21.118,0.02c-1.132,0 -1.445,-0.265 -1.435,-1.423c0.058,-7.667 0.05,-15.335 0.018,-23c-0.046,-0.788 0.321,-1.547 0.967,-2c3.488,-2.727 8.793,-1.887 11.265,1.82c1.815,2.725 4.313,4.408 7.613,3.9c3.947,-0.607 6.55,-3.165 8.04,-6.812c1.105,-2.666 1.515,-5.57 1.19,-8.438c-0.5,-2.922 -1.518,-5.625 -3.515,-7.887c-2.983,-3.373 -7.848,-3.943 -11.273,-1.61c-1.095,0.75 -1.882,1.89 -2.575,3.037c-0.294,0.505 -0.777,0.873 -1.342,1.023c-2.453,0.75 -4.94,1.14 -7.375,0.127c-1.895,-0.79 -3.08,-1.615 -3.035,-4.287c0.14,-7.955 0.095,-15.913 0.025,-23.87c-0.013,-1.333 0.395,-1.545 1.602,-1.535c7.203,0.055 14.408,0 21.61,0.057c1.105,0 1.695,-0.4 2.138,-1.31c1.327,-2.75 1.04,-5.525 0.292,-8.33c-0.145,-0.552 -0.69,-0.7 -1.09,-0.977c-2.085,-1.445 -3.812,-3.18 -4.375,-5.75c-0.692,-3.178 0.5,-5.75 2.778,-7.898c5.137,-4.84 15.017,-4.857 20.22,-0.075c4.46,4.103 3.975,9.85 -1.138,13.45c-3.089,2.22 -4.076,6.426 -2.295,9.788c0.433,0.792 0.95,1.102 1.878,1.097c6.95,-0.04 13.905,0 20.855,-0.035c0.8,0 1.177,0.098 1.175,1.055c-0.028,11.14 0,22.28 0,33.42c-0.008,0.167 -0.025,0.334 -0.05,0.5c-0.005,11.675 -0.003,23.365 0.052,35.05Z" style="fill:url(#_Linear1);fill-rule:nonzero;"/><defs><linearGradient id="_Linear1" x1="0" y1="0" x2="1" y2="0" gradientUnits="userSpaceOnUse" gradientTransform="matrix(7.55806e-15,123.433,-123.432,7.55806e-15,63.9944,2.23152)"><stop offset="0" style="stop-color:#728dae;stop-opacity:1"/><stop offset="1" style="stop-color:#426080;stop-opacity:1"/></linearGradient></defs></svg>