<?xml version="1.0" encoding="UTF-8" standalone="no"?><!DOCTYPE svg PUBLIC "-//W3C//DTD SVG 1.1//EN" "http://www.w3.org/Graphics/SVG/1.1/DTD/svg11.dtd"><svg width="100%" height="100%" viewBox="0 0 128 128" version="1.1" xmlns="http://www.w3.org/2000/svg" xmlns:xlink="http://www.w3.org/1999/xlink" xml:space="preserve" style="fill-rule:evenodd;clip-rule:evenodd;stroke-linejoin:round;stroke-miterlimit:1.41421;"><rect id="apply" x="0" y="0" width="128" height="128" style="fill:none;"/><path id="Ebene_4_Kopie" d="M20.316,64.329c1.35,-1.348 2.948,-2.038 4.797,-2.003c1.827,-0.012 3.414,0.659 4.756,2.001l15.393,15.395l52.865,-52.865c1.342,-1.343 2.93,-2.006 4.756,-2.021c1.861,0.01 3.459,0.662 4.805,2.009l3.664,3.667c1.354,1.35 2.002,2.956 2,4.828c-0.049,1.857 -0.709,3.445 -2.004,4.738c0,0 -59.37,59.372 -60.272,60.274c-0.902,0.902 -2.817,2.812 -5.812,2.812c-2.995,0 -4.972,-1.973 -5.808,-2.809c-0.836,-0.836 -22.806,-22.809 -22.806,-22.809c-1.342,-1.34 -2.011,-2.932 -2.001,-4.756c-0.034,-1.85 0.653,-3.445 2.003,-4.795l3.664,-3.666Z" style="fill:#1ca037;fill-rule:nonzero;"/></svg>