<?xml version="1.0" encoding="UTF-8" standalone="no"?>
<!DOCTYPE svg PUBLIC "-//W3C//DTD SVG 1.1//EN" "http://www.w3.org/Graphics/SVG/1.1/DTD/svg11.dtd">
<svg width="100%" height="100%" viewBox="0 0 128 128" version="1.1" xmlns="http://www.w3.org/2000/svg" xmlns:xlink="http://www.w3.org/1999/xlink" xml:space="preserve" style="fill-rule:evenodd;clip-rule:evenodd;stroke-linejoin:round;stroke-miterlimit:1.41421;">
    <g transform="matrix(1,0,0,1,-384,-320)">
        <g id="ban_list" transform="matrix(1,0,0,1,384,320)">
            <rect x="0" y="0" width="128" height="128" style="fill:none;"/>
            <g transform="matrix(1,0,0,1,0.001,0.004)">
                <path d="M87.07,61.708C101.051,61.708 112.426,73.084 112.426,87.065C112.426,101.046 101.051,112.421 87.07,112.421C73.09,112.421 61.713,101.046 61.713,87.065C61.713,73.084 73.09,61.708 87.07,61.708M87.07,52.137C67.78,52.137 52.142,67.776 52.142,87.066C52.142,106.356 67.78,121.994 87.07,121.994C106.36,121.994 121.998,106.356 121.998,87.066C121.998,67.776 106.36,52.137 87.07,52.137Z" style="fill:rgb(201,7,9);fill-rule:nonzero;"/>
                <g transform="matrix(0.7071,0.7071,-0.7071,0.7071,87.003,-36.0429)">
                    <rect x="82.012" y="53.894" width="9.999" height="66.224" style="fill:rgb(201,7,9);"/>
                </g>
            </g>
            <g transform="matrix(1,0,0,1,0.001,0.004)">
                <path d="M83.302,41.5L78.812,41.5L28.162,41.5L28.133,41.5C26.737,41.5 25.478,40.925 24.57,40.002L24.586,39.986C23.708,39.085 23.162,37.857 23.162,36.5C23.162,33.739 25.401,31.5 28.162,31.5L83.331,31.5C84.727,31.5 85.986,32.075 86.894,32.998L86.878,33.015C87.756,33.916 88.302,35.143 88.302,36.501C88.302,39.261 86.063,41.5 83.302,41.5Z" style="fill:none;"/>
                <path d="M87.445,121.983C106.561,121.781 121.998,106.229 121.998,87.065C121.998,67.775 106.36,52.136 87.07,52.136C67.78,52.136 52.142,67.775 52.142,87.065C52.142,96.834 56.157,105.661 62.621,112L75.964,112L87.445,121.983Z" style="fill:none;"/>
                <path d="M50.231,112L21,112C18.238,112 16,109.762 16,107L16,20.992C16,18.231 18.238,15.992 21,15.992L93.475,15.992C96.237,15.992 98.475,18.231 98.475,20.992C98.475,20.992 98.475,36.454 98.475,44.053C101.997,44.988 105.35,46.343 108.475,48.065L108.475,20.992C108.475,12.721 101.746,5.992 93.475,5.992L21,5.992C12.729,5.992 6,12.721 6,20.992L6,107C6,115.271 12.729,122 21,122L59.555,122C55.961,119.164 52.808,115.795 50.231,112Z" style="fill:rgb(66,97,128);fill-rule:nonzero;"/>
                <path d="M86.894,32.998C85.987,32.075 84.728,31.5 83.331,31.5L83.302,31.5L32.652,31.5L28.162,31.5C25.401,31.5 23.162,33.739 23.162,36.5C23.162,37.857 23.707,39.085 24.586,39.986L24.57,40.002C25.477,40.925 26.736,41.5 28.133,41.5L83.302,41.5C86.063,41.5 88.302,39.261 88.302,36.5C88.302,35.143 87.756,33.915 86.878,33.014L86.894,32.998Z" style="fill:rgb(64,69,71);fill-rule:nonzero;"/>
                <path d="M23.161,64C23.161,66.762 25.4,69 28.161,69L46.417,69C48.028,65.389 50.1,62.029 52.568,59L28.161,59C25.4,59 23.161,61.239 23.161,64Z" style="fill:rgb(64,69,71);fill-rule:nonzero;"/>
                <path d="M23.161,91.5C23.161,94.262 25.4,96.5 28.161,96.5L43.586,96.5C42.926,93.457 42.57,90.303 42.57,87.065C42.57,86.876 42.582,86.689 42.584,86.5L28.161,86.5C25.4,86.5 23.161,88.738 23.161,91.5Z" style="fill:rgb(64,69,71);fill-rule:nonzero;"/>
            </g>
        </g>
    </g>
</svg>
