<?xml version="1.0" encoding="UTF-8" standalone="no"?>
<!DOCTYPE svg PUBLIC "-//W3C//DTD SVG 1.1//EN" "http://www.w3.org/Graphics/SVG/1.1/DTD/svg11.dtd">
<svg width="100%" height="100%" viewBox="0 0 128 128" version="1.1" xmlns="http://www.w3.org/2000/svg" xmlns:xlink="http://www.w3.org/1999/xlink" xml:space="preserve" style="fill-rule:evenodd;clip-rule:evenodd;stroke-linejoin:round;stroke-miterlimit:1.41421;">
    <g transform="matrix(1,0,0,1,-384,-800)">
        <g id="bookmark_duplicate" transform="matrix(1,0,0,1.09402,384,362.393)">
            <rect x="0" y="400" width="128" height="117" style="fill:none;"/>
            <g transform="matrix(1,0,0,0.914062,0.0115,400)">
                <path d="M46.499,90.25L46.499,81.501L37.751,81.501C34.012,81.501 30.521,80.031 27.93,77.373C25.396,74.778 24,71.361 24,67.752L24,60.253C24,56.567 25.421,53.112 28.018,50.509C30.608,47.923 34.065,46.498 37.751,46.498L46.499,46.498L46.499,37.751C46.499,34.06 47.925,30.602 50.524,28.003C52.811,25.722 55.775,24.351 58.977,24.062L58.977,9L8.977,9L8.977,119L33.979,101.135L58.977,119L58.977,103.937C55.733,103.642 52.738,102.232 50.446,99.889C47.901,97.295 46.499,93.871 46.499,90.25Z" style="fill:rgb(66,97,128);fill-rule:nonzero;"/>
                <path d="M69,9L69,24.061C72.212,24.345 75.188,25.718 77.489,28.015C80.076,30.604 81.501,34.061 81.501,37.751L81.501,46.498L90.25,46.498C93.938,46.498 97.395,47.923 99.989,50.517C102.576,53.105 104,56.563 104,60.253L104,67.752C104,71.366 102.602,74.786 100.081,77.36C97.481,80.03 93.99,81.501 90.25,81.501L81.501,81.501L81.501,90.25C81.501,93.94 80.075,97.398 77.487,99.987C75.193,102.281 72.216,103.655 69,103.939L69,119L94.002,101.135L119,119L119,9L69,9Z" style="fill:rgb(66,97,128);fill-rule:nonzero;"/>
            </g>
            <g transform="matrix(1,0,0,0.914062,0.0115,400)">
                <path d="M90.25,71.501L71.501,71.501L71.501,90.25C71.501,91.301 71.138,92.194 70.416,92.916C69.693,93.639 68.806,94 67.752,94L60.253,94C59.198,94 58.309,93.627 57.586,92.888C56.864,92.152 56.5,91.266 56.5,90.25L56.5,71.501L37.751,71.501C36.696,71.501 35.806,71.126 35.084,70.385C34.362,69.646 34,68.772 34,67.752L34,60.253C34,59.197 34.362,58.309 35.083,57.586C35.805,56.865 36.696,56.499 37.75,56.499L56.498,56.499L56.498,37.751C56.498,36.696 56.862,35.806 57.584,35.084C58.309,34.362 59.198,34 60.253,34L67.752,34C68.806,34 69.693,34.362 70.416,35.083C71.138,35.805 71.501,36.696 71.501,37.75L71.501,56.497L90.25,56.497C91.301,56.497 92.194,56.863 92.916,57.584C93.639,58.309 94,59.197 94,60.253L94,67.752C94,68.773 93.639,69.647 92.916,70.385C92.194,71.126 91.301,71.501 90.25,71.501Z" style="fill:rgb(28,160,55);fill-rule:nonzero;"/>
            </g>
        </g>
    </g>
</svg>
