<?xml version="1.0" encoding="UTF-8" standalone="no"?><!DOCTYPE svg PUBLIC "-//W3C//DTD SVG 1.1//EN" "http://www.w3.org/Graphics/SVG/1.1/DTD/svg11.dtd"><svg width="100%" height="100%" viewBox="0 0 128 128" version="1.1" xmlns="http://www.w3.org/2000/svg" xmlns:xlink="http://www.w3.org/1999/xlink" xml:space="preserve" style="fill-rule:evenodd;clip-rule:evenodd;stroke-linejoin:round;stroke-miterlimit:1.41421;"><rect id="bookmark_remove" x="0" y="0" width="128" height="128" style="fill:none;"/><path d="M39.078,119l-15.037,-14.865l-15.041,14.865l0,-110l30.078,0l0,110Z" style="fill:#022f5d;fill-rule:nonzero;"/><g><path d="M102.042,65.092l12.528,0c1.532,0 3.021,0.252 4.43,0.714l0,-56.806l-30.078,0l0,56.092l13.12,0Z" style="fill:#819cbd;fill-rule:nonzero;"/><path d="M65.093,65.092l13.946,0l0,-56.092l-30.078,0l0,56.566c1.162,-0.303 2.367,-0.475 3.603,-0.475l12.529,0l0,0.001Z" style="fill:#426180;fill-rule:nonzero;"/></g><path d="M114.57,92.427l-62.006,0c-1.246,0 -2.295,-0.439 -3.15,-1.318c-0.854,-0.876 -1.28,-1.908 -1.28,-3.11l0,-8.857c0,-1.246 0.426,-2.295 1.28,-3.15c0.854,-0.854 1.904,-1.283 3.15,-1.283l62.006,0c1.242,0 2.295,0.43 3.146,1.283c0.857,0.855 1.283,1.904 1.283,3.15l0,8.857c0,1.202 -0.426,2.234 -1.283,3.11c-0.851,0.878 -1.903,1.318 -3.146,1.318Z" style="fill:#c90709;fill-rule:nonzero;"/></svg>