<?xml version="1.0" encoding="UTF-8" standalone="no"?><!DOCTYPE svg PUBLIC "-//W3C//DTD SVG 1.1//EN" "http://www.w3.org/Graphics/SVG/1.1/DTD/svg11.dtd"><svg width="100%" height="100%" viewBox="0 0 128 128" version="1.1" xmlns="http://www.w3.org/2000/svg" xmlns:xlink="http://www.w3.org/1999/xlink" xml:space="preserve" style="fill-rule:evenodd;clip-rule:evenodd;stroke-linejoin:round;stroke-miterlimit:1.41421;"><rect id="broken_image" x="0" y="0" width="128" height="128" style="fill:none;"/><path d="M64.012,18.988c24.813,0 45,20.194 45,45.016c0,24.821 -20.187,45.016 -45,45.016c-24.813,0 -45,-20.194 -45,-45.016c0,-24.822 20.187,-45.016 45,-45.016m0,-10c-30.376,0 -55,24.631 -55,55.016c0,30.385 24.624,55.016 55,55.016c30.376,0 55,-24.631 55,-55.016c0,-30.385 -24.624,-55.016 -55,-55.016Z" style="fill:#c90709;fill-rule:nonzero;"/><path d="M105.036,30.036l-75,75l-7.072,-7.072l75,-75l7.072,7.072Z" style="fill:#c90709;"/></svg>