<?xml version="1.0" encoding="UTF-8" standalone="no"?><!DOCTYPE svg PUBLIC "-//W3C//DTD SVG 1.1//EN" "http://www.w3.org/Graphics/SVG/1.1/DTD/svg11.dtd"><svg width="100%" height="100%" viewBox="0 0 128 128" version="1.1" xmlns="http://www.w3.org/2000/svg" xmlns:xlink="http://www.w3.org/1999/xlink" xml:space="preserve" style="fill-rule:evenodd;clip-rule:evenodd;stroke-linejoin:round;stroke-miterlimit:1.41421;"><rect id="browse.-addon.-online" x="0" y="0" width="128" height="128" style="fill:none;"/><path d="M116.625,93.093c2.935,-5.088 5.19,-10.448 6.45,-16.203c1,-4.588 1.905,-9.21 1.668,-13.925c-0.113,-2.208 -0.203,-4.432 -0.38,-6.642c-0.331,-3.7 -1.048,-7.355 -2.14,-10.905c-0.023,-0.208 -0.059,-0.415 -0.108,-0.618c-1.666,-5.402 -4.09,-10.541 -7.2,-15.262c-3.509,-5.438 -7.898,-10.254 -12.988,-14.251c-14.24,-11.132 -30.35,-15.287 -48.165,-12.399c-11.482,1.862 -21.592,6.822 -30.262,14.58c-8.67,7.757 -14.75,17.225 -17.94,28.462c-4.204,14.764 -2.686,30.585 4.25,44.28c14.155,27.54 46.44,40.13 75.367,29.343c0.905,-0.338 1.348,-0.108 1.935,0.499c3.56,3.683 7.955,5.643 13.043,5.778c6.5,0.172 11.917,-2.17 15.942,-7.455c2.525,-3.313 4.108,-6.925 4.065,-11.15l-0.017,-2.552c-0.23,-3.525 -1.558,-6.635 -3.56,-9.5c-0.25,-0.37 -0.698,-0.653 -0.653,-1.19c0.37,-0.188 0.505,-0.565 0.693,-0.89Zm-7.625,-5.15c0.855,-2.892 2.204,-5.614 3.987,-8.045c0.428,-0.583 0.701,-1.353 1.516,-1.585c0.092,0.289 0.074,0.602 -0.051,0.88c-0.994,3.057 -2.278,6.013 -3.832,8.827c-0.275,0.5 -0.515,0.985 -1.25,0.608c-0.37,-0.178 -0.463,-0.378 -0.37,-0.685Zm-5.34,-49.638c0.25,-0.387 0.672,-0.322 1.037,-0.25c0.833,0.148 1.611,0.519 2.25,1.073c-0.842,0.22 -1.527,0.415 -2.222,0.572c-0.418,0.133 -0.876,-0.045 -1.095,-0.425c-0.186,-0.299 -0.174,-0.683 0.03,-0.97Zm-7.06,8.365c0.466,-0.093 0.832,-0.461 0.922,-0.928c0.275,-0.749 0.548,-1.499 0.83,-2.249c0.305,-0.81 0.733,-0.98 1.378,-0.288c0.75,0.807 1.522,1.593 2.3,2.375c0.947,0.95 2,1.275 3.177,0.41c0.41,-0.318 0.955,-0.405 1.443,-0.23c0.385,0.385 0.68,0.888 1.317,0.925c0.513,0.032 0.75,0.343 0.75,0.847c0.036,0.439 -0.238,0.847 -0.657,0.98c-0.884,0.322 -1.848,0.351 -2.75,0.085c-0.66,-0.162 -1.298,-0.425 -1.96,-0.562c-0.663,-0.138 -1.46,-0.355 -1.928,0.25c-0.665,0.862 -1.25,0.66 -2.067,0.267c-0.873,-0.42 -1.843,-0.635 -2.763,-0.957c-0.277,-0.098 -0.61,-0.198 -0.627,-0.558c-0.035,-0.484 0.377,-0.309 0.635,-0.367Zm-9.315,-4.33c-0.04,-0.121 -0.023,-0.255 0.045,-0.362c0.692,-0.64 1.31,-1.453 2.127,-1.853c1.133,-0.552 1.75,-0.02 2.145,1.365c0.16,0.553 0.105,1.348 1,1.408c0.5,0.032 0.763,-0.335 1,-0.683c0.293,-0.44 -0.47,-0.835 -0.042,-1.355c0.812,0.213 1.407,0.808 2.165,1.31c-0.435,0.5 -1.17,0.62 -1.153,1.425c0,0.475 -0.525,0.25 -0.825,0.31c-1.912,0.41 -3.915,0.053 -5.797,0.688c-0.323,0.107 -0.638,0.225 -0.958,0.34c-0.391,0.176 -0.826,0.233 -1.25,0.162c0.958,-0.67 1.975,-1.303 1.543,-2.755Zm4.855,-14.09c-0.075,-0.715 0.07,-1.363 0.912,-1.31c0.795,0.045 1.1,0.652 1.09,1.422c-0.012,0.965 -0.762,0.85 -1.355,0.91c-0.84,0.09 -0.632,-0.555 -0.647,-1.022Zm-56.25,-2.735c0.347,-0.64 0.945,-0.975 1.535,-1.25c1.095,-0.5 2.25,-0.898 3.392,-1.343c0.44,0.158 0.868,0.333 1.305,0.47c0.535,0.165 0.618,0.548 0.225,0.825c-1.605,1.135 -2.53,3.098 -4.53,3.728c-0.475,0.147 -1.095,0.662 -1.465,-0.058c-0.37,-0.72 -0.965,-1.432 -0.462,-2.362l0,-0.01Zm7.372,7.75c0.403,-0.098 0.79,-0.063 0.948,0.375c0.157,0.437 -0.045,0.66 -0.5,0.825c-0.658,0.25 -1.273,0.6 -2.263,1.085c0.658,-1.013 0.745,-2.018 1.818,-2.278l-0.003,-0.007Zm1.19,78.682c-17.895,-7.63 -28.857,-20.97 -32.702,-40.062c-0.443,-2.175 -0.83,-4.398 -0.803,-6.65c0,-0.448 -0.162,-1 0.483,-1.14c0.507,-0.135 1.045,0.098 1.295,0.56c1.17,1.722 2.66,3.182 3.337,5.285c0.475,1.467 1.89,2.38 3.458,2.75c0.692,0.167 0.967,0.535 1.09,1.202c0.349,1.667 0.36,3.387 0.032,5.058c-0.547,2.555 0.18,4.812 1.978,6.682c1.254,1.332 2.423,2.742 3.5,4.221c1.432,1.934 3.07,3.622 5.352,4.587c1.08,0.457 1.87,1.317 2.5,2.3c4.288,6.702 9.343,12.65 16.383,16.645c0.13,0.072 0.215,0.222 0.5,0.532c-2.202,-0.403 -4.35,-1.061 -6.4,-1.96l-0.003,-0.01Zm-27.075,-48.935c-1.547,-1.11 -1.547,-1.117 -0.83,-2.882c0.158,-0.388 0.348,-0.765 0.523,-1.155c0.632,0.167 0.872,0.697 1.215,1.112c0.342,0.415 0.595,1.053 1.385,0.88c0.405,-0.09 0.387,0.34 0.5,0.59c0.632,1.295 1.337,1.563 2.522,0.835c0.574,-0.358 1.255,-0.506 1.925,-0.417c1.817,0.183 3.635,0.341 5.455,0.472c1.05,0.078 1.645,0.58 1.75,1.635c0.145,1.298 0.558,2.558 0.5,3.89c-0.03,0.723 -0.25,1.053 -1,0.798c-0.702,-0.25 -1.43,-0.138 -2.147,-0.143c-0.6,0.029 -1.187,-0.187 -1.625,-0.597c-0.697,-0.705 -1.648,-1.103 -2.639,-1.103c-1.218,0 -2.362,0.6 -3.054,1.603c-0.657,0.907 -2.11,1.295 -3.04,0.825c-0.392,-0.198 -0.337,-0.58 -0.345,-0.88c-0.02,-1.018 0,-2.035 0.035,-3.055c0.075,-0.945 -0.355,-1.861 -1.13,-2.408l0,0Zm64.31,41.918c-0.147,2.177 -0.115,4.355 0.525,6.45c0.268,0.88 -0.067,1.14 -0.75,1.372c-6.783,2.307 -13.954,3.257 -21.105,2.795c-0.595,-0.037 -1.187,-0.14 -1.78,-0.145c-0.927,0 -1.7,-0.015 -1.5,-1.37c0.108,-0.777 -0.75,-1.185 -1.555,-0.725c-0.805,0.46 -1.352,0.25 -1.897,-0.365c-0.938,-1.045 -2.143,-1.825 -2.93,-3.017c-0.16,-0.25 -0.473,-0.588 -0.403,-0.75c0.64,-1.435 0.065,-3.063 0.763,-4.488c0.582,-1.113 0.626,-2.432 0.12,-3.582c-0.313,-0.725 -0.313,-1.398 0.545,-1.663c2.28,-0.722 3.03,-2.552 3.03,-4.65c-0.014,-2.553 0.621,-5.069 1.845,-7.31c1.03,-1.9 0.467,-3.412 -1.373,-4.565c-1.562,-0.98 -3.25,-1.797 -5.08,-1.942c-2.585,-0.205 -4.475,-1.45 -6.105,-3.3c-0.675,-0.77 -1.337,-1.545 -2.03,-2.293c-1.12,-1.183 -2.614,-1.949 -4.23,-2.167c-2.105,-0.345 -2.5,-0.958 -1.812,-2.92c0.262,-0.75 0.25,-1.25 -0.645,-1.4c-0.733,-0.113 -0.95,-0.573 -0.985,-1.25c-0.068,-1.188 -0.25,-2.368 -0.198,-3.565c0.088,-1.705 -0.53,-2.628 -2.187,-3.085c-1.473,-0.408 -2.983,-0.673 -4.475,-1.018c-1.023,-0.235 -1.793,-0.765 -2.025,-1.87c-0.133,-0.612 -0.52,-0.965 -1.095,-0.635c-0.75,0.435 -1.283,0.14 -1.855,-0.282c-0.41,-0.303 -0.843,-0.575 -1.27,-0.855c-1.765,-1.178 -2.058,-1.163 -3.655,0.187c-0.376,0.35 -0.845,0.583 -1.35,0.673c-1.053,0.145 -2.02,0.39 -2.29,1.645c-0.046,0.242 -0.259,0.42 -0.506,0.42c-0.061,0 -0.122,-0.011 -0.179,-0.033c-0.45,-0.122 -0.54,-0.5 -0.555,-0.905c-0.088,-2.009 0.405,-4.001 1.42,-5.737c0.232,-0.405 0.545,-0.77 0.75,-1.18c0.522,-1 1.19,-1.398 2.227,-0.658c0.373,0.263 0.763,0.223 1.2,0.028c1.335,-0.595 1.875,-0.195 1.75,1.25c-0.167,1.887 0.25,2.605 1.933,3.392c0.462,0.218 0.89,0.355 1.27,-0.082c0.38,-0.438 0.32,-0.82 0.055,-1.29c-1.313,-2.353 -0.135,-5.878 2.385,-7.063c0.454,-0.208 0.875,-0.482 1.25,-0.812c0.574,-0.258 1.068,-0.665 1.43,-1.18c1.462,-1.893 2.68,-4.103 5.442,-4.463c0.69,-0.09 1.125,-0.78 1.5,-1.32c0.568,-0.835 1.235,-1.027 2.158,-0.775c0.815,0.255 1.698,0.176 2.455,-0.22c1.115,-0.57 2.342,-0.927 3.455,-1.5c0.96,-0.5 2.192,-0.862 3.272,-0.727c1.895,0.25 2.445,-0.233 2.588,-2.18c0.037,-0.422 0.109,-0.84 0.215,-1.25c0.275,-1.125 0.37,-2.093 -0.34,-3.25c-1.173,-1.91 0.025,-5.095 2,-6.083c3.132,-1.557 3.14,-1.56 2.25,-4.96c-0.22,-0.835 -0.198,-1.547 0.792,-1.795c0.89,-0.222 1.765,-1.61 2.71,-0.08c0.146,0.21 0.363,0.359 0.61,0.42c0.48,0.168 1.185,0.03 1.228,0.84c0.047,0.913 0.275,1.793 -0.66,2.545c-1.473,1.188 -1.845,2.83 -1.275,4.608c0.622,1.94 2.557,2.29 3.972,0.855c2.25,-2.273 5.073,-3.56 8.14,-4.213c3.153,-0.672 4.785,-2.43 4.16,-5.25c-0.127,-0.467 0.05,-0.967 0.443,-1.25c0.685,-0.54 0.512,-0.977 -0.165,-1.36c-3.295,-1.845 -6.688,-2.697 -10.323,-1c-0.537,0.303 -1.216,0.21 -1.652,-0.227c-0.088,-0.09 -0.183,-0.173 -0.283,-0.25c-2.405,-1.728 -2.167,-1.75 -4.262,-0.27c-1,0.71 -1.988,1.55 -3.453,1.362c-0.925,-0.12 -1.22,1.07 -2.04,1.538c-0.15,-0.973 -0.62,-1.278 -1.45,-0.69c-0.382,0.272 -0.815,0.225 -1.23,0.122c-1.42,-0.33 -2.91,-0.197 -4.25,0.38c-1.96,0.795 -4.082,1.23 -5.832,2.5c-0.385,0.278 -0.773,0.278 -0.98,-0.112c-0.208,-0.39 0.192,-0.5 0.5,-0.67c5.961,-3.256 12.487,-5.349 19.23,-6.165c3.753,-0.504 7.55,-0.594 11.322,-0.27c5.727,0.52 11.33,1.967 16.593,4.282c1.622,0.718 3.28,1.405 4.777,2.335c1.498,0.93 2.75,2.108 4.168,3.215c-0.32,0.5 -0.703,0.37 -1.113,0.265c-1.232,-0.315 -2.47,-0.627 -3.71,-0.905c-1.765,-0.39 -2.925,0.293 -3.38,2c-0.321,1.264 -0.707,2.511 -1.155,3.735c-0.5,1.32 0.865,2.325 1.658,3.333c0.175,0.222 0.522,0.31 0.707,0.527c0.528,0.618 0.85,1.278 0.195,2.038c-0.655,0.76 -1.332,0.795 -2.077,0.115c-0.875,-0.8 -1.843,-1.5 -2.265,-2.703c-0.198,-0.555 -0.713,-0.825 -1.193,-1.102c-0.815,-0.475 -1.42,-0.263 -1.662,0.637c-0.215,0.873 -0.743,1.636 -1.483,2.145c-0.655,0.468 -0.887,2.098 -0.465,2.82c0.5,0.845 1.223,0.573 1.918,0.358c0.59,-0.185 0.937,-0.095 1.075,0.612c0.262,1.345 0.855,2.483 2.25,3.023c0.52,0.202 0.642,0.652 0.445,1.162c-0.223,0.573 -0.698,0.618 -1.153,0.4c-0.615,-0.297 -1.232,-0.267 -1.865,-0.182c-0.447,0.062 -0.942,0.282 -0.965,0.712c-0.095,1.75 -0.707,3.483 0.025,5.25c0.403,0.975 1.128,1.388 2,1.725c-0.015,0.438 -0.337,0.673 -0.622,0.92c-1.03,0.89 -2.018,1.75 -2.328,3.225c-0.182,0.878 -1.1,1.345 -1.88,1.813c-2.907,1.75 -5,6.75 -4.22,10.025c0.149,0.668 0.017,1.369 -0.365,1.937c-1.02,1.685 -0.782,3.308 0.173,4.93c1.637,2.842 3.997,5.202 6.84,6.838c0.497,0.294 1.085,0.397 1.652,0.29c1.968,-0.28 3.963,-0.365 5.938,-0.578c0.581,-0.102 1.153,-0.251 1.71,-0.445c0.685,-0.187 1.455,-0.272 1.872,0.335c0.523,0.763 1.16,1 2.018,1.095c0.952,0.095 1.435,0.685 0.932,1.598c-0.962,1.75 -0.75,3.36 0.073,5.097c0.85,1.823 0.52,3.75 0,5.62c-0.283,0.485 -0.828,0.563 -1.27,0.798c-6.358,3.41 -10.095,8.562 -10.773,15.805Zm19.45,14.972c-7.485,0 -13.644,-6.159 -13.644,-13.644c0,-7.486 6.159,-13.645 13.645,-13.645c7.482,0 13.64,6.154 13.644,13.637c0.001,0.002 0.001,0.005 0.001,0.008c0,7.485 -6.16,13.645 -13.645,13.645c0,0 0,0 -0.001,-0.001Z" style="fill:url(#_Linear1);fill-rule:nonzero;"/><rect x="0" y="0" width="0.11" height="0.11" style="fill:none;"/><path d="M103.103,103.185c-0.421,0 -0.501,-0.127 -0.488,-0.5c0.02,-2.205 0.013,-4.41 0,-6.615c0,-0.605 -0.25,-0.975 -0.813,-1.017c-0.998,-0.068 -2.001,-0.068 -2.999,-0.001c-0.488,0.031 -0.648,0.251 -0.731,0.725c-0.017,0.131 -0.024,0.264 -0.02,0.395c0,2.178 0,4.358 0.015,6.535c0,0.421 -0.125,0.501 -0.5,0.501c-1.53,-0.023 -3.062,-0.001 -4.592,-0.001c-0.713,0.001 -1.425,0.001 -2.14,0.001c-0.663,-0.001 -0.94,0.412 -0.928,0.954c0.02,0.818 0,1.638 0,2.456c-0.007,0.263 0.038,0.526 0.133,0.772c0.245,0.265 0.601,0.398 0.96,0.36c2.217,-0.02 4.435,0 6.65,-0.017c0.335,-0.001 0.412,0.09 0.412,0.415c-0.012,2.23 0,4.459 0,6.692c0,0.715 0.333,1.045 1.04,1.047c0.793,0.001 1.583,0.001 2.375,0.001c0.85,-0.001 1.15,-0.296 1.15,-1.138c0,-2.19 0.013,-4.38 0,-6.573c0,-0.377 0.115,-0.447 0.463,-0.444c2.205,0.015 4.407,0 6.612,0c0.36,0.025 0.712,-0.12 0.948,-0.393c0.088,-0.261 0.133,-0.535 0.132,-0.81c0,-0.75 0,-1.48 0,-2.217c0,-0.843 -0.302,-1.15 -1.14,-1.15c-2.182,0.01 -4.362,-0.003 -6.54,0.022Z" style="fill:#fff;fill-rule:nonzero;"/><path d="M120.7,103.525c-0.217,-1.643 -0.654,-3.249 -1.3,-4.775c-1.086,-2.684 -2.77,-5.086 -4.925,-7.02c-4.905,-4.38 -10.64,-6.04 -17.085,-4.828c-5.85,1.1 -10.315,4.341 -13.343,9.471c-2.129,3.564 -3.032,7.731 -2.569,11.857c0.015,0.132 0.032,0.267 0.047,0.4c0.358,3.112 1.348,6 3.153,8.573c4.597,6.522 10.905,9.5 18.847,8.657c5.815,-0.627 10.408,-3.515 13.798,-8.285c0.794,-1.141 1.472,-2.36 2.022,-3.637c0.802,-1.818 1.188,-3.75 1.44,-5.708c0.178,-1.565 0.15,-3.147 -0.085,-4.705Zm-17.25,12.25c0,0.86 -0.308,1.16 -1.175,1.162c-0.81,0 -1.618,0 -2.428,0c-0.725,0 -1.062,-0.34 -1.062,-1.07c0,-2.277 0,-4.557 0,-6.835c0,-0.332 -0.078,-0.427 -0.42,-0.425c-2.265,0.015 -4.53,0 -6.795,0.018c-0.372,0.03 -0.737,-0.121 -0.98,-0.405c-0.097,-0.251 -0.143,-0.519 -0.135,-0.788c0,-0.837 0.015,-1.672 0,-2.5c-0.013,-0.555 0.27,-0.98 0.947,-0.975c0.728,0 1.458,0 2.185,0c1.565,0 3.13,-0.012 4.693,0c0.39,0 0.525,-0.07 0.52,-0.5c-0.028,-2.225 -0.015,-4.45 -0.015,-6.675c-0.005,-0.134 0.002,-0.269 0.02,-0.402c0.082,-0.5 0.25,-0.71 0.75,-0.75c1.022,-0.07 2.048,-0.07 3.07,0c0.57,0.042 0.83,0.42 0.83,1.04c0,2.25 0,4.5 0,6.75c0,0.39 0.067,0.525 0.5,0.52c2.225,-0.025 4.45,0 6.675,0c0.852,0 1.162,0.315 1.162,1.175c0,0.75 0,1.5 0,2.267c0.002,0.282 -0.044,0.562 -0.135,0.828c-0.241,0.278 -0.6,0.426 -0.967,0.4c-2.25,0 -4.5,0 -6.75,0c-0.355,0 -0.475,0.07 -0.473,0.455c0.008,2.227 -0.002,4.467 -0.004,6.705l-0.013,0.005Z" style="fill:url(#_Linear2);fill-rule:nonzero;"/><defs><linearGradient id="_Linear1" x1="0" y1="0" x2="1" y2="0" gradientUnits="userSpaceOnUse" gradientTransform="matrix(8.01945e-15,130.968,-130.968,8.01945e-15,64,-2.9575)"><stop offset="0" style="stop-color:#728dae;stop-opacity:1"/><stop offset="1" style="stop-color:#426080;stop-opacity:1"/></linearGradient><linearGradient id="_Linear2" x1="0" y1="0" x2="1" y2="0" gradientUnits="userSpaceOnUse" gradientTransform="matrix(4.03843e-15,65.9525,-65.9525,4.03843e-15,101.138,72.0525)"><stop offset="0" style="stop-color:#728dae;stop-opacity:1"/><stop offset="1" style="stop-color:#426080;stop-opacity:1"/></linearGradient></defs></svg>