<?xml version="1.0" encoding="UTF-8" standalone="no"?><!DOCTYPE svg PUBLIC "-//W3C//DTD SVG 1.1//EN" "http://www.w3.org/Graphics/SVG/1.1/DTD/svg11.dtd"><svg width="100%" height="100%" viewBox="0 0 128 128" version="1.1" xmlns="http://www.w3.org/2000/svg" xmlns:xlink="http://www.w3.org/1999/xlink" xml:space="preserve" style="fill-rule:evenodd;clip-rule:evenodd;stroke-linejoin:round;stroke-miterlimit:1.41421;"><rect id="capture" x="0" y="0" width="128" height="128" style="fill:none;"/><path d="M13.654,114.345c6.199,6.202 16.242,6.207 22.451,0.015l-22.466,-22.464c-6.191,6.206 -6.185,16.249 0.015,22.449Z" style="fill:#878b8c;fill-rule:nonzero;"/><path d="M52.557,52.975l-3.305,3.306l-29.534,29.534l22.466,22.466l29.533,-29.533l3.308,-3.306c-4.953,-1.932 -9.593,-4.885 -13.588,-8.881c-3.994,-3.993 -6.948,-8.635 -8.88,-13.586Z" style="fill:#878b8c;fill-rule:nonzero;"/><path d="M110.371,17.63c-11.509,-11.507 -30.234,-11.506 -41.743,0.001c-11.505,11.507 -11.505,30.231 0,41.738c11.509,11.507 30.232,11.507 41.741,0.001c11.507,-11.508 11.507,-30.234 0.002,-41.74Z" style="fill:#404547;fill-rule:nonzero;"/></svg>