<?xml version="1.0" encoding="UTF-8" standalone="no"?>
<!DOCTYPE svg PUBLIC "-//W3C//DTD SVG 1.1//EN" "http://www.w3.org/Graphics/SVG/1.1/DTD/svg11.dtd">
<svg width="100%" height="100%" viewBox="0 0 128 128" version="1.1" xmlns="http://www.w3.org/2000/svg" xmlns:xlink="http://www.w3.org/1999/xlink" xml:space="preserve" style="fill-rule:evenodd;clip-rule:evenodd;stroke-linejoin:round;stroke-miterlimit:1.41421;">
    <g transform="matrix(1,0,0,1,-768,-800)">
        <g id="channel_delete" transform="matrix(1,0,0,1.09402,768,362.393)">
            <rect x="0" y="400" width="128" height="117" style="fill:none;"/>
            <g transform="matrix(1,0,0,0.914062,0,399.158)">
                <path d="M95.651,13.426L32.347,13.426C19.454,13.426 9,23.88 9,36.774L9,67.073C9,79.97 19.454,90.421 32.347,90.421L66.886,90.421C68.921,95.782 71.005,106.706 59.984,116.416C80.129,112.675 89.59,96.904 92.686,90.421L95.652,90.421C108.545,90.421 119,79.97 119,67.073L119,36.774C119,23.88 108.545,13.426 95.651,13.426Z" style="fill:rgb(135,139,140);fill-rule:nonzero;"/>
            </g>
            <g transform="matrix(1,0,0,0.914062,0,399.158)">
                <path d="M86.919,39.061L74.215,51.764L86.92,64.469C87.634,65.183 87.991,66.031 87.991,67.009C87.991,67.989 87.634,68.835 86.919,69.55L81.837,74.632C81.123,75.346 80.27,75.697 79.277,75.684C78.284,75.671 77.445,75.321 76.756,74.632L64.052,61.928L51.348,74.632C50.633,75.346 49.78,75.697 48.787,75.684C47.795,75.671 46.955,75.321 46.266,74.632L41.184,69.55C40.469,68.835 40.112,67.989 40.112,67.009C40.112,66.03 40.469,65.183 41.184,64.468L53.888,51.764L41.185,39.061C40.47,38.346 40.113,37.5 40.113,36.519C40.113,35.541 40.47,34.694 41.185,33.979L46.267,28.897C46.982,28.182 47.829,27.826 48.807,27.825C49.787,27.825 50.634,28.182 51.349,28.897L64.053,41.601L76.757,28.897C77.471,28.182 78.319,27.826 79.298,27.825C80.277,27.826 81.124,28.182 81.839,28.897L86.92,33.979C87.608,34.667 87.959,35.508 87.972,36.5C87.984,37.493 87.634,38.346 86.919,39.061Z" style="fill:rgb(201,7,9);fill-rule:nonzero;"/>
            </g>
        </g>
    </g>
</svg>
