<?xml version="1.0" encoding="UTF-8" standalone="no"?><!DOCTYPE svg PUBLIC "-//W3C//DTD SVG 1.1//EN" "http://www.w3.org/Graphics/SVG/1.1/DTD/svg11.dtd"><svg width="100%" height="100%" viewBox="0 0 128 128" version="1.1" xmlns="http://www.w3.org/2000/svg" xmlns:xlink="http://www.w3.org/1999/xlink" xml:space="preserve" style="fill-rule:evenodd;clip-rule:evenodd;stroke-linejoin:round;stroke-miterlimit:1.41421;"><rect id="channel_private" x="0" y="0" width="128" height="128" style="fill:none;"/><path d="M95.651,12.505l-63.304,0c-12.893,0 -23.347,10.454 -23.347,23.348l0,30.299c0,12.897 10.454,23.348 23.347,23.348l34.539,0c2.035,5.361 4.119,16.285 -6.902,25.995c20.145,-3.741 29.606,-19.512 32.702,-25.995l2.966,0c12.893,0 23.348,-10.451 23.348,-23.348l0,-30.299c0,-12.894 -10.455,-23.348 -23.349,-23.348Z" style="fill:#878b8c;fill-rule:nonzero;"/><g><path d="M54.008,39.823c0,-2.813 0.981,-5.204 2.942,-7.172c1.961,-1.969 4.319,-2.954 7.078,-2.954c2.759,0 5.106,0.985 7.055,2.954c1.941,1.968 2.914,4.358 2.914,7.172l0,7.612l6.658,0l0,-7.612c0,-3.061 -0.743,-5.881 -2.238,-8.464c-1.491,-2.584 -3.509,-4.632 -6.059,-6.144c-2.551,-1.51 -5.336,-2.268 -8.356,-2.268c-3.018,0 -5.803,0.758 -8.354,2.268c-2.55,1.511 -4.571,3.56 -6.064,6.144c-1.489,2.583 -2.238,5.404 -2.238,8.464l0,7.612l6.663,0l0,-7.612l-0.001,0Z" style="fill:#101719;fill-rule:nonzero;"/><path d="M43.271,46.654l41.482,0c0.609,0.133 1.143,0.429 1.602,0.894c0.643,0.651 0.964,1.45 0.964,2.399l0,23.624c0,0.946 -0.321,1.748 -0.964,2.399c-0.644,0.652 -1.428,0.977 -2.368,0.977l-39.973,0c-0.904,0 -1.683,-0.324 -2.342,-0.977c-0.659,-0.651 -0.99,-1.453 -0.99,-2.399l0,-23.624c0,-0.949 0.331,-1.748 0.99,-2.399c0.471,-0.465 1.003,-0.761 1.599,-0.894Zm24.375,9.198c0,-1.355 -1.099,-2.455 -2.455,-2.455l-2.383,0c-1.355,0 -2.455,1.1 -2.455,2.455l0,12.688c0,1.356 1.1,2.455 2.455,2.455l2.383,0c1.356,0 2.455,-1.099 2.455,-2.455l0,-12.688Z" style="fill:#101719;fill-rule:nonzero;"/></g></svg>