<?xml version="1.0" encoding="UTF-8" standalone="no"?>
<!DOCTYPE svg PUBLIC "-//W3C//DTD SVG 1.1//EN" "http://www.w3.org/Graphics/SVG/1.1/DTD/svg11.dtd">
<svg width="100%" height="100%" viewBox="0 0 128 128" version="1.1" xmlns="http://www.w3.org/2000/svg" xmlns:xlink="http://www.w3.org/1999/xlink" xml:space="preserve" style="fill-rule:evenodd;clip-rule:evenodd;stroke-linejoin:round;stroke-miterlimit:1.41421;">
    <g transform="matrix(1,0,0,1,-1152,0)">
        <g id="channel_subscribed" transform="matrix(1,0,0,1,1152,0)">
            <rect x="0" y="0" width="128" height="128" style="fill:none;"/>
            <path d="M124.95,66.16C124.65,61.56 124.81,56.94 124.77,52.32C124.84,46.07 124.99,39.81 124.95,33.55C124.88,18.73 114.2,7.38 99.4,7.19C75.8,6.917 52.21,6.917 28.63,7.19C15.3,7.33 3.85,17.79 3.18,30.19C2.77,37.53 3.18,44.92 3.26,52.27C3.26,56.7 3.15,61.12 3.13,65.56C3,81.87 13.68,92.69 29.92,92.8C40.45,92.88 50.97,93.12 61.47,92.69C67.04,92.47 68.12,95.01 68.47,99.69C69.08,107.99 66.17,114.76 59.93,120.69C60.693,120.85 61.47,120.931 62.25,120.93C63.154,120.777 64.047,120.56 64.92,120.28C77.76,116.46 87.08,108.19 93.72,96.83C95.4,93.96 97.14,92.83 100.52,92.62C114,91.82 125.87,80.3 124.95,66.16ZM88.78,41.62C85.19,45 81.87,48.7 78.43,52.26C72.07,58.553 65.713,64.853 59.36,71.16C54.78,75.7 53.36,75.65 48.86,71.05C45.3,67.42 41.75,63.77 37.92,60.44C35.56,58.37 34.49,56.35 35.92,53.44C36.928,52.646 37.874,51.777 38.75,50.84C42.07,46.84 45.33,46.57 48.67,50.84C49.48,51.84 50.6,52.59 51.37,53.61C53.37,56.18 54.89,55.78 57.02,53.55C64.2,46 71.56,38.75 78.87,31.41C83.87,26.41 84.29,26.67 89.95,31.8C94.59,36 92,38.57 88.78,41.62Z" style="fill:url(#_Linear1);fill-rule:nonzero;"/>
            <path d="M124.95,66.16C124.65,61.56 124.81,56.94 124.77,52.32C124.84,46.07 124.99,39.81 124.95,33.55C124.88,18.73 114.2,7.38 99.4,7.19C75.8,6.917 52.21,6.917 28.63,7.19C15.3,7.33 3.85,17.79 3.18,30.19C2.77,37.53 3.18,44.92 3.26,52.27C3.26,56.7 3.15,61.12 3.13,65.56C3,81.87 13.68,92.69 29.92,92.8C40.45,92.88 50.97,93.12 61.47,92.69C67.04,92.47 68.12,95.01 68.47,99.69C69.08,107.99 66.17,114.76 59.93,120.69C60.693,120.85 61.47,120.931 62.25,120.93C63.154,120.777 64.047,120.56 64.92,120.28C77.76,116.46 87.08,108.19 93.72,96.83C95.4,93.96 97.14,92.83 100.52,92.62C114,91.82 125.87,80.3 124.95,66.16ZM88.78,41.62C85.19,45 81.87,48.7 78.43,52.26C72.07,58.553 65.713,64.853 59.36,71.16C54.78,75.7 53.36,75.65 48.86,71.05C45.3,67.42 41.75,63.77 37.92,60.44C35.56,58.37 34.49,56.35 35.92,53.44C36.928,52.646 37.874,51.777 38.75,50.84C42.07,46.84 45.33,46.57 48.67,50.84C49.48,51.84 50.6,52.59 51.37,53.61C53.37,56.18 54.89,55.78 57.02,53.55C64.2,46 71.56,38.75 78.87,31.41C83.87,26.41 84.29,26.67 89.95,31.8C94.59,36 92,38.57 88.78,41.62Z" style="fill:rgb(66,96,128);fill-rule:nonzero;"/>
            <rect x="0" y="127.56" width="0.44" height="0.44" style="fill:none;"/>
            <rect x="127.56" y="127.56" width="0.44" height="0.44" style="fill:none;"/>
            <rect x="127.56" y="0" width="0.44" height="0.44" style="fill:none;"/>
            <rect x="0" y="0" width="0.44" height="0.44" style="fill:none;"/>
        </g>
    </g>
    <defs>
        <linearGradient id="_Linear1" x1="0" y1="0" x2="1" y2="0" gradientUnits="userSpaceOnUse" gradientTransform="matrix(8.72193e-15,142.44,-142.44,8.72193e-15,64,-0.74)"><stop offset="0" style="stop-color:rgb(114,141,174);stop-opacity:1"/><stop offset="1" style="stop-color:rgb(66,96,128);stop-opacity:1"/></linearGradient>
    </defs>
</svg>
