<?xml version="1.0" encoding="UTF-8" standalone="no"?><!DOCTYPE svg PUBLIC "-//W3C//DTD SVG 1.1//EN" "http://www.w3.org/Graphics/SVG/1.1/DTD/svg11.dtd"><svg width="100%" height="100%" viewBox="0 0 128 128" version="1.1" xmlns="http://www.w3.org/2000/svg" xmlns:xlink="http://www.w3.org/1999/xlink" xml:space="preserve" style="fill-rule:evenodd;clip-rule:evenodd;stroke-linejoin:round;stroke-miterlimit:1.41421;"><rect id="channel_red" x="0" y="0" width="128" height="128" style="fill:none;"/><path d="M119,66.152c0,12.896 -10.455,23.348 -23.349,23.348l-63.304,0c-12.893,0 -23.347,-10.451 -23.347,-23.348l0,-30.299c0,-12.894 10.454,-23.348 23.347,-23.348l63.305,0c12.893,0 23.348,10.454 23.348,23.348l0,30.299Z" style="fill:#c90709;fill-rule:nonzero;"/><path d="M93.891,86.693c0,0 -8.386,24.063 -33.907,28.802c15.313,-13.489 5.326,-29.327 5.326,-29.327l28.581,0.525Z" style="fill:url(#_Linear1);fill-rule:nonzero;"/><defs><linearGradient id="_Linear1" x1="0" y1="0" x2="1" y2="0" gradientUnits="userSpaceOnUse" gradientTransform="matrix(6.30231e-15,-102.924,102.924,6.30231e-15,76.9365,115.495)"><stop offset="0" style="stop-color:#c9070a;stop-opacity:1"/><stop offset="0.2" style="stop-color:#c9070a;stop-opacity:1"/><stop offset="1" style="stop-color:#ec6600;stop-opacity:1"/></linearGradient></defs></svg>