<?xml version="1.0" encoding="UTF-8" standalone="no"?><!DOCTYPE svg PUBLIC "-//W3C//DTD SVG 1.1//EN" "http://www.w3.org/Graphics/SVG/1.1/DTD/svg11.dtd"><svg width="100%" height="100%" viewBox="0 0 128 128" version="1.1" xmlns="http://www.w3.org/2000/svg" xmlns:xlink="http://www.w3.org/1999/xlink" xml:space="preserve" style="fill-rule:evenodd;clip-rule:evenodd;stroke-linejoin:round;stroke-miterlimit:1.41421;"><rect id="channel_red_subscribed" x="0" y="0" width="128" height="128" style="fill:none;"/><g><path d="M119,66.152c0,12.896 -10.455,23.348 -23.349,23.348l-63.304,0c-12.893,0 -23.347,-10.451 -23.347,-23.348l0,-30.299c0,-12.894 10.454,-23.348 23.347,-23.348l63.305,0c12.893,0 23.348,10.454 23.348,23.348l0,30.299Z" style="fill:#c90709;fill-rule:nonzero;"/><path d="M93.891,86.693c0,0 -8.386,24.063 -33.907,28.802c15.313,-13.489 5.326,-29.327 5.326,-29.327l28.581,0.525Z" style="fill:#c90709;fill-rule:nonzero;"/></g><path d="M88.875,40.91l-31.169,31.118c-0.604,0.604 -1.494,0.891 -2.668,0.856c-1.075,-0.033 -1.897,-0.318 -2.467,-0.856l-13.446,-13.444c-0.604,-0.604 -0.906,-1.342 -0.906,-2.216c0,-0.872 0.302,-1.611 0.906,-2.215l4.481,-4.481c0.604,-0.604 1.342,-0.906 2.216,-0.906c0.873,0 1.611,0.302 2.215,0.906l7.1,7.1l24.825,-24.774c0.604,-0.604 1.342,-0.906 2.216,-0.906c0.872,0 1.611,0.302 2.215,0.906l4.481,4.432c0.604,0.638 0.906,1.385 0.906,2.24c0.001,0.855 -0.301,1.602 -0.905,2.24Z" style="fill:#fff;fill-rule:nonzero;"/></svg>