<?xml version="1.0" encoding="UTF-8" standalone="no"?><!DOCTYPE svg PUBLIC "-//W3C//DTD SVG 1.1//EN" "http://www.w3.org/Graphics/SVG/1.1/DTD/svg11.dtd"><svg width="100%" height="100%" viewBox="0 0 128 128" version="1.1" xmlns="http://www.w3.org/2000/svg" xmlns:xlink="http://www.w3.org/1999/xlink" xml:space="preserve" style="fill-rule:evenodd;clip-rule:evenodd;stroke-linejoin:round;stroke-miterlimit:1.41421;"><rect id="change_nickname" x="0" y="0" width="128" height="128" style="fill:none;"/><path d="M28.561,76.477l-19.561,42.523l42.526,-19.562c-2.865,-4.529 -6.25,-8.823 -10.195,-12.769c-3.945,-3.945 -8.239,-7.328 -12.77,-10.192Z" style="fill:#404547;fill-rule:nonzero;"/><path d="M119,29.492c0.002,-2.379 -0.833,-4.377 -2.502,-5.996l-11.987,-12.006c-1.625,-1.657 -3.613,-2.487 -6.008,-2.49c-2.395,0.002 -4.417,0.809 -6.073,2.42l-57.398,57.392c3.578,2.345 7.015,4.989 10.273,7.939c1.033,0.936 2.052,1.899 3.049,2.897c0.998,0.998 1.963,2.017 2.902,3.053c2.948,3.256 5.591,6.691 7.935,10.268l57.403,-57.397c1.597,-1.66 2.408,-3.69 2.406,-6.08Z" style="fill:#819cbd;fill-rule:nonzero;"/></svg>