<?xml version="1.0" encoding="UTF-8" standalone="no"?>
<!DOCTYPE svg PUBLIC "-//W3C//DTD SVG 1.1//EN" "http://www.w3.org/Graphics/SVG/1.1/DTD/svg11.dtd">
<svg width="100%" height="100%" viewBox="0 0 128 128" version="1.1" xmlns="http://www.w3.org/2000/svg" xmlns:xlink="http://www.w3.org/1999/xlink" xml:space="preserve" style="fill-rule:evenodd;clip-rule:evenodd;stroke-linejoin:round;stroke-miterlimit:1.41421;">
    <g transform="matrix(1,0,0,1,-768,-640)">
        <g id="channel_default" transform="matrix(1,0,0,1.37634,768,454.194)">
            <rect x="0" y="135" width="128" height="93" style="fill:none;"/>
            <g transform="matrix(1,0,0,0.726562,0,133.393)">
                <path d="M43.186,77.359C45.945,74.605 49.626,73.088 53.55,73.088C57.471,73.088 61.15,74.604 63.92,77.366L67.427,80.872L97.303,51.056C100.062,48.296 103.744,46.776 107.673,46.776C111.591,46.776 115.265,48.287 118.021,51.031L119,52L119,36.774C119,23.88 108.545,13.426 95.651,13.426L32.347,13.426C19.454,13.426 9,23.88 9,36.774L9,67.073C9,79.97 19.454,90.421 32.347,90.421L32.784,90.421C33.451,88.029 34.711,85.837 36.508,84.037L43.186,77.359Z" style="fill:rgb(66,96,128);fill-rule:nonzero;"/>
            </g>
            <g transform="matrix(1,0,0,0.726562,0,133.393)">
                <path d="M117.643,71.393L71.242,117.721C70.343,118.62 69.016,119.044 67.268,118.995C65.669,118.948 64.445,118.519 63.595,117.721L43.578,97.704C42.679,96.806 42.23,95.707 42.23,94.407C42.23,93.108 42.679,92.009 43.578,91.108L50.251,84.436C51.15,83.539 52.249,83.087 53.549,83.087C54.848,83.087 55.947,83.538 56.847,84.436L67.417,95.007L104.374,58.124C105.273,57.224 106.372,56.775 107.671,56.775C108.97,56.775 110.07,57.224 110.971,58.124L117.642,64.72C118.54,65.671 118.992,66.783 118.992,68.056C118.992,69.333 118.541,70.443 117.643,71.393Z" style="fill:rgb(28,160,55);fill-rule:nonzero;"/>
            </g>
        </g>
    </g>
</svg>
