<?xml version="1.0" encoding="UTF-8" standalone="no"?>
<!DOCTYPE svg PUBLIC "-//W3C//DTD SVG 1.1//EN" "http://www.w3.org/Graphics/SVG/1.1/DTD/svg11.dtd">
<svg width="100%" height="100%" viewBox="0 0 128 128" version="1.1" xmlns="http://www.w3.org/2000/svg" xmlns:xlink="http://www.w3.org/1999/xlink" xml:space="preserve" style="fill-rule:evenodd;clip-rule:evenodd;stroke-linejoin:round;stroke-miterlimit:1.41421;">
    <g transform="matrix(1,0,0,1,-768,0)">
        <g id="channel_collapse_all" transform="matrix(1,0,0,1,768,0)">
            <rect x="0" y="0" width="128" height="128" style="fill:none;"/>
            <g transform="matrix(1,0,0,1,-0.0005,0)">
                <path d="M58.592,56.983L22.362,56.983C14.983,56.983 9,62.966 9,70.345L9,87.686C9,95.069 14.983,101.049 22.361,101.049L42.129,101.049C43.293,104.117 44.486,110.37 38.179,115.926C49.707,113.785 55.123,104.761 56.895,101.049L58.592,101.049C65.972,101.049 71.955,95.069 71.955,87.686L71.955,70.345C71.955,62.966 65.972,56.983 58.592,56.983Z" style="fill:rgb(28,160,55);fill-rule:nonzero;"/>
            </g>
            <g transform="matrix(1,0,0,1,-0.0005,0)">
                <path d="M100.473,18.011L50.239,18.011C40.008,18.011 31.713,26.306 31.713,36.537L31.713,48.39L58.592,48.39C70.699,48.39 80.549,58.24 80.549,70.345L80.549,87.686C80.549,91.488 79.561,95.056 77.854,98.177C89.977,93.706 95.974,83.6 98.12,79.109L100.474,79.109C110.704,79.109 119.001,70.816 119.001,60.582L119.001,36.538C119,26.306 110.703,18.011 100.473,18.011Z" style="fill:rgb(66,96,128);fill-rule:nonzero;"/>
            </g>
            <g transform="matrix(1,0,0,1,-0.0005,0)">
                <path d="M40.436,70.24C41.135,70.24 41.832,70.59 42.531,71.289L56.539,85.492C56.997,85.951 57.227,86.508 57.227,87.162C57.227,87.816 56.998,88.373 56.539,88.832L54.87,90.5C54.412,90.959 53.855,91.188 53.201,91.188C52.547,91.188 51.99,90.959 51.532,90.5L40.468,79.438L29.405,90.5C28.947,90.959 28.39,91.188 27.736,91.188C27.081,91.188 26.525,90.959 26.067,90.5L24.398,88.832C23.94,88.373 23.71,87.816 23.71,87.162C23.71,86.508 23.939,85.951 24.398,85.492L38.341,71.289C39.04,70.59 39.737,70.24 40.436,70.24Z" style="fill:white;fill-rule:nonzero;"/>
            </g>
        </g>
    </g>
</svg>
