<?xml version="1.0" encoding="UTF-8" standalone="no"?>
<!DOCTYPE svg PUBLIC "-//W3C//DTD SVG 1.1//EN" "http://www.w3.org/Graphics/SVG/1.1/DTD/svg11.dtd">
<svg width="100%" height="100%" viewBox="0 0 128 128" version="1.1" xmlns="http://www.w3.org/2000/svg" xmlns:xlink="http://www.w3.org/1999/xlink" xml:space="preserve" style="fill-rule:evenodd;clip-rule:evenodd;stroke-linejoin:round;stroke-miterlimit:1.41421;">
    <g transform="matrix(1,0,0,1,-768,-480)">
        <g id="channel_create" transform="matrix(1,0,0,1.37634,768,294.194)">
            <rect x="0" y="135" width="128" height="93" style="fill:none;"/>
            <g transform="matrix(1,0,0,0.726562,0,134.331)">
                <path d="M95.651,13.426L32.347,13.426C19.454,13.426 9,23.88 9,36.774L9,67.073C9,79.97 19.454,90.421 32.347,90.421L66.886,90.421C68.921,95.782 71.005,106.706 59.984,116.416C80.129,112.675 89.59,96.904 92.686,90.421L95.652,90.421C108.545,90.421 119,79.97 119,67.073L119,36.774C119,23.88 108.545,13.426 95.651,13.426Z" style="fill:rgb(28,160,55);fill-rule:nonzero;"/>
            </g>
            <g transform="matrix(1,0,0,0.726562,0,134.331)">
                <path d="M88.438,57.789L70.982,57.789L70.982,75.245C70.982,76.227 70.645,77.055 69.972,77.726C69.298,78.4 68.472,78.736 67.491,78.736L60.509,78.736C59.527,78.736 58.699,78.391 58.027,77.7C57.354,77.01 57.018,76.191 57.018,75.245L57.018,57.789L39.562,57.789C38.58,57.789 37.752,57.444 37.08,56.753C36.407,56.063 36.071,55.244 36.071,54.298L36.071,47.316C36.071,46.334 36.407,45.507 37.08,44.834C37.753,44.161 38.58,43.825 39.562,43.825L57.018,43.825L57.018,26.368C57.018,25.386 57.354,24.559 58.027,23.886C58.7,23.213 59.527,22.877 60.509,22.877L67.491,22.877C68.472,22.877 69.299,23.213 69.972,23.886C70.645,24.559 70.982,25.386 70.982,26.368L70.982,43.824L88.438,43.824C89.419,43.824 90.246,44.16 90.919,44.833C91.592,45.506 91.929,46.333 91.929,47.315L91.929,54.297C91.929,55.243 91.592,56.062 90.919,56.752C90.246,57.444 89.42,57.789 88.438,57.789Z" style="fill:white;fill-rule:nonzero;"/>
            </g>
        </g>
    </g>
</svg>
