<?xml version="1.0" encoding="UTF-8" standalone="no"?><!DOCTYPE svg PUBLIC "-//W3C//DTD SVG 1.1//EN" "http://www.w3.org/Graphics/SVG/1.1/DTD/svg11.dtd"><svg width="100%" height="100%" viewBox="0 0 128 128" version="1.1" xmlns="http://www.w3.org/2000/svg" xmlns:xlink="http://www.w3.org/1999/xlink" xml:space="preserve" style="fill-rule:evenodd;clip-rule:evenodd;stroke-linejoin:round;stroke-miterlimit:1.41421;"><rect id="changelog" x="0" y="0" width="128" height="128" style="fill:none;"/><path d="M98.068,22.408c4.011,0 7.274,3.264 7.274,7.276l0,72.612c0,4.012 -3.264,7.275 -7.274,7.275l-68.134,0c-4.013,0 -7.276,-3.264 -7.276,-7.275l0,-72.612c0,-6.679 3.265,-7.276 7.276,-7.276l68.134,0m0,-9.429l-68.134,0c-9.227,0 -16.705,7.479 -16.705,16.705l0,72.612c0,9.225 7.479,16.704 16.705,16.704l68.135,0c9.225,0 16.703,-7.479 16.703,-16.704l0,-72.612c-0.001,-9.226 -7.479,-16.705 -16.704,-16.705Z" style="fill:#426180;fill-rule:nonzero;"/><path d="M86.176,24.839c0,1.12 -0.906,2.027 -2.027,2.027l-40.297,0c-1.12,0 -2.027,-0.908 -2.027,-2.027l0,-13.812c0,-1.12 0.907,-2.027 2.027,-2.027l40.297,0c1.121,0 2.027,0.908 2.027,2.027l0,13.812Z" style="fill:#819cbd;fill-rule:nonzero;"/><path d="M93.085,48.25l-58.171,0c-2.761,0 -5,-2.239 -5,-5c0,-2.761 2.239,-5 5,-5l58.17,0c2.763,0 5.001,2.239 5.001,5c-0.001,2.761 -2.239,5 -5.001,5Z" style="fill:#404547;fill-rule:nonzero;"/><path d="M93.085,97.25l-58.171,0c-2.761,0 -5,-2.238 -5,-5c0,-2.762 2.239,-5 5,-5l58.17,0c2.763,0 5.001,2.238 5.001,5c-0.001,2.762 -2.239,5 -5.001,5Z" style="fill:#404547;fill-rule:nonzero;"/><path d="M93.085,72.75l-58.171,0c-2.761,0 -5,-2.238 -5,-5c0,-2.762 2.239,-5 5,-5l58.17,0c2.763,0 5.001,2.238 5.001,5c-0.001,2.762 -2.239,5 -5.001,5Z" style="fill:#404547;fill-rule:nonzero;"/></svg>