<?xml version="1.0" encoding="UTF-8" standalone="no"?><!DOCTYPE svg PUBLIC "-//W3C//DTD SVG 1.1//EN" "http://www.w3.org/Graphics/SVG/1.1/DTD/svg11.dtd"><svg width="100%" height="100%" viewBox="0 0 128 128" version="1.1" xmlns="http://www.w3.org/2000/svg" xmlns:xlink="http://www.w3.org/1999/xlink" xml:space="preserve" style="fill-rule:evenodd;clip-rule:evenodd;stroke-linejoin:round;stroke-miterlimit:1.41421;"><rect id="clear" x="0" y="0" width="128" height="128" style="fill:none;"/><path d="M102.149,113.314l-4.349,-37.645c-0.123,-1.083 -0.609,-2.085 -1.383,-2.857l-26.129,-26.134l-23.608,23.606l47.29,47.287c0.003,0.003 0.008,0.007 0.012,0.011c1.882,1.891 4.943,1.891 6.825,0c1.167,-1.16 1.607,-2.765 1.342,-4.268Z" style="fill:#878b8c;fill-rule:nonzero;"/><path d="M25.852,14.683l4.346,37.64c0.126,1.083 0.614,2.09 1.387,2.862l9.843,9.845l23.608,-23.604l-31.004,-31.002c-0.003,-0.001 -0.008,-0.006 -0.011,-0.009c-1.886,-1.886 -4.943,-1.886 -6.83,0c-1.16,1.159 -1.608,2.765 -1.339,4.268Z" style="fill:#404547;fill-rule:nonzero;"/></svg>