<?xml version="1.0" encoding="UTF-8" standalone="no"?><!DOCTYPE svg PUBLIC "-//W3C//DTD SVG 1.1//EN" "http://www.w3.org/Graphics/SVG/1.1/DTD/svg11.dtd"><svg width="100%" height="100%" viewBox="0 0 128 128" version="1.1" xmlns="http://www.w3.org/2000/svg" xmlns:xlink="http://www.w3.org/1999/xlink" xml:space="preserve" style="fill-rule:evenodd;clip-rule:evenodd;stroke-linejoin:round;stroke-miterlimit:1.41421;"><rect id="complaint_list" x="0" y="0" width="128" height="128" style="fill:none;"/><path d="M121.113,113.942l-34.161,-59.147c-0.92,-1.589 -2.622,-2.576 -4.462,-2.576c-1.839,0 -3.541,0.987 -4.461,2.576l-34.34,59.474c-0.919,1.603 -0.919,3.563 0,5.151c0.919,1.606 2.623,2.584 4.461,2.584l68.679,0c0.007,-0.001 0.014,-0.001 0.019,0c2.846,0 5.151,-2.306 5.151,-5.151c0.001,-1.075 -0.333,-2.074 -0.886,-2.911Z" style="fill:#c90709;fill-rule:nonzero;"/><g><path d="M33.801,112.004l-12.801,0c-2.762,0 -5,-2.238 -5,-5l0,-86.008c0,-2.761 2.238,-5 5,-5l72.475,0c2.762,0 5,2.239 5,5c0,0 0,19.105 0,33.755l10,17.313l0,-51.068c0,-8.271 -6.729,-15 -15,-15l-72.475,0c-8.271,0 -15,6.729 -15,15l0,86.008c0,8.271 6.729,15 15,15l12.914,0c-1.16,-3.215 -1.204,-6.748 -0.113,-10Z" style="fill:#426180;fill-rule:nonzero;"/><path d="M86.894,33.002c-0.907,-0.923 -2.166,-1.498 -3.563,-1.498l-0.029,0l-50.65,0l-4.49,0c-2.761,0 -5,2.239 -5,5c0,1.357 0.545,2.585 1.424,3.486l-0.016,0.016c0.907,0.923 2.166,1.498 3.563,1.498l55.169,0c2.761,0 5,-2.239 5,-5c0,-1.357 -0.546,-2.585 -1.424,-3.486l0.016,-0.016Z" style="fill:#404547;fill-rule:nonzero;"/><path d="M23.161,64.004c0,2.762 2.239,5 5,5l30.117,0l5.774,-10l-35.891,0c-2.761,0 -5,2.239 -5,5Z" style="fill:#404547;fill-rule:nonzero;"/><path d="M23.161,91.504c0,2.762 2.239,5 5,5l14.238,0l5.774,-10l-20.012,0c-2.761,0 -5,2.238 -5,5Z" style="fill:#404547;fill-rule:nonzero;"/></g><g><path d="M76.452,72.957c0,-0.802 0.276,-1.479 0.824,-2.021c0.549,-0.554 1.225,-0.83 2.021,-0.83l6.403,0c0.798,0 1.475,0.285 2.022,0.846c0.549,0.565 0.824,1.229 0.824,2.005l0,20.72c0,0.802 -0.275,1.474 -0.824,2.021c-0.548,0.553 -1.225,0.824 -2.022,0.824l-6.403,0c-0.797,0 -1.473,-0.271 -2.021,-0.824c-0.548,-0.548 -0.824,-1.22 -0.824,-2.021l0,-20.72Z" style="fill:#fff;fill-rule:nonzero;"/><path d="M76.452,104.956c0,-0.802 0.276,-1.479 0.824,-2.021c0.549,-0.554 1.225,-0.83 2.021,-0.83l6.403,0c0.798,0 1.475,0.285 2.022,0.847c0.549,0.564 0.824,1.229 0.824,2.004l0,6.104c0,0.802 -0.275,1.473 -0.824,2.021c-0.548,0.553 -1.225,0.824 -2.022,0.824l-6.403,0c-0.797,0 -1.473,-0.271 -2.021,-0.824c-0.548,-0.549 -0.824,-1.22 -0.824,-2.021l0,-6.104Z" style="fill:#fff;fill-rule:nonzero;"/></g></svg>