<?xml version="1.0" encoding="UTF-8" standalone="no"?><!DOCTYPE svg PUBLIC "-//W3C//DTD SVG 1.1//EN" "http://www.w3.org/Graphics/SVG/1.1/DTD/svg11.dtd"><svg width="100%" height="100%" viewBox="0 0 128 128" version="1.1" xmlns="http://www.w3.org/2000/svg" xmlns:xlink="http://www.w3.org/1999/xlink" xml:space="preserve" style="fill-rule:evenodd;clip-rule:evenodd;stroke-linejoin:round;stroke-miterlimit:1.41421;"><rect id="conflict.-icon" x="0" y="0" width="128" height="128" style="fill:none;"/><path d="M125.96,104.28c0.022,-13.862 -0.013,-27.725 -0.025,-41.588c0.015,-0.479 0.05,-0.954 0.05,-1.432c0,-14.737 -0.006,-29.472 -0.018,-44.207c-0.005,-8.593 -6.467,-15.053 -15.057,-15.053l-94.433,0c-7.857,0.015 -14.499,6.693 -14.499,14.518c0,13.951 -0.006,27.903 -0.018,41.855c0,0.477 0.035,0.957 0.053,1.432c-0.013,17.445 -0.11,34.885 0.015,52.322c0.05,7.478 6.802,13.848 14.344,13.855c31.735,0.027 63.47,0.027 95.205,0c6.915,0 13.068,-5.35 14.16,-12.172c0.513,-3.165 0.215,-6.353 0.223,-9.53Zm-62.158,6.22c-5.661,-0.011 -10.314,-4.673 -10.314,-10.335c0,-5.67 4.665,-10.335 10.335,-10.335c5.635,0 10.285,4.61 10.334,10.245c0.001,0.028 0.001,0.055 0.001,0.083c0,5.673 -4.669,10.342 -10.343,10.342c-0.004,0 -0.008,0 -0.013,0l0,0Zm11.895,-80.6c-0.387,4.5 -0.805,9 -1.29,13.483c-0.55,5.054 -0.89,10.127 -1.5,15.174c-0.16,1.358 -0.487,2.75 -0.272,4.145c-0.355,3.678 -0.815,7.35 -1.048,11.038c-0.312,4.955 -3.445,8.597 -8.687,8.265c-2.325,-0.148 -4.975,-2.043 -6,-4.275c-1.25,-2.7 -0.915,-5.585 -1.27,-8.385c-0.365,-2.938 -0.553,-5.9 -0.835,-8.848c-0.044,-0.156 -0.118,-0.303 -0.218,-0.432c0,-3.958 -0.537,-7.868 -0.972,-11.793c-0.27,-2.372 -0.455,-4.782 -0.57,-7.182c-0.143,-2.867 -0.5,-5.723 -0.718,-8.585c-0.232,-2.942 -0.42,-5.845 1,-8.648c1.683,-3.309 4.238,-5.357 7.808,-6.107c5.785,-1.205 11.75,1.895 13.925,6.908c0.752,1.722 0.8,3.462 0.647,5.23l0,0.012Z" style="fill:url(#_Linear1);fill-rule:nonzero;"/><rect x="127.89" y="127.89" width="0.11" height="0.11" style="fill:none;"/><defs><linearGradient id="_Linear1" x1="0" y1="0" x2="1" y2="0" gradientUnits="userSpaceOnUse" gradientTransform="matrix(7.8186e-15,127.688,-127.687,7.8186e-15,64,0.1825)"><stop offset="0" style="stop-color:#728dae;stop-opacity:1"/><stop offset="1" style="stop-color:#426080;stop-opacity:1"/></linearGradient></defs></svg>