<?xml version="1.0" encoding="UTF-8" standalone="no"?><!DOCTYPE svg PUBLIC "-//W3C//DTD SVG 1.1//EN" "http://www.w3.org/Graphics/SVG/1.1/DTD/svg11.dtd"><svg width="100%" height="100%" viewBox="0 0 128 128" version="1.1" xmlns="http://www.w3.org/2000/svg" xmlns:xlink="http://www.w3.org/1999/xlink" xml:space="preserve" style="fill-rule:evenodd;clip-rule:evenodd;stroke-linejoin:round;stroke-miterlimit:1.41421;"><rect id="contact" x="0" y="0" width="128" height="128" style="fill:none;"/><path d="M29.627,118.817c0.029,-1.369 0.793,-33.646 7.792,-44.33c6.809,-10.368 13.196,-12.864 19.126,-14.523l0.046,-0.013c0.316,-0.089 0.614,-0.174 0.892,-0.255c-1.031,-1.462 -2.007,-3.151 -2.965,-5.323c-4.243,-3.041 -6.066,-8.687 -6.798,-11.984c-0.753,-3.404 -0.875,-6.861 -0.341,-9.753c0.49,-2.617 1.479,-4.723 2.964,-6.297c0.4,-2.73 1.049,-5.278 1.917,-7.634c-2.891,-1.149 -6.377,-1.721 -10.548,-1.461l0,0.003c-0.015,0 -0.028,-0.002 -0.044,-0.002c-18.553,-1.159 -23.694,14.055 -22.169,24.073c1.47,9.675 2.272,18.89 -0.986,21.792c2.818,1.421 4.82,-0.738 6.244,-1.692c-0.467,6.178 -7.508,8.499 -7.508,8.499c3.187,3.152 12.75,2.622 16.206,-0.523c-0.362,1.983 -1.222,4.994 -3.185,5.984c-4.334,2.18 -8.292,0.003 -15.35,10.737c-5.501,8.361 -5.92,32.885 -5.92,32.885l20.624,0l0.003,-0.183Z" style="fill:#022f5d;fill-rule:nonzero;"/><path d="M98.38,68.232c-1.478,-0.417 -2.861,-0.809 -4.216,-1.49c-1.795,-0.906 -7.521,-5.125 -6.706,-6.005c4.153,-4.499 5.755,-5.678 7.833,-10.778l0.654,-1.614l1.461,-0.762c1.223,-0.636 2.853,-3.06 3.729,-7.052c0.503,-2.279 0.608,-4.581 0.286,-6.314c-0.236,-1.239 -0.613,-1.896 -0.895,-2.093l-1.703,-1.214l-0.264,-2.211c-1.318,-11.672 -7.998,-19.699 -19.916,-19.699c-11.927,0 -18.605,8.023 -19.94,19.687l-0.257,2.226l-1.728,1.211c-0.277,0.196 -0.659,0.847 -0.892,2.092c-0.32,1.736 -0.219,4.038 0.285,6.317c0.888,4 2.512,6.423 3.733,7.053l1.477,0.759l0.663,1.623c2.073,5.1 3.845,6.45 7.825,10.766c1.067,1.157 -4.901,5.096 -6.701,6.007c-1.369,0.687 -2.756,1.076 -4.219,1.491c-4.07,1.139 -8.684,2.439 -14.287,10.972c-4.208,6.423 -6.143,28.463 -6.384,39.796l80.782,0c-0.122,-8.007 -1.5,-32.427 -6.339,-39.796c-5.589,-8.53 -10.204,-9.832 -14.281,-10.972Z" style="fill:#426180;fill-rule:nonzero;"/></svg>