<?xml version="1.0" encoding="UTF-8" standalone="no"?>
<!DOCTYPE svg PUBLIC "-//W3C//DTD SVG 1.1//EN" "http://www.w3.org/Graphics/SVG/1.1/DTD/svg11.dtd">
<svg width="100%" height="100%" viewBox="0 0 128 128" version="1.1" xmlns="http://www.w3.org/2000/svg" xmlns:xlink="http://www.w3.org/1999/xlink" xml:space="preserve" style="fill-rule:evenodd;clip-rule:evenodd;stroke-linejoin:round;stroke-miterlimit:1.41421;">
    <g transform="matrix(1,0,0,1,-1536,0)">
        <g id="copy_url" transform="matrix(1,0,0,1,1536,0)">
            <rect x="0" y="0" width="128" height="128" style="fill:none;"/>
            <g transform="matrix(1,0,0,1,-0.001,0)">
                <path d="M66.602,39.28C69.248,39.28 71.403,41.434 71.403,44.081L71.403,103.602C71.403,106.248 69.248,108.403 66.602,108.403L23.399,108.403C20.753,108.403 18.6,106.248 18.6,103.602L18.6,44.081C18.6,41.434 20.754,39.28 23.399,39.28L66.602,39.28M66.602,29.68L23.399,29.68C15.448,29.68 9,36.127 9,44.081L9,103.602C9,111.555 15.448,118 23.399,118L66.6,118C74.555,118 81,111.555 81,103.602L81,44.081C81,36.127 74.555,29.68 66.602,29.68Z" style="fill:rgb(66,97,128);fill-rule:nonzero;"/>
            </g>
            <g transform="matrix(1,0,0,1,-0.001,0)">
                <path d="M64.965,74.221C64.965,85.264 56.01,94.223 44.965,94.223C33.92,94.223 24.965,85.264 24.965,74.221C24.965,63.183 33.92,54.221 44.965,54.221C56.01,54.221 64.965,63.183 64.965,74.221Z" style="fill:rgb(64,69,71);fill-rule:nonzero;"/>
            </g>
            <g transform="matrix(1,0,0,1,-0.001,0)">
                <path d="M39.18,57.2C39.179,57.198 39.094,57.022 39.18,57.2Z" style="fill:white;fill-rule:nonzero;"/>
                <path d="M44.193,55.946C44.226,55.718 44.61,55.666 43.899,55.666C43.786,56.087 44.08,55.776 44.193,55.946Z" style="fill:white;fill-rule:nonzero;"/>
                <path d="M42.526,79.012C42.668,78.523 42.9,78.486 43.315,78.772C43.256,78.164 41.832,78.425 41.424,77.561C41.395,75.832 41.07,76.357 39.713,76.016C39.969,75.655 40.293,74.808 40.35,74.411C40.536,73.105 38.697,75.276 39,75.176C37.171,75.78 36.437,72.924 37.338,71.838C37.798,71.282 38.388,71.531 38.882,71.329C38.973,71.293 39.379,71.522 39.641,71.507C39.476,71.517 39.967,71.063 40.291,71.04C41.673,70.944 41.596,72.194 42.431,73.003C43.001,71.904 41.763,71.043 43.016,70.022C43.779,69.4 44.285,69.27 43.704,68.334C43.925,68.406 43.837,68.314 44.114,68.481C44.379,67.718 44.867,67.194 45.677,67.208C45.378,66.321 46.876,65.6 47.649,65.854C47.381,66.173 46.874,65.746 46.95,66.368C47.525,66.225 48.439,65.976 48.624,65.268C48.026,65.974 46.818,65.148 47.206,64.846C47.653,64.499 46.991,64.408 46.712,64.487C46.179,64.635 45.74,65.08 45.329,65.434C45.435,65.2 45.627,65.047 45.797,64.864C45.684,64.838 45.57,64.81 45.457,64.784C46.01,64.784 46.891,64.218 47.526,64.08C48.011,64.427 48.86,63.713 49.414,63.495C49.499,63.793 49.264,64.029 49.072,64.24C48.516,64.906 49.924,64.874 50.415,65.07C50.99,64.436 50.028,64.033 49.541,63.927C49.746,63.156 49.166,62.505 48.213,62.951C48.372,62.882 48.739,62.576 48.969,62.461C47.74,62.382 46.888,60.712 46.145,59.892C46.226,59.852 46.351,59.997 46.431,59.994C46.291,59.864 46.012,59.497 45.793,59.31C46.04,59.518 46.428,59.607 46.708,59.775C46.684,59.204 46.438,58.949 45.865,58.565C45.919,58.5 45.98,58.441 46.047,58.389C46.258,58.642 46.631,58.761 46.859,58.936C47.583,58.194 46.576,58.006 45.846,57.74C45.795,57.428 45.903,57.673 46.053,57.501C45.797,57.148 44.575,56.241 43.842,56.638C43.839,56.501 43.858,56.292 43.881,56.149C43.354,56.131 43.198,56.561 43.159,56.866C43.269,56.559 43.259,56.465 43.468,56.141C42.951,56.141 42.732,56.387 42.489,56.827C42.451,56.702 42.832,57.047 42.769,56.989C42.671,56.949 42.573,56.953 42.476,57C42.62,57.03 42.901,57.199 43.113,57.292C43.011,57.528 42.724,57.881 42.425,58.157C42.406,57.609 42.228,57.821 42.08,57.674C42.106,56.209 41.456,57.049 41.187,57.675C41.34,57.657 41.424,57.637 41.558,57.558C41.485,57.709 41.118,58.053 40.991,58.154C40.949,58.105 40.908,58.057 40.866,58.008C41.454,57.18 40.712,57.701 40.795,57.713C40.251,57.637 39.157,57.653 38.817,58.283C38.801,57.736 38.689,57.86 38.072,57.795C38.172,57.707 38.271,57.713 38.372,57.639C37.997,57.271 37.952,57.139 37.415,57.242C37.474,57.165 37.532,57.089 37.591,57.012C37.628,57.025 37.199,57.18 37.227,57.168C37.301,57.08 37.376,56.992 37.45,56.904C37.151,57.012 36.64,57.139 36.263,57.288C36.547,57.181 36.822,57.053 37.103,56.947C36.72,57.063 36.223,57.102 35.848,57.182C35.863,56.977 35.807,56.747 35.716,56.751C34.488,56.659 32.49,58.491 31.504,59.437C31.497,59.621 31.558,59.656 31.056,60.095C31.324,59.905 31.784,59.767 32.006,59.63C32.152,60.113 32.705,61.236 32.386,61.724C31.649,62.849 32.935,63.56 32.417,64.674C32.363,64.076 32.351,63.615 31.859,63.435C32.685,65.334 30.518,67.124 31.422,69.258C31.978,69.341 32.694,71.403 32.446,71.611C32.336,71.704 33.351,73.33 33.495,73.58C33.89,72.803 32.561,71.348 32.566,70.35C33.159,70.559 33.72,72.22 34.128,72.87C34.902,74.103 34.62,74.503 35.815,75.363C37.008,76.223 38.096,75.989 39.211,76.705C40.318,77.414 40.897,78.44 42.526,79.012Z" style="fill:white;fill-rule:nonzero;"/>
                <path d="M56.163,82.602C55.707,82.602 55.409,81.969 55.018,82.102C54.744,82.113 53.883,81.966 53.975,81.936C53.128,81.343 52.387,79.596 50.518,79.481C49.724,79.52 49.096,78.485 48.429,78.356C48.328,78.167 48.374,78.058 48.567,78.032C48.398,77.787 47.277,78.036 47.048,77.993C45.786,77.993 45.898,77.196 45.349,78.544C44.892,78.286 45.253,77.516 45.423,77.33C44.382,77.892 43.01,78.191 43.383,79.645C43.589,80.449 41.464,81.859 42.554,82.018C42.573,82.385 41.785,82.406 42.163,82.887C42.18,83.418 43.614,85.074 43.941,85.53C44.514,86.328 45.948,86.384 45.451,87.645C45.301,87.876 44.982,89.624 44.989,89.673C45.158,90.586 44.281,91.605 44.506,92.35C44.565,92.392 44.63,92.405 44.702,92.387C44.86,92.227 44.537,92.1 44.878,92.1C44.878,92.277 44.749,92.56 44.716,92.774C44.544,92.722 44.666,92.606 44.531,92.606C44.587,92.706 44.631,92.809 44.663,92.919C44.145,92.577 44.664,93.19 44.682,93.251C44.05,93.314 45.158,94.652 45.679,94.144C44.969,93.951 45.658,93.303 45.999,93.134C46.011,93.099 45.386,92.78 45.895,92.726C45.998,92.726 46.578,92.177 46.556,92.14C46.498,92.121 46.358,92.179 46.346,92.179C46.346,92.088 46.346,91.996 46.346,91.906C47.103,91.906 48.402,91.317 48.126,90.523C48.883,90.502 49.95,89.953 50.01,89.827C51.114,89.743 50.849,87.959 52.106,87.959C52.938,87.824 53.559,87.405 54.035,86.648C54.385,86.089 56.768,82.897 56.163,82.602C56.065,82.602 56.251,82.645 56.163,82.602Z" style="fill:white;fill-rule:nonzero;"/>
            </g>
            <g transform="matrix(1,0,0,1,-0.001,0)">
                <path d="M104.602,9L61.399,9C54.736,9 49.145,13.533 47.503,19.68L66.602,19.68C76.768,19.68 85.498,25.932 89.16,34.792C97.792,37.01 104.181,44.824 104.181,54.14C104.181,62.785 98.685,70.129 91.002,72.922L91.002,97.32L104.603,97.32C112.558,97.32 119.002,90.874 119.002,82.921L119.002,23.401C119,15.448 112.555,9 104.602,9Z" style="fill:none;"/>
            </g>
            <g transform="matrix(1,0,0,1,-0.001,0)">
                <path d="M104.602,9L61.399,9C54.736,9 49.145,13.533 47.503,19.68L66.602,19.68C76.768,19.68 85.498,25.932 89.16,34.792C97.792,37.01 104.181,44.824 104.181,54.14C104.181,62.785 98.685,70.129 91.002,72.922L91.002,97.32L104.603,97.32C112.558,97.32 119.002,90.874 119.002,82.921L119.002,23.401C119,15.448 112.555,9 104.602,9Z" style="fill:rgb(28,160,55);fill-rule:nonzero;"/>
            </g>
            <g transform="matrix(1,0,0,1,-0.001,0)">
                <path d="M95.377,62.521C95.277,62.521 95.169,62.521 95.034,62.521C94.718,62.431 94.674,61.87 94.23,62.02C94.126,62.024 93.993,62.033 93.831,62.035C93.58,61.893 93.016,61.962 93.189,61.854C92.743,61.542 92.743,61.542 92.511,61.521C92.486,61.521 92.468,61.523 92.37,61.488C92.229,61.416 91.936,61.387 91.964,61.365C91.954,61.344 91.941,61.308 91.939,61.274C91.939,61.274 91.79,61.233 91.575,61.156C91.554,61.159 91.532,61.159 91.497,61.159C91.491,61.16 91.471,61.16 91.434,61.163C91.413,61.183 91.548,60.801 91.434,60.567C91.375,60.567 91.315,60.576 91.25,60.567C91.262,60.454 91.262,60.337 91.279,60.215C91.14,59.845 91.14,59.845 91.121,59.821C91.121,59.821 91.072,59.797 90.999,59.761L90.999,67.918C91.02,67.904 91.036,67.897 91.059,67.883C91.159,67.874 91.237,67.874 91.319,67.874C91.354,67.868 91.354,67.868 91.628,67.68C91.847,67.68 92.045,67.667 92.278,67.604C92.305,67.563 92.352,67.505 92.393,67.485C92.487,67.446 92.487,67.446 93.19,66.631C93.215,66.625 93.215,66.625 93.503,66.133C93.503,66.116 93.503,66.095 93.545,66.034C93.672,65.858 93.737,65.77 93.765,65.647C93.779,65.608 93.787,65.583 93.816,65.5C93.816,65.487 93.816,65.453 93.816,65.414C93.832,65.375 93.842,65.336 93.859,65.243C93.894,65.13 93.922,65.013 94.05,64.874C94.05,64.874 94.638,64.395 94.795,64.242L95.326,63.617C95.477,63.422 95.477,63.422 95.508,63.288C95.561,62.63 95.466,62.563 95.377,62.521Z" style="fill:rgb(64,69,71);fill-rule:nonzero;"/>
            </g>
        </g>
    </g>
</svg>
