<?xml version="1.0" encoding="UTF-8" standalone="no"?>
<!DOCTYPE svg PUBLIC "-//W3C//DTD SVG 1.1//EN" "http://www.w3.org/Graphics/SVG/1.1/DTD/svg11.dtd">
<svg width="100%" height="100%" viewBox="0 0 128 128" version="1.1" xmlns="http://www.w3.org/2000/svg" xmlns:xlink="http://www.w3.org/1999/xlink" xml:space="preserve" style="fill-rule:evenodd;clip-rule:evenodd;stroke-linejoin:round;stroke-miterlimit:1.41421;">
    <g transform="matrix(1,0,0,1,-1536,-160)">
        <g id="copy" transform="matrix(1,0,0,1,1536,160)">
            <rect x="0" y="0" width="128" height="128" style="fill:none;"/>
            <g transform="matrix(1,0,0,1,0,0.5)">
                <path d="M66.601,39.28C69.247,39.28 71.402,41.434 71.402,44.081L71.402,103.601C71.402,106.247 69.247,108.402 66.601,108.402L23.399,108.402C20.753,108.402 18.6,106.247 18.6,103.601L18.6,44.081C18.6,41.434 20.754,39.28 23.399,39.28L66.601,39.28M66.601,29.68L23.399,29.68C15.448,29.68 9,36.127 9,44.081L9,103.601C9,111.554 15.448,118 23.399,118L66.6,118C74.555,118 81,111.554 81,103.601L81,44.081C81,36.127 74.555,29.68 66.601,29.68Z" style="fill:rgb(66,97,128);fill-rule:nonzero;"/>
                <path d="M60.119,98.55L30.358,98.55C27.708,98.55 25.559,96.4 25.559,93.749C25.559,91.098 27.708,88.948 30.358,88.948L60.119,88.948C62.771,88.948 64.919,91.098 64.919,93.749C64.919,96.4 62.771,98.55 60.119,98.55Z" style="fill:rgb(64,69,71);fill-rule:nonzero;"/>
                <path d="M60.119,78.409L30.358,78.409C27.708,78.409 25.559,76.262 25.559,73.608C25.559,70.958 27.708,68.81 30.358,68.81L60.119,68.81C62.771,68.81 64.919,70.957 64.919,73.608C64.919,76.262 62.771,78.409 60.119,78.409Z" style="fill:rgb(64,69,71);fill-rule:nonzero;"/>
                <path d="M60.119,58.271L30.358,58.271C27.708,58.271 25.559,56.122 25.559,53.471C25.559,50.821 27.708,48.671 30.358,48.671L60.119,48.671C62.771,48.671 64.919,50.82 64.919,53.471C64.919,56.122 62.771,58.271 60.119,58.271Z" style="fill:rgb(64,69,71);fill-rule:nonzero;"/>
            </g>
            <g transform="matrix(1,0,0,1,0,0.5)">
                <path d="M104.601,9L61.399,9C54.736,9 49.145,13.533 47.503,19.68L66.601,19.68C80.055,19.68 91,30.626 91,44.081L91,97.321L104.601,97.321C112.555,97.321 119,90.875 119,82.922L119,23.402C119,15.448 112.555,9 104.601,9Z" style="fill:rgb(28,160,55);fill-rule:nonzero;"/>
            </g>
        </g>
    </g>
</svg>
