<?xml version="1.0" encoding="UTF-8" standalone="no"?>
<!DOCTYPE svg PUBLIC "-//W3C//DTD SVG 1.1//EN" "http://www.w3.org/Graphics/SVG/1.1/DTD/svg11.dtd">
<svg width="100%" height="100%" viewBox="0 0 128 128" version="1.1" xmlns="http://www.w3.org/2000/svg" xmlns:xlink="http://www.w3.org/1999/xlink" xml:space="preserve" style="fill-rule:evenodd;clip-rule:evenodd;stroke-linejoin:round;stroke-miterlimit:1.41421;">
    <g transform="matrix(1,0,0,1,-1536,-480)">
        <g id="default" transform="matrix(1,0,0,1.37634,1536,294.194)">
            <rect x="0" y="135" width="128" height="93" style="fill:none;"/>
            <g transform="matrix(1,0,0,0.726562,0,135)">
                <circle cx="64" cy="64" r="55" style="fill:rgb(28,160,55);"/>
            </g>
            <g transform="matrix(1,0,0,0.726562,0,135)">
                <path d="M100.031,48.505L53.63,94.833C52.731,95.732 51.404,96.156 49.656,96.107C48.057,96.06 46.833,95.631 45.983,94.833L25.967,74.816C25.069,73.918 24.619,72.819 24.619,71.519C24.619,70.22 25.068,69.121 25.967,68.22L32.64,61.549C33.539,60.652 34.638,60.2 35.939,60.2C37.238,60.2 38.337,60.651 39.237,61.549L49.807,72.12L86.764,35.238C87.663,34.338 88.762,33.889 90.061,33.889C91.36,33.889 92.46,34.338 93.361,35.238L100.032,41.834C100.93,42.785 101.382,43.897 101.382,45.17C101.381,46.446 100.93,47.556 100.031,48.505Z" style="fill:white;fill-rule:nonzero;"/>
            </g>
        </g>
    </g>
</svg>
