<?xml version="1.0" encoding="UTF-8" standalone="no"?>
<!DOCTYPE svg PUBLIC "-//W3C//DTD SVG 1.1//EN" "http://www.w3.org/Graphics/SVG/1.1/DTD/svg11.dtd">
<svg width="100%" height="100%" viewBox="0 0 128 128" version="1.1" xmlns="http://www.w3.org/2000/svg" xmlns:xlink="http://www.w3.org/1999/xlink" xml:space="preserve" style="fill-rule:evenodd;clip-rule:evenodd;stroke-linejoin:round;stroke-miterlimit:1.41421;">
    <g transform="matrix(1,0,0,1,-1536,-320)">
        <g id="default_for_all_bookmarks" transform="matrix(1,0,0,1,1536,320)">
            <rect x="0" y="0" width="128" height="128" style="fill:none;"/>
            <path d="M32.23,94.407C32.23,90.482 33.747,86.802 36.507,84.037L39.078,81.467L39.078,9L9,9L9,119L24.041,104.135L39.078,119L39.078,107.347L36.509,104.778C33.75,102.02 32.23,98.337 32.23,94.407Z" style="fill:rgb(2,47,93);fill-rule:nonzero;"/>
            <path d="M107.672,46.776C111.59,46.776 115.264,48.287 118.02,51.031L119,52L119,9L88.922,9L88.922,59.419L97.302,51.056C100.061,48.296 103.743,46.776 107.672,46.776Z" style="fill:rgb(129,156,189);fill-rule:nonzero;"/>
            <path d="M63.919,77.366L67.426,80.872L79.039,69.282L79.039,9L48.961,9L48.961,73.824C50.422,73.347 51.964,73.088 53.549,73.088C57.47,73.088 61.149,74.604 63.919,77.366Z" style="fill:rgb(66,97,128);fill-rule:nonzero;"/>
            <path d="M117.643,71.393L71.242,117.721C70.343,118.62 69.016,119.044 67.268,118.995C65.669,118.948 64.445,118.519 63.595,117.721L43.578,97.704C42.679,96.806 42.23,95.707 42.23,94.407C42.23,93.108 42.679,92.009 43.578,91.108L50.251,84.436C51.15,83.539 52.249,83.087 53.549,83.087C54.848,83.087 55.947,83.538 56.847,84.436L67.417,95.007L104.374,58.124C105.273,57.224 106.372,56.775 107.671,56.775C108.97,56.775 110.07,57.224 110.971,58.124L117.642,64.72C118.54,65.671 118.992,66.783 118.992,68.056C118.992,69.333 118.541,70.443 117.643,71.393Z" style="fill:rgb(28,160,55);fill-rule:nonzero;"/>
        </g>
    </g>
</svg>
