<?xml version="1.0" encoding="UTF-8" standalone="no"?>
<!DOCTYPE svg PUBLIC "-//W3C//DTD SVG 1.1//EN" "http://www.w3.org/Graphics/SVG/1.1/DTD/svg11.dtd">
<svg width="100%" height="100%" viewBox="0 0 128 128" version="1.1" xmlns="http://www.w3.org/2000/svg" xmlns:xlink="http://www.w3.org/1999/xlink" xml:space="preserve" style="fill-rule:evenodd;clip-rule:evenodd;stroke-linejoin:round;stroke-miterlimit:1.41421;">
    <g transform="matrix(1,0,0,1,-1536,-640)">
        <g id="delete_avatar" transform="matrix(1,0,0,1.37634,1536,454.194)">
            <rect x="0" y="135" width="128" height="93" style="fill:none;"/>
            <g transform="matrix(1,0,0,0.726562,0,135)">
                <path d="M73.413,63.975L88.504,79.115C89.176,79.812 89.5,80.585 89.5,81.506C89.5,82.402 89.176,83.199 88.504,83.806L83.822,88.502C83.199,89.176 82.402,89.5 81.481,89.5C80.56,89.5 79.763,89.176 79.14,88.502L64,73.389L48.859,88.502C48.224,89.176 47.452,89.5 46.518,89.5C45.584,89.5 44.812,89.176 44.177,88.502L39.495,83.806C38.835,83.2 38.499,82.403 38.499,81.506C38.499,80.585 38.835,79.813 39.495,79.115L54.586,63.975L39.496,48.872C38.836,48.199 38.5,47.418 38.5,46.506C38.5,45.585 38.836,44.796 39.496,44.141L44.178,39.45C44.813,38.812 45.585,38.501 46.519,38.501C47.453,38.501 48.225,38.813 48.86,39.45L64,54.6L79.141,39.45C79.764,38.812 80.561,38.501 81.482,38.501C82.403,38.501 83.2,38.813 83.823,39.45L88.505,44.141C89.177,44.796 89.501,45.585 89.501,46.506C89.501,47.418 89.177,48.199 88.505,48.872L73.413,63.975Z" style="fill:rgb(201,7,9);fill-rule:nonzero;"/>
            </g>
            <g transform="matrix(1,0,0,0.726562,0,135)">
                <path d="M104,19C106.757,19 109,21.243 109,24L109,104C109,106.757 106.757,109 104,109L24,109C21.243,109 19,106.757 19,104L19,24C19,21.243 21.243,19 24,19L104,19M104,9L24,9C15.716,9 9,15.716 9,24L9,104C9,112.284 15.716,119 24,119L104,119C112.284,119 119,112.284 119,104L119,24C119,15.716 112.284,9 104,9Z" style="fill:rgb(64,69,71);fill-rule:nonzero;"/>
            </g>
        </g>
    </g>
</svg>
