<?xml version="1.0" encoding="UTF-8" standalone="no"?><!DOCTYPE svg PUBLIC "-//W3C//DTD SVG 1.1//EN" "http://www.w3.org/Graphics/SVG/1.1/DTD/svg11.dtd"><svg width="100%" height="100%" viewBox="0 0 128 128" version="1.1" xmlns="http://www.w3.org/2000/svg" xmlns:xlink="http://www.w3.org/1999/xlink" xml:space="preserve" style="fill-rule:evenodd;clip-rule:evenodd;stroke-linejoin:round;stroke-miterlimit:1.41421;"><rect id="download" x="0" y="0" width="128" height="128" style="fill:none;"/><path d="M29.784,98.152l68.517,0l0,-18.296l20.8,0l0,20.128l-0.001,0.203l-0.004,0.236l-0.007,0.229l-0.009,0.223l-0.012,0.231l-0.014,0.23l-0.018,0.23l-0.02,0.231l-0.021,0.218l-0.025,0.231l-0.028,0.225l-0.029,0.224l-0.034,0.232l-0.034,0.218l-0.038,0.224l-0.039,0.219l-0.043,0.224l-0.046,0.225l-0.046,0.213l-0.051,0.224l-0.052,0.216l-0.055,0.219l-0.058,0.219l-0.059,0.214l-0.063,0.218l-0.064,0.213l-0.066,0.208l-0.068,0.21l-0.074,0.218l-0.073,0.209l-0.076,0.208l-0.079,0.21l-0.081,0.206l-0.084,0.209l-0.085,0.201l-0.086,0.201l-0.092,0.206l-0.091,0.199l-0.095,0.201l-0.096,0.198l-0.1,0.199l-0.102,0.199l-0.1,0.188l-0.107,0.197l-0.111,0.198l-0.109,0.189l-0.111,0.188l-0.116,0.192l-0.114,0.183l-0.12,0.188l-0.123,0.188l-0.121,0.18l-0.125,0.182l-0.125,0.177l-0.131,0.181l-0.136,0.183l-0.132,0.174l-0.133,0.172l-0.138,0.173l-0.141,0.172l-0.14,0.168l-0.145,0.169l-0.151,0.172l-0.145,0.161l-0.151,0.165l-0.15,0.159l-0.155,0.16l-0.157,0.159l-0.159,0.158l-0.161,0.155l-0.159,0.15l-0.17,0.155l-0.167,0.15l-0.165,0.145l-0.167,0.142l-0.176,0.148l-0.18,0.145l-0.173,0.137l-0.174,0.135l-0.185,0.139l-0.187,0.137l-0.18,0.129l-0.182,0.126l-0.188,0.128l-0.195,0.129l-0.192,0.123l-0.194,0.121l-0.195,0.118l-0.196,0.115l-0.2,0.115l-0.202,0.112l-0.201,0.108l-0.205,0.107l-0.206,0.104l-0.207,0.102l-0.215,0.101l-0.21,0.096l-0.215,0.095l-0.218,0.093l-0.214,0.087l-0.209,0.083l-0.228,0.087l-0.22,0.08l-0.221,0.078l-0.23,0.076l-0.22,0.071l-0.226,0.069l-0.229,0.066l-0.237,0.066l-0.226,0.058l-0.231,0.057l-0.239,0.056l-0.232,0.05l-0.233,0.048l-0.233,0.044l-0.239,0.042l-0.241,0.039l-0.241,0.035l-0.246,0.033l-0.24,0.028l-0.233,0.024l-0.247,0.023l-0.248,0.019l-0.239,0.015l-0.246,0.012l-0.246,0.008l-0.245,0.006l-0.209,0.001l-73.763,0l-0.209,-0.001l-0.245,-0.006l-0.246,-0.008l-0.246,-0.012l-0.24,-0.015l-0.247,-0.019l-0.247,-0.023l-0.233,-0.024l-0.24,-0.028l-0.248,-0.033l-0.239,-0.035l-0.24,-0.039l-0.24,-0.042l-0.233,-0.044l-0.233,-0.048l-0.232,-0.05l-0.241,-0.056l-0.231,-0.057l-0.222,-0.058l-0.239,-0.066l-0.231,-0.067l-0.222,-0.068l-0.223,-0.071l-0.228,-0.076l-0.222,-0.078l-0.22,-0.08l-0.226,-0.086l-0.214,-0.085l-0.211,-0.086l-0.218,-0.093l-0.218,-0.096l-0.207,-0.095l-0.215,-0.101l-0.207,-0.102l-0.206,-0.104l-0.205,-0.107l-0.198,-0.106l-0.205,-0.114l-0.203,-0.117l-0.193,-0.113l-0.192,-0.116l-0.197,-0.123l-0.191,-0.123l-0.193,-0.127l-0.192,-0.13l-0.185,-0.129l-0.18,-0.129l-0.183,-0.134l-0.185,-0.139l-0.17,-0.132l-0.177,-0.14l-0.183,-0.148l-0.169,-0.142l-0.168,-0.142l-0.168,-0.148l-0.171,-0.153l-0.165,-0.152l-0.16,-0.15l-0.161,-0.155l-0.159,-0.158l-0.157,-0.159l-0.155,-0.16l-0.15,-0.159l-0.148,-0.161l-0.152,-0.169l-0.15,-0.172l-0.142,-0.165l-0.136,-0.163l-0.141,-0.173l-0.142,-0.177l-0.137,-0.177l-0.132,-0.173l-0.128,-0.174l-0.131,-0.181l-0.129,-0.182l-0.125,-0.182l-0.124,-0.185l-0.12,-0.183l-0.12,-0.188l-0.117,-0.189l-0.113,-0.186l-0.111,-0.188l-0.108,-0.189l-0.112,-0.198l-0.103,-0.191l-0.104,-0.194l-0.102,-0.199l-0.1,-0.199l-0.096,-0.198l-0.095,-0.201l-0.091,-0.199l-0.089,-0.2l-0.089,-0.207l-0.087,-0.207l-0.084,-0.209l-0.079,-0.2l-0.079,-0.21l-0.076,-0.208l-0.073,-0.209l-0.072,-0.211l-0.069,-0.21l-0.067,-0.215l-0.066,-0.219l-0.063,-0.218l-0.057,-0.208l-0.056,-0.212l-0.057,-0.226l-0.052,-0.216l-0.05,-0.217l-0.048,-0.227l-0.045,-0.218l-0.042,-0.217l-0.04,-0.226l-0.038,-0.224l-0.035,-0.224l-0.033,-0.226l-0.03,-0.224l-0.027,-0.225l-0.024,-0.225l-0.023,-0.231l-0.019,-0.224l-0.018,-0.23l-0.014,-0.23l-0.012,-0.224l-0.009,-0.237l-0.007,-0.229l-0.004,-0.222l-0.001,-0.203l0,-20.135l20.8,0l0,18.296Z" style="fill:#404547;"/><path d="M38.129,46.904l26.867,32.953l26.875,-32.953l-16.484,0l0,-30.384c0.006,-2.057 -0.72,-3.801 -2.16,-5.292c-1.425,-1.471 -3.222,-2.227 -5.345,-2.224l-5.758,-0.004c-2.119,0.004 -3.916,0.718 -5.344,2.196c-1.444,1.425 -2.163,3.216 -2.165,5.327l0,30.38l-16.486,0l0,0.001Z" style="fill:#1ca037;fill-rule:nonzero;"/></svg>