<?xml version="1.0" encoding="UTF-8" standalone="no"?><!DOCTYPE svg PUBLIC "-//W3C//DTD SVG 1.1//EN" "http://www.w3.org/Graphics/SVG/1.1/DTD/svg11.dtd"><svg width="100%" height="100%" viewBox="0 0 128 128" version="1.1" xmlns="http://www.w3.org/2000/svg" xmlns:xlink="http://www.w3.org/1999/xlink" xml:space="preserve" style="fill-rule:evenodd;clip-rule:evenodd;stroke-linejoin:round;stroke-miterlimit:1.41421;"><rect id="edit" x="0" y="0" width="128" height="128" style="fill:none;"/><path d="M50.187,90.873c0,-10.999 4.688,-20.918 12.163,-27.883c-0.935,-0.846 -1.607,-1.616 -1.596,-2.05c0.019,-0.075 0.045,-0.147 0.101,-0.208c3.98,-4.316 5.752,-5.666 7.824,-10.766l0.662,-1.623l1.479,-0.759c1.221,-0.63 2.846,-3.052 3.732,-7.053c0.504,-2.279 0.605,-4.581 0.285,-6.317c-0.232,-1.245 -0.613,-1.896 -0.891,-2.092l-1.729,-1.211l-0.256,-2.226c-1.335,-11.663 -8.013,-19.686 -19.939,-19.686c-0.001,0 -0.002,0 -0.003,0c0,0 -0.001,0 -0.002,0c-11.926,0 -18.604,8.023 -19.94,19.687l-0.257,2.226l-1.728,1.211c-0.277,0.196 -0.659,0.847 -0.892,2.092c-0.32,1.736 -0.219,4.038 0.285,6.317c0.888,4 2.512,6.423 3.733,7.053l1.477,0.759l0.663,1.623c2.073,5.1 3.844,6.45 7.825,10.766c0.056,0.061 0.082,0.133 0.101,0.208c0.028,1.072 -4.099,4.202 -6.161,5.447c-0.243,0.141 -0.465,0.264 -0.64,0.353c-1.369,0.687 -2.756,1.076 -4.219,1.491c-4.07,1.139 -8.684,2.439 -14.287,10.972c-4.208,6.423 -6.143,28.463 -6.384,39.796l51.01,0c-7.624,-6.977 -12.416,-17.002 -12.416,-28.127Z" style="fill:#426180;fill-rule:nonzero;"/><circle cx="88.281" cy="90.861" r="28.125" style="fill:#1a91d0;"/><path d="M94.328,109.912c0,0.802 -0.276,1.479 -0.824,2.021c-0.549,0.554 -1.225,0.83 -2.021,0.83l-6.403,0c-0.798,0 -1.475,-0.285 -2.022,-0.846c-0.549,-0.565 -0.824,-1.229 -0.824,-2.005l0,-20.72c0,-0.802 0.275,-1.474 0.824,-2.021c0.548,-0.553 1.225,-0.824 2.022,-0.824l6.403,0c0.797,0 1.473,0.271 2.021,0.824c0.548,0.548 0.824,1.22 0.824,2.021l0,20.72Z" style="fill:#fff;fill-rule:nonzero;"/><path d="M94.328,77.913c0,0.802 -0.276,1.479 -0.824,2.021c-0.549,0.554 -1.225,0.83 -2.021,0.83l-6.403,0c-0.798,0 -1.475,-0.285 -2.022,-0.847c-0.549,-0.564 -0.824,-1.229 -0.824,-2.004l0,-6.104c0,-0.802 0.275,-1.473 0.824,-2.021c0.548,-0.553 1.225,-0.824 2.022,-0.824l6.403,0c0.797,0 1.473,0.271 2.021,0.824c0.548,0.549 0.824,1.22 0.824,2.021l0,6.104Z" style="fill:#fff;fill-rule:nonzero;"/></svg>