<?xml version="1.0" encoding="UTF-8" standalone="no"?><!DOCTYPE svg PUBLIC "-//W3C//DTD SVG 1.1//EN" "http://www.w3.org/Graphics/SVG/1.1/DTD/svg11.dtd"><svg width="100%" height="100%" viewBox="0 0 128 128" version="1.1" xmlns="http://www.w3.org/2000/svg" xmlns:xlink="http://www.w3.org/1999/xlink" xml:space="preserve" style="fill-rule:evenodd;clip-rule:evenodd;stroke-linejoin:round;stroke-miterlimit:1.41421;"><rect id="emoticon" x="0" y="0" width="128" height="128" style="fill:none;"/><path d="M119.14,61.814c-0.87,-29 -25.53,-53.13 -55.4,-52.91c-29.99,-0.48 -56.15,25.4 -54.86,57.42c1.2,28.85 25.94,53.75 57.11,52.75c29.09,-1 54.09,-25.93 53.15,-57.26Zm-55.25,47c-24.542,-0.136 -44.691,-20.298 -44.81,-44.84c0.06,-24.6 20.3,-44.9 44.75,-44.9c0.01,0 0.02,0 0.03,0c24.599,0 44.84,20.241 44.84,44.84c0,24.587 -20.223,44.823 -44.81,44.84l0,0.06Z" style="fill:#022f5d;fill-rule:nonzero;"/><path d="M83.84,75.424c-13.29,11.93 -27.72,12 -41,0.09c-2.76,-2.44 -5.52,-3.62 -8.27,-0.63c-2.75,2.99 -1.12,5.82 1.39,8.19c7.68,7.3 16.75,11.25 27.45,11.21c10.246,-0.091 20.061,-4.188 27.33,-11.41c2.56,-2.61 3.7,-5.39 0.92,-8.24c-2.78,-2.85 -5.29,-1.48 -7.82,0.79Z" style="fill:#022f5d;fill-rule:nonzero;"/><path d="M46.48,58.074c0.016,0 0.031,0 0.047,0c4.01,0 7.31,-3.3 7.31,-7.31c0,-0.104 -0.003,-0.207 -0.007,-0.31c0,-0.016 0,-0.033 0,-0.049c0,-4.164 -3.426,-7.59 -7.59,-7.59c-4.164,0 -7.59,3.426 -7.59,7.59c0,0.183 0.007,0.366 0.02,0.549c0.23,4.46 3.3,7.26 7.81,7.12Z" style="fill:#022f5d;fill-rule:nonzero;"/><path d="M81.85,58.074c0.098,0.004 0.196,0.006 0.294,0.006c3.961,0 7.22,-3.26 7.22,-7.22c0,-0.082 -0.001,-0.164 -0.004,-0.246c-0.024,-4.126 -3.347,-7.542 -7.47,-7.68c-0.045,-0.001 -0.09,-0.001 -0.135,-0.001c-4.175,0 -7.61,3.435 -7.61,7.61c0,0.09 0.002,0.18 0.005,0.271c0.01,3.992 3.298,7.271 7.29,7.271c0.137,0 0.274,-0.004 0.41,-0.011l0,0Z" style="fill:#022f5d;fill-rule:nonzero;"/></svg>