<?xml version="1.0" encoding="UTF-8" standalone="no"?>
<!DOCTYPE svg PUBLIC "-//W3C//DTD SVG 1.1//EN" "http://www.w3.org/Graphics/SVG/1.1/DTD/svg11.dtd">
<svg width="100%" height="100%" viewBox="0 0 128 128" version="1.1" xmlns="http://www.w3.org/2000/svg" xmlns:xlink="http://www.w3.org/1999/xlink" xml:space="preserve" style="fill-rule:evenodd;clip-rule:evenodd;stroke-linejoin:round;stroke-miterlimit:1.41421;">
    <g transform="matrix(1,0,0,1,-1920,-320)">
        <g id="filetransfer" transform="matrix(1,0,0,1,1920,320)">
            <rect x="0" y="0" width="128" height="128" style="fill:none;"/>
            <g transform="matrix(1,0,0,1,-0.0005,0.001)">
                <path d="M110.406,30.914L64.859,30.914L64.859,24.898C64.859,20.152 61.012,16.304 56.265,16.304L17.594,16.304C12.848,16.305 9,20.152 9,24.898L9,103.1C9,107.846 12.848,111.694 17.594,111.694L110.407,111.694C115.154,111.694 119.001,107.846 119.001,103.1L119.001,45.523L119.001,44.664L119.001,39.508C119,34.762 115.153,30.914 110.406,30.914Z" style="fill:rgb(175,162,1);fill-rule:nonzero;"/>
            </g>
            <g transform="matrix(1,0,0,1,-0.0005,0.001)">
                <path d="M87.973,47.896L68.496,71.774L81.902,71.774L81.902,94.861C81.902,95.713 82.194,96.433 82.78,97.017C83.366,97.603 84.079,97.896 84.939,97.896L91.01,97.896C91.832,97.896 92.549,97.603 93.147,97.017C93.747,96.433 94.054,95.712 94.054,94.861L94.054,71.774L107.445,71.774L87.973,47.896Z" style="fill:rgb(64,69,71);fill-rule:nonzero;"/>
                <path d="M40.027,97.896L59.504,74.017L46.098,74.017L46.098,50.931C46.098,50.079 45.806,49.359 45.22,48.775C44.634,48.189 43.921,47.896 43.061,47.896L36.99,47.896C36.168,47.896 35.451,48.189 34.853,48.775C34.253,49.359 33.946,50.08 33.946,50.931L33.946,74.017L20.555,74.017L40.027,97.896Z" style="fill:rgb(64,69,71);fill-rule:nonzero;"/>
            </g>
        </g>
    </g>
</svg>
