<?xml version="1.0" encoding="UTF-8" standalone="no"?>
<!DOCTYPE svg PUBLIC "-//W3C//DTD SVG 1.1//EN" "http://www.w3.org/Graphics/SVG/1.1/DTD/svg11.dtd">
<svg width="100%" height="100%" viewBox="0 0 128 128" version="1.1" xmlns="http://www.w3.org/2000/svg" xmlns:xlink="http://www.w3.org/1999/xlink" xml:space="preserve" style="fill-rule:evenodd;clip-rule:evenodd;stroke-linejoin:round;stroke-miterlimit:1.41421;">
    <g transform="matrix(1,0,0,1,-1920,0)">
        <g id="file_home" transform="matrix(1,0,0,1,1920,0)">
            <rect x="0" y="0" width="128" height="128" style="fill:none;"/>
            <g id="Ebene_1" transform="matrix(1,0,0,1,-0.0005,0)">
                <path d="M110.406,30.914L64.859,30.914L64.859,24.898C64.859,20.152 61.012,16.304 56.265,16.304L17.594,16.304C12.848,16.305 9,20.152 9,24.898L9,103.1C9,107.846 12.848,111.694 17.594,111.694L110.407,111.694C115.154,111.694 119.001,107.846 119.001,103.1L119.001,45.523L119.001,44.664L119.001,39.508C119,34.762 115.153,30.914 110.406,30.914Z" style="fill:rgb(175,162,1);fill-rule:nonzero;"/>
            </g>
            <g id="Ebene_2" transform="matrix(1,0,0,1,-0.0005,0)">
                <path d="M89.5,66.885L64,43.885L38.5,66.885L38.5,100.885L53.5,100.885L53.5,84.041C53.5,81.194 55.804,78.891 58.646,78.891L69.355,78.891C72.192,78.891 74.5,81.195 74.5,84.041L74.5,100.885L89.5,100.885L89.5,66.885Z" style="fill:rgb(64,69,71);fill-rule:nonzero;"/>
            </g>
        </g>
    </g>
</svg>
