<?xml version="1.0" encoding="UTF-8" standalone="no"?>
<!DOCTYPE svg PUBLIC "-//W3C//DTD SVG 1.1//EN" "http://www.w3.org/Graphics/SVG/1.1/DTD/svg11.dtd">
<svg width="100%" height="100%" viewBox="0 0 128 128" version="1.1" xmlns="http://www.w3.org/2000/svg" xmlns:xlink="http://www.w3.org/1999/xlink" xml:space="preserve" style="fill-rule:evenodd;clip-rule:evenodd;stroke-linejoin:round;stroke-miterlimit:1.41421;">
    <g transform="matrix(1,0,0,1,-1920,-160)">
        <g id="file_refresh" transform="matrix(1,0,0,1,1920,160)">
            <rect x="0" y="0" width="128" height="128" style="fill:none;"/>
            <g transform="matrix(1,0,0,1,-0.0005,0.001)">
                <path d="M110.406,30.914L64.859,30.914L64.859,24.898C64.859,20.152 61.012,16.304 56.265,16.304L17.594,16.304C12.848,16.305 9,20.152 9,24.898L9,103.1C9,107.846 12.848,111.694 17.594,111.694L110.407,111.694C115.154,111.694 119.001,107.846 119.001,103.1L119.001,45.523L119.001,44.664L119.001,39.508C119,34.762 115.153,30.914 110.406,30.914Z" style="fill:rgb(175,162,1);fill-rule:nonzero;"/>
            </g>
            <g transform="matrix(1,0,0,1,-0.0005,0.001)">
                <path d="M64.21,92.993C52.765,92.993 43.448,83.677 43.448,72.227C43.448,60.781 52.764,51.463 64.21,51.463C69.127,51.463 73.639,53.182 77.175,56.043L66.895,64.948L94,68.959L93.945,41.548L84.42,49.787C79.087,44.961 71.998,42.002 64.21,42.002C47.521,42.002 34,55.538 34,72.228C34,88.904 47.521,102.427 64.21,102.427C77.295,102.427 88.445,94.107 92.623,82.482L82.977,81.041C79.668,88.082 72.502,92.993 64.21,92.993Z" style="fill:rgb(64,69,71);fill-rule:nonzero;"/>
            </g>
        </g>
    </g>
</svg>
