<?xml version="1.0" encoding="UTF-8" standalone="no"?>
<!DOCTYPE svg PUBLIC "-//W3C//DTD SVG 1.1//EN" "http://www.w3.org/Graphics/SVG/1.1/DTD/svg11.dtd">
<svg width="100%" height="100%" viewBox="0 0 128 128" version="1.1" xmlns="http://www.w3.org/2000/svg" xmlns:xlink="http://www.w3.org/1999/xlink" xml:space="preserve" style="fill-rule:evenodd;clip-rule:evenodd;stroke-linejoin:round;stroke-miterlimit:1.41421;">
    <g transform="matrix(1,0,0,1,-1920,-640)">
        <g id="folder_up" transform="matrix(1,0,0,1.37634,1920,454.194)">
            <rect x="0" y="135" width="128" height="93" style="fill:none;"/>
            <g transform="matrix(1,0,0,0.726562,-0.0005,135.001)">
                <path d="M110.406,30.914L64.859,30.914L64.859,24.898C64.859,20.152 61.012,16.304 56.265,16.304L17.594,16.304C12.848,16.305 9,20.152 9,24.898L9,103.1C9,107.846 12.848,111.694 17.594,111.694L110.407,111.694C115.154,111.694 119.001,107.846 119.001,103.1L119.001,45.523L119.001,44.664L119.001,39.508C119,34.762 115.153,30.914 110.406,30.914Z" style="fill:rgb(175,162,1);fill-rule:nonzero;"/>
            </g>
            <g transform="matrix(1,0,0,0.726562,-0.0005,135.001)">
                <path d="M63.952,54.374C65.001,54.374 66.04,54.893 67.079,55.936L87.98,77.133C88.661,77.814 89,78.643 89,79.619C89,80.595 88.661,81.423 87.98,82.112L85.485,84.596C84.806,85.286 83.968,85.625 82.992,85.625C82.016,85.625 81.188,85.286 80.507,84.596L64,68.095L47.492,84.597C46.812,85.287 45.979,85.626 45.004,85.626C44.027,85.626 43.198,85.287 42.513,84.597L40.025,82.113C39.34,81.423 39,80.595 39,79.619C39,78.642 39.34,77.813 40.024,77.133L60.826,55.936C61.867,54.893 62.905,54.374 63.952,54.374Z" style="fill:rgb(64,69,71);fill-rule:nonzero;"/>
            </g>
        </g>
    </g>
</svg>
