<?xml version="1.0" encoding="UTF-8" standalone="no"?><!DOCTYPE svg PUBLIC "-//W3C//DTD SVG 1.1//EN" "http://www.w3.org/Graphics/SVG/1.1/DTD/svg11.dtd"><svg width="100%" height="100%" viewBox="0 0 128 128" version="1.1" xmlns="http://www.w3.org/2000/svg" xmlns:xlink="http://www.w3.org/1999/xlink" xml:space="preserve" style="fill-rule:evenodd;clip-rule:evenodd;stroke-linejoin:round;stroke-miterlimit:1.41421;"><rect id="group_300" x="0" y="0" width="128" height="128" style="fill:none;"/><path d="M67.486,115.603l0.764,-10.98l0.855,-12.298l2.871,1.291c-2.372,-2.884 -4.729,-7.43 -4.729,-14.101c0,-3.965 0.867,-7.617 2.574,-10.852c0.152,-0.289 0.317,-0.571 0.482,-0.854c-0.952,-0.291 -1.873,-0.613 -2.779,-1.069c-1.795,-0.906 -7.521,-5.125 -6.706,-6.005c4.153,-4.499 5.755,-5.678 7.833,-10.778l0.654,-1.614l1.461,-0.762c1.223,-0.636 2.853,-3.06 3.729,-7.052c0.503,-2.279 0.608,-4.581 0.286,-6.314c-0.236,-1.239 -0.613,-1.896 -0.895,-2.093l-1.703,-1.214l-0.264,-2.211c-1.316,-11.671 -7.997,-19.698 -19.916,-19.698c-11.926,0 -18.604,8.023 -19.94,19.687l-0.257,2.226l-1.728,1.211c-0.277,0.196 -0.659,0.847 -0.892,2.092c-0.32,1.736 -0.219,4.038 0.285,6.317c0.888,4 2.512,6.423 3.733,7.053l1.477,0.759l0.663,1.623c2.073,5.1 3.844,6.45 7.825,10.766c1.067,1.157 -4.901,5.096 -6.701,6.007c-1.369,0.687 -2.756,1.076 -4.219,1.491c-4.07,1.139 -8.684,2.439 -14.287,10.972c-4.208,6.423 -6.143,28.463 -6.384,39.796l55.67,0l0.238,-3.396Z" style="fill:#404547;fill-rule:nonzero;"/><path d="M76.823,105.219c2.76,1.241 5.475,2.157 8.127,2.741c2.65,0.592 5.215,0.882 7.689,0.882c2.476,0 4.616,-0.463 6.438,-1.396c1.819,-0.934 2.727,-2.368 2.727,-4.3c0,-0.9 -0.163,-1.691 -0.489,-2.389c-0.327,-0.688 -0.896,-1.346 -1.692,-1.968c-0.799,-0.619 -1.908,-1.224 -3.327,-1.81c-1.419,-0.591 -3.253,-1.26 -5.51,-2.021c-5.38,-1.731 -9.218,-3.753 -11.509,-6.063c-2.29,-2.317 -3.436,-5.439 -3.436,-9.379c0,-2.554 0.523,-4.838 1.582,-6.843c1.055,-2.001 2.563,-3.712 4.526,-5.129c1.964,-1.417 4.309,-2.504 7.036,-3.266c2.728,-0.758 5.76,-1.139 9.11,-1.139c5.891,0 10.983,0.831 15.271,2.489l-1.199,10.358c-4.658,-2.001 -9.131,-3.002 -13.419,-3.002c-2.477,0 -4.507,0.487 -6.11,1.451c-1.602,0.966 -2.398,2.351 -2.398,4.146c0,0.896 0.163,1.674 0.49,2.329c0.327,0.658 0.873,1.243 1.637,1.765c0.764,0.515 1.82,1.037 3.164,1.551c1.342,0.522 3.001,1.088 4.965,1.713c2.474,0.761 4.69,1.61 6.654,2.538c1.962,0.93 3.632,2.02 5.018,3.269c1.383,1.242 2.432,2.69 3.163,4.352c0.729,1.653 1.092,3.622 1.092,5.908c0,2.763 -0.568,5.195 -1.691,7.308c-1.126,2.104 -2.694,3.88 -4.691,5.335c-1.998,1.447 -4.417,2.535 -7.254,3.263c-2.837,0.729 -5.968,1.088 -9.384,1.088c-3.054,0 -6.021,-0.226 -8.889,-0.676c-2.872,-0.444 -5.695,-1.152 -8.455,-2.124l0.764,-10.981Z" style="fill:#c90709;fill-rule:nonzero;"/></svg>