<?xml version="1.0" encoding="UTF-8" standalone="no"?><!DOCTYPE svg PUBLIC "-//W3C//DTD SVG 1.1//EN" "http://www.w3.org/Graphics/SVG/1.1/DTD/svg11.dtd"><svg width="100%" height="100%" viewBox="0 0 128 128" version="1.1" xmlns="http://www.w3.org/2000/svg" xmlns:xlink="http://www.w3.org/1999/xlink" xml:space="preserve" style="fill-rule:evenodd;clip-rule:evenodd;stroke-linejoin:round;stroke-miterlimit:1.41421;"><rect id="group_100" x="0" y="0" width="128" height="128" style="fill:none;"/><path d="M75.806,117.969c-3.701,-3.228 -6.589,-7.191 -8.59,-11.797c-1.945,-4.502 -2.932,-9.513 -2.932,-14.89c0,-5.622 1.097,-10.816 3.258,-15.44c1.271,-2.716 2.847,-5.209 4.697,-7.469c-0.167,-0.048 -0.334,-0.095 -0.499,-0.141c-1.478,-0.417 -2.861,-0.809 -4.216,-1.49c-1.795,-0.906 -7.521,-5.125 -6.706,-6.005c4.153,-4.499 5.755,-5.678 7.833,-10.778l0.654,-1.614l1.461,-0.762c1.223,-0.636 2.853,-3.06 3.729,-7.052c0.503,-2.279 0.608,-4.581 0.286,-6.314c-0.236,-1.239 -0.613,-1.896 -0.895,-2.093l-1.703,-1.214l-0.264,-2.211c-1.317,-11.672 -7.998,-19.699 -19.917,-19.699c-11.926,0 -18.604,8.023 -19.94,19.687l-0.257,2.226l-1.728,1.211c-0.277,0.196 -0.659,0.847 -0.892,2.092c-0.32,1.736 -0.219,4.038 0.285,6.317c0.888,4 2.512,6.423 3.733,7.053l1.477,0.759l0.663,1.623c2.073,5.1 3.844,6.45 7.825,10.766c1.067,1.157 -4.901,5.096 -6.701,6.007c-1.369,0.687 -2.756,1.076 -4.219,1.491c-4.07,1.139 -8.684,2.439 -14.287,10.972c-4.208,6.423 -6.143,28.463 -6.384,39.796l65.474,0c-0.421,-0.336 -0.839,-0.678 -1.245,-1.031Z" style="fill:#404547;fill-rule:nonzero;"/><path d="M114.644,75.413c-1.34,-0.567 -2.718,-0.989 -4.124,-1.272c-1.412,-0.281 -3.045,-0.421 -4.9,-0.421c-2.819,0 -5.289,0.463 -7.402,1.378c-2.115,0.915 -3.901,2.147 -5.345,3.701c-1.452,1.553 -2.55,3.367 -3.287,5.447c-0.74,2.083 -1.118,4.323 -1.118,6.72c0,2.471 0.336,4.743 1.007,6.823c0.669,2.083 1.721,3.894 3.175,5.447c1.445,1.554 3.265,2.754 5.457,3.598c2.189,0.847 4.807,1.271 7.851,1.271c1.709,0 3.342,-0.146 4.896,-0.425c1.561,-0.279 3.155,-0.774 4.789,-1.479l0.781,11.105c-1.936,0.568 -3.826,0.986 -5.68,1.272c-1.856,0.282 -4.006,0.421 -6.457,0.421c-4.751,0 -9.059,-0.653 -12.923,-1.956c-3.858,-1.304 -7.159,-3.155 -9.909,-5.553c-2.749,-2.396 -4.864,-5.309 -6.35,-8.728c-1.48,-3.427 -2.227,-7.247 -2.227,-11.481c0,-4.375 0.816,-8.308 2.449,-11.8c1.633,-3.49 3.865,-6.447 6.688,-8.885c2.817,-2.431 6.104,-4.281 9.853,-5.553c3.744,-1.268 7.738,-1.904 11.975,-1.904c2.371,0 4.508,0.106 6.397,0.317c1.899,0.214 3.733,0.6 5.513,1.166l-1.109,10.791Z" style="fill:#c90709;fill-rule:nonzero;"/></svg>