<?xml version="1.0" encoding="UTF-8" standalone="no"?><!DOCTYPE svg PUBLIC "-//W3C//DTD SVG 1.1//EN" "http://www.w3.org/Graphics/SVG/1.1/DTD/svg11.dtd"><svg width="100%" height="100%" viewBox="0 0 128 128" version="1.1" xmlns="http://www.w3.org/2000/svg" xmlns:xlink="http://www.w3.org/1999/xlink" xml:space="preserve" style="fill-rule:evenodd;clip-rule:evenodd;stroke-linejoin:round;stroke-miterlimit:1.41421;"><rect id="group_600" x="0" y="0" width="128" height="128" style="fill:none;"/><path d="M47.436,66.237l-4.517,-11.69l23.35,0c0.84,-1.222 1.576,-2.609 2.383,-4.588l0.654,-1.614l1.461,-0.762c1.223,-0.636 2.853,-3.06 3.729,-7.052c0.503,-2.279 0.608,-4.581 0.286,-6.314c-0.236,-1.239 -0.613,-1.896 -0.895,-2.093l-1.703,-1.214l-0.264,-2.211c-1.318,-11.672 -7.999,-19.699 -19.918,-19.699c-11.926,0 -18.604,8.023 -19.94,19.687l-0.257,2.226l-1.728,1.211c-0.277,0.196 -0.659,0.847 -0.892,2.092c-0.32,1.736 -0.219,4.038 0.285,6.317c0.888,4 2.512,6.423 3.733,7.053l1.477,0.759l0.663,1.623c2.073,5.1 3.844,6.45 7.825,10.766c1.067,1.157 -4.901,5.096 -6.701,6.007c-1.369,0.687 -2.756,1.076 -4.219,1.491c-4.07,1.139 -8.684,2.439 -14.287,10.972c-4.208,6.423 -6.143,28.463 -6.384,39.796l56.24,0l-20.381,-52.763Z" style="fill:#404547;fill-rule:nonzero;"/><path d="M82.286,94.158c0.301,0.867 0.624,1.886 0.969,3.043c0.346,1.152 0.701,2.365 1.084,3.63c0.38,1.269 0.745,2.494 1.084,3.686c0.345,1.2 0.633,2.265 0.861,3.205l0.223,0c0.229,-0.94 0.538,-2.024 0.92,-3.259c0.379,-1.226 0.759,-2.472 1.141,-3.739c0.38,-1.266 0.738,-2.479 1.084,-3.631c0.343,-1.156 0.667,-2.132 0.969,-2.935l10.393,-31.018l15.41,0l-21.355,55.86l-18.037,0l-21.58,-55.859l16.556,0l10.278,31.017Z" style="fill:#c90709;fill-rule:nonzero;"/></svg>