<?xml version="1.0" encoding="UTF-8" standalone="no"?><!DOCTYPE svg PUBLIC "-//W3C//DTD SVG 1.1//EN" "http://www.w3.org/Graphics/SVG/1.1/DTD/svg11.dtd"><svg width="100%" height="100%" viewBox="0 0 128 128" version="1.1" xmlns="http://www.w3.org/2000/svg" xmlns:xlink="http://www.w3.org/1999/xlink" xml:space="preserve" style="fill-rule:evenodd;clip-rule:evenodd;stroke-linejoin:round;stroke-miterlimit:1.41421;"><rect id="hardware_input_muted" x="0" y="0" width="128" height="128" style="fill:none;"/><path d="M90.937,62.71c16,0 28.17,12.08 28.18,28c0,16.21 -12.18,28.33 -28.45,28.3c-15.85,0 -27.87,-12.25 -27.86,-28.33c0.01,-16.08 12.06,-27.99 28.13,-27.97Zm15.59,19.5c-7.53,7.61 -14.45,14.76 -21.55,21.69c-3,2.88 -1.36,3.49 1.43,4.19c7.15,1.79 13.25,-0.18 18,-5.6c4.96,-5.77 5.85,-12.41 2.12,-20.28Zm-7.81,-7.13c-8.12,-3.8 -16.36,-2 -21.64,4.47c-4.75,5.87 -5.35,13.6 -1.71,18.69l23.35,-23.16Z" style="fill:#c90709;fill-rule:nonzero;"/><path d="M89.077,8.99c-16.55,0.09 -29.22,13.19 -29.15,30.19c0.015,6.845 2.502,13.46 7,18.62c1.77,2.13 3.3,2.51 5.88,1c11.3,-6.66 23,-6.33 34.59,-0.9c2.77,1.29 4.14,0.6 5.78,-1.48c4.3,-5.48 5.69,-11.9 5.77,-18.57c0.22,-16.03 -13.29,-28.91 -29.87,-28.86Z" style="fill:#404547;fill-rule:nonzero;"/><path d="M52.297,52.61c-10.43,10.59 -20.54,21 -30.79,31.18c-1.92,1.91 -1.17,2.92 0.34,4.39c4.3,4.18 8.5,8.46 12.75,12.7c7.57,7.57 7.48,7.47 15.33,-0.1c2.91,-2.81 4.53,-5.53 4.24,-9.88c-0.438,-7.522 1.794,-14.962 6.3,-21c0.94,-1.32 2.3,-2.45 0.43,-4.21c-3.68,-3.49 -5.94,-7.96 -8.6,-13.08Z" style="fill:#878b8c;fill-rule:nonzero;"/><path d="M33.797,111.73c-6.05,-5.65 -11.91,-11.52 -17.57,-17.56c-2.74,-2.92 -3.84,-1.6 -5.27,1c-1.359,2.395 -2.074,5.103 -2.074,7.857c0,8.734 7.186,15.92 15.92,15.92c0.161,0 0.323,-0.002 0.484,-0.007c2.66,0.071 5.287,-0.597 7.59,-1.93c2.7,-1.35 3.81,-2.58 0.92,-5.28Z" style="fill:#878b8c;fill-rule:nonzero;"/></svg>