<?xml version="1.0" encoding="UTF-8" standalone="no"?><!DOCTYPE svg PUBLIC "-//W3C//DTD SVG 1.1//EN" "http://www.w3.org/Graphics/SVG/1.1/DTD/svg11.dtd"><svg width="100%" height="100%" viewBox="0 0 128 128" version="1.1" xmlns="http://www.w3.org/2000/svg" xmlns:xlink="http://www.w3.org/1999/xlink" xml:space="preserve" style="fill-rule:evenodd;clip-rule:evenodd;stroke-linejoin:round;stroke-miterlimit:1.41421;"><rect id="hardware_output_muted" x="0" y="0" width="128" height="128" style="fill:none;"/><path d="M90.997,62.88c16,0 28,12.15 28,28.16c0,16.01 -12.27,28 -28.24,28c-15.97,0 -27.94,-12.21 -27.93,-28.21c0.01,-16 12.03,-28 28.17,-27.95Zm15.3,19.76c-7.46,7.46 -14.81,14.85 -22.22,22.19c-2.27,2.25 -0.25,2.61 1.28,3.18c6.29,2.35 14.39,0.1 19,-5.25c5.07,-5.86 5.87,-13.1 1.94,-20.12Zm-8,-7.63c-6.77,-3.7 -15.2,-2.25 -20.74,3.87c-5.23,5.78 -6.12,14 -2.49,19.43l23.23,-23.3Z" style="fill:#c90709;fill-rule:nonzero;"/><path d="M67.497,8.96c-9.36,9.8 -17.82,18.73 -26.37,27.55c-1.442,1.383 -2.219,3.324 -2.13,5.32c0,14.82 0,29.63 -0.07,44.45c0,1.65 -0.1,3.23 1.27,4.61c5.49,5.55 10.9,11.2 16.33,16.81l1.14,0.12l-0.35,-1c-0.37,-1.1 -0.74,-2.2 -1.12,-3.3c-4.9,-14.18 -1.83,-27.17 7.72,-38c3.13,-3.54 3.74,-6.43 3.72,-10.34c-0.053,-11.487 -0.096,-22.973 -0.13,-34.46c-0.02,-3.61 -0.01,-7.17 -0.01,-11.76Z" style="fill:#404547;fill-rule:nonzero;"/><path d="M30.937,64.59l-0.1,0c0,-4.82 0,-9.65 0,-14.47c0,-12.54 0,-12.54 -12.77,-11.63c-6,0.43 -9,3.52 -9,9.6c-0.1,10.647 -0.14,21.293 -0.12,31.94c0,6.06 2.92,9.28 8.92,9.7c3.15,0.22 6.33,-0.09 9.48,0.1c2.89,0.18 3.71,-1 3.65,-3.78c-0.16,-7.16 -0.06,-14.31 -0.06,-21.46Z" style="fill:#404547;fill-rule:nonzero;"/><path d="M100.467,16.68c-2.13,-2.39 -4.47,-4.59 -7.59,-1.85c-3.12,2.74 -1.23,5.21 1,7.63c7.38,8 12.93,17.2 14.57,27.87c1.08,7 3.85,12 10.59,15.66c0.44,-19.31 -6.17,-35.39 -18.57,-49.31Z" style="fill:#426180;fill-rule:nonzero;"/><path d="M79.237,28.38c-2.66,2.46 -1.51,5 0.64,7.38c3,3.33 6.24,6.88 7.22,11.2c1.5,6.62 5.54,8 11.85,7.32c-2.19,-9.45 -6.07,-17.45 -12.52,-24.26c-2.04,-2.19 -4.32,-4.29 -7.19,-1.64Z" style="fill:#426180;fill-rule:nonzero;"/></svg>