<?xml version="1.0" encoding="UTF-8" standalone="no"?><!DOCTYPE svg PUBLIC "-//W3C//DTD SVG 1.1//EN" "http://www.w3.org/Graphics/SVG/1.1/DTD/svg11.dtd"><svg width="100%" height="100%" viewBox="0 0 128 128" version="1.1" xmlns="http://www.w3.org/2000/svg" xmlns:xlink="http://www.w3.org/1999/xlink" xml:space="preserve" style="fill-rule:evenodd;clip-rule:evenodd;stroke-linejoin:round;stroke-miterlimit:1.41421;"><rect id="identity_manager" x="0" y="0" width="128" height="128" style="fill:none;"/><path d="M92.838,29.474c1.026,1.35 1.938,3.186 2.411,5.67c0.631,3.375 0.191,6.683 -0.283,8.843c-1.012,4.646 -3.031,8.344 -5.792,10.685c-0.01,0.021 -0.021,0.042 -0.03,0.063c4.155,1.603 8.714,4.506 13.307,11.516c2.671,4.06 4.252,10.987 5.19,17.749l11.359,0c-0.08,-5.457 -1.021,-22.111 -4.327,-27.131c-3.809,-5.813 -6.947,-6.707 -9.737,-7.491c-1.003,-0.266 -1.941,-0.542 -2.867,-1.021c-1.221,-0.604 -5.133,-3.486 -4.572,-4.072c2.827,-3.074 3.924,-3.88 5.342,-7.361l0.439,-1.098l1.004,-0.518c0.827,-0.435 1.94,-2.088 2.534,-4.813c0.348,-1.553 0.427,-3.121 0.205,-4.302c-0.162,-0.843 -0.42,-1.292 -0.618,-1.427l-1.152,-0.832l-0.189,-1.509c-0.895,-7.953 -5.45,-13.425 -13.572,-13.425c-3.682,0 -6.625,1.131 -8.838,3.097c5.245,3.813 8.87,9.823 10.186,17.377Z" style="fill:#819cbd;fill-rule:nonzero;"/><path d="M58.217,77.461c-1.208,-0.334 -2.342,-0.656 -3.438,-1.227c-1.47,-0.733 -6.158,-4.189 -5.5,-4.899c3.403,-3.68 4.72,-4.646 6.413,-8.831l0.527,-1.312l1.211,-0.626c0.986,-0.517 2.341,-2.506 3.051,-5.773c0.398,-1.861 0.493,-3.743 0.227,-5.166c-0.188,-1.011 -0.489,-1.548 -0.731,-1.706l-1.387,-1l-0.217,-1.809c-1.09,-9.549 -6.549,-16.112 -16.302,-16.112c-9.748,0 -15.225,6.559 -16.318,16.111l-0.196,1.814l-1.423,0.997c-0.226,0.157 -0.536,0.688 -0.724,1.706c-0.264,1.423 -0.178,3.307 0.226,5.168c0.733,3.279 2.055,5.259 3.062,5.772l1.202,0.625l0.551,1.326c1.688,4.169 3.14,5.271 6.397,8.816c0.872,0.94 -4.006,4.161 -5.486,4.899c-1.114,0.574 -2.258,0.895 -3.449,1.227c-3.328,0.932 -7.107,2.001 -11.691,8.98c-3.438,5.25 -5.027,23.295 -5.222,32.559l66.094,0c-0.095,-6.556 -1.227,-26.535 -5.191,-32.559c-4.571,-6.977 -8.34,-8.046 -11.686,-8.98Z" style="fill:#022f5d;fill-rule:nonzero;"/><path d="M68.015,41.919c1.08,1.38 2.042,3.278 2.522,5.87c0.645,3.441 0.205,6.847 -0.284,9.128c-1.054,4.851 -3.163,8.688 -6.044,11.077c-0.121,0.262 -0.242,0.515 -0.364,0.76c4.469,1.614 9.417,4.565 14.41,12.189c3.177,4.826 4.878,13.587 5.79,21.557l14.838,0c-0.09,-6.189 -1.158,-25.061 -4.903,-30.752c-4.316,-6.587 -7.875,-7.598 -11.036,-8.485c-1.14,-0.305 -2.205,-0.615 -3.248,-1.158c-1.387,-0.687 -5.816,-3.951 -5.188,-4.615c3.208,-3.483 4.451,-4.397 6.055,-8.346l0.498,-1.241l1.141,-0.59c0.935,-0.492 2.204,-2.367 2.876,-5.453c0.387,-1.758 0.476,-3.536 0.225,-4.878c-0.182,-0.955 -0.469,-1.463 -0.696,-1.613l-1.309,-0.943l-0.209,-1.709c-1.022,-9.018 -6.182,-15.217 -15.388,-15.217c-5.199,0 -9.109,1.974 -11.717,5.313c6.238,3.882 10.565,10.537 12.031,19.106Z" style="fill:#426180;fill-rule:nonzero;"/></svg>