<?xml version="1.0" encoding="UTF-8" standalone="no"?>
<!DOCTYPE svg PUBLIC "-//W3C//DTD SVG 1.1//EN" "http://www.w3.org/Graphics/SVG/1.1/DTD/svg11.dtd">
<svg width="100%" height="100%" viewBox="0 0 128 128" version="1.1" xmlns="http://www.w3.org/2000/svg" xmlns:xlink="http://www.w3.org/1999/xlink" xml:space="preserve" style="fill-rule:evenodd;clip-rule:evenodd;stroke-linejoin:round;stroke-miterlimit:1.41421;">
    <g transform="matrix(1,0,0,1,-2304,-800)">
        <g id="identity_default" transform="matrix(1,0,0,1.09402,2304,362.393)">
            <rect x="0" y="400" width="128" height="117" style="fill:none;"/>
            <g transform="matrix(1,0,0,0.914062,-1.789,400)">
                <path d="M51.172,90.874C51.172,79.875 55.86,69.956 63.335,62.991C62.4,62.145 61.728,61.375 61.739,60.941C61.758,60.866 61.784,60.794 61.84,60.733C65.82,56.417 67.592,55.067 69.664,49.967L70.326,48.344L71.805,47.585C73.026,46.955 74.651,44.533 75.537,40.532C76.041,38.253 76.142,35.951 75.822,34.215C75.59,32.97 75.209,32.319 74.931,32.123L73.202,30.912L72.946,28.686C71.611,17.023 64.933,9 53.007,9C53.006,9 53.005,9 53.004,9C53.004,9 53.003,9 53.002,9C41.076,9 34.398,17.023 33.062,28.687L32.805,30.913L31.077,32.124C30.8,32.32 30.418,32.971 30.185,34.216C29.865,35.952 29.966,38.254 30.47,40.533C31.358,44.533 32.982,46.956 34.203,47.586L35.68,48.345L36.343,49.968C38.416,55.068 40.187,56.418 44.168,60.734C44.224,60.795 44.25,60.867 44.269,60.942C44.297,62.014 40.17,65.144 38.108,66.389C37.865,66.53 37.643,66.653 37.468,66.742C36.099,67.429 34.712,67.818 33.249,68.233C29.179,69.372 24.565,70.672 18.962,79.205C14.754,85.628 12.819,107.668 12.578,119.001L63.588,119.001C55.964,112.024 51.172,101.999 51.172,90.874Z" style="fill:rgb(66,97,128);fill-rule:nonzero;"/>
            </g>
            <g transform="matrix(1,0,0,0.914062,-1.789,400)">
                <path d="M90.876,62.75C75.343,62.75 62.75,75.343 62.75,90.874C62.75,106.408 75.343,119 90.876,119C106.408,119 119,106.408 119,90.874C119,75.343 106.408,62.75 90.876,62.75Z" style="fill:rgb(28,160,55);fill-rule:nonzero;"/>
            </g>
            <g transform="matrix(1,0,0,0.914062,-1.789,400)">
                <path d="M107.759,83.165L86.603,104.289C86.193,104.699 85.589,104.892 84.791,104.87C84.062,104.85 83.505,104.653 83.115,104.289L73.99,95.162C73.579,94.753 73.375,94.253 73.375,93.66C73.375,93.066 73.579,92.565 73.99,92.155L77.032,89.113C77.441,88.704 77.942,88.499 78.536,88.499C79.129,88.499 79.63,88.704 80.04,89.113L84.859,93.932L101.71,77.116C102.12,76.706 102.62,76.502 103.214,76.502C103.807,76.502 104.307,76.706 104.719,77.116L107.759,80.124C108.169,80.557 108.375,81.065 108.375,81.646C108.375,82.227 108.169,82.734 107.759,83.165Z" style="fill:white;fill-rule:nonzero;"/>
            </g>
        </g>
    </g>
</svg>
