<?xml version="1.0" encoding="UTF-8" standalone="no"?><!DOCTYPE svg PUBLIC "-//W3C//DTD SVG 1.1//EN" "http://www.w3.org/Graphics/SVG/1.1/DTD/svg11.dtd"><svg width="100%" height="100%" viewBox="0 0 128 128" version="1.1" xmlns="http://www.w3.org/2000/svg" xmlns:xlink="http://www.w3.org/1999/xlink" xml:space="preserve" style="fill-rule:evenodd;clip-rule:evenodd;stroke-linejoin:round;stroke-miterlimit:1.41421;"><rect id="identity_export" x="0" y="0" width="128" height="128" style="fill:none;"/><path d="M61.766,118.752c-16.61,0 -32.24,0 -47.86,0c-2.36,0 -3.34,-0.67 -3.15,-3.11c0.78,-10.12 1.24,-20.3 3.83,-30.15c2.36,-9 7.84,-15.25 17.13,-17.74c1.765,-0.472 3.462,-1.168 5.05,-2.07c6.09,-3.49 6.18,-4.17 1.65,-9.55c-3,-3.53 -5.05,-7.68 -7.7,-11.43c-2.85,-4 -4.28,-9.41 0.13,-14.23c0.95,-1 0.67,-3.17 1,-4.78c2.46,-10.86 9.14,-16.62 19.31,-16.67c10.36,-0.04 16.92,5.5 19.57,16.35c0.67,2.7 1.15,5.28 2.76,8c2.37,4 1,9.49 -2.45,12.94c-3.842,3.823 -6.948,8.322 -9.16,13.27c-2.32,5.62 -6.61,9.62 -8.83,15.1c-6.57,16.27 -3.47,30.51 8.72,44.07Z" style="fill:#426180;fill-rule:nonzero;"/><path d="M97.586,103.562l4.61,-25.88l-25.43,4.39c-0.6,1.11 0,1.55 0.42,2c6.08,6.54 6.08,6.54 -0.12,12.74c-2.82,2.83 -5.75,5.56 -8.44,8.5c-2,2.17 -3,1.65 -4.34,-0.67c-6,-10.33 -4.19,-24.73 4.46,-33.73c8.65,-9 23.1,-11 34,-4.85c11.291,6.27 16.909,19.527 13.56,32c-3.088,11.963 -13.78,20.511 -26.13,20.89c-5.17,0.218 -10.308,-0.924 -14.9,-3.31c-2.43,-1.28 -3.22,-2.32 -0.78,-4.58c4.28,-3.94 8.41,-8.07 12.36,-12.35c2,-2.21 3.43,-2 5,0.19c1.37,1.87 2.77,3.72 4.15,5.58l1.58,-0.92Z" style="fill:#1ca037;fill-rule:nonzero;"/></svg>