<?xml version="1.0" encoding="UTF-8" standalone="no"?><!DOCTYPE svg PUBLIC "-//W3C//DTD SVG 1.1//EN" "http://www.w3.org/Graphics/SVG/1.1/DTD/svg11.dtd"><svg width="100%" height="100%" viewBox="0 0 128 128" version="1.1" xmlns="http://www.w3.org/2000/svg" xmlns:xlink="http://www.w3.org/1999/xlink" xml:space="preserve" style="fill-rule:evenodd;clip-rule:evenodd;stroke-linejoin:round;stroke-miterlimit:1.41421;"><rect id="info" x="0" y="0" width="128" height="128" style="fill:none;"/><path d="M118.999,37.937c0,4.721 -3.848,8.549 -8.594,8.549l-92.812,0c-4.746,0 -8.594,-3.827 -8.594,-8.549l0,-15.387c0,-4.722 3.848,-8.549 8.594,-8.549l92.813,0c4.746,0 8.594,3.827 8.594,8.549l0,15.387l-0.001,0Z" style="fill:#878b8c;fill-rule:nonzero;"/><path d="M108.687,35.898c0,1.126 -0.916,2.039 -2.05,2.039l-28.557,0c-1.134,0 -2.05,-0.913 -2.05,-2.039l0,-11.31c0,-1.125 0.916,-2.039 2.05,-2.039l28.557,0c1.134,0 2.05,0.914 2.05,2.039l0,11.31Z" style="fill:#fff;fill-rule:nonzero;"/><path d="M62.172,58.315l-44.579,0c-4.746,0 -8.594,3.827 -8.594,8.548l0,15.389c0,4.722 3.848,8.548 8.594,8.548l33.974,0c-0.279,-1.858 -0.427,-3.76 -0.427,-5.694c0,-10.434 4.217,-19.9 11.032,-26.791Z" style="fill:#878b8c;fill-rule:nonzero;"/><path d="M63.466,113.145c-1.626,-1.498 -3.12,-3.137 -4.467,-4.894c-1.034,-1.349 -1.977,-2.77 -2.826,-4.251l-47.174,0l0,10l55.437,0c-0.327,-0.28 -0.653,-0.563 -0.97,-0.855Z" style="fill:#404547;fill-rule:nonzero;"/><circle cx="90.874" cy="85.105" r="28.125" style="fill:#1a91d0;"/><path d="M96.922,104.156c0,0.802 -0.276,1.479 -0.824,2.021c-0.549,0.554 -1.225,0.83 -2.021,0.83l-6.403,0c-0.798,0 -1.475,-0.285 -2.022,-0.846c-0.549,-0.565 -0.824,-1.229 -0.824,-2.005l0,-20.72c0,-0.802 0.275,-1.474 0.824,-2.021c0.548,-0.553 1.225,-0.824 2.022,-0.824l6.403,0c0.797,0 1.473,0.271 2.021,0.824c0.548,0.548 0.824,1.22 0.824,2.021l0,20.72Z" style="fill:#fff;fill-rule:nonzero;"/><path d="M96.922,72.157c0,0.802 -0.276,1.479 -0.824,2.021c-0.549,0.554 -1.225,0.83 -2.021,0.83l-6.403,0c-0.798,0 -1.475,-0.285 -2.022,-0.847c-0.549,-0.564 -0.824,-1.229 -0.824,-2.004l0,-6.104c0,-0.802 0.275,-1.473 0.824,-2.021c0.548,-0.553 1.225,-0.824 2.022,-0.824l6.403,0c0.797,0 1.473,0.271 2.021,0.824c0.548,0.549 0.824,1.22 0.824,2.021l0,6.104Z" style="fill:#fff;fill-rule:nonzero;"/></svg>