<?xml version="1.0" encoding="UTF-8" standalone="no"?><!DOCTYPE svg PUBLIC "-//W3C//DTD SVG 1.1//EN" "http://www.w3.org/Graphics/SVG/1.1/DTD/svg11.dtd"><svg width="100%" height="100%" viewBox="0 0 128 128" version="1.1" xmlns="http://www.w3.org/2000/svg" xmlns:xlink="http://www.w3.org/1999/xlink" xml:space="preserve" style="fill-rule:evenodd;clip-rule:evenodd;stroke-linejoin:round;stroke-miterlimit:1.41421;"><rect id="input_muted_local" x="0" y="0" width="128" height="128" style="fill:none;"/><path d="M50.947,118.866c-13.2,0 -25.84,-0.05 -38.48,0c-2.42,0 -3.1,-0.77 -3.08,-3.13c-0.058,-10.315 1.408,-20.583 4.35,-30.47c1.62,-5.23 5,-9.33 9.07,-12.9c10.34,-9 11.2,-14 3.81,-25.67c-5.5,-8.68 -5,-17.4 -0.68,-26.08c5,-10 15.71,-13.81 27.89,-10.43c9.1,2.53 14.53,10.74 13.94,21.53c-0.17,3.1 2.09,4.71 3.32,6.94c2.48,4.48 1.4,7.36 -3.57,6.93c-9.24,-0.8 -14,5.24 -18.72,11.17c-4,5 -3.38,11.61 1.08,16.41c3.63,3.93 7.34,7.72 11.2,11.42c1.83,1.76 2.07,3 0.08,4.83c-3,2.68 -5.69,5.61 -8.51,8.44c-6.93,6.92 -7.47,12.09 -1.7,21.01Z" style="fill:#404547;fill-rule:nonzero;"/><path d="M64.077,54.096c1.757,0.257 3.352,1.172 4.46,2.56c5.25,5.35 10.75,10.47 15.76,16c2.19,2.42 3.2,1.69 5,-0.14c5,-5.15 10.15,-10.11 15.14,-15.25c2.75,-2.83 5.32,-3.1 8.08,-0.12c1.12,1.261 2.308,2.459 3.56,3.59c3.64,3.17 3.14,6.09 -0.15,9.24c-4.93,4.72 -9.6,9.72 -14.55,14.42c-2,1.9 -2.22,3.08 -0.09,5.12c5.16,5 10,10.24 15.1,15.27c2.82,2.78 3.09,5.33 0.08,8c-0.25,0.22 -0.48,0.46 -0.71,0.7c-7.1,7.26 -7.1,7.26 -14.38,0c-4.13,-4.09 -8.3,-8.13 -12.3,-12.39c-1.69,-1.8 -2.77,-1.67 -4.4,0c-4.63,4.8 -9.38,9.47 -14.1,14.17c-5.07,5.06 -6.11,5 -11.32,-0.16c-0.59,-0.59 -1.14,-1.23 -1.77,-1.76c-3.66,-3.1 -3.35,-5.94 0.08,-9.15c5,-4.67 9.55,-9.78 14.59,-14.39c2.56,-2.34 2.11,-3.66 -0.13,-5.8c-5.18,-4.94 -10,-10.26 -15.17,-15.21c-3.46,-3.31 -3.31,-6.21 0.16,-9.21c2.31,-1.98 3.89,-5.03 7.06,-5.49Z" style="fill:#c90709;fill-rule:nonzero;"/><path d="M118.077,49.576c-3.1,-1.15 -5.42,-2.88 -8.34,-2.75c-1.79,0.08 -1.94,-1.45 -2.38,-2.68c-2.969,-8.487 -7.746,-16.23 -14,-22.69c-2.15,-2.21 -2.8,-4.67 -0.35,-7c2.22,-2.07 4.69,-1.48 6.64,0.55c9.3,9.538 15.694,21.532 18.43,34.57l0,0Z" style="fill:#426180;fill-rule:nonzero;"/><path d="M91.527,60.276c-1.346,-9.895 -5.761,-19.123 -12.62,-26.38c-1.6,-1.72 -1.23,-4.13 0.63,-5.81c1.86,-1.68 4,-1.55 5.82,0.14c6.457,5.814 10.966,13.481 12.91,21.95c0.99,4.47 -4.43,5.5 -6.74,10.1Z" style="fill:#426180;fill-rule:nonzero;"/><path d="M116.857,82.306c-0.85,3.42 -0.66,5.83 -2.9,7.08c-0.27,0.15 -1.94,-1.16 -2,-1.84c-0.08,-2.67 2.18,-3.45 4.9,-5.24Z" style="fill:#446181;fill-rule:nonzero;"/></svg>