<?xml version="1.0" encoding="UTF-8" standalone="no"?><!DOCTYPE svg PUBLIC "-//W3C//DTD SVG 1.1//EN" "http://www.w3.org/Graphics/SVG/1.1/DTD/svg11.dtd"><svg width="100%" height="100%" viewBox="0 0 128 128" version="1.1" xmlns="http://www.w3.org/2000/svg" xmlns:xlink="http://www.w3.org/1999/xlink" xml:space="preserve" style="fill-rule:evenodd;clip-rule:evenodd;stroke-linejoin:round;stroke-miterlimit:1.41421;"><rect id="input_muted" x="0" y="0" width="128" height="128" style="fill:none;"/><path d="M98.909,87.138l18.842,18.911c0.832,0.826 1.248,1.812 1.248,2.952c0,1.14 -0.416,2.104 -1.248,2.892l-5.843,5.85c-0.785,0.829 -1.764,1.243 -2.926,1.243c-1.155,0 -2.133,-0.414 -2.922,-1.243l-18.897,-18.846l-18.903,18.845c-0.788,0.829 -1.763,1.243 -2.923,1.243c-1.159,0 -2.133,-0.414 -2.922,-1.243l-5.846,-5.85c-0.828,-0.788 -1.24,-1.752 -1.24,-2.892c0,-1.141 0.412,-2.126 1.24,-2.952l18.844,-18.911l-19.444,-19.723c-0.829,-0.832 -1.241,-1.815 -1.241,-2.958c0,-1.138 0.412,-2.123 1.241,-2.955l5.846,-5.848c0.79,-0.786 1.763,-1.181 2.921,-1.181c1.161,0 2.135,0.395 2.924,1.181l19.504,19.789l18.897,-18.916c0.789,-0.786 1.767,-1.181 2.922,-1.181c1.162,0 2.141,0.395 2.926,1.181l5.843,5.849c0.832,0.831 1.248,1.817 1.248,2.955c0,1.141 -0.416,2.125 -1.248,2.956l-18.843,18.852Z" style="fill:#c90709;fill-rule:nonzero;"/><path d="M73.726,49.565l0.025,0.026l0.026,0.026l13.427,13.623l13.653,-13.666c2.386,-2.379 5.578,-3.689 8.988,-3.689c2.72,0 5.292,0.837 7.429,2.375c3.462,-9.649 1.626,-22.044 -6.955,-30.631c-11.503,-11.506 -30.218,-11.505 -41.722,0.002c-7.775,7.781 -10.286,18.86 -7.546,28.778c1.179,-0.35 2.416,-0.533 3.685,-0.533c3.41,-0.001 6.604,1.31 8.99,3.689Z" style="fill:#404547;fill-rule:nonzero;"/><g><path d="M13.651,114.345c6.195,6.202 16.233,6.207 22.438,0.015l-22.453,-22.465c-6.188,6.208 -6.182,16.25 0.015,22.45Z" style="fill:#878b8c;fill-rule:nonzero;"/><path d="M63.312,87.105l-13.452,-13.645c-2.402,-2.423 -3.725,-5.618 -3.725,-9.003c0,-2.797 0.917,-5.459 2.594,-7.674l-29.017,29.031l22.455,22.467l14.697,-14.705l6.448,-6.471Z" style="fill:#878b8c;fill-rule:nonzero;"/></g></svg>