<?xml version="1.0" encoding="UTF-8" standalone="no"?>
<!DOCTYPE svg PUBLIC "-//W3C//DTD SVG 1.1//EN" "http://www.w3.org/Graphics/SVG/1.1/DTD/svg11.dtd">
<svg width="100%" height="100%" viewBox="0 0 128 128" version="1.1" xmlns="http://www.w3.org/2000/svg" xmlns:xlink="http://www.w3.org/1999/xlink" xml:space="preserve" style="fill-rule:evenodd;clip-rule:evenodd;stroke-linejoin:round;stroke-miterlimit:1.41421;">
    <g transform="matrix(1,0,0,1,-2688,-160)">
        <g id="kick_server" transform="matrix(1,0,0,1,2688,160)">
            <rect x="0" y="0" width="128" height="128" style="fill:none;"/>
            <g transform="matrix(1,0,0,1,8.07675,8.07444)">
                <path d="M107.92,61.42C106.92,60.51 106.86,59.47 106.54,58.42C104.26,51.33 100.07,48.52 92.59,49.72C87.77,50.5 83.03,51.84 78.28,53.01C72.28,54.51 66.21,56.01 59.94,54.44C49.32,51.41 41,46.18 38.64,34.26C37.64,29.48 34.94,29.05 31.13,32.07C30.091,32.856 29.13,33.74 28.26,34.71C22.59,41.34 15.34,45.47 7.17,48.27C0.73,50.48 -0.48,52.89 2.09,59.33C4.75,65.594 6.761,72.115 8.09,78.79C8.42,89.79 14.67,98.58 19.51,107.87C20.62,110 22.14,110.22 24.4,109.33C32.29,106.21 40.25,103.33 48.21,100.33C49.69,99.78 51.02,99.17 51.07,97.43C51.25,90.38 56.31,89.73 61.34,90.43C74.14,92 84.89,86.73 95.63,81.09C100.41,78.58 105.09,75.86 108.63,71.66C112,67.64 111.83,65 107.92,61.42Z" style="fill:rgb(66,97,128);fill-rule:nonzero;"/>
            </g>
            <g transform="matrix(1,0,0,1,8.07675,8.07444)">
                <path d="M59.06,36.2C64.42,37.67 69.06,39.68 74.23,38.55C76.39,38.08 78.62,37.55 78.86,34.8C79.1,32.05 77.31,30.93 75.17,30.09C72.08,28.87 68.92,27.83 65.89,26.48C60.23,23.94 57.75,20.21 58,15C58.272,9.68 61.892,5.082 67,3.57C73.33,1.44 79.79,1.68 86.2,3.3C91.28,4.59 87.91,8.3 87.87,10.68C87.81,14.42 85.29,11.68 83.96,11.47C80.69,10.91 77.46,9.77 74.12,10.78C72.12,11.37 70.24,12.35 70.2,14.78C70.2,16.87 71.68,18.03 73.5,18.72C76.61,19.9 79.78,20.91 82.84,22.2C89.02,24.79 91.45,28.43 91.2,34.35C91.051,39.854 87.298,44.647 81.99,46.11C74.99,48.29 67.85,47.77 60.79,46.11C58.94,45.66 57.98,44.62 58.42,42.49C58.76,40.47 58.82,38.47 59.06,36.2Z" style="fill:rgb(201,7,9);fill-rule:nonzero;"/>
            </g>
        </g>
    </g>
</svg>
