<?xml version="1.0" encoding="UTF-8" standalone="no"?><!DOCTYPE svg PUBLIC "-//W3C//DTD SVG 1.1//EN" "http://www.w3.org/Graphics/SVG/1.1/DTD/svg11.dtd"><svg width="100%" height="100%" viewBox="0 0 128 128" version="1.1" xmlns="http://www.w3.org/2000/svg" xmlns:xlink="http://www.w3.org/1999/xlink" xml:space="preserve" style="fill-rule:evenodd;clip-rule:evenodd;stroke-linejoin:round;stroke-miterlimit:1.41421;"><rect id="messages" x="0" y="0" width="128" height="128" style="fill:none;"/><path d="M95.651,12.505l-63.304,0c-12.893,0 -23.347,10.454 -23.347,23.348l0,30.299c0,12.897 10.454,23.348 23.347,23.348l34.539,0c2.034,5.361 4.119,16.286 -6.902,25.995c20.145,-3.741 29.607,-19.513 32.703,-25.995l2.965,0c12.893,0 23.348,-10.451 23.348,-23.348l0,-30.299c0,-12.894 -10.455,-23.348 -23.349,-23.348Z" style="fill:#1ca037;fill-rule:nonzero;"/><path d="M101.649,68.833c-0.77,0.136 -1.66,0.202 -2.675,0.202c-1.966,0 -3.749,-0.313 -5.348,-0.938c-1.596,-0.628 -2.965,-1.515 -4.101,-2.666c-1.137,-1.15 -2.014,-2.546 -2.629,-4.19c-0.612,-1.642 -0.921,-3.478 -0.921,-5.509c0,-2.099 0.338,-3.985 1.015,-5.662c0.676,-1.676 1.599,-3.099 2.765,-4.266c1.169,-1.168 2.529,-2.057 4.08,-2.666c1.551,-0.609 3.203,-0.913 4.955,-0.913c0.982,0 1.867,0.049 2.65,0.152c0.784,0.101 1.544,0.287 2.283,0.558l-0.462,5.179c-0.554,-0.27 -1.122,-0.473 -1.707,-0.609c-0.583,-0.135 -1.259,-0.203 -2.027,-0.203c-1.167,0 -2.188,0.221 -3.064,0.661c-0.876,0.44 -1.613,1.033 -2.214,1.777c-0.598,0.745 -1.052,1.617 -1.359,2.616c-0.308,0.998 -0.46,2.074 -0.46,3.224c0,1.185 0.138,2.277 0.415,3.275c0.275,0.998 0.715,1.87 1.313,2.614c0.601,0.745 1.353,1.322 2.259,1.728c0.907,0.404 1.989,0.609 3.25,0.609c0.707,0 1.383,-0.068 2.027,-0.205c0.646,-0.135 1.308,-0.37 1.983,-0.709l0.323,5.333c-0.8,0.269 -1.583,0.47 -2.351,0.608Z" style="fill:#fff;fill-rule:nonzero;"/><path d="M81.852,60.987c-0.478,1.71 -1.16,3.173 -2.051,4.392c-0.891,1.219 -1.975,2.175 -3.25,2.871c-1.276,0.693 -2.712,1.04 -4.311,1.04c-1.812,0 -3.364,-0.425 -4.654,-1.269c-1.291,-0.848 -2.336,-2.034 -3.135,-3.557l-0.092,0c0,0.746 -0.015,1.508 -0.047,2.285c-0.03,0.781 -0.077,1.423 -0.137,1.931l-5.716,0c0.092,-1.082 0.153,-2.313 0.184,-3.684c0.031,-1.369 0.046,-2.75 0.046,-4.138l0,-30.568l6.084,0l0,9.012c0,1.286 -0.008,2.567 -0.022,3.849c-0.016,1.285 -0.055,2.415 -0.116,3.395l0.095,0c0.89,-1.509 2.005,-2.658 3.34,-3.445c1.338,-0.789 2.881,-1.182 4.633,-1.182c1.506,0 2.873,0.33 4.102,0.99c1.23,0.659 2.267,1.591 3.112,2.792c0.846,1.203 1.498,2.624 1.96,4.266c0.459,1.644 0.689,3.445 0.689,5.408c-0.001,2.032 -0.239,3.902 -0.714,5.612Zm-11.132,-13.839c-0.892,0 -1.698,0.213 -2.419,0.64c-0.723,0.426 -1.346,1.021 -1.867,1.789c-0.523,0.766 -0.923,1.659 -1.199,2.682c-0.277,1.021 -0.414,2.144 -0.414,3.371c0,1.226 0.137,2.35 0.414,3.373c0.276,1.021 0.669,1.906 1.177,2.656c0.507,0.75 1.121,1.335 1.844,1.762c0.722,0.426 1.528,0.638 2.419,0.638c1.782,0 3.165,-0.791 4.149,-2.375c0.982,-1.585 1.474,-3.618 1.474,-6.105c0,-2.52 -0.469,-4.556 -1.406,-6.105c-0.937,-1.55 -2.329,-2.326 -4.172,-2.326Z" style="fill:#fff;fill-rule:nonzero;"/><path d="M47.72,68.681l-2.812,-8.176l-13.413,0l-2.812,8.176l-6.683,0l12.629,-35.445l7.329,0l12.814,35.445l-7.052,0Zm-7.836,-23.742c-0.215,-0.727 -0.423,-1.472 -0.623,-2.234c-0.2,-0.761 -0.392,-1.481 -0.576,-2.157c-0.185,-0.678 -0.323,-1.253 -0.416,-1.728l-0.092,0c-0.123,0.474 -0.277,1.049 -0.46,1.728c-0.185,0.676 -0.392,1.396 -0.623,2.157c-0.231,0.762 -0.454,1.507 -0.669,2.234c-0.215,0.729 -0.415,1.364 -0.599,1.904l-2.673,8.278l10.001,0l-2.673,-8.278c-0.182,-0.54 -0.382,-1.174 -0.597,-1.904Z" style="fill:#fff;fill-rule:nonzero;"/></svg>