<?xml version="1.0" encoding="UTF-8" standalone="no"?><!DOCTYPE svg PUBLIC "-//W3C//DTD SVG 1.1//EN" "http://www.w3.org/Graphics/SVG/1.1/DTD/svg11.dtd"><svg width="100%" height="100%" viewBox="0 0 128 128" version="1.1" xmlns="http://www.w3.org/2000/svg" xmlns:xlink="http://www.w3.org/1999/xlink" xml:space="preserve" style="fill-rule:evenodd;clip-rule:evenodd;stroke-linejoin:round;stroke-miterlimit:1.41421;"><rect id="move_client_to_own_channel" x="0" y="0" width="128" height="128" style="fill:none;"/><path d="M54.19,110.518c-3.87,0 -7.476,-1.52 -10.142,-4.267c-2.61,-2.681 -4.048,-6.204 -4.048,-9.923l0,-8.385c0,-3.813 1.471,-7.383 4.145,-10.058c2.67,-2.667 6.238,-4.136 10.045,-4.136l21.857,0l0,-2.586c-2.482,-1.688 -4.759,-2.337 -6.887,-2.932c-1.478,-0.417 -2.861,-0.809 -4.216,-1.49c-1.795,-0.906 -7.521,-5.125 -6.706,-6.005c4.153,-4.499 5.755,-5.678 7.833,-10.778l0.654,-1.614l1.461,-0.762c1.223,-0.636 2.853,-3.06 3.729,-7.052c0.503,-2.279 0.608,-4.581 0.286,-6.314c-0.236,-1.239 -0.613,-1.896 -0.895,-2.093l-1.703,-1.214l-0.264,-2.211c-1.317,-11.671 -7.997,-19.698 -19.915,-19.698c-11.927,0 -18.605,8.023 -19.94,19.687l-0.257,2.226l-1.728,1.211c-0.277,0.196 -0.659,0.847 -0.892,2.092c-0.32,1.736 -0.219,4.038 0.285,6.317c0.888,4 2.512,6.423 3.733,7.053l1.477,0.759l0.663,1.623c2.073,5.1 3.845,6.45 7.825,10.766c1.067,1.157 -4.901,5.096 -6.701,6.007c-1.369,0.687 -2.756,1.076 -4.219,1.491c-4.07,1.139 -8.684,2.439 -14.287,10.972c-4.207,6.423 -6.142,28.463 -6.383,39.796l67.048,0l0,-8.482l-21.858,0Z" style="fill:#426180;fill-rule:nonzero;"/><path d="M119,92.133l-32.952,-26.876l0,18.493l-31.858,0c-1.18,0 -2.171,0.404 -2.979,1.211c-0.808,0.809 -1.211,1.803 -1.211,2.982l0,8.385c0,1.133 0.403,2.115 1.212,2.945c0.808,0.832 1.799,1.244 2.979,1.244l31.857,0l0,18.483l32.952,-26.867Z" style="fill:#1ca037;fill-rule:nonzero;"/></svg>