<?xml version="1.0" encoding="UTF-8" standalone="no"?><!DOCTYPE svg PUBLIC "-//W3C//DTD SVG 1.1//EN" "http://www.w3.org/Graphics/SVG/1.1/DTD/svg11.dtd"><svg width="100%" height="100%" viewBox="0 0 128 128" version="1.1" xmlns="http://www.w3.org/2000/svg" xmlns:xlink="http://www.w3.org/1999/xlink" xml:space="preserve" style="fill-rule:evenodd;clip-rule:evenodd;stroke-linejoin:round;stroke-miterlimit:1.41421;"><rect id="music" x="0" y="0" width="128" height="128" style="fill:none;"/><path d="M115.813,13.826c-24.738,16.741 -41.601,-7.063 -57.528,-4.646c-10.67,1.619 -10.411,9.006 -10.411,26.967c0,3.411 0,54.263 0,54.263c-3.762,-1.765 -8.33,-2.802 -13.259,-2.802c-12.846,0 -23.263,7.029 -23.263,15.69c0,8.675 10.417,15.696 23.263,15.696c12.775,0 23.137,-6.94 23.256,-15.546l0.006,-0.001l0,-74.142c0,0 0,-0.544 0,-1.102c9.458,-3.833 21.352,11.176 43.086,8.698c20.981,-2.394 14.85,-23.075 14.85,-23.075Z" style="fill:#101719;fill-rule:nonzero;"/></svg>