<?xml version="1.0" encoding="UTF-8" standalone="no"?><!DOCTYPE svg PUBLIC "-//W3C//DTD SVG 1.1//EN" "http://www.w3.org/Graphics/SVG/1.1/DTD/svg11.dtd"><svg width="100%" height="100%" viewBox="0 0 128 128" version="1.1" xmlns="http://www.w3.org/2000/svg" xmlns:xlink="http://www.w3.org/1999/xlink" xml:space="preserve" style="fill-rule:evenodd;clip-rule:evenodd;stroke-linejoin:round;stroke-miterlimit:1.41421;"><rect id="new_chat" x="0" y="0" width="128" height="128" style="fill:none;"/><path d="M26.746,63.988l-19.324,-36.765l40.952,7.017l28.978,-29.74l5.98,41.112l37.246,18.376l-37.246,18.38l-5.98,41.132l-28.978,-29.761l-40.952,7.004l19.324,-36.755Z" style="fill:#c90709;fill-rule:nonzero;"/><path d="M62.466,84.997l-0.176,-9.753l-14.388,-4.652l-5.849,7.798l-7.166,-2.314l25.838,-33.637l7.857,2.54l1.445,42.46l-7.561,-2.442Zm-0.162,-28.183c0.016,-0.854 0.052,-1.731 0.104,-2.614c0.051,-0.887 0.094,-1.727 0.134,-2.516c0.034,-0.792 0.088,-1.455 0.149,-1.996l-0.093,-0.033c-0.3,0.467 -0.662,1.032 -1.095,1.692c-0.434,0.662 -0.905,1.362 -1.416,2.1c-0.516,0.734 -1.007,1.459 -1.494,2.163c-0.482,0.708 -0.918,1.319 -1.305,1.832l-5.736,7.958l10.723,3.471l0.015,-9.811c-0.019,-0.639 -0.011,-1.391 0.014,-2.246Z" style="fill:#fff;fill-rule:nonzero;"/></svg>