<?xml version="1.0" encoding="UTF-8" standalone="no"?><!DOCTYPE svg PUBLIC "-//W3C//DTD SVG 1.1//EN" "http://www.w3.org/Graphics/SVG/1.1/DTD/svg11.dtd"><svg width="100%" height="100%" viewBox="0 0 128 128" version="1.1" xmlns="http://www.w3.org/2000/svg" xmlns:xlink="http://www.w3.org/1999/xlink" xml:space="preserve" style="fill-rule:evenodd;clip-rule:evenodd;stroke-linejoin:round;stroke-miterlimit:1.41421;"><rect id="offline_messages" x="0" y="0" width="128" height="128" style="fill:none;"/><path d="M118.081,28.161c-1.27,-3.223 -3.773,-5.822 -6.934,-7.213c-1.613,-0.709 -3.392,-1.109 -5.265,-1.109l-83.763,0c-1.873,0 -3.65,0.4 -5.263,1.109c-3.161,1.39 -5.665,3.989 -6.935,7.212c-0.587,1.488 -0.92,3.103 -0.92,4.797l0,62.086c0,1.799 0.365,3.513 1.021,5.074c1.348,3.203 3.933,5.756 7.153,7.07c1.527,0.623 3.194,0.974 4.943,0.974l83.764,0c1.749,0 3.416,-0.351 4.943,-0.974c3.22,-1.314 5.806,-3.866 7.153,-7.069c0.657,-1.562 1.021,-3.276 1.021,-5.075l0,-62.086c0.002,-1.694 -0.331,-3.309 -0.918,-4.796Zm-9.08,60.691l-22.504,-28.24l22.504,-23.122l0,51.362Zm-6.507,-59.013l-38.492,39.547l-38.492,-39.547l76.984,0Zm-83.493,59.012l0,-51.362l22.504,23.121l-22.504,28.241Zm5.368,9.31l24.167,-30.328l11.883,12.209c0.941,0.967 2.233,1.513 3.583,1.513c1.35,0 2.642,-0.546 3.583,-1.513l11.882,-12.207l24.166,30.326l-79.264,0Z" style="fill:#404547;fill-rule:nonzero;"/></svg>