<?xml version="1.0" encoding="UTF-8" standalone="no"?>
<!DOCTYPE svg PUBLIC "-//W3C//DTD SVG 1.1//EN" "http://www.w3.org/Graphics/SVG/1.1/DTD/svg11.dtd">
<svg width="100%" height="100%" viewBox="0 0 128 128" version="1.1" xmlns="http://www.w3.org/2000/svg" xmlns:xlink="http://www.w3.org/1999/xlink" xml:space="preserve" style="fill-rule:evenodd;clip-rule:evenodd;stroke-linejoin:round;stroke-miterlimit:1.41421;">
    <g transform="matrix(1,0,0,1,-3072,-800)">
        <g id="permission_server_groups" transform="matrix(1,0,0,1.09402,3072,362.393)">
            <rect x="0" y="400" width="128" height="117" style="fill:none;"/>
            <g transform="matrix(1,0,0,0.914062,0,400)">
                <path d="M102.5,9L71.845,9L71.365,12.906L70.54,19.623L68.643,35.062L67.818,41.777L67.66,43C73.024,47.826 76.684,54.532 76.684,64.385C76.684,70.55 74.699,76.493 71.198,81.388C73.5,85.331 74.754,89.853 74.877,94.728C74.884,94.99 74.901,95.249 74.901,95.512C74.901,96.132 74.884,96.746 74.852,97.354L102.5,97.354C107.194,97.354 111,93.548 111,88.854L111,17.5C111,12.806 107.194,9 102.5,9Z" style="fill:white;fill-rule:nonzero;"/>
            </g>
            <g transform="matrix(1,0,0,0.914062,0,400)">
                <path d="M91.22,110.406L91.22,96.354L82.626,96.354L82.626,110.407C82.626,110.407 72.887,110.407 71.312,110.407C69.605,113.632 67.326,116.518 64.554,119.001L119,119.001L119,110.407L91.22,110.407L91.22,110.406Z" style="fill:rgb(64,69,71);fill-rule:nonzero;"/>
            </g>
            <g transform="matrix(1,0,0,0.914062,0,400)">
                <path d="M102.5,9L71.845,9L71.365,12.906L70.54,19.623L98.688,19.623C99.792,19.623 100.688,20.519 100.688,21.623L100.688,33.062C100.688,34.166 99.792,35.062 98.688,35.062L68.642,35.062L67.817,41.777L67.66,43C73.024,47.826 76.684,54.532 76.684,64.385C76.684,70.55 74.699,76.493 71.198,81.388C73.5,85.331 74.754,89.853 74.877,94.728C74.884,94.99 74.901,95.249 74.901,95.512C74.901,96.132 74.884,96.746 74.852,97.354L102.5,97.354C107.194,97.354 111,93.548 111,88.854L111,17.5C111,12.806 107.194,9 102.5,9Z" style="fill:rgb(135,139,140);fill-rule:nonzero;"/>
            </g>
            <g transform="matrix(1,0,0,0.914062,0,400)">
                <path d="M59.526,27.253C54.542,25.08 47.369,23.546 40.724,23.546C35.354,23.546 29.211,25.974 29.211,31.075C29.211,36.566 35.222,38.736 46.86,42.944C61.818,48.306 66.684,54.31 66.684,64.384C66.684,71.155 63.103,77.405 57.351,80.847C62.597,84.544 64.9,89.78 64.9,95.511C64.9,110.326 52.104,118.999 35.221,118.999C26.904,118.999 17.956,117.478 10.533,115.052C10.922,109.561 11.306,104.207 11.814,98.834C17.7,101.516 27.037,103.7 33.299,103.7C40.342,103.7 45.971,101.916 45.971,96.409C45.971,90.931 39.696,89.142 27.934,84.544C14.117,79.32 9,73.317 9,63.365C9,56.855 12.202,50.859 18.466,46.902C13.093,42.945 10.534,38.098 10.534,31.842C10.534,17.047 24.096,9 40.078,9C47.247,9 55.053,10.146 61.439,11.687L59.526,27.253ZM29.084,52.903C26.525,54.941 25.115,58.003 25.115,60.684C25.115,67.709 34.965,70.507 46.482,74.853C49.021,73.068 50.434,70.374 50.434,67.451C50.434,62.598 48.006,60.305 37.267,56.09C34.583,55.073 31.769,54.053 29.084,52.903Z" style="fill:rgb(201,7,9);fill-rule:nonzero;"/>
            </g>
        </g>
    </g>
</svg>
