<?xml version="1.0" encoding="UTF-8" standalone="no"?>
<!DOCTYPE svg PUBLIC "-//W3C//DTD SVG 1.1//EN" "http://www.w3.org/Graphics/SVG/1.1/DTD/svg11.dtd">
<svg width="100%" height="100%" viewBox="0 0 128 128" version="1.1" xmlns="http://www.w3.org/2000/svg" xmlns:xlink="http://www.w3.org/1999/xlink" xml:space="preserve" style="fill-rule:evenodd;clip-rule:evenodd;stroke-linejoin:round;stroke-miterlimit:1.41421;">
    <g transform="matrix(1,0,0,1,-3072,-480)">
        <g id="permission_client" transform="matrix(1,0,0,1.37634,3072,294.194)">
            <rect x="0" y="135" width="128" height="93" style="fill:none;"/>
            <g transform="matrix(1,0,0,0.726562,-1,135)">
                <path d="M70.37,104.388L71.444,93.057C69.587,89.933 68.422,86.081 68.422,81.294C68.422,77.081 69.537,73.107 71.616,69.639C71.302,68.989 71.026,68.321 70.78,67.641C70.022,67.393 69.278,67.112 68.541,66.742C68.365,66.653 68.14,66.528 67.895,66.387C65.831,65.14 61.712,62.014 61.74,60.943C61.759,60.868 61.785,60.796 61.841,60.735C65.821,56.419 67.593,55.069 69.665,49.969L70.327,48.346L71.806,47.587C73.027,46.957 74.652,44.535 75.538,40.534C76.042,38.255 76.143,35.953 75.823,34.217C75.591,32.972 75.21,32.321 74.932,32.125L73.203,30.914L72.947,28.688C71.611,17.023 64.933,9 53.007,9C53.006,9 53.005,9 53.004,9C53.004,9 53.003,9 53.002,9C41.076,9 34.398,17.023 33.062,28.687L32.805,30.913L31.077,32.124C30.8,32.32 30.418,32.971 30.185,34.216C29.865,35.952 29.966,38.254 30.47,40.533C31.358,44.533 32.982,46.956 34.203,47.586L35.68,48.345L36.343,49.968C38.416,55.068 40.187,56.418 44.168,60.734C44.224,60.795 44.25,60.867 44.269,60.942C44.297,62.014 40.17,65.144 38.108,66.389C37.865,66.53 37.643,66.653 37.468,66.742C36.099,67.429 34.712,67.818 33.249,68.233C29.179,69.372 24.565,70.672 18.962,79.205C14.754,85.628 12.819,107.668 12.578,119.001L69.247,119.001L69.483,115.623C69.749,111.834 70.016,108.125 70.37,104.388Z" style="fill:rgb(64,69,71);fill-rule:nonzero;"/>
            </g>
            <g transform="matrix(1,0,0,0.726562,-1,135)">
                <path d="M112.579,56.823C109.205,55.354 104.365,54.313 99.867,54.313C96.238,54.313 92.088,55.96 92.088,59.419C92.088,63.136 96.155,64.607 104.019,67.46C114.14,71.091 117.422,75.157 117.422,81.987C117.422,86.574 114.999,90.808 111.108,93.141C114.653,95.649 116.21,99.194 116.21,103.082C116.21,113.117 107.563,118.996 96.156,118.996C90.529,118.996 84.478,117.961 79.461,116.317C79.721,112.597 79.982,108.966 80.326,105.33C84.302,107.148 90.616,108.614 94.85,108.614C99.606,108.614 103.412,107.41 103.412,103.69C103.412,99.977 99.177,98.763 91.222,95.648C81.883,92.105 78.423,88.038 78.423,81.293C78.423,76.881 80.588,72.824 84.822,70.139C81.192,67.459 79.461,64.177 79.461,59.937C79.461,49.906 88.627,44.458 99.439,44.458C104.279,44.458 109.552,45.237 113.878,46.273L112.579,56.823ZM92.005,74.206C90.27,75.587 89.318,77.664 89.318,79.476C89.318,84.233 95.976,86.138 103.756,89.076C105.491,87.869 106.443,86.052 106.443,84.064C106.443,80.774 104.793,79.225 97.537,76.368C95.717,75.678 93.815,74.979 92.005,74.206Z" style="fill:rgb(201,7,9);fill-rule:nonzero;"/>
            </g>
        </g>
    </g>
</svg>
