<?xml version="1.0" encoding="UTF-8" standalone="no"?><!DOCTYPE svg PUBLIC "-//W3C//DTD SVG 1.1//EN" "http://www.w3.org/Graphics/SVG/1.1/DTD/svg11.dtd"><svg width="100%" height="100%" viewBox="0 0 128 128" version="1.1" xmlns="http://www.w3.org/2000/svg" xmlns:xlink="http://www.w3.org/1999/xlink" xml:space="preserve" style="fill-rule:evenodd;clip-rule:evenodd;stroke-linejoin:round;stroke-miterlimit:1.41421;"><rect id="phoneticsnickname" x="0" y="0" width="128" height="128" style="fill:none;"/><path d="M9,115l0,-102l23.268,0l0,8.392l-13.259,0l0,85.215l13.259,0l0,8.393l-23.268,0Z" style="fill:#404547;fill-rule:nonzero;"/><path d="M39.122,36.183c4.264,-1.824 11.479,-4.183 21.768,-4.183c19.75,0 31.61,12.959 31.61,32.089c0,18.998 -11.475,33.911 -30.298,33.911c-21.09,0 -26.702,-18.055 -26.702,-29.567c0,-2.396 0.161,-4.218 0.417,-5.382l45.396,0c-0.288,-15.604 -9.909,-22.022 -22.025,-22.022c-8.306,0 -13.368,1.447 -18.049,3.271l-2.117,-8.117Zm7.729,35.109c-0.132,7.205 3.074,18.466 16.283,18.466c12.153,0 17.085,-10.479 18.016,-18.466l-34.299,0Z" style="fill:#404547;fill-rule:nonzero;"/><path d="M119,13l0,102l-23.27,0l0,-8.394l13.259,0l0,-85.214l-13.259,0l0,-8.392l23.27,0Z" style="fill:#404547;fill-rule:nonzero;"/></svg>