<?xml version="1.0" encoding="UTF-8" standalone="no"?><!DOCTYPE svg PUBLIC "-//W3C//DTD SVG 1.1//EN" "http://www.w3.org/Graphics/SVG/1.1/DTD/svg11.dtd"><svg width="100%" height="100%" viewBox="0 0 128 128" version="1.1" xmlns="http://www.w3.org/2000/svg" xmlns:xlink="http://www.w3.org/1999/xlink" xml:space="preserve" style="fill-rule:evenodd;clip-rule:evenodd;stroke-linejoin:round;stroke-miterlimit:1.41421;"><rect id="ping_4" x="0" y="0" width="128" height="128" style="fill:none;"/><path d="M72.851,97.65c-4.883,-4.867 -12.818,-4.866 -17.694,0.001c-4.875,4.882 -4.875,12.816 0,17.699c4.876,4.866 12.812,4.866 17.693,0c4.867,-4.882 4.867,-12.817 0.001,-17.7Z" style="fill:#404547;fill-rule:nonzero;"/><path d="M98.509,35.514c4.391,1.68 8.687,3.68 12.841,6.025l7.65,-13.251c-32.021,-25.717 -77.993,-25.718 -110,0l7.649,13.249c4.181,-2.36 8.505,-4.372 12.925,-6.058c22.013,-8.84 46.929,-8.828 68.935,0.035Z" style="fill:#404547;fill-rule:nonzero;"/><path d="M34.376,72.243l8.66,15.001c13.767,-3.188 28.162,-3.188 41.928,0l8.66,-15.001c-18.989,-7.259 -40.258,-7.259 -59.248,0Z" style="fill:#404547;fill-rule:nonzero;"/><path d="M98.632,63.566l7.615,-13.189c-25.809,-15.428 -58.685,-15.428 -84.495,0l7.614,13.189c22.106,-8.941 47.16,-8.941 69.266,0Z" style="fill:#404547;fill-rule:nonzero;"/></svg>