<?xml version="1.0" encoding="UTF-8" standalone="no"?>
<!DOCTYPE svg PUBLIC "-//W3C//DTD SVG 1.1//EN" "http://www.w3.org/Graphics/SVG/1.1/DTD/svg11.dtd">
<svg width="100%" height="100%" viewBox="0 0 128 128" version="1.1" xmlns="http://www.w3.org/2000/svg" xmlns:xlink="http://www.w3.org/1999/xlink" xml:space="preserve" style="fill-rule:evenodd;clip-rule:evenodd;stroke-linejoin:round;stroke-miterlimit:1.41421;">
    <g transform="matrix(1,0,0,1,-3456,0)">
        <g id="player_chat" transform="matrix(1,0,0,1,3456,0)">
            <rect x="0" y="0" width="128" height="128" style="fill:none;"/>
            <g transform="matrix(1,0,0,1,-0.0005,0)">
                <path d="M9,46.358L9,76.657C9,89.553 19.455,100.005 32.349,100.005L35.315,100.005C38.411,106.488 47.873,122.259 68.017,126C56.996,116.29 59.079,105.366 61.115,100.005L95.654,100.005C108.547,100.005 119.001,89.554 119.001,76.657L119.001,46.358C119.001,33.464 108.547,23.01 95.654,23.01L32.349,23.01C19.455,23.01 9,33.464 9,46.358Z" style="fill:rgb(66,97,128);fill-rule:nonzero;"/>
            </g>
            <g transform="matrix(1,0,0,1,-0.0005,0)">
                <path d="M78.24,89.084L73.952,76.397L53.486,76.397L49.198,89.084L39,89.084L58.266,34.084L69.449,34.084L89,89.084L78.24,89.084ZM66.29,52.244C65.957,51.116 65.642,49.957 65.338,48.775C65.032,47.595 64.737,46.478 64.461,45.428C64.176,44.376 63.969,43.486 63.823,42.748L63.685,42.748C63.498,43.486 63.263,44.375 62.987,45.428C62.701,46.478 62.387,47.595 62.033,48.775C61.679,49.958 61.344,51.116 61.011,52.244C60.686,53.375 60.381,54.36 60.096,55.194L56.023,68.048L71.278,68.048L67.205,55.194C66.921,54.36 66.615,53.375 66.29,52.244Z" style="fill:white;fill-rule:nonzero;"/>
            </g>
        </g>
    </g>
</svg>
