<?xml version="1.0" encoding="UTF-8" standalone="no"?>
<!DOCTYPE svg PUBLIC "-//W3C//DTD SVG 1.1//EN" "http://www.w3.org/Graphics/SVG/1.1/DTD/svg11.dtd">
<svg width="100%" height="100%" viewBox="0 0 128 128" version="1.1" xmlns="http://www.w3.org/2000/svg" xmlns:xlink="http://www.w3.org/1999/xlink" xml:space="preserve" style="fill-rule:evenodd;clip-rule:evenodd;stroke-linejoin:round;stroke-miterlimit:1.41421;">
    <g transform="matrix(1,0,0,1,-3456,-800)">
        <g id="player_whisper" transform="matrix(1,0,0,1.09402,3456,362.393)">
            <rect x="0" y="400" width="128" height="117" style="fill:none;"/>
            <g transform="matrix(1,0,0,0.914062,8.08,407.386)">
                <circle cx="55.92" cy="55.92" r="55" style="fill:rgb(201,11,14);"/>
            </g>
            <g transform="matrix(1,0,0,0.914062,8.08,407.386)">
                <path d="M103,46.23C102.988,51.428 101.729,56.549 99.33,61.16C91.33,49.27 75.84,41.16 58.06,41.16C38.54,41.16 21.8,50.86 14.65,64.7C10.907,59.265 8.883,52.829 8.84,46.23C8.84,25 29.91,7.76 55.92,7.76C81.93,7.76 103,25 103,46.23Z" style="fill:url(#_Linear1);fill-rule:nonzero;"/>
            </g>
            <g transform="matrix(1,0,0,0.914062,8.08,407.386)">
                <path d="M15.84,74.38C15.868,70.245 16.956,66.185 19,62.59C25.79,72 39,78.34 54.1,78.34C70.72,78.34 84.97,70.68 91.1,59.75C94.252,63.978 95.969,69.106 96,74.38C96,91.15 78.06,104.76 55.92,104.76C33.78,104.76 15.84,91.15 15.84,74.38Z" style="fill:url(#_Linear2);fill-rule:nonzero;"/>
            </g>
        </g>
    </g>
    <defs>
        <linearGradient id="_Linear1" x1="0" y1="0" x2="1" y2="0" gradientUnits="userSpaceOnUse" gradientTransform="matrix(2.80995e-15,45.89,-45.89,2.80995e-15,55.92,6.93)"><stop offset="0" style="stop-color:white;stop-opacity:0.8"/><stop offset="1" style="stop-color:rgb(201,11,14);stop-opacity:0.8"/></linearGradient>
        <linearGradient id="_Linear2" x1="0" y1="0" x2="1" y2="0" gradientUnits="userSpaceOnUse" gradientTransform="matrix(3.43972e-14,-36.23,36.23,3.43972e-14,55.92,105.41)"><stop offset="0" style="stop-color:white;stop-opacity:0.3"/><stop offset="0" style="stop-color:rgb(255,254,254);stop-opacity:0.3"/><stop offset="0.22" style="stop-color:rgb(239,181,182);stop-opacity:0.3"/><stop offset="0.43" style="stop-color:rgb(225,121,122);stop-opacity:0.3"/><stop offset="0.61" style="stop-color:rgb(215,73,76);stop-opacity:0.3"/><stop offset="0.78" style="stop-color:rgb(207,39,42);stop-opacity:0.3"/><stop offset="0.91" style="stop-color:rgb(203,19,21);stop-opacity:0.3"/><stop offset="1" style="stop-color:rgb(201,11,14);stop-opacity:0.3"/></linearGradient>
    </defs>
</svg>
