<?xml version="1.0" encoding="UTF-8" standalone="no"?><!DOCTYPE svg PUBLIC "-//W3C//DTD SVG 1.1//EN" "http://www.w3.org/Graphics/SVG/1.1/DTD/svg11.dtd"><svg width="100%" height="100%" viewBox="0 0 128 128" version="1.1" xmlns="http://www.w3.org/2000/svg" xmlns:xlink="http://www.w3.org/1999/xlink" xml:space="preserve" style="fill-rule:evenodd;clip-rule:evenodd;stroke-linejoin:round;stroke-miterlimit:1.41421;"><rect id="plugins" x="0" y="0" width="128" height="128" style="fill:none;"/><path d="M113.974,119.006c-0.693,0 -1.398,-0.145 -2.07,-0.451c-41.177,-18.762 -78.949,-5.593 -91.361,-1.265c-4.885,1.704 -8.414,2.935 -10.728,-0.755c-0.841,-1.34 -1.772,-4.068 1.442,-7.283c6.358,-6.358 28.98,-28.577 28.98,-28.577l7.037,7.105c0,0 -14.259,13.938 -15.998,15.677c19.086,-5.073 50.712,-9.521 84.773,5.998c2.513,1.145 3.622,4.11 2.477,6.623c-0.838,1.841 -2.653,2.928 -4.552,2.928Z" style="fill:#404547;fill-rule:nonzero;"/><path d="M99.049,62.515l-33.581,-33.58c-2.898,-2.898 -7.594,-2.898 -10.489,-0.003l-16.586,24.978c-2.894,2.893 -2.899,7.594 0,10.492l1.26,1.261l22.665,22.663l1.268,1.269c2.893,2.892 7.599,2.892 10.492,0l24.974,-16.591c2.896,-2.897 2.889,-7.596 -0.003,-10.489Z" style="fill:#426180;fill-rule:nonzero;"/><path d="M98.598,18.557c2.16,-2.159 2.16,-5.66 0,-7.821l-0.123,-0.122c-2.16,-2.16 -5.66,-2.159 -7.82,0l-14.427,14.427l7.943,7.943l14.427,-14.427Z" style="fill:#404547;fill-rule:nonzero;"/><path d="M117.37,37.328c2.16,-2.161 2.16,-5.66 0,-7.821l-0.123,-0.122c-2.16,-2.16 -5.66,-2.16 -7.82,0l-14.428,14.427l7.944,7.944l14.427,-14.428Z" style="fill:#404547;fill-rule:nonzero;"/></svg>