<?xml version="1.0" encoding="UTF-8" standalone="no"?><!DOCTYPE svg PUBLIC "-//W3C//DTD SVG 1.1//EN" "http://www.w3.org/Graphics/SVG/1.1/DTD/svg11.dtd"><svg width="100%" height="100%" viewBox="0 0 128 128" version="1.1" xmlns="http://www.w3.org/2000/svg" xmlns:xlink="http://www.w3.org/1999/xlink" xml:space="preserve" style="fill-rule:evenodd;clip-rule:evenodd;stroke-linejoin:round;stroke-miterlimit:1.41421;"><rect id="poke" x="0" y="0" width="128" height="128" style="fill:none;"/><path d="M64,9l13.395,22.664l25.496,-6.555l-6.555,25.496l22.664,13.395l-22.664,13.395l6.555,25.496l-25.496,-6.555l-13.395,22.664l-13.395,-22.664l-25.496,6.555l6.555,-25.496l-22.664,-13.395l22.664,-13.395l-6.555,-25.496l25.496,6.555l13.395,-22.664Z" style="fill:#c90709;fill-rule:nonzero;"/><path d="M57.498,42.082c0,-0.864 0.31,-1.594 0.893,-2.176c0.586,-0.604 1.312,-0.906 2.177,-0.906l6.875,0c0.857,0 1.582,0.302 2.176,0.914c0.584,0.614 0.879,1.333 0.879,2.168l0,22.458c0,0.863 -0.295,1.595 -0.879,2.186c-0.594,0.604 -1.318,0.9 -2.176,0.9l-6.875,0c-0.865,0 -1.591,-0.296 -2.178,-0.9c-0.583,-0.591 -0.893,-1.322 -0.893,-2.186l0,-22.458l0.001,0Z" style="fill:#fff;fill-rule:nonzero;"/><path d="M57.498,79.306c0,-0.872 0.31,-1.604 0.893,-2.195c0.586,-0.595 1.313,-0.892 2.178,-0.892l6.875,0c0.859,0 1.582,0.306 2.176,0.909c0.584,0.617 0.879,1.341 0.879,2.178l0,6.611c0,0.867 -0.295,1.594 -0.879,2.19c-0.595,0.602 -1.317,0.893 -2.177,0.893l-6.875,0c-0.865,0 -1.591,-0.291 -2.178,-0.893c-0.583,-0.597 -0.893,-1.323 -0.893,-2.19l0,-6.611l0.001,0Z" style="fill:#fff;fill-rule:nonzero;"/></svg>