<?xml version="1.0" encoding="UTF-8" standalone="no"?><!DOCTYPE svg PUBLIC "-//W3C//DTD SVG 1.1//EN" "http://www.w3.org/Graphics/SVG/1.1/DTD/svg11.dtd"><svg width="100%" height="100%" viewBox="0 0 128 128" version="1.1" xmlns="http://www.w3.org/2000/svg" xmlns:xlink="http://www.w3.org/1999/xlink" xml:space="preserve" style="fill-rule:evenodd;clip-rule:evenodd;stroke-linejoin:round;stroke-miterlimit:1.41421;"><rect id="present" x="0" y="0" width="128" height="128" style="fill:none;"/><path d="M118.999,110.052c0,4.746 -3.847,8.594 -8.594,8.594l-92.812,0c-4.746,0 -8.594,-3.848 -8.594,-8.594l0,-48.125c0,-4.747 3.848,-8.594 8.594,-8.594l92.813,0c4.747,0 8.594,3.847 8.594,8.594l0,48.125l-0.001,0Z" style="fill:#1ca037;fill-rule:nonzero;"/><path d="M63.998,19.946l21.091,24.715l9.038,0l-30.129,-35.306l-30.127,35.306l9.038,0l21.089,-24.715Z" style="fill:#404547;fill-rule:nonzero;"/><path d="M88.874,74.419l-31.169,31.118c-0.604,0.604 -1.494,0.891 -2.668,0.856c-1.075,-0.033 -1.897,-0.318 -2.467,-0.856l-13.446,-13.444c-0.604,-0.604 -0.906,-1.342 -0.906,-2.216c0,-0.872 0.302,-1.611 0.906,-2.215l4.481,-4.481c0.604,-0.604 1.342,-0.906 2.216,-0.906c0.873,0 1.611,0.302 2.215,0.906l7.1,7.1l24.825,-24.774c0.604,-0.604 1.342,-0.906 2.216,-0.906c0.872,0 1.611,0.303 2.215,0.906l4.481,4.432c0.604,0.638 0.906,1.385 0.906,2.24c0.001,0.855 -0.301,1.602 -0.905,2.24Z" style="fill:#fff;fill-rule:nonzero;"/></svg>