<?xml version="1.0" encoding="UTF-8" standalone="no"?><!DOCTYPE svg PUBLIC "-//W3C//DTD SVG 1.1//EN" "http://www.w3.org/Graphics/SVG/1.1/DTD/svg11.dtd"><svg width="100%" height="100%" viewBox="0 0 128 128" version="1.1" xmlns="http://www.w3.org/2000/svg" xmlns:xlink="http://www.w3.org/1999/xlink" xml:space="preserve" style="fill-rule:evenodd;clip-rule:evenodd;stroke-linejoin:round;stroke-miterlimit:1.41421;"><rect id="recording_start" x="0" y="0" width="128" height="128" style="fill:none;"/><path d="M119,9l-110,0l0,110l110,0l0,-110Zm-17.346,55c0,20.796 -16.858,37.654 -37.654,37.654c-20.796,0 -37.654,-16.858 -37.654,-37.654c0,-20.796 16.858,-37.654 37.654,-37.654c20.796,0 37.654,16.858 37.654,37.654Z" style="fill:#878b8c;fill-rule:nonzero;"/><path d="M64,36.346c-15.249,0 -27.654,12.406 -27.654,27.654c0,15.249 12.406,27.654 27.654,27.654c15.249,0 27.654,-12.405 27.654,-27.654c0,-15.249 -12.405,-27.654 -27.654,-27.654Z" style="fill:#c90709;fill-rule:nonzero;"/></svg>