<?xml version="1.0" encoding="UTF-8" standalone="no"?><!DOCTYPE svg PUBLIC "-//W3C//DTD SVG 1.1//EN" "http://www.w3.org/Graphics/SVG/1.1/DTD/svg11.dtd"><svg width="100%" height="100%" viewBox="0 0 128 128" version="1.1" xmlns="http://www.w3.org/2000/svg" xmlns:xlink="http://www.w3.org/1999/xlink" xml:space="preserve" style="fill-rule:evenodd;clip-rule:evenodd;stroke-linejoin:round;stroke-miterlimit:1.41421;"><rect id="refresh" x="0" y="0" width="128" height="128" style="fill:none;"/><path d="M64.366,101.939c-20.68,0 -37.503,-16.8 -37.503,-37.507c0,-20.681 16.824,-37.506 37.503,-37.506c8.874,0 17.032,3.086 23.446,8.274l-18.579,16.075l48.979,7.25l-0.102,-49.525l-17.248,14.883c-9.603,-8.712 -22.4,-14.069 -36.496,-14.069c-30.145,0 -54.579,24.472 -54.579,54.618c0,30.155 24.434,54.568 54.579,54.568c23.662,0 43.783,-15.036 51.318,-36.016l-17.417,-2.641c-5.947,12.752 -18.918,21.596 -33.901,21.596Z" style="fill:#1ca037;fill-rule:nonzero;"/></svg>