<?xml version="1.0" encoding="UTF-8" standalone="no"?><!DOCTYPE svg PUBLIC "-//W3C//DTD SVG 1.1//EN" "http://www.w3.org/Graphics/SVG/1.1/DTD/svg11.dtd"><svg width="100%" height="100%" viewBox="0 0 128 128" version="1.1" xmlns="http://www.w3.org/2000/svg" xmlns:xlink="http://www.w3.org/1999/xlink" xml:space="preserve" style="fill-rule:evenodd;clip-rule:evenodd;stroke-linejoin:round;stroke-miterlimit:1.41421;"><rect id="register" x="0" y="0" width="128" height="128" style="fill:none;"/><path d="M43.646,43.376c0,-5.729 1.997,-10.6 5.992,-14.609c3.993,-4.01 8.798,-6.016 14.419,-6.016c5.62,0 10.401,2.006 14.37,6.016c3.954,4.009 5.938,8.88 5.938,14.609l0,5.322l13.563,0l0,-5.322c0,-6.234 -1.514,-11.979 -4.562,-17.242c-3.036,-5.264 -7.146,-9.436 -12.341,-12.514c-5.195,-3.076 -10.87,-4.62 -17.022,-4.62c-6.146,0 -11.82,1.544 -17.017,4.621c-5.195,3.078 -9.313,7.25 -12.354,12.514c-3.036,5.263 -4.561,11.008 -4.561,17.242l0,5.322l13.574,0l0,-5.323l0.001,0Z" style="fill:#878b8c;fill-rule:nonzero;"/><path d="M21.772,57.292l84.503,0c1.24,0.271 2.325,0.874 3.262,1.82c1.309,1.326 1.963,2.953 1.963,4.888l0,48.123c0,1.928 -0.654,3.562 -1.963,4.887c-1.311,1.329 -2.909,1.99 -4.824,1.99l-81.425,0c-1.843,0 -3.429,-0.661 -4.771,-1.99c-1.344,-1.325 -2.017,-2.959 -2.017,-4.887l0,-48.123c0,-1.935 0.673,-3.562 2.017,-4.888c0.958,-0.946 2.043,-1.549 3.255,-1.82Z" style="fill:#404547;fill-rule:nonzero;"/><path d="M71.428,73.955c0,-2.762 -2.238,-5 -5,-5l-4.855,0c-2.761,0 -5,2.238 -5,5l0,27.922c0,2.762 2.239,5 5,5l4.855,0c2.762,0 5,-2.238 5,-5l0,-27.922Z" style="fill:#fff;fill-rule:nonzero;"/></svg>