<?xml version="1.0" encoding="UTF-8" standalone="no"?><!DOCTYPE svg PUBLIC "-//W3C//DTD SVG 1.1//EN" "http://www.w3.org/Graphics/SVG/1.1/DTD/svg11.dtd"><svg width="100%" height="100%" viewBox="0 0 128 128" version="1.1" xmlns="http://www.w3.org/2000/svg" xmlns:xlink="http://www.w3.org/1999/xlink" xml:space="preserve" style="fill-rule:evenodd;clip-rule:evenodd;stroke-linejoin:round;stroke-miterlimit:1.41421;"><rect id="reload" x="0" y="0" width="128" height="128" style="fill:none;"/><path d="M125.358,49.932c-3.794,6.634 -7.602,13.256 -11.426,19.868c-2.144,3.727 -4.289,7.452 -6.432,11.177c-1.79,3.103 -4.558,3.128 -6.33,0.05c-5.242,-9.088 -10.477,-18.18 -15.707,-27.277c-0.75,-1.298 -1.515,-2.588 -2.25,-3.898c-1.485,-2.69 -0.07,-5.105 2.987,-5.127c1.808,-0.013 3.615,-0.027 5.42,-0.04c0.025,0 0.053,-0.055 0.095,-0.1c0.033,-0.555 -0.59,-0.813 -0.652,-1.33c-1.565,-1.935 -3.043,-3.945 -4.86,-5.67c-5.61,-5.31 -12.128,-8.73 -19.82,-9.938c-9.98,-1.562 -19,0.703 -27.25,6.418c-3.135,2.17 -5.575,5 -8.033,7.85c-2.25,3.15 -4.182,6.5 -5.36,10.205c-7.172,22.63 7.06,43.98 27.848,48.047c5.847,1.143 11.67,0.968 17.347,-0.855c2.68,-0.86 4.9,-0.517 7.098,1.233c2.895,2.302 5.932,4.427 8.897,6.642c3.798,2.84 3.318,7.725 -0.947,9.803c-33.968,16.532 -75.16,-3.81 -82.733,-40.813c-1.697,-8.244 -1.663,-16.751 0.098,-24.982c0.672,-3.286 1.708,-6.486 3.09,-9.543c2.14,-5.494 5.182,-10.594 9,-15.09c9.25,-11.04 20.93,-18.057 35.125,-20.455c17.25,-2.915 32.855,1.2 46.615,12.013c7.75,6.097 13.5,13.802 17.397,22.862c0.235,0.545 0.393,1.125 0.588,1.69c0.35,1.81 1.45,2.323 3.215,2.093c1.31,-0.17 2.665,-0.04 4,-0.033c3.122,0.018 4.547,2.46 2.98,5.2Z" style="fill:#1ca037;fill-rule:nonzero;"/><rect x="0" y="0" width="0.11" height="0.11" style="fill:none;"/><rect x="0" y="127.89" width="0.11" height="0.11" style="fill:none;"/><rect x="127.89" y="127.89" width="0.11" height="0.11" style="fill:none;"/><rect x="0" y="120" width="0.11" height="0.11" style="fill:none;"/><rect x="127.89" y="0" width="0.11" height="0.11" style="fill:none;"/></svg>