<?xml version="1.0" encoding="UTF-8" standalone="no"?>
<!DOCTYPE svg PUBLIC "-//W3C//DTD SVG 1.1//EN" "http://www.w3.org/Graphics/SVG/1.1/DTD/svg11.dtd">
<svg width="100%" height="100%" viewBox="0 0 128 128" version="1.1" xmlns="http://www.w3.org/2000/svg" xmlns:xlink="http://www.w3.org/1999/xlink" xml:space="preserve" style="fill-rule:evenodd;clip-rule:evenodd;stroke-linejoin:round;stroke-miterlimit:1.41421;">
    <g transform="matrix(1,0,0,1,-3840,-160)">
        <g id="remove_friend" transform="matrix(1,0,0,1,3840,160)">
            <rect x="0" y="0" width="128" height="128" style="fill:none;"/>
            <g transform="matrix(1,0,0,1,-1.789,-0.0005)">
                <path d="M51.172,90.874C51.172,79.875 55.86,69.956 63.335,62.991C62.4,62.145 61.728,61.375 61.739,60.941C61.758,60.866 61.784,60.794 61.84,60.733C65.82,56.417 67.592,55.067 69.664,49.967L70.326,48.344L71.805,47.585C73.026,46.955 74.651,44.533 75.537,40.532C76.041,38.253 76.142,35.951 75.822,34.215C75.59,32.97 75.209,32.319 74.931,32.123L73.202,30.912L72.946,28.686C71.611,17.023 64.933,9 53.007,9C53.006,9 53.005,9 53.004,9C53.004,9 53.003,9 53.002,9C41.076,9 34.398,17.023 33.062,28.687L32.805,30.913L31.077,32.124C30.8,32.32 30.418,32.971 30.185,34.216C29.865,35.952 29.966,38.254 30.47,40.533C31.358,44.533 32.982,46.956 34.203,47.586L35.68,48.345L36.343,49.968C38.416,55.068 40.187,56.418 44.168,60.734C44.224,60.795 44.25,60.867 44.269,60.942C44.297,62.014 40.17,65.144 38.108,66.389C37.865,66.53 37.643,66.653 37.468,66.742C36.099,67.429 34.712,67.818 33.249,68.233C29.179,69.372 24.565,70.672 18.962,79.205C14.754,85.628 12.819,107.668 12.578,119.001L63.588,119.001C55.964,112.024 51.172,101.999 51.172,90.874Z" style="fill:rgb(66,97,128);fill-rule:nonzero;"/>
            </g>
            <g transform="matrix(1,0,0,1,-1.789,-0.0005)">
                <path d="M90.876,62.75C75.343,62.75 62.75,75.343 62.75,90.874C62.75,106.408 75.343,119 90.876,119C106.408,119 119,106.408 119,90.874C119,75.343 106.408,62.75 90.876,62.75Z" style="fill:rgb(201,7,9);fill-rule:nonzero;"/>
            </g>
            <g transform="matrix(1,0,0,1,-1.789,-0.0005)">
                <path d="M108.375,93.291C108.375,93.897 108.171,94.413 107.747,94.821C107.339,95.233 106.83,95.44 106.226,95.44L75.528,95.44C74.924,95.44 74.411,95.233 74.004,94.821C73.579,94.413 73.375,93.897 73.375,93.291L73.375,88.46C73.375,87.853 73.591,87.339 74.012,86.931C74.44,86.518 74.939,86.311 75.529,86.311L106.227,86.311C106.831,86.311 107.339,86.518 107.748,86.931C108.172,87.339 108.376,87.853 108.376,88.46L108.376,93.291L108.375,93.291Z" style="fill:white;fill-rule:nonzero;"/>
            </g>
        </g>
    </g>
</svg>
