<?xml version="1.0" encoding="UTF-8" standalone="no"?>
<!DOCTYPE svg PUBLIC "-//W3C//DTD SVG 1.1//EN" "http://www.w3.org/Graphics/SVG/1.1/DTD/svg11.dtd">
<svg width="100%" height="100%" viewBox="0 0 128 128" version="1.1" xmlns="http://www.w3.org/2000/svg" xmlns:xlink="http://www.w3.org/1999/xlink" xml:space="preserve" style="fill-rule:evenodd;clip-rule:evenodd;stroke-linejoin:round;stroke-miterlimit:1.41421;">
    <g transform="matrix(1,0,0,1,-3840,-480)">
        <g id="select_all" transform="matrix(1,0,0,1.37634,3840,294.194)">
            <rect x="0" y="135" width="128" height="93" style="fill:none;"/>
            <g transform="matrix(1,0,0,0.726562,0,135)">
                <rect x="50.667" y="9" width="26.667" height="10" style="fill:rgb(66,97,128);"/>
            </g>
            <g transform="matrix(1,0,0,0.726562,0,135)">
                <path d="M104,19C106.757,19 109,21.243 109,24L109,40.667L119,40.667L119,24C119,15.716 112.284,9 104,9L87.333,9L87.333,19L104,19Z" style="fill:rgb(66,97,128);fill-rule:nonzero;"/>
            </g>
            <g transform="matrix(1,0,0,0.726562,0,135)">
                <rect x="109" y="50.667" width="10" height="26.667" style="fill:rgb(66,97,128);"/>
            </g>
            <g transform="matrix(1,0,0,0.726562,0,135)">
                <rect x="9" y="50.667" width="10" height="26.667" style="fill:rgb(66,97,128);"/>
            </g>
            <g transform="matrix(1,0,0,0.726562,0,135)">
                <rect x="50.667" y="109" width="26.667" height="10" style="fill:rgb(66,97,128);"/>
            </g>
            <g transform="matrix(1,0,0,0.726562,0,135)">
                <path d="M109,104C109,106.757 106.757,109 104,109L87.333,109L87.333,119L104,119C112.284,119 119,112.284 119,104L119,87.334L109,87.334L109,104Z" style="fill:rgb(66,97,128);fill-rule:nonzero;"/>
            </g>
            <g transform="matrix(1,0,0,0.726562,0,135)">
                <path d="M19,24C19,21.243 21.243,19 24,19L40.667,19L40.667,9L24,9C15.716,9 9,15.716 9,24L9,40.667L19,40.667L19,24Z" style="fill:rgb(66,97,128);fill-rule:nonzero;"/>
            </g>
            <g transform="matrix(1,0,0,0.726562,0,135)">
                <path d="M24,109C21.243,109 19,106.757 19,104L19,87.334L9,87.334L9,104C9,112.284 15.716,119 24,119L40.667,119L40.667,109L24,109Z" style="fill:rgb(66,97,128);fill-rule:nonzero;"/>
            </g>
            <g transform="matrix(1,0,0,0.726562,0,135)">
                <path d="M99,98.355L83.933,98.355L77.929,82.507L49.284,82.507L43.273,98.355L29,98.355L55.976,29.638L71.626,29.638L99,98.355ZM68.478,56.025C68.082,54.976 67.658,53.747 67.197,52.333C66.741,50.924 66.294,49.48 65.877,48C65.446,46.522 65.035,45.129 64.639,43.816C64.248,42.505 63.95,41.387 63.754,40.467L63.558,40.467C63.297,41.387 62.966,42.506 62.575,43.816C62.179,45.129 61.735,46.523 61.246,48C60.751,49.48 60.276,50.923 59.815,52.333C59.358,53.747 58.927,54.976 58.536,56.025L52.827,72.075L74.19,72.075L68.478,56.025Z" style="fill:rgb(64,69,71);fill-rule:nonzero;"/>
            </g>
        </g>
    </g>
</svg>
