<?xml version="1.0" encoding="UTF-8" standalone="no"?>
<!DOCTYPE svg PUBLIC "-//W3C//DTD SVG 1.1//EN" "http://www.w3.org/Graphics/SVG/1.1/DTD/svg11.dtd">
<svg width="100%" height="100%" viewBox="0 0 128 128" version="1.1" xmlns="http://www.w3.org/2000/svg" xmlns:xlink="http://www.w3.org/1999/xlink" xml:space="preserve" style="fill-rule:evenodd;clip-rule:evenodd;stroke-linejoin:round;stroke-miterlimit:1.41421;">
    <g transform="matrix(1,0,0,1,-3840,-640)">
        <g id="send_complaint" transform="matrix(1,0,0,1.37634,3840,454.194)">
            <rect x="0" y="135" width="128" height="93" style="fill:none;"/>
            <g transform="matrix(1,0,0,0.726562,0,135)">
                <path d="M118.288,101.717L91.047,54.563C90.315,53.29 88.956,52.51 87.491,52.51C86.026,52.51 84.668,53.29 83.935,54.563L56.549,101.99C55.817,103.257 55.817,104.833 56.549,106.087C57.281,107.374 58.64,108.162 60.108,108.162L114.877,108.162C114.884,108.161 114.891,108.161 114.896,108.162C117.164,108.162 119,106.325 119,104.052C119,103.189 118.729,102.39 118.288,101.717Z" style="fill:rgb(201,7,9);fill-rule:nonzero;"/>
            </g>
            <g transform="matrix(1,0,0,0.726562,0,135)">
                <path d="M92.325,99.437C92.325,100.06 92.1,100.606 91.662,101.037C91.218,101.474 90.687,101.705 90.058,101.705L84.952,101.705C84.314,101.705 83.767,101.474 83.331,101.037C82.9,100.606 82.684,100.06 82.684,99.437L82.684,94.568C82.684,93.914 82.901,93.385 83.331,92.953C83.768,92.51 84.314,92.295 84.952,92.295L90.058,92.295C90.688,92.295 91.218,92.519 91.662,92.971C92.1,93.409 92.325,93.95 92.325,94.569L92.325,99.437Z" style="fill:white;fill-rule:nonzero;"/>
                <path d="M92.325,85.568C92.325,86.209 92.1,86.745 91.662,87.184C91.218,87.623 90.687,87.836 90.058,87.836L84.952,87.836C84.314,87.836 83.767,87.623 83.331,87.184C82.9,86.745 82.684,86.208 82.684,85.568L82.684,69.04C82.684,68.407 82.901,67.86 83.331,67.43C83.768,66.993 84.314,66.769 84.952,66.769L90.058,66.769C90.688,66.769 91.218,66.999 91.662,67.443C92.1,67.889 92.325,68.422 92.325,69.041L92.325,85.568Z" style="fill:white;fill-rule:nonzero;"/>
            </g>
            <g transform="matrix(1,0,0,0.726562,0,135)">
                <path d="M87.491,42.509C88.321,42.509 89.14,42.59 89.943,42.732L102.493,29.838L25.509,29.838L63.893,69.274L75.268,49.575C77.775,45.217 82.459,42.509 87.491,42.509Z" style="fill:none;"/>
            </g>
            <g transform="matrix(1,0,0,0.726562,0,135)">
                <path d="M98.709,48.063C99.07,48.538 99.404,49.036 99.706,49.56L109,65.648L109,37.49L98.709,48.063Z" style="fill:none;"/>
            </g>
            <g transform="matrix(1,0,0,0.726562,0,135)">
                <path d="M24.368,98.161L47.292,98.161C47.474,97.764 47.669,97.371 47.89,96.988L58.697,78.273L48.535,67.833L24.368,98.161Z" style="fill:none;"/>
            </g>
            <g transform="matrix(1,0,0,0.726562,0,135)">
                <path d="M19,37.489L19,88.851L41.504,60.61L19,37.489Z" style="fill:none;"/>
            </g>
            <g transform="matrix(1,0,0,0.726562,0,135)">
                <path d="M47.292,98.161L24.368,98.161L48.535,67.833L58.697,78.273L63.893,69.274L25.509,29.839L102.493,29.839L89.943,42.733C93.421,43.35 96.565,45.254 98.709,48.064L109,37.49L109,65.648L119,82.959L119,32.957C119,31.263 118.667,29.648 118.08,28.161C116.81,24.938 114.307,22.339 111.146,20.948C109.533,20.239 107.754,19.839 105.881,19.839L22.118,19.839C20.245,19.839 18.468,20.239 16.855,20.948C13.694,22.338 11.19,24.937 9.92,28.16C9.333,29.648 9,31.263 9,32.957L9,95.043C9,96.842 9.365,98.556 10.021,100.117C11.369,103.32 13.954,105.873 17.174,107.187C18.701,107.81 20.368,108.161 22.117,108.161L46.622,108.161C45.622,104.883 45.844,101.314 47.292,98.161ZM19,88.851L19,37.489L41.504,60.61L19,88.851Z" style="fill:rgb(64,69,71);fill-rule:nonzero;"/>
            </g>
        </g>
    </g>
</svg>
