<?xml version="1.0" encoding="UTF-8" standalone="no"?><!DOCTYPE svg PUBLIC "-//W3C//DTD SVG 1.1//EN" "http://www.w3.org/Graphics/SVG/1.1/DTD/svg11.dtd"><svg width="100%" height="100%" viewBox="0 0 128 128" version="1.1" xmlns="http://www.w3.org/2000/svg" xmlns:xlink="http://www.w3.org/1999/xlink" xml:space="preserve" style="fill-rule:evenodd;clip-rule:evenodd;stroke-linejoin:round;stroke-miterlimit:1.41421;"><rect id="server_query" x="0" y="0" width="128" height="128" style="fill:none;"/><rect x="9" y="103.121" width="110" height="10" style="fill:#404547;"/><path d="M42.625,60.496l34.473,44.031l-9.607,5.531l-38.472,-49.562" style="fill:#404547;fill-rule:nonzero;"/><path d="M37.134,23.12c5.426,0 10.479,0.927 15.049,2.769c4.728,1.925 8.799,4.7 12.097,8.246c3.26,3.502 5.794,7.726 7.547,12.596c0.073,0.208 0.137,0.423 0.208,0.633l38.371,0c4.746,0 8.594,-3.828 8.594,-8.549l0,-15.387c0,-4.722 -3.848,-8.549 -8.594,-8.549l-92.812,0c-4.746,0 -8.594,3.826 -8.594,8.549l0,10.572c0.068,-0.072 0.132,-0.148 0.201,-0.219c6.86,-7.074 16.258,-10.661 27.933,-10.661Zm42.897,2.347c0,-1.125 0.916,-2.039 2.05,-2.039l24.557,0c1.134,0 2.05,0.914 2.05,2.039l0,11.31c0,1.126 -0.916,2.039 -2.05,2.039l-24.557,0c-1.134,0 -2.05,-0.913 -2.05,-2.039l0,-11.31Z" style="fill:#878b8c;fill-rule:nonzero;"/><path d="M82.081,38.815l24.557,0c1.134,0 2.05,-0.913 2.05,-2.039l0,-11.31c0,-1.125 -0.916,-2.039 -2.05,-2.039l-24.557,0c-1.134,0 -2.05,0.914 -2.05,2.039l0,11.31c0,1.126 0.916,2.039 2.05,2.039Z" style="fill:#fff;fill-rule:nonzero;"/><path d="M74.288,62.142c0,-0.999 -0.035,-1.979 -0.088,-2.949l36.206,0c4.746,0 8.594,3.827 8.594,8.548l0,15.389c0,4.722 -3.848,8.548 -8.594,8.548l-25.406,0l-3.426,-0.005l-10.179,-13.07c0.101,-0.259 0.208,-0.513 0.305,-0.775c1.717,-4.685 2.588,-9.962 2.588,-15.686Z" style="fill:#878b8c;fill-rule:nonzero;"/><path d="M37.134,33.12c4.154,0 7.929,0.681 11.279,2.031c3.338,1.359 6.204,3.278 8.548,5.798c2.344,2.518 4.157,5.555 5.442,9.126c1.264,3.563 1.885,7.592 1.885,12.068c0,4.554 -0.655,8.639 -1.977,12.245c-1.329,3.629 -3.187,6.726 -5.588,9.291c-2.403,2.575 -5.333,4.535 -8.777,5.925c-3.414,1.39 -7.245,2.055 -11.462,2.055c-4.155,0 -7.936,-0.661 -11.347,-2.006c-3.398,-1.354 -6.298,-3.286 -8.67,-5.853c-2.375,-2.531 -4.218,-5.619 -5.525,-9.195c-1.296,-3.593 -1.942,-7.64 -1.942,-12.125c0,-9.409 2.461,-16.654 7.379,-21.738c4.921,-5.073 11.838,-7.622 20.755,-7.622Zm-0.686,8.848c-2.28,0 -4.356,0.477 -6.212,1.455c-1.872,0.976 -3.485,2.355 -4.853,4.133c-1.351,1.794 -2.387,3.958 -3.12,6.483c-0.734,2.546 -1.1,5.355 -1.1,8.441c0,3.084 0.366,5.87 1.1,8.377c0.733,2.515 1.789,4.646 3.169,6.429c1.379,1.727 3.017,3.126 4.923,4.069c1.886,0.989 4.022,1.466 6.421,1.466c2.276,0 4.337,-0.492 6.211,-1.489c1.865,-1 3.484,-2.401 4.838,-4.165c1.344,-1.808 2.403,-3.951 3.181,-6.47c0.744,-2.496 1.139,-5.275 1.139,-8.313c0,-3.127 -0.369,-5.949 -1.11,-8.5c-0.736,-2.548 -1.777,-4.702 -3.156,-6.459c-1.382,-1.743 -3.051,-3.104 -4.978,-4.046c-1.915,-0.943 -4.076,-1.411 -6.453,-1.411Z" style="fill:#404547;fill-rule:nonzero;"/><path d="M108.688,69.781c0,-1.131 -0.913,-2.04 -2.051,-2.04l-24.555,0c-1.138,0 -2.051,0.909 -2.051,2.04l0,11.309c0,1.132 0.913,2.04 2.051,2.04l24.555,0c1.138,0 2.051,-0.908 2.051,-2.04l0,-11.309Z" style="fill:#fff;fill-rule:nonzero;"/></svg>