<?xml version="1.0" encoding="UTF-8" standalone="no"?><!DOCTYPE svg PUBLIC "-//W3C//DTD SVG 1.1//EN" "http://www.w3.org/Graphics/SVG/1.1/DTD/svg11.dtd"><svg width="100%" height="100%" viewBox="0 0 128 128" version="1.1" xmlns="http://www.w3.org/2000/svg" xmlns:xlink="http://www.w3.org/1999/xlink" xml:space="preserve" style="fill-rule:evenodd;clip-rule:evenodd;stroke-linejoin:round;stroke-miterlimit:1.41421;"><rect id="server_green" x="0" y="0" width="128" height="128" style="fill:none;"/><rect x="58.999" y="85.408" width="10" height="27.736" style="fill:#404547;"/><path d="M118.999,37.936c0,4.721 -3.848,8.549 -8.594,8.549l-92.812,0c-4.746,0 -8.594,-3.827 -8.594,-8.549l0,-15.387c0,-4.722 3.848,-8.549 8.594,-8.549l92.813,0c4.746,0 8.594,3.827 8.594,8.549l0,15.387l-0.001,0Z" style="fill:#878b8c;fill-rule:nonzero;"/><path d="M118.999,82.251c0,4.722 -3.848,8.548 -8.594,8.548l-92.812,0c-4.746,0 -8.594,-3.827 -8.594,-8.548l0,-15.389c0,-4.721 3.848,-8.548 8.594,-8.548l92.813,0c4.746,0 8.594,3.827 8.594,8.548l0,15.389l-0.001,0Z" style="fill:#878b8c;fill-rule:nonzero;"/><path d="M108.687,80.211c0,1.132 -0.913,2.04 -2.051,2.04l-28.555,0c-1.138,0 -2.051,-0.908 -2.051,-2.04l0,-11.309c0,-1.131 0.913,-2.04 2.051,-2.04l28.555,0c1.138,0 2.051,0.909 2.051,2.04l0,11.309Z" style="fill:#fff;fill-rule:nonzero;"/><path d="M108.687,35.897c0,1.126 -0.916,2.039 -2.05,2.039l-28.557,0c-1.134,0 -2.05,-0.913 -2.05,-2.039l0,-11.31c0,-1.125 0.916,-2.039 2.05,-2.039l28.557,0c1.134,0 2.05,0.914 2.05,2.039l0,11.31Z" style="fill:#fff;fill-rule:nonzero;"/><rect x="8.999" y="104" width="110" height="10" style="fill:#404547;"/></svg>