<?xml version="1.0" encoding="UTF-8" standalone="no"?><!DOCTYPE svg PUBLIC "-//W3C//DTD SVG 1.1//EN" "http://www.w3.org/Graphics/SVG/1.1/DTD/svg11.dtd"><svg width="100%" height="100%" viewBox="0 0 128 128" version="1.1" xmlns="http://www.w3.org/2000/svg" xmlns:xlink="http://www.w3.org/1999/xlink" xml:space="preserve" style="fill-rule:evenodd;clip-rule:evenodd;stroke-linejoin:round;stroke-miterlimit:1.41421;"><rect id="server_log" x="0" y="0" width="128" height="128" style="fill:none;"/><path d="M88.33,41.504l-58.17,0c-2.761,0 -5,-2.239 -5,-5c0,-2.761 2.239,-5 5,-5l58.17,0c2.762,0 5,2.239 5,5c0,2.761 -2.238,5 -5,5Z" style="fill:#404547;fill-rule:nonzero;"/><path d="M22.999,112.004c-2.762,0 -5,-2.238 -5,-5l0,-86.008c0,-2.761 2.238,-5 5,-5l72.475,0c2.762,0 5,2.239 5,5l0,20.686l10,0l0,-20.686c0,-8.271 -6.729,-15 -15,-15l-72.475,0c-8.271,0 -15,6.729 -15,15l0,86.008c0,8.271 6.729,15 15,15l17,0l0,-10l-17,0Z" style="fill:#426180;fill-rule:nonzero;"/><path d="M39.999,59.004l-9.839,0c-2.761,0 -5,2.239 -5,5c0,2.762 2.239,5 5,5l9.861,0c-0.005,-0.165 -0.022,-0.327 -0.022,-0.493l0,-9.507Z" style="fill:#404547;fill-rule:nonzero;"/><path d="M40.187,86.504l-10.027,0c-2.761,0 -5,2.238 -5,5c0,2.762 2.239,5 5,5l9.839,0l0,-7.643c0,-0.801 0.073,-1.586 0.188,-2.357Z" style="fill:#404547;fill-rule:nonzero;"/><rect x="79.999" y="86.891" width="10" height="34.516" style="fill:#404547;"/><path d="M119.999,66.983c0,3.005 -2.449,5.44 -5.469,5.44l-59.062,0c-3.02,0 -5.469,-2.436 -5.469,-5.44l0,-9.792c0,-3.006 2.449,-5.44 5.469,-5.44l59.063,0c3.02,0 5.469,2.435 5.469,5.44l0,9.792l-0.001,0Z" style="fill:#878b8c;fill-rule:nonzero;"/><path d="M119.999,96.183c0,3.005 -2.449,5.439 -5.469,5.439l-59.062,0c-3.02,0 -5.469,-2.435 -5.469,-5.439l0,-9.793c0,-3.004 2.449,-5.439 5.469,-5.439l59.063,0c3.02,0 5.469,2.436 5.469,5.439l0,9.793l-0.001,0Z" style="fill:#878b8c;fill-rule:nonzero;"/><rect x="49.999" y="112.004" width="70" height="10" style="fill:#404547;"/><path d="M113.437,94.884c0,0.721 -0.581,1.299 -1.305,1.299l-18.172,0c-0.724,0 -1.305,-0.578 -1.305,-1.299l0,-7.196c0,-0.72 0.581,-1.298 1.305,-1.298l18.172,0c0.724,0 1.305,0.578 1.305,1.298l0,7.196Z" style="fill:#fff;fill-rule:nonzero;"/><path d="M113.437,65.685c0,0.717 -0.583,1.298 -1.305,1.298l-18.172,0c-0.722,0 -1.305,-0.581 -1.305,-1.298l0,-7.197c0,-0.716 0.583,-1.297 1.305,-1.297l18.172,0c0.722,0 1.305,0.581 1.305,1.297l0,7.197Z" style="fill:#fff;fill-rule:nonzero;"/></svg>