<?xml version="1.0" encoding="UTF-8" standalone="no"?><!DOCTYPE svg PUBLIC "-//W3C//DTD SVG 1.1//EN" "http://www.w3.org/Graphics/SVG/1.1/DTD/svg11.dtd"><svg width="100%" height="100%" viewBox="0 0 128 128" version="1.1" xmlns="http://www.w3.org/2000/svg" xmlns:xlink="http://www.w3.org/1999/xlink" xml:space="preserve" style="fill-rule:evenodd;clip-rule:evenodd;stroke-linejoin:round;stroke-miterlimit:1.41421;"><rect id="settings" x="0" y="0" width="128" height="128" style="fill:none;"/><path d="M8.995,8.997l0,110.006l48.233,0l0,-10l-38.233,0l0,-80.006l90,0l0,22.631l10,0l0,-27.618l0,-0.013c0,-0.045 0,-0.089 0,-0.135c0,-8.221 0,-14.865 0,-14.865l-110,0Z" style="fill:#404547;fill-rule:nonzero;"/><path d="M82.633,62.437c1.313,-0.211 2.602,-0.316 3.871,-0.316c1.271,0 2.562,0.105 3.873,0.317l7.871,-8.188c0.212,-0.212 0.539,-0.286 0.983,-0.223c0.445,0.064 0.899,0.244 1.366,0.54l6.791,4.38c0.466,0.296 0.835,0.656 1.111,1.08c0.275,0.422 0.392,0.761 0.35,1.016l-3.111,10.472c1.482,1.948 2.645,4.021 3.492,6.223l8.759,2.475c0.255,0.086 0.488,0.36 0.699,0.825c0.211,0.467 0.317,0.995 0.316,1.587l0,8.697c0.001,0.591 -0.105,1.11 -0.316,1.556c-0.212,0.442 -0.444,0.708 -0.698,0.793l-9.015,2.284c-0.803,1.863 -1.904,3.704 -3.301,5.522l3.175,10.412c0.042,0.295 -0.074,0.655 -0.35,1.078c-0.276,0.424 -0.646,0.782 -1.111,1.079l-6.792,4.381c-0.465,0.295 -0.92,0.476 -1.364,0.539c-0.445,0.063 -0.772,-0.011 -0.984,-0.223l-7.871,-8.188c-1.312,0.211 -2.602,0.317 -3.872,0.317c-1.27,0 -2.56,-0.105 -3.872,-0.317l-7.871,8.188c-0.212,0.212 -0.539,0.285 -0.984,0.223c-0.443,-0.063 -0.898,-0.244 -1.365,-0.54l-6.792,-4.38c-0.465,-0.296 -0.835,-0.655 -1.111,-1.079c-0.275,-0.423 -0.392,-0.783 -0.349,-1.078l3.174,-10.411c-1.524,-1.904 -2.709,-3.979 -3.556,-6.221l-8.76,-2.476c-0.253,-0.084 -0.486,-0.359 -0.698,-0.826c-0.211,-0.465 -0.317,-0.994 -0.317,-1.587l0,-8.696c0,-0.592 0.105,-1.121 0.317,-1.586c0.211,-0.466 0.444,-0.721 0.699,-0.763l9.013,-2.286c0.805,-1.904 1.904,-3.745 3.302,-5.521l-3.174,-10.474c-0.042,-0.296 0.074,-0.645 0.348,-1.047c0.276,-0.401 0.646,-0.75 1.112,-1.047l6.792,-4.38c0.465,-0.296 0.921,-0.477 1.363,-0.54c0.445,-0.063 0.773,0.01 0.985,0.222l7.872,8.187Zm-5.682,14.468c-2.661,2.634 -3.987,5.829 -3.987,9.591c0,3.761 1.326,6.961 3.987,9.596c2.655,2.629 5.851,3.945 9.585,3.946c3.744,-0.001 6.931,-1.318 9.564,-3.946c2.628,-2.635 3.946,-5.835 3.946,-9.596c0,-3.762 -1.318,-6.957 -3.946,-9.591c-2.634,-2.634 -5.819,-3.951 -9.564,-3.951c-3.734,-0.001 -6.93,1.316 -9.585,3.951Z" style="fill:#426180;fill-rule:nonzero;"/></svg>