<?xml version="1.0" encoding="UTF-8" standalone="no"?><!DOCTYPE svg PUBLIC "-//W3C//DTD SVG 1.1//EN" "http://www.w3.org/Graphics/SVG/1.1/DTD/svg11.dtd"><svg width="100%" height="100%" viewBox="0 0 128 128" version="1.1" xmlns="http://www.w3.org/2000/svg" xmlns:xlink="http://www.w3.org/1999/xlink" xml:space="preserve" style="fill-rule:evenodd;clip-rule:evenodd;stroke-linejoin:round;stroke-miterlimit:1.41421;"><rect id="sort_by_name" x="0" y="0" width="128" height="128" style="fill:none;"/><path d="M79,80.209l-15.073,0l-6.004,-15.844l-28.63,0l-6.029,15.844l-14.264,0l26.979,-68.709l15.649,0l27.372,68.709Zm-30.522,-42.329c-0.399,-1.03 -0.822,-2.259 -1.289,-3.687c-0.444,-1.41 -0.888,-2.846 -1.32,-4.33c-0.41,-1.479 -0.821,-2.856 -1.231,-4.19c-0.387,-1.298 -0.683,-2.438 -0.886,-3.348l-0.191,0c-0.268,0.911 -0.609,2.05 -0.974,3.348c-0.41,1.333 -0.867,2.711 -1.345,4.19c-0.493,1.484 -0.968,2.92 -1.436,4.33c-0.445,1.428 -0.888,2.657 -1.268,3.687l-5.708,16.06l21.364,0l-5.716,-16.06Z" style="fill:#404547;fill-rule:nonzero;"/><path d="M97.729,116.5l21.271,-26.076l-12.641,-0.001l0,-75.608c0,-0.932 -0.319,-1.716 -0.959,-2.354c-0.64,-0.641 -1.418,-0.961 -2.357,-0.961l-10.63,0c-0.896,0.001 -1.681,0.322 -2.336,0.961c-0.652,0.639 -0.988,1.423 -0.988,2.354l-0.001,75.608l-12.622,-0.001l21.263,26.078Z" style="fill:#1ca037;fill-rule:nonzero;"/></svg>