<?xml version="1.0" encoding="UTF-8" standalone="no"?><!DOCTYPE svg PUBLIC "-//W3C//DTD SVG 1.1//EN" "http://www.w3.org/Graphics/SVG/1.1/DTD/svg11.dtd"><svg width="100%" height="100%" viewBox="0 0 128 128" version="1.1" xmlns="http://www.w3.org/2000/svg" xmlns:xlink="http://www.w3.org/1999/xlink" xml:space="preserve" style="fill-rule:evenodd;clip-rule:evenodd;stroke-linejoin:round;stroke-miterlimit:1.41421;"><rect id="sound.-pack" x="0" y="0" width="128" height="128" style="fill:none;"/><path d="M86.65,49.233c-1.172,-1.05 -1.63,-2.211 -1.618,-3.768c0.055,-6.115 0.023,-12.23 0,-18.345c0,-1.668 -0.5,-3.085 -2.172,-3.805c-1.723,-0.75 -3.198,-0.288 -4.515,0.953c-0.983,0.925 -1.978,1.837 -3,2.722c-6.198,5.405 -12.9,10.04 -20.463,13.35c-4.177,1.83 -8.55,2.88 -13.122,2.765c-7.885,-0.197 -15.77,-0.028 -23.658,-0.057c-1.705,0 -3.147,0.637 -3.885,2.315c-0.34,0.772 -1,0.977 -1.712,1.112c-6.202,1.103 -10.688,6.67 -10.448,12.965c-0.113,1.171 -0.04,2.352 0.215,3.5c1.065,5.118 3.575,9.067 8.938,10.427c1.595,0.406 2.842,0.816 3.727,2.393c0.795,1.415 2.5,1.368 3.988,1.37c7.843,0.012 15.687,0.006 23.53,-0.017c2.054,0.001 4.101,0.234 6.102,0.694c5.883,1.325 11.143,4.04 16.168,7.273c5.025,3.232 9.515,7.035 13.91,11c1.25,1.127 2.637,1.45 4.2,0.782c1.562,-0.667 2.105,-1.975 2.22,-3.54c0.04,-0.545 0.022,-1.095 0.022,-1.645c0,-5.82 0.018,-11.64 -0.042,-17.457c-0.013,-1.25 0.39,-2.298 1.232,-3.053c1.7,-1.525 3.105,-3.197 3.935,-5.36c1.153,-3 1.685,-6.03 0.728,-9.187c-0.498,-2.993 -2.068,-5.405 -4.28,-7.388Zm-8.943,7.405c-0.023,8.597 -0.046,17.194 -0.07,25.791c0,0.749 0.173,1.709 -0.5,2.055c-0.612,0.317 -1.137,-0.55 -1.652,-0.945c-6.215,-4.751 -12.773,-8.886 -20.198,-11.501c-1.658,-0.611 -3.357,-1.103 -5.085,-1.474c-1.16,-0.233 -1.597,-0.86 -1.587,-2.023c0.03,-3.032 -0.018,-6.067 -0.033,-9.102c0.25,-3.35 0.25,-3.353 -3.035,-3.353c-7.385,0 -14.77,0 -22.155,0c-0.589,0.016 -1.179,-0.021 -1.762,-0.11c-1.585,-0.292 -2.408,-1.33 -2.3,-2.815c0.107,-1.485 1.057,-2.52 2.577,-2.557c3.298,-0.103 6.593,-0.103 9.883,-0.103c3.08,0 6.162,0 9.25,0.042c8.215,0.123 15.627,-2.47 22.75,-6.345c4.506,-2.456 8.78,-5.315 12.77,-8.542c0.637,-0.515 1,-0.25 1.112,0.477c0.023,0.333 0.023,0.668 0,1c0.014,6.5 0.028,13 0.043,19.5l-0.008,0.005Z" style="fill:url(#_Linear1);fill-rule:nonzero;"/><path d="M47.865,96.018c-0.836,-0.895 -1.74,-1.722 -2.705,-2.476c-1.475,-1.182 -2.07,-2.667 -1.718,-4.579c0.326,-1.579 0.272,-3.212 -0.157,-4.766c-0.533,-1.809 -1.43,-2.499 -3.29,-2.499l-15.57,-0.001c-1.388,0.001 -1.59,0.283 -1.103,1.598c2.382,6.44 4.778,12.876 7.188,19.308c0.75,1.999 1.44,2.385 3.58,2.417c4.43,0.067 8.852,-0.338 13.287,-0.108c1.868,0.098 3.093,-1.404 2.925,-3.334c-0.163,-2.075 -1.022,-4.034 -2.437,-5.561Z" style="fill:url(#_Linear2);fill-rule:nonzero;"/><path d="M125.537,54.63c-0.067,-0.455 -0.107,-0.915 -0.207,-1.362c-1.84,-8.15 -6.038,-14.828 -12.528,-20.083c-0.882,-0.715 -1.5,-0.67 -2.185,0.267c-1.07,1.46 -2.22,2.865 -3.362,4.273c-0.538,0.662 -0.473,1.152 0.195,1.7c4.975,4.077 8.402,9.15 9.862,15.475c0.692,3.864 0.629,7.825 -0.187,11.665c-1.305,5.96 -4.518,10.725 -9.163,14.595c-1.202,1 -1.22,1.395 -0.25,2.612c0.97,1.218 1.878,2.385 2.798,3.588c0.955,1.25 1.347,1.323 2.562,0.315c4.678,-3.88 8.288,-8.565 10.5,-14.25c1.115,-2.862 1.708,-5.828 2.13,-8.9c0.447,-3.288 0.391,-6.624 -0.165,-9.895Z" style="fill:url(#_Linear3);fill-rule:nonzero;"/><path d="M109.537,54.388c-1.102,-3.735 -3.455,-6.593 -6.38,-9.038c-0.655,-0.547 -1.32,-0.5 -1.872,0.183c-1.19,1.478 -2.368,2.962 -3.535,4.452c-0.5,0.63 -0.5,1.233 0.165,1.75c1.18,0.905 2.1,2.055 3,3.22c2.68,6.25 1.98,9.828 -2.928,14.765c-0.635,0.64 -0.63,1.21 -0.1,1.877c1,1.254 1.988,2.514 2.963,3.781c1.125,1.459 1.55,1.529 2.925,0.292c3.035,-2.733 5.17,-5.955 6.19,-10.02c0.989,-3.712 0.84,-7.636 -0.428,-11.263l0,0Z" style="fill:#6e89a9;fill-rule:nonzero;"/><rect x="0" y="0" width="0.11" height="0.11" style="fill:none;"/><rect x="0" y="127.89" width="0.11" height="0.11" style="fill:none;"/><rect x="127.89" y="127.89" width="0.11" height="0.11" style="fill:none;"/><rect x="127.89" y="0" width="0.11" height="0.11" style="fill:none;"/><defs><linearGradient id="_Linear1" x1="0" y1="0" x2="1" y2="0" gradientUnits="userSpaceOnUse" gradientTransform="matrix(5.13265e-15,83.8225,-83.8225,5.13265e-15,46.7125,22.71)"><stop offset="0" style="stop-color:#728dae;stop-opacity:1"/><stop offset="1" style="stop-color:#426080;stop-opacity:1"/></linearGradient><linearGradient id="_Linear2" x1="0" y1="0" x2="1" y2="0" gradientUnits="userSpaceOnUse" gradientTransform="matrix(5.13265e-15,83.8225,-83.8225,5.13265e-15,36.7,22.71)"><stop offset="0" style="stop-color:#728dae;stop-opacity:1"/><stop offset="1" style="stop-color:#426080;stop-opacity:1"/></linearGradient><linearGradient id="_Linear3" x1="0" y1="0" x2="1" y2="0" gradientUnits="userSpaceOnUse" gradientTransform="matrix(5.13265e-15,83.8225,-83.8225,5.13265e-15,116.448,22.71)"><stop offset="0" style="stop-color:#728dae;stop-opacity:1"/><stop offset="1" style="stop-color:#426080;stop-opacity:1"/></linearGradient></defs></svg>