<?xml version="1.0" encoding="UTF-8" standalone="no"?>
<!DOCTYPE svg PUBLIC "-//W3C//DTD SVG 1.1//EN" "http://www.w3.org/Graphics/SVG/1.1/DTD/svg11.dtd">
<svg width="100%" height="100%" viewBox="0 0 128 128" version="1.1" xmlns="http://www.w3.org/2000/svg" xmlns:xlink="http://www.w3.org/1999/xlink" xml:space="preserve" style="fill-rule:evenodd;clip-rule:evenodd;stroke-linejoin:round;stroke-miterlimit:1.41421;">
    <g transform="matrix(1,0,0,1,-4224,0)">
        <g id="subscribe_mode" transform="matrix(1,0,0,1,4224,0)">
            <rect x="0" y="0" width="128" height="128" style="fill:none;"/>
            <g transform="matrix(1,0,0,1,8.03819,0)">
                <path d="M21.15,40.4C25.78,24.67 41.34,14.82 58.33,16.81C64.44,17.53 70.44,18.53 75.97,21.48C83.71,25.6 89.14,31.42 90.45,40.42C90.58,52.8 83.08,59.63 72.67,63.71C59.61,68.83 46.58,68.26 34.19,61.33C26.11,56.8 21.24,50 21.15,40.4ZM35.42,39C33.83,51.31 42.05,61.53 54.51,62.74C65.56,63.81 75.61,54.92 76.42,43.35C67.26,47.1 63.07,45.89 58,38.11C57.11,32.02 58.4,26.76 64.48,23.41C51.75,17.11 37.65,25.08 35.42,39Z" style="fill:rgb(254,254,254);fill-rule:nonzero;"/>
            </g>
            <g transform="matrix(1,0,0,1,8.03819,0)">
                <path d="M90.45,40.43C90.58,52.81 83.09,59.64 72.67,63.72C59.61,68.84 46.58,68.27 34.19,61.34C26.1,56.81 21.19,50.04 21.19,40.41C25.82,24.68 41.38,14.83 58.37,16.82C64.48,17.54 70.48,18.54 76.01,21.49C83.75,25.61 89.18,31.43 90.49,40.43L110.81,40.43C110.87,36.43 111,32.43 110.99,28.43C110.99,15.38 101.38,4.85 88.45,4.64C66.81,4.3 45.163,4.3 23.51,4.64C11.51,4.81 1.51,14.64 1.01,25.94C0.8,30.75 1.08,35.58 1.14,40.41C1,46.1 1,51.75 0.95,57.41C0.9,72.27 10.61,82 25.63,82C34.95,82 44.28,82.34 53.57,81.88C58.66,81.62 59.74,83.88 60.09,88.15C60.71,95.65 57.73,101.66 52.49,107.15C53.172,107.282 53.865,107.346 54.56,107.34C55.373,107.184 56.175,106.974 56.96,106.71C68.16,103.28 76.45,96.15 82.36,86.24C84.02,83.45 85.66,82.08 89.22,81.82C102.29,80.82 110.94,71.02 110.92,57.82C110.92,52 110.82,46.18 110.77,40.36L90.45,40.43Z" style="fill:rgb(66,96,128);fill-rule:nonzero;"/>
            </g>
            <g transform="matrix(1,0,0,1,8.03819,0)">
                <path d="M58,38.11C57.11,32.02 58.4,26.76 64.48,23.41C51.75,17.11 37.65,25.08 35.43,39C33.84,51.31 42.06,61.53 54.52,62.73C65.57,63.8 75.62,54.91 76.43,43.34C67.26,47.1 63.07,45.89 58,38.11Z" style="fill:rgb(66,96,128);fill-rule:nonzero;"/>
            </g>
        </g>
    </g>
</svg>
