<?xml version="1.0" encoding="UTF-8" standalone="no"?><!DOCTYPE svg PUBLIC "-//W3C//DTD SVG 1.1//EN" "http://www.w3.org/Graphics/SVG/1.1/DTD/svg11.dtd"><svg width="100%" height="100%" viewBox="0 0 128 128" version="1.1" xmlns="http://www.w3.org/2000/svg" xmlns:xlink="http://www.w3.org/1999/xlink" xml:space="preserve" style="fill-rule:evenodd;clip-rule:evenodd;stroke-linejoin:round;stroke-miterlimit:1.41421;"><rect id="sync.-icon" x="0" y="0" width="128" height="128" style="fill:none;"/><path d="M18.793,65.335c2.57,-4.285 5.107,-8.585 7.667,-12.883c1.355,-2.272 2.75,-4.53 4.09,-6.805c1.39,-2.34 0.36,-4.21 -2.33,-4.25c-1.03,-0.015 -2.06,-0.017 -3.092,-0.035c-1.428,-0.022 -1.465,-0.07 -0.853,-1.325c1.982,-4.055 4.556,-7.793 7.638,-11.092c3.455,-3.713 7.535,-6.6 11.897,-9.123c0.35,-0.157 0.705,-0.302 1.05,-0.47c16.773,-8.211 37.023,-4.927 50.342,8.163c6.198,6.062 10.328,13.3 12.263,21.77c0.462,2.017 1.06,2.75 2.637,2.802c2.7,0.11 5.408,0.163 8.11,0.125c0.016,0.001 0.032,0.001 0.048,0.001c1.31,0 2.388,-1.078 2.388,-2.388c0,-0.206 -0.027,-0.413 -0.081,-0.613c-0.532,-2.37 -1.032,-4.75 -1.712,-7.082c-1.718,-5.812 -4.424,-11.284 -8,-16.178c-7.265,-10.052 -16.765,-17.082 -28.55,-21c-2.724,-0.871 -5.507,-1.547 -8.328,-2.022c-3.25,-0.59 -6.527,-0.678 -9.787,-0.878c-3.647,-0.225 -7.282,0.293 -10.867,1c-6.6,1.33 -12.843,3.613 -18.573,7.198c-3.4,1.8 -6.4,4.167 -9.197,6.75c-7.02,6.5 -12.193,14.25 -15.295,23.335c-0.223,0.65 -0.568,0.842 -1.218,0.817c-1.372,-0.052 -2.75,-0.047 -4.122,-0.042c-2.578,0 -3.615,1.797 -2.343,4.065c3.755,6.717 7.518,13.417 11.29,20.103c1.385,2.444 3.478,2.472 4.928,0.057Z" style="fill:url(#_Linear1);fill-rule:nonzero;"/><path d="M125.302,85.02c-1.457,-2.573 -2.97,-5.115 -4.415,-7.692c-2.365,-4.223 -4.66,-8.488 -7.06,-12.691c-1.012,-1.774 -3.25,-1.789 -4.317,-0.027c-4.138,6.868 -8.241,13.758 -12.308,20.67c-1.04,1.765 0.038,3.642 2.093,3.793c0.897,0.064 1.802,0.027 2.705,0.034c1.565,0.013 1.562,0 0.805,1.368c-3.06,5.478 -7.21,10 -12.128,13.847c-2.855,1.886 -5.73,3.731 -8.892,5.088c-8.763,3.763 -17.8,4.75 -27.12,2.655c-4.07,-0.915 -8,-2.232 -11.692,-4.25c-11.342,-6.144 -19.442,-16.955 -22.153,-29.565c-0.365,-1.64 -1.14,-2.373 -2.71,-2.418c-2.617,-0.075 -5.25,-0.107 -7.857,-0.079c-1.67,0.017 -2.735,1.407 -2.44,3.057c4.544,26.191 26.866,45.876 53.42,47.11c8.081,0.444 16.165,-0.863 23.694,-3.833c5.25,-2.064 10.178,-4.734 14.54,-8.367c4.655,-3.455 8.435,-7.75 11.773,-12.44c2.4,-3.399 4.378,-7.077 5.892,-10.953c0.308,-0.775 0.685,-1.047 1.5,-0.999c1.37,0.069 2.75,0.04 4.12,0.049c2.98,0.013 4.025,-1.75 2.55,-4.357Z" style="fill:url(#_Linear2);fill-rule:nonzero;"/><defs><linearGradient id="_Linear1" x1="0" y1="0" x2="1" y2="0" gradientUnits="userSpaceOnUse" gradientTransform="matrix(7.62266e-15,124.487,-124.487,7.62266e-15,61.3375,1.75)"><stop offset="0" style="stop-color:#728dae;stop-opacity:1"/><stop offset="1" style="stop-color:#426080;stop-opacity:1"/></linearGradient><linearGradient id="_Linear2" x1="0" y1="0" x2="1" y2="0" gradientUnits="userSpaceOnUse" gradientTransform="matrix(7.62266e-15,124.487,-124.487,7.62266e-15,66.8675,1.75)"><stop offset="0" style="stop-color:#728dae;stop-opacity:1"/><stop offset="1" style="stop-color:#426080;stop-opacity:1"/></linearGradient></defs></svg>