<?xml version="1.0" encoding="UTF-8" standalone="no"?><!DOCTYPE svg PUBLIC "-//W3C//DTD SVG 1.1//EN" "http://www.w3.org/Graphics/SVG/1.1/DTD/svg11.dtd"><svg width="100%" height="100%" viewBox="0 0 128 128" version="1.1" xmlns="http://www.w3.org/2000/svg" xmlns:xlink="http://www.w3.org/1999/xlink" xml:space="preserve" style="fill-rule:evenodd;clip-rule:evenodd;stroke-linejoin:round;stroke-miterlimit:1.41421;"><rect id="sync.-disable" x="0" y="0" width="128" height="128" style="fill:none;"/><ellipse cx="64" cy="74.968" rx="27.007" ry="25.763" style="fill:#7f7f7f;fill-opacity:0.4;"/><path d="M124.772,74.96c-0.917,-2.536 -2.36,-4.849 -4.235,-6.787c-2.317,-2.46 -4.93,-4.386 -8.217,-5.308c-0.133,-0.25 -0.328,-0.5 -0.21,-0.805c1.227,-3.345 0.625,-6.785 0.337,-10.155c-0.322,-3.78 -1.807,-7.268 -3.625,-10.598c-5.865,-10.75 -19.25,-17.265 -31.38,-15.165c-10.805,1.87 -18.632,7.765 -23.39,17.663c-0.435,0.907 -0.692,1.045 -1.54,0.4c-5.122,-3.898 -10.877,-5.098 -17.135,-3.678c-8.012,1.82 -14.147,8.525 -15.485,16.62c-0.25,1.568 0.028,3.135 -0.302,4.675c-10.27,1.318 -19.638,11.068 -17.2,23.803c2.17,11.34 11.917,16.645 20.295,16.628c27.54,-0.055 55.081,-0.062 82.622,-0.02c1.037,0 2.072,-0.071 3.098,-0.213c11.97,-1.645 20.977,-14.02 16.367,-27.06Zm-48.062,14.54c-0.69,2.47 -1.38,4.94 -2.095,7.403c-0.415,1.43 -1.123,1.665 -2.04,0.57c-0.83,-0.988 -1.555,-1.023 -2.75,-0.595c-2.306,0.832 -4.739,1.258 -7.191,1.258c-9.001,0 -17.063,-5.74 -20.009,-14.246c-2.225,-6.41 -1.363,-12.525 2.075,-18.313c0.837,-1.412 1.452,-1.467 2.587,-0.332c1.965,1.965 1.965,1.965 0.698,4.5c-4.723,9.415 0.687,20.91 10.965,23.25c1.134,0.275 2.301,0.39 3.467,0.34c1.399,0.042 2.798,-0.103 4.158,-0.432c0.647,-0.16 0.875,-0.25 0.35,-0.915c-1,-1.25 -0.79,-1.815 0.73,-2.205c2.485,-0.635 4.971,-1.265 7.457,-1.888c1.563,-0.395 2.028,0.063 1.598,1.605Zm6.065,-3c-0.45,0.643 -1,0.66 -1.58,0.13c-0.06,-0.057 -0.115,-0.117 -0.178,-0.175c-2.295,-2.137 -2.297,-2.14 -0.72,-5.575c1.683,-3.66 1.895,-7.38 0.675,-11.25c-1.085,-3.433 -2.962,-6.235 -5.92,-8.298c-3.665,-3.215 -11.312,-4.25 -15.515,-2.082c0.373,0.777 1.33,1.167 1.438,2.112c-0.25,0.628 -0.818,0.783 -1.37,0.923c-2.435,0.62 -4.87,1.235 -7.315,1.81c-0.565,0.132 -1.265,0.61 -1.725,0.022c-0.46,-0.587 -0.31,-1.317 0,-1.982c0.702,-2.358 1.397,-4.718 2.112,-7.073c0.42,-1.387 1.12,-1.6 2.073,-0.5c0.722,0.825 1.322,0.768 2.282,0.41c7.905,-2.942 15.238,-1.947 21.933,3.313c1.915,1.5 3.302,3.435 4.722,5.357c1.638,3.053 2.75,6.268 2.895,9.751c0.24,4.671 -1.101,9.291 -3.807,13.107l0,0Z" style="fill:#868686;fill-rule:nonzero;"/></svg>