<?xml version="1.0" encoding="UTF-8" standalone="no"?><!DOCTYPE svg PUBLIC "-//W3C//DTD SVG 1.1//EN" "http://www.w3.org/Graphics/SVG/1.1/DTD/svg11.dtd"><svg width="100%" height="100%" viewBox="0 0 128 128" version="1.1" xmlns="http://www.w3.org/2000/svg" xmlns:xlink="http://www.w3.org/1999/xlink" xml:space="preserve" style="fill-rule:evenodd;clip-rule:evenodd;stroke-linejoin:round;stroke-miterlimit:1.41421;"><rect id="tab_close_button" x="0" y="0" width="128" height="128" style="fill:none;"/><path d="M99.733,31.491c1.184,1.187 1.793,2.592 1.759,4.212c0.011,1.604 -0.579,2.999 -1.757,4.175l-24.131,24.133l24.121,24.128c1.178,1.172 1.76,2.564 1.775,4.176c-0.009,1.623 -0.58,3.023 -1.764,4.207l-3.215,3.215c-1.186,1.188 -2.607,1.754 -4.234,1.754c-1.632,-0.038 -3.024,-0.607 -4.148,-1.759l-24.131,-24.118l-24.12,24.116c-1.172,1.18 -2.581,1.781 -4.175,1.768c-1.629,0.046 -3.034,-0.573 -4.217,-1.758l-3.215,-3.215c-1.181,-1.187 -1.765,-2.598 -1.738,-4.21c0.026,-1.653 0.601,-3.028 1.746,-4.176l24.123,-24.126l-24.138,-24.135c-1.172,-1.177 -1.758,-2.576 -1.773,-4.178c0.012,-1.635 0.602,-3.022 1.785,-4.209l3.211,-3.219c1.187,-1.176 2.569,-1.762 4.205,-1.773c1.602,0.011 3,0.597 4.18,1.773l24.128,24.132l24.129,-24.132c1.172,-1.176 2.568,-1.762 4.164,-1.75c1.628,-0.03 3.028,0.574 4.215,1.757l3.215,3.212Z" style="fill:#426180;fill-rule:nonzero;"/></svg>