<?xml version="1.0" encoding="UTF-8" standalone="no"?><!DOCTYPE svg PUBLIC "-//W3C//DTD SVG 1.1//EN" "http://www.w3.org/Graphics/SVG/1.1/DTD/svg11.dtd"><svg width="100%" height="100%" viewBox="0 0 128 128" version="1.1" xmlns="http://www.w3.org/2000/svg" xmlns:xlink="http://www.w3.org/1999/xlink" xml:space="preserve" style="fill-rule:evenodd;clip-rule:evenodd;stroke-linejoin:round;stroke-miterlimit:1.41421;"><rect id="talk_power_grant_next" x="0" y="0" width="128" height="128" style="fill:none;"/><path d="M72.775,64.721c14.71,-2.66 27.81,-4.91 40.87,-7.36c2.65,-0.5 3.15,0.1 2.67,2.69c-2.44,13.07 -4.74,26.16 -7.15,39.62c-3.66,-1.69 -5.81,-4.89 -8.38,-7.49c-2.11,-2.13 -3.38,-2.8 -5.87,-0.21c-7.85,8.16 -16,16 -24.07,24c-4.31,4.26 -7.26,4.35 -11.44,0.22c-5.8,-5.77 -11.5,-11.61 -17.3,-17.31c-3.16,-3.09 -3,-5.83 0,-9c8.63,-9.14 8.9,-9.2 17.8,-0.29c0.859,0.764 1.661,1.59 2.4,2.47c1.86,2.53 3.35,2.28 5.45,0c4.53,-4.87 9.28,-9.56 14.12,-14.13c1.94,-1.83 1.88,-3 -0.07,-4.7c-2.85,-2.44 -5.49,-5.17 -9.03,-8.51Z" style="fill:#1ca037;fill-rule:nonzero;"/><path d="M71.445,32.941c-16.65,0.17 -33.3,0.07 -50,0.08c-6.88,0 -9.75,2.75 -9.83,9.57c-0.11,9.66 -0.09,19.32 -0.09,29c0,6.82 2.81,10 9.62,9.55c5.59,-0.34 9.79,0.31 10.31,7c0,0.14 0.46,0.25 0.76,0.4c2.75,-4 6.3,-7.32 9.85,-10.55c3.55,-3.23 7.43,-4.47 12.38,-3.1c3.176,0.977 5.992,2.874 8.09,5.45c3.57,3.93 4.6,-0.59 6.48,-1.89c2.09,-1.45 3.22,-2.94 0.5,-5.36c-4.7,-4.19 -9,-8.83 -14.2,-14c6.38,-1.14 11.74,-2.31 17.17,-3c3,-0.39 3.91,-1.69 3.8,-4.55c-0.266,-4.663 -0.266,-9.337 0,-14c0.34,-4.01 -1.31,-4.64 -4.84,-4.6Z" style="fill:#404547;fill-rule:nonzero;"/><path d="M111.605,8.771c-8.8,6.84 -16.75,13 -24.72,19.18c-1.1,0.85 -1,2 -1,3.15c0,6.32 0,12.64 -0.09,19c0,2.41 0.78,3.38 3.21,2.94c6.666,-1.226 13.36,-2.43 20.08,-3.61c1.63,-0.29 2.62,-0.85 2.61,-2.84c-0.13,-12.28 -0.09,-24.53 -0.09,-37.82Z" style="fill:#404547;fill-rule:nonzero;"/><path d="M48.355,118.671l-11.47,-12.3c0.06,9.55 3.6,13.31 11.47,12.3Z" style="fill:url(#_Linear1);fill-rule:nonzero;"/><defs><linearGradient id="_Linear1" x1="0" y1="0" x2="1" y2="0" gradientUnits="userSpaceOnUse" gradientTransform="matrix(7.12438e-15,116.35,-116.35,7.12438e-15,42.6147,5.82134)"><stop offset="0" style="stop-color:#8099ba;stop-opacity:1"/><stop offset="1" style="stop-color:#425e7f;stop-opacity:1"/></linearGradient></defs></svg>