<?xml version="1.0" encoding="UTF-8" standalone="no"?><!DOCTYPE svg PUBLIC "-//W3C//DTD SVG 1.1//EN" "http://www.w3.org/Graphics/SVG/1.1/DTD/svg11.dtd"><svg width="100%" height="100%" viewBox="0 0 128 128" version="1.1" xmlns="http://www.w3.org/2000/svg" xmlns:xlink="http://www.w3.org/1999/xlink" xml:space="preserve" style="fill-rule:evenodd;clip-rule:evenodd;stroke-linejoin:round;stroke-miterlimit:1.41421;"><rect id="talk_power_request_cancel" x="0" y="0" width="128" height="128" style="fill:none;"/><path d="M49.314,99.189l-4.775,-17.959l10.97,0l-6.653,-6.745c-2.668,-2.687 -4.137,-6.234 -4.137,-9.993c0,-3.769 1.478,-7.326 4.17,-10.025l5.857,-5.856c2.651,-2.643 6.196,-4.099 9.982,-4.099c3.104,0 6.035,0.992 8.455,2.799l0,-14.303l-56.127,0c-2.26,0 -4.178,0.795 -5.729,2.391c-1.549,1.596 -2.327,3.487 -2.327,5.665l0,32.108c0,2.192 0.778,4.07 2.327,5.677c1.552,1.584 3.47,2.382 5.729,2.382l9.812,0l8.448,31.771c0.581,2.184 1.84,3.828 3.781,4.915c1.939,1.091 3.967,1.358 6.071,0.799l0.936,-0.251c0.783,-0.209 1.498,-0.51 2.146,-0.902c-1.892,-2.434 -2.929,-5.395 -2.929,-8.544c0,-3.699 1.428,-7.181 3.993,-9.83Z" style="fill:#404547;fill-rule:nonzero;"/><path d="M98.998,49.483c2.543,-2.535 5.912,-3.963 9.523,-4.077l0,-36.406l-25.261,19.621l0,28.656l3.947,4.003l11.791,-11.797Z" style="fill:#404547;fill-rule:nonzero;"/><path d="M98.908,87.164l18.844,18.904c0.832,0.826 1.248,1.811 1.248,2.95c0,1.139 -0.416,2.104 -1.248,2.891l-5.844,5.848c-0.785,0.829 -1.764,1.243 -2.926,1.243c-1.156,0 -2.134,-0.414 -2.923,-1.243l-18.9,-18.837l-18.905,18.837c-0.789,0.829 -1.764,1.243 -2.924,1.243c-1.159,0 -2.132,-0.414 -2.922,-1.243l-5.847,-5.848c-0.828,-0.787 -1.241,-1.751 -1.241,-2.891c0,-1.14 0.413,-2.124 1.241,-2.95l18.846,-18.904l-19.446,-19.717c-0.829,-0.83 -1.241,-1.814 -1.241,-2.955c0,-1.137 0.412,-2.123 1.241,-2.953l5.847,-5.846c0.789,-0.787 1.763,-1.181 2.922,-1.181c1.16,0 2.135,0.394 2.924,1.181l19.506,19.781l18.899,-18.908c0.789,-0.787 1.767,-1.181 2.923,-1.181c1.162,0 2.141,0.395 2.926,1.181l5.844,5.846c0.832,0.831 1.248,1.816 1.248,2.953c0,1.141 -0.416,2.124 -1.248,2.955l-18.844,18.844Z" style="fill:#c90709;fill-rule:nonzero;"/></svg>