<?xml version="1.0" encoding="UTF-8" standalone="no"?><!DOCTYPE svg PUBLIC "-//W3C//DTD SVG 1.1//EN" "http://www.w3.org/Graphics/SVG/1.1/DTD/svg11.dtd"><svg width="100%" height="100%" viewBox="0 0 128 128" version="1.1" xmlns="http://www.w3.org/2000/svg" xmlns:xlink="http://www.w3.org/1999/xlink" xml:space="preserve" style="fill-rule:evenodd;clip-rule:evenodd;stroke-linejoin:round;stroke-miterlimit:1.41421;"><rect id="talk_power_grant" x="0" y="0" width="128" height="128" style="fill:none;"/><path d="M64.81,82.286l1.057,-1.056l-2.113,0l1.056,1.056Z" style="fill:none;"/><path d="M41.277,78.067c2.57,-2.566 6,-3.979 9.657,-3.979c3.654,0 7.083,1.412 9.663,3.985l3.157,3.157l2.113,0l9.94,-9.92l0,-38.302l-56.128,0c-2.26,0 -4.178,0.795 -5.729,2.391c-1.549,1.596 -2.327,3.487 -2.327,5.665l0,32.108c0,2.192 0.778,4.07 2.327,5.677c1.552,1.584 3.47,2.382 5.729,2.382l9.812,0l2.129,8.006c0.675,-1.662 1.677,-3.188 2.98,-4.492l6.677,-6.678Z" style="fill:#404547;fill-rule:nonzero;"/><path d="M37.939,113.002c0.581,2.184 1.84,3.828 3.781,4.915c1.939,1.091 3.967,1.358 6.071,0.799l0.936,-0.251c0.07,-0.019 0.135,-0.044 0.204,-0.064l-13.019,-13.02l2.027,7.621Z" style="fill:#404547;fill-rule:nonzero;"/><path d="M111.148,105.26l-0.001,-17.275l-9.728,9.712l9.729,7.563Z" style="fill:#404547;fill-rule:nonzero;"/><path d="M105.057,47.776c2.156,0 4.228,0.503 6.089,1.424l-0.002,-40.2l-25.261,19.621l0,32.634l9.512,-9.493c2.569,-2.57 6.001,-3.986 9.662,-3.986Z" style="fill:#404547;fill-rule:nonzero;"/><path d="M115.028,71.393l-46.401,46.328c-0.899,0.899 -2.226,1.323 -3.974,1.274c-1.599,-0.047 -2.823,-0.476 -3.673,-1.274l-20.017,-20.017c-0.899,-0.898 -1.348,-1.997 -1.348,-3.297c0,-1.299 0.449,-2.398 1.348,-3.299l6.673,-6.672c0.899,-0.897 1.998,-1.349 3.298,-1.349c1.299,0 2.398,0.451 3.298,1.349l10.57,10.571l36.957,-36.883c0.899,-0.9 1.998,-1.349 3.297,-1.349c1.299,0 2.399,0.449 3.3,1.349l6.671,6.596c0.898,0.951 1.35,2.063 1.35,3.336c0,1.277 -0.451,2.387 -1.349,3.337Z" style="fill:#1ca037;fill-rule:nonzero;"/></svg>