<?xml version="1.0" encoding="UTF-8" standalone="no"?><!DOCTYPE svg PUBLIC "-//W3C//DTD SVG 1.1//EN" "http://www.w3.org/Graphics/SVG/1.1/DTD/svg11.dtd"><svg width="100%" height="100%" viewBox="0 0 128 128" version="1.1" xmlns="http://www.w3.org/2000/svg" xmlns:xlink="http://www.w3.org/1999/xlink" xml:space="preserve" style="fill-rule:evenodd;clip-rule:evenodd;stroke-linejoin:round;stroke-miterlimit:1.41421;"><rect id="talk_power_request" x="0" y="0" width="128" height="128" style="fill:none;"/><path d="M50.074,81.658c2.29,8.73 4.73,17.51 6.86,26.37c1.6,6.65 -2.87,11.53 -9.66,10.9c-4.28,-0.4 -6.38,-3.1 -7.4,-7c-2.36,-9 -4.84,-18 -7.06,-27c-0.74,-2.9 -1.94,-4.3 -5.07,-3.85c-1.827,0.15 -3.663,0.15 -5.49,0c-5.12,-0.16 -8.24,-2.85 -8.33,-7.94c-0.18,-10.667 -0.153,-21.334 0.08,-32c0.11,-5.34 3.27,-8.15 8.66,-8.16c17.334,-0.054 34.667,-0.054 52,0c1.48,0 3.54,-0.77 3.7,2c0.13,2.23 -0.24,3.59 -2.94,4.17c-5,1.07 -11.48,1.37 -14.21,5.12c-2.73,3.75 0.51,9.81 0.86,14.91c0.26,4.3 1.33,8.56 1.63,12.86c0.23,3.31 1.51,3.06 3.65,1.72c0.938,-0.682 1.955,-1.247 3.03,-1.68c2.6,-0.82 5.41,-4.52 7.35,-2.64c2.17,2.11 0.68,6.31 0.69,9.6c0,2.6 -2.19,2 -3.72,2c-8,0.1 -16,0.13 -24,0.2c-0.1,0.04 -0.23,0.18 -0.63,0.42Z" style="fill:#404547;fill-rule:nonzero;"/><path d="M71.204,61.588c-0.14,-0.84 -0.27,-1.48 -0.34,-2.14c-1.13,-10.77 -1.14,-10.84 9.64,-12.37c6.94,-1 13.9,-1.3 20.73,0.84c12.06,3.77 16.43,15.27 10,26.21c-2.39,4 -5.79,7.26 -8.86,10.74c-2.93,3.21 -5.69,6.58 -5.81,11.21c-0.06,2.19 -1.27,2.85 -3.26,2.62c-0.499,-0.031 -1,-0.031 -1.5,0c-8.76,0.07 -10.1,-1.93 -6.89,-10.39c1.32,-3.48 3.72,-6.24 6.06,-9.06c2.228,-2.46 4.236,-5.11 6,-7.92c3.71,-6.54 1.09,-11.92 -6.29,-13.22c-5,-0.88 -9.92,0 -14.69,1.7c-1.58,0.59 -3.12,1.17 -4.79,1.78Z" style="fill:#1ca037;fill-rule:nonzero;"/><path d="M113.534,9.018l0,35.06c-7.3,-4.39 -14.92,-6.77 -23.21,-6.48c-1.07,0 -2.21,-0.27 -2.1,-1.52c0.25,-2.84 -1.48,-6.19 1.32,-8.42c7.72,-6.16 15.6,-12.15 23.99,-18.64Z" style="fill:#404547;fill-rule:nonzero;"/><path d="M90.294,118.898c-7.62,0 -7.62,0 -7.62,-7.47c0,-6.4 0,-6.45 8.8,-6.38c6.88,0.05 5.85,-1.11 5.92,7.79c0.05,6.06 0.01,6.06 -7.1,6.06Z" style="fill:#1ca037;fill-rule:nonzero;"/></svg>