<?xml version="1.0" encoding="UTF-8" standalone="no"?>
<!DOCTYPE svg PUBLIC "-//W3C//DTD SVG 1.1//EN" "http://www.w3.org/Graphics/SVG/1.1/DTD/svg11.dtd">
<svg width="100%" height="100%" viewBox="0 0 128 128" version="1.1" xmlns="http://www.w3.org/2000/svg" xmlns:xlink="http://www.w3.org/1999/xlink" xml:space="preserve" style="fill-rule:evenodd;clip-rule:evenodd;stroke-linejoin:round;stroke-miterlimit:1.41421;">
    <g transform="matrix(1,0,0,1,-4608,-320)">
        <g id="temp_server_password_add" transform="matrix(1,0,0,1,4608,320)">
            <rect x="0" y="0" width="128" height="128" style="fill:none;"/>
            <path d="M63.989,123L63.987,122.998L63.984,123L63.989,123Z" style="fill:url(#_Linear1);fill-rule:nonzero;"/>
            <path d="M64.708,102.427L52.564,102.427C48.635,102.427 44.97,100.883 42.256,98.091C39.598,95.366 38.134,91.782 38.134,87.998L38.134,79.141C38.134,79.106 38.139,79.072 38.139,79.037C33.07,73.097 30,65.402 30,57C30,38.252 45.252,23 64,23C76.122,23 86.776,29.382 92.797,38.957C94.814,39.661 96.666,40.796 98.221,42.347C100.933,45.062 102.427,48.691 102.427,52.564L102.427,64.707L110.761,64.707C115.718,51.537 119,35.937 119,17.695C102.512,17.695 63.997,5 63.997,5C63.997,5 25.486,17.695 9,17.695C9,91.672 62.895,122.294 63.987,122.998C64.117,122.914 65.004,122.4 66.457,121.442C65.319,119.35 64.708,117.004 64.708,114.57L64.708,102.427L64.708,102.427Z" style="fill:rgb(64,69,71);fill-rule:nonzero;"/>
            <path d="M52.564,64.707L60.439,64.707L48.716,56.386C46.464,54.788 45.934,51.667 47.533,49.415C49.131,47.163 52.252,46.633 54.504,48.232L64.708,55.467L64.708,52.609L64.708,52.564C64.708,48.689 66.203,45.059 68.928,42.335C71.643,39.626 75.27,38.134 79.141,38.134L81.863,38.134C77.2,33.717 70.914,31 64,31C49.664,31 38,42.664 38,57C38,61.697 39.258,66.103 41.446,69.91C41.731,69.567 42.029,69.234 42.347,68.915C45.064,66.201 48.692,64.707 52.564,64.707Z" style="fill:rgb(64,69,71);fill-rule:nonzero;"/>
            <path d="M64,23C45.252,23 30,38.252 30,57C30,65.402 33.07,73.096 38.139,79.036C38.163,75.655 39.324,72.467 41.446,69.91C39.258,66.104 38,61.697 38,57C38,42.663 49.664,31 64,31C70.914,31 77.2,33.717 81.862,38.134L87.998,38.134C89.662,38.134 91.275,38.426 92.797,38.957C86.776,29.382 76.122,23 64,23Z" style="fill:white;fill-rule:nonzero;"/>
            <path d="M54.504,48.232C52.252,46.633 49.13,47.163 47.533,49.415C45.934,51.667 46.464,54.788 48.716,56.386L60.439,64.707L64.708,64.707L64.708,52.609L64.708,55.467L54.504,48.232Z" style="fill:white;fill-rule:nonzero;"/>
            <path d="M114.57,92.427L92.427,92.427L92.427,114.571C92.427,115.813 91.999,116.866 91.146,117.717C90.29,118.574 89.243,119 87.998,119L79.141,119C77.896,119 76.846,118.562 75.991,117.687C75.137,116.813 74.709,115.769 74.709,114.571L74.709,92.427L52.564,92.427C51.318,92.427 50.269,91.988 49.414,91.109C48.56,90.233 48.134,89.201 48.134,87.999L48.134,79.142C48.134,77.896 48.56,76.847 49.414,75.992C50.268,75.138 51.318,74.709 52.564,74.709L74.708,74.709L74.708,52.564C74.708,51.318 75.136,50.269 75.99,49.414C76.845,48.56 77.895,48.134 79.14,48.134L87.997,48.134C89.242,48.134 90.289,48.561 91.144,49.414C91.998,50.268 92.425,51.318 92.425,52.564L92.425,74.707L114.569,74.707C115.811,74.707 116.864,75.137 117.715,75.99C118.572,76.845 118.998,77.894 118.998,79.14L118.998,87.997C118.998,89.199 118.572,90.231 117.715,91.107C116.865,91.987 115.813,92.427 114.57,92.427Z" style="fill:rgb(28,160,55);fill-rule:nonzero;"/>
        </g>
    </g>
    <defs>
        <linearGradient id="_Linear1" x1="0" y1="0" x2="1" y2="0" gradientUnits="userSpaceOnUse" gradientTransform="matrix(1.22465e-19,-0.002,0.002,1.22465e-19,63.9868,123)"><stop offset="0" style="stop-color:rgb(66,96,128);stop-opacity:1"/><stop offset="0.3" style="stop-color:rgb(66,96,128);stop-opacity:1"/><stop offset="1" style="stop-color:rgb(129,156,189);stop-opacity:1"/></linearGradient>
    </defs>
</svg>
