<?xml version="1.0" encoding="UTF-8" standalone="no"?>
<!DOCTYPE svg PUBLIC "-//W3C//DTD SVG 1.1//EN" "http://www.w3.org/Graphics/SVG/1.1/DTD/svg11.dtd">
<svg width="100%" height="100%" viewBox="0 0 128 128" version="1.1" xmlns="http://www.w3.org/2000/svg" xmlns:xlink="http://www.w3.org/1999/xlink" xml:space="preserve" style="fill-rule:evenodd;clip-rule:evenodd;stroke-linejoin:round;stroke-miterlimit:1.41421;">
    <g transform="matrix(1,0,0,1,-4608,-480)">
        <g id="temp_server_password" transform="matrix(1,0,0,1.37634,4608,294.194)">
            <rect x="0" y="135" width="128" height="93" style="fill:none;"/>
            <g transform="matrix(1,0,0,0.726562,0,135)">
                <path d="M63.997,5C63.997,5 25.486,17.695 9,17.695C9,91.704 62.943,122.321 63.989,123L63.984,123C65.03,122.321 119,91.704 119,17.695C102.512,17.695 63.997,5 63.997,5Z" style="fill:rgb(64,69,71);fill-rule:nonzero;"/>
            </g>
            <g transform="matrix(1,0,0,0.726562,0,135)">
                <path d="M64.219,23.001L64.439,23.003L64.658,23.006L64.876,23.011L65.094,23.017L65.312,23.025L65.529,23.034L65.747,23.044L65.963,23.056L66.18,23.069L66.396,23.083L66.612,23.099L66.827,23.116L67.042,23.135L67.257,23.154L67.471,23.175L67.685,23.198L67.899,23.222L68.113,23.247L68.326,23.273L68.538,23.301L68.75,23.33L68.962,23.36L69.173,23.392L69.384,23.425L69.595,23.459L69.805,23.494L70.014,23.531L70.223,23.569L70.432,23.608L70.64,23.649L70.848,23.691L71.056,23.734L71.262,23.778L71.469,23.824L71.676,23.871L71.881,23.919L72.085,23.968L72.291,24.019L72.494,24.071L72.697,24.124L72.901,24.178L73.104,24.234L73.306,24.291L73.508,24.348L73.709,24.408L73.909,24.468L74.109,24.529L74.309,24.592L74.508,24.656L74.708,24.722L74.905,24.788L75.102,24.855L75.297,24.923L75.495,24.994L75.691,25.065L75.886,25.137L76.081,25.21L76.275,25.285L76.467,25.36L76.661,25.437L76.854,25.515L77.045,25.594L77.235,25.674L77.427,25.756L77.617,25.838L77.805,25.921L77.994,26.006L78.183,26.092L78.369,26.178L78.556,26.266L78.744,26.356L78.929,26.446L79.114,26.537L79.299,26.63L79.48,26.722L79.664,26.817L79.847,26.913L80.029,27.009L80.21,27.107L80.39,27.206L80.57,27.305L80.748,27.406L80.927,27.508L81.106,27.611L81.282,27.715L81.458,27.82L81.633,27.926L81.808,28.032L81.983,28.141L82.158,28.251L82.33,28.361L82.499,28.47L82.672,28.583L82.844,28.697L83.013,28.81L83.181,28.925L83.351,29.041L83.519,29.159L83.686,29.276L83.85,29.395L84.015,29.514L84.183,29.637L84.345,29.758L84.508,29.88L84.673,30.006L84.833,30.129L84.993,30.254L85.154,30.381L85.313,30.509L85.47,30.636L85.629,30.767L85.786,30.897L85.943,31.029L86.098,31.161L86.252,31.293L86.406,31.427L86.559,31.562L86.711,31.699L86.86,31.833L87.011,31.971L87.163,32.112L87.312,32.251L87.458,32.39L87.605,32.531L87.753,32.675L87.897,32.815L88.041,32.959L88.187,33.106L88.329,33.251L88.469,33.394L88.61,33.541L88.752,33.691L88.891,33.84L89.029,33.989L89.168,34.141L89.304,34.292L89.44,34.444L89.574,34.596L89.707,34.749L89.842,34.905L89.973,35.06L90.104,35.215L90.234,35.371L90.364,35.531L90.494,35.691L90.62,35.849L90.746,36.008L90.873,36.17L90.997,36.331L91.12,36.492L91.243,36.656L91.366,36.821L91.488,36.987L91.607,37.151L91.724,37.316L91.843,37.484L91.959,37.65L92.076,37.819L92.191,37.989L92.304,38.157L92.42,38.332L92.53,38.501L92.64,38.671L92.752,38.847L92.862,39.021L92.968,39.193L93.076,39.369L93.182,39.545L93.285,39.718L93.389,39.896L93.494,40.077L93.594,40.252L93.695,40.432L93.797,40.615L93.894,40.792L93.991,40.973L94.088,41.155L94.184,41.337L94.278,41.52L94.371,41.703L94.465,41.89L94.556,42.075L94.646,42.26L94.734,42.446L94.822,42.632L94.909,42.819L94.994,43.006L95.08,43.197L95.163,43.386L95.245,43.575L95.327,43.768L95.407,43.958L95.485,44.148L95.563,44.339L95.641,44.534L95.715,44.727L95.79,44.919L95.865,45.119L95.936,45.313L96.007,45.507L96.076,45.701L96.145,45.9L96.213,46.099L96.279,46.295L96.343,46.491L96.408,46.692L96.471,46.893L96.532,47.091L96.593,47.292L96.652,47.495L96.71,47.698L96.766,47.897L96.822,48.101L96.877,48.305L96.929,48.506L96.981,48.71L97.032,48.916L97.081,49.122L97.13,49.328L97.176,49.53L97.222,49.737L97.267,49.948L97.309,50.152L97.351,50.36L97.392,50.569L97.431,50.778L97.469,50.987L97.506,51.196L97.541,51.406L97.576,51.616L97.609,51.831L97.64,52.038L97.67,52.249L97.7,52.464L97.727,52.676L97.753,52.888L97.778,53.101L97.802,53.314L97.825,53.531L97.846,53.744L97.866,53.958L97.884,54.176L97.901,54.39L97.917,54.604L97.931,54.819L97.944,55.034L97.956,55.253L97.966,55.473L97.975,55.689L97.983,55.905L97.989,56.125L97.994,56.345L97.997,56.562L97.999,56.779L98,57L97.999,57.221L97.997,57.438L97.994,57.655L97.989,57.875L97.983,58.096L97.975,58.312L97.966,58.528L97.956,58.747L97.944,58.966L97.931,59.181L97.917,59.396L97.901,59.611L97.884,59.825L97.866,60.043L97.846,60.257L97.825,60.47L97.802,60.687L97.778,60.9L97.753,61.112L97.727,61.325L97.7,61.537L97.67,61.752L97.64,61.963L97.609,62.17L97.576,62.385L97.541,62.595L97.506,62.805L97.469,63.014L97.431,63.224L97.392,63.433L97.351,63.641L97.309,63.849L97.267,64.053L97.222,64.264L97.176,64.471L97.13,64.674L97.081,64.88L97.032,65.086L96.981,65.291L96.929,65.496L96.877,65.697L96.822,65.901L96.766,66.104L96.71,66.304L96.652,66.507L96.593,66.709L96.532,66.911L96.471,67.109L96.408,67.31L96.343,67.511L96.279,67.707L96.213,67.903L96.145,68.102L96.076,68.301L96.007,68.495L95.936,68.689L95.865,68.883L95.79,69.083L95.715,69.276L95.641,69.468L95.563,69.663L95.485,69.854L95.407,70.044L95.327,70.234L95.245,70.427L95.163,70.616L95.08,70.805L94.994,70.996L94.909,71.183L94.822,71.37L94.734,71.557L94.646,71.742L94.556,71.927L94.465,72.112L94.371,72.299L94.278,72.483L94.184,72.665L94.088,72.848L93.991,73.029L93.894,73.21L93.797,73.388L93.696,73.57L93.594,73.75L93.494,73.925L93.389,74.106L93.285,74.284L93.182,74.457L93.075,74.634L92.968,74.809L92.862,74.981L92.752,75.155L92.64,75.331L92.53,75.501L92.42,75.671L92.304,75.845L92.191,76.013L92.076,76.183L91.959,76.352L91.843,76.518L91.724,76.686L91.606,76.851L91.488,77.015L91.366,77.181L91.243,77.346L91.119,77.511L90.996,77.672L90.873,77.832L90.746,77.994L90.62,78.153L90.494,78.312L90.364,78.472L90.233,78.631L90.104,78.787L89.973,78.942L89.842,79.097L89.707,79.253L89.574,79.406L89.44,79.558L89.304,79.71L89.168,79.861L89.029,80.013L88.891,80.162L88.752,80.311L88.61,80.461L88.469,80.607L88.329,80.751L88.187,80.897L88.041,81.043L87.896,81.187L87.753,81.327L87.605,81.471L87.458,81.612L87.312,81.751L87.163,81.89L87.011,82.031L86.86,82.169L86.711,82.303L86.559,82.439L86.405,82.575L86.251,82.709L86.098,82.84L85.943,82.973L85.786,83.105L85.629,83.235L85.47,83.365L85.313,83.492L85.153,83.621L84.992,83.748L84.833,83.872L84.672,83.996L84.508,84.122L84.345,84.244L84.182,84.365L84.015,84.488L83.85,84.607L83.685,84.725L83.519,84.843L83.351,84.96L83.181,85.077L83.012,85.192L82.843,85.305L82.672,85.419L82.499,85.532L82.33,85.641L82.158,85.751L81.983,85.861L81.807,85.969L81.633,86.076L81.458,86.182L81.282,86.286L81.105,86.39L80.926,86.494L80.748,86.596L80.569,86.696L80.39,86.796L80.209,86.894L80.028,86.992L79.847,87.088L79.663,87.185L79.48,87.279L79.298,87.372L79.114,87.464L78.929,87.555L78.743,87.645L78.556,87.735L78.368,87.823L78.182,87.909L77.994,87.995L77.805,88.08L77.617,88.163L77.427,88.245L77.235,88.327L77.044,88.407L76.854,88.485L76.66,88.564L76.467,88.641L76.274,88.716L76.081,88.79L75.886,88.864L75.69,88.936L75.494,89.007L75.297,89.077L75.101,89.145L74.905,89.213L74.707,89.279L74.508,89.344L74.309,89.408L74.108,89.471L73.909,89.533L73.709,89.593L73.507,89.652L73.306,89.71L73.104,89.766L72.901,89.822L72.697,89.877L72.494,89.93L72.29,89.981L72.085,90.032L71.88,90.081L71.676,90.129L71.469,90.176L71.262,90.222L71.056,90.266L70.847,90.31L70.64,90.351L70.432,90.392L70.223,90.431L70.014,90.469L69.804,90.506L69.594,90.541L69.384,90.576L69.173,90.609L68.962,90.64L68.75,90.67L68.538,90.699L68.325,90.727L68.112,90.753L67.899,90.779L67.685,90.802L67.471,90.825L67.257,90.846L67.042,90.866L66.827,90.884L66.612,90.901L66.396,90.917L66.18,90.931L65.963,90.944L65.747,90.956L65.529,90.966L65.312,90.975L65.094,90.983L64.876,90.989L64.658,90.994L64.439,90.997L64.219,90.999L64,91L63.781,90.999L63.562,90.997L63.343,90.994L63.125,90.989L62.906,90.983L62.689,90.975L62.471,90.966L62.254,90.956L62.038,90.944L61.821,90.931L61.604,90.917L61.389,90.901L61.173,90.884L60.958,90.866L60.743,90.846L60.529,90.825L60.315,90.802L60.101,90.779L59.888,90.753L59.675,90.727L59.463,90.699L59.251,90.67L59.039,90.64L58.828,90.609L58.617,90.576L58.407,90.541L58.197,90.506L57.987,90.469L57.778,90.431L57.569,90.392L57.36,90.351L57.153,90.309L56.946,90.266L56.739,90.222L56.532,90.176L56.327,90.129L56.121,90.081L55.916,90.032L55.71,89.981L55.507,89.929L55.304,89.877L55.1,89.822L54.897,89.766L54.696,89.71L54.495,89.652L54.293,89.593L54.092,89.532L53.892,89.471L53.693,89.408L53.494,89.344L53.296,89.279L53.097,89.213L52.9,89.145L52.703,89.077L52.506,89.007L52.312,88.936L52.116,88.864L51.922,88.791L51.727,88.716L51.534,88.64L51.342,88.564L51.149,88.486L50.957,88.407L50.766,88.327L50.575,88.245L50.386,88.163L50.196,88.08L50.006,87.994L49.82,87.909L49.633,87.823L49.446,87.735L49.258,87.645L49.073,87.555L48.888,87.464L48.704,87.372L48.522,87.279L48.339,87.185L48.155,87.088L47.973,86.992L47.792,86.894L47.612,86.796L47.432,86.696L47.254,86.596L47.076,86.494L46.896,86.39L46.72,86.286L46.544,86.182L46.369,86.076L46.193,85.968L46.019,85.861L45.846,85.752L45.672,85.641L45.503,85.532L45.33,85.419L45.158,85.305L44.989,85.192L44.821,85.077L44.651,84.96L44.483,84.843L44.317,84.725L44.151,84.607L43.987,84.488L43.821,84.366L43.656,84.244L43.492,84.12L43.331,83.998L43.168,83.872L43.007,83.746L42.849,83.621L42.688,83.492L42.532,83.365L42.373,83.235L42.216,83.105L42.061,82.975L41.905,82.842L41.748,82.707L41.596,82.575L41.445,82.441L41.29,82.303L41.139,82.167L40.988,82.029L40.841,81.892L40.692,81.753L40.542,81.61L40.397,81.471L40.25,81.329L40.103,81.185L39.961,81.043L39.817,80.899L39.672,80.751L39.531,80.605L39.392,80.461L39.251,80.313L39.111,80.162L38.97,80.011L38.834,79.861L38.699,79.712L38.564,79.561L38.427,79.406L38.292,79.251L38.16,79.097L38.028,78.942L37.898,78.787L37.768,78.631L37.637,78.472L37.508,78.312L37.383,78.156L37.255,77.994L37.128,77.832L37.005,77.672L36.88,77.508L36.758,77.346L36.637,77.183L36.515,77.018L36.395,76.851L36.277,76.686L36.158,76.518L36.04,76.35L35.926,76.183L35.812,76.016L35.697,75.845L35.581,75.671L35.471,75.501L35.361,75.331L35.249,75.155L35.139,74.981L35.033,74.809L34.927,74.637L34.821,74.46L34.714,74.281L34.61,74.103L34.509,73.929L34.406,73.75L34.305,73.57L34.206,73.391L34.107,73.21L34.009,73.029L33.911,72.844L33.817,72.665L33.723,72.483L33.628,72.296L33.538,72.115L33.446,71.931L33.355,71.742L33.266,71.557L33.178,71.37L33.092,71.183L33.006,70.996L32.921,70.805L32.838,70.616L32.756,70.427L32.675,70.238L32.593,70.044L32.515,69.854L32.437,69.663L32.36,69.468L32.285,69.276L32.21,69.079L32.137,68.886L32.065,68.693L31.994,68.495L31.923,68.297L31.855,68.102L31.788,67.906L31.721,67.707L31.656,67.507L31.593,67.31L31.53,67.113L31.467,66.907L31.408,66.709L31.349,66.511L31.29,66.304L31.234,66.104L31.178,65.901L31.124,65.697L31.071,65.496L31.019,65.291L30.968,65.086L30.919,64.88L30.872,64.678L30.824,64.471L30.778,64.26L30.734,64.057L30.691,63.849L30.649,63.641L30.608,63.433L30.569,63.224L30.531,63.014L30.494,62.801L30.459,62.595L30.425,62.385L30.392,62.174L30.36,61.963L30.329,61.748L30.301,61.537L30.274,61.329L30.247,61.116L30.221,60.896L30.198,60.683L30.176,60.474L30.154,60.257L30.135,60.043L30.116,59.829L30.099,59.611L30.083,59.396L30.069,59.181L30.056,58.962L30.044,58.747L30.034,58.531L30.025,58.312L30.017,58.092L30.011,57.875L30.006,57.659L30.003,57.438L30.001,57.217L30,57L30.001,56.783L30.003,56.562L30.006,56.341L30.011,56.125L30.017,55.909L30.025,55.689L30.034,55.469L30.044,55.253L30.056,55.038L30.069,54.819L30.083,54.604L30.099,54.39L30.116,54.172L30.135,53.958L30.154,53.744L30.176,53.527L30.198,53.318L30.221,53.105L30.247,52.885L30.274,52.672L30.301,52.464L30.329,52.253L30.36,52.038L30.392,51.827L30.425,51.616L30.459,51.406L30.494,51.2L30.531,50.987L30.569,50.778L30.608,50.569L30.649,50.36L30.691,50.152L30.734,49.945L30.778,49.741L30.824,49.53L30.872,49.324L30.919,49.122L30.968,48.916L31.019,48.71L31.071,48.506L31.124,48.305L31.178,48.101L31.234,47.897L31.29,47.698L31.349,47.491L31.408,47.292L31.467,47.094L31.53,46.889L31.593,46.692L31.656,46.495L31.721,46.295L31.788,46.095L31.855,45.9L31.923,45.705L31.994,45.507L32.065,45.309L32.137,45.116L32.21,44.922L32.285,44.727L32.36,44.534L32.437,44.339L32.515,44.148L32.593,43.958L32.675,43.764L32.756,43.575L32.838,43.386L32.921,43.197L33.006,43.006L33.092,42.819L33.179,42.632L33.266,42.446L33.355,42.26L33.447,42.071L33.538,41.887L33.628,41.706L33.723,41.52L33.817,41.337L33.911,41.158L34.009,40.973L34.107,40.792L34.206,40.611L34.306,40.432L34.406,40.252L34.509,40.074L34.61,39.899L34.714,39.721L34.821,39.542L34.927,39.366L35.033,39.193L35.139,39.021L35.249,38.847L35.361,38.671L35.471,38.501L35.581,38.332L35.697,38.157L35.812,37.987L35.925,37.819L36.04,37.653L36.158,37.484L36.277,37.316L36.394,37.151L36.515,36.984L36.637,36.819L36.758,36.656L36.88,36.494L37.004,36.331L37.128,36.17L37.255,36.008L37.383,35.846L37.508,35.691L37.637,35.531L37.768,35.371L37.898,35.215L38.028,35.06L38.159,34.905L38.292,34.751L38.427,34.596L38.564,34.441L38.699,34.29L38.833,34.141L38.97,33.991L39.11,33.84L39.251,33.689L39.392,33.541L39.531,33.397L39.672,33.251L39.817,33.104L39.96,32.959L40.103,32.817L40.25,32.673L40.397,32.531L40.541,32.392L40.691,32.249L40.841,32.11L40.988,31.973L41.139,31.835L41.29,31.699L41.445,31.561L41.596,31.427L41.748,31.295L41.905,31.16L42.061,31.027L42.215,30.897L42.373,30.767L42.532,30.636L42.688,30.509L42.848,30.381L43.007,30.256L43.168,30.129L43.331,30.004L43.492,29.881L43.656,29.758L43.821,29.636L43.987,29.514L44.151,29.395L44.316,29.276L44.482,29.159L44.651,29.041L44.82,28.925L44.989,28.81L45.158,28.697L45.33,28.583L45.502,28.47L45.672,28.361L45.846,28.249L46.019,28.141L46.192,28.033L46.369,27.926L46.544,27.82L46.72,27.715L46.896,27.611L47.075,27.508L47.254,27.406L47.432,27.305L47.612,27.206L47.792,27.107L47.973,27.009L48.154,26.913L48.338,26.817L48.522,26.722L48.703,26.63L48.887,26.537L49.073,26.446L49.258,26.356L49.446,26.266L49.633,26.178L49.819,26.092L50.006,26.007L50.196,25.921L50.386,25.838L50.574,25.756L50.765,25.674L50.957,25.594L51.149,25.515L51.341,25.437L51.533,25.36L51.727,25.285L51.922,25.21L52.116,25.137L52.311,25.065L52.506,24.994L52.703,24.924L52.9,24.855L53.096,24.788L53.295,24.721L53.494,24.656L53.693,24.592L53.892,24.53L54.091,24.468L54.292,24.408L54.494,24.348L54.695,24.291L54.897,24.234L55.1,24.178L55.304,24.124L55.506,24.071L55.71,24.019L55.916,23.968L56.121,23.919L56.326,23.871L56.532,23.824L56.739,23.778L56.946,23.734L57.153,23.691L57.36,23.649L57.569,23.608L57.778,23.569L57.987,23.531L58.196,23.494L58.406,23.459L58.617,23.425L58.828,23.392L59.039,23.36L59.251,23.33L59.462,23.301L59.674,23.273L59.888,23.247L60.101,23.222L60.315,23.198L60.529,23.175L60.743,23.154L60.958,23.135L61.173,23.116L61.389,23.099L61.604,23.083L61.821,23.069L62.037,23.056L62.254,23.044L62.471,23.034L62.689,23.025L62.906,23.017L63.125,23.011L63.343,23.006L63.562,23.003L63.781,23.001L64,23L64.219,23.001ZM63.831,31.001L63.663,31.002L63.495,31.005L63.327,31.009L63.16,31.013L62.993,31.019L62.826,31.026L62.659,31.034L62.493,31.043L62.327,31.053L62.161,31.064L61.996,31.076L61.831,31.089L61.666,31.103L61.501,31.118L61.338,31.134L61.173,31.152L61.01,31.17L60.847,31.189L60.685,31.209L60.523,31.23L60.36,31.253L60.198,31.276L60.037,31.3L59.876,31.325L59.715,31.351L59.554,31.378L59.394,31.406L59.234,31.435L59.075,31.465L58.916,31.496L58.758,31.528L58.598,31.561L58.44,31.595L58.284,31.63L58.126,31.666L57.968,31.703L57.812,31.74L57.657,31.779L57.502,31.818L57.344,31.859L57.19,31.901L57.036,31.943L56.882,31.986L56.728,32.03L56.574,32.075L56.422,32.121L56.269,32.168L56.116,32.217L55.964,32.265L55.813,32.315L55.663,32.365L55.511,32.417L55.361,32.469L55.212,32.522L55.062,32.577L54.913,32.632L54.764,32.688L54.616,32.745L54.469,32.802L54.321,32.861L54.174,32.921L54.028,32.981L53.883,33.042L53.738,33.104L53.592,33.167L53.447,33.231L53.305,33.295L53.16,33.361L53.016,33.428L52.873,33.495L52.732,33.562L52.591,33.631L52.45,33.701L52.309,33.771L52.167,33.843L52.027,33.915L51.889,33.988L51.75,34.061L51.612,34.136L51.474,34.212L51.336,34.288L51.199,34.365L51.062,34.443L50.928,34.521L50.792,34.601L50.657,34.681L50.522,34.763L50.39,34.844L50.256,34.927L50.123,35.011L49.992,35.094L49.858,35.18L49.728,35.265L49.598,35.351L49.468,35.439L49.338,35.527L49.209,35.615L49.082,35.704L48.954,35.795L48.825,35.887L48.698,35.98L48.573,36.071L48.448,36.164L48.324,36.258L48.198,36.353L48.075,36.448L47.953,36.544L47.829,36.641L47.708,36.739L47.585,36.838L47.465,36.937L47.345,37.036L47.224,37.138L47.105,37.239L46.989,37.339L46.87,37.443L46.751,37.548L46.637,37.65L46.521,37.754L46.406,37.859L46.29,37.967L46.176,38.073L46.065,38.179L45.95,38.289L45.838,38.398L45.729,38.505L45.616,38.617L45.506,38.728L45.398,38.837L45.289,38.95L45.179,39.065L45.071,39.178L44.966,39.29L44.862,39.403L44.756,39.519L44.649,39.637L44.544,39.755L44.442,39.87L44.342,39.986L44.239,40.105L44.137,40.225L44.036,40.345L43.936,40.466L43.838,40.585L43.741,40.705L43.64,40.831L43.544,40.952L43.449,41.074L43.353,41.199L43.259,41.322L43.164,41.448L43.07,41.575L42.978,41.7L42.887,41.825L42.795,41.954L42.705,42.081L42.617,42.208L42.527,42.339L42.437,42.47L42.351,42.599L42.267,42.726L42.18,42.859L42.093,42.993L42.011,43.121L41.928,43.253L41.844,43.389L41.761,43.525L41.68,43.659L41.602,43.791L41.523,43.925L41.442,44.064L41.365,44.2L41.288,44.337L41.211,44.474L41.136,44.612L41.061,44.75L40.989,44.886L40.915,45.028L40.842,45.168L40.773,45.306L40.7,45.45L40.63,45.592L40.563,45.731L40.495,45.873L40.427,46.017L40.361,46.161L40.295,46.305L40.231,46.446L40.167,46.592L40.104,46.738L40.041,46.884L39.981,47.028L39.921,47.175L39.86,47.323L39.803,47.468L39.744,47.617L39.688,47.763L39.632,47.913L39.576,48.064L39.523,48.211L39.47,48.359L39.417,48.511L39.365,48.664L39.315,48.813L39.266,48.963L39.216,49.117L39.168,49.271L39.122,49.419L39.076,49.574L39.029,49.73L38.987,49.879L38.943,50.036L38.901,50.19L38.86,50.344L38.818,50.502L38.779,50.657L38.74,50.812L38.703,50.968L38.665,51.128L38.63,51.285L38.596,51.438L38.561,51.6L38.528,51.758L38.496,51.916L38.465,52.075L38.435,52.234L38.406,52.394L38.379,52.55L38.351,52.715L38.325,52.876L38.3,53.037L38.275,53.199L38.253,53.358L38.231,53.52L38.209,53.687L38.188,53.851L38.17,54.007L38.152,54.171L38.134,54.34L38.118,54.501L38.103,54.666L38.089,54.832L38.076,54.995L38.064,55.161L38.053,55.328L38.043,55.492L38.034,55.66L38.026,55.828L38.019,55.993L38.013,56.158L38.009,56.327L38.005,56.497L38.002,56.663L38,56.829L38,57L38,57.171L38.002,57.337L38.005,57.504L38.009,57.673L38.013,57.843L38.019,58.008L38.026,58.173L38.034,58.341L38.043,58.509L38.053,58.672L38.064,58.839L38.076,59.006L38.089,59.168L38.103,59.334L38.118,59.5L38.134,59.661L38.152,59.83L38.17,59.994L38.188,60.15L38.209,60.314L38.231,60.481L38.253,60.644L38.275,60.802L38.3,60.964L38.325,61.125L38.351,61.286L38.379,61.451L38.406,61.607L38.435,61.767L38.465,61.926L38.496,62.085L38.528,62.244L38.561,62.402L38.596,62.563L38.63,62.717L38.665,62.874L38.703,63.034L38.74,63.189L38.779,63.345L38.818,63.5L38.86,63.658L38.901,63.812L38.943,63.966L38.987,64.123L39.029,64.272L39.076,64.428L39.122,64.583L39.168,64.731L39.216,64.885L39.266,65.039L39.315,65.189L39.365,65.338L39.417,65.491L39.47,65.643L39.523,65.791L39.576,65.938L39.632,66.089L39.688,66.239L39.744,66.385L39.803,66.534L39.86,66.679L39.921,66.827L39.981,66.975L40.042,67.118L40.104,67.265L40.167,67.41L40.231,67.556L40.295,67.697L40.361,67.842L40.427,67.986L40.495,68.129L40.563,68.272L40.63,68.41L40.7,68.552L40.773,68.697L40.842,68.834L40.915,68.974L40.989,69.117L41.061,69.252L41.136,69.39L41.211,69.528L41.288,69.666L41.365,69.802L41.442,69.938L41.523,70.077L41.602,70.212L41.68,70.343L41.761,70.477L41.844,70.613L41.928,70.749L42.011,70.881L42.093,71.009L42.18,71.143L42.266,71.276L42.35,71.403L42.437,71.532L42.527,71.663L42.617,71.794L42.705,71.922L42.795,72.048L42.887,72.177L42.978,72.302L43.07,72.427L43.164,72.554L43.259,72.68L43.353,72.803L43.449,72.928L43.544,73.05L43.64,73.171L43.741,73.297L43.838,73.417L43.935,73.536L44.036,73.657L44.137,73.777L44.239,73.897L44.341,74.016L44.442,74.132L44.544,74.247L44.649,74.364L44.756,74.483L44.862,74.598L44.966,74.711L45.071,74.823L45.179,74.937L45.289,75.052L45.398,75.164L45.505,75.274L45.616,75.384L45.729,75.497L45.838,75.604L45.95,75.713L46.065,75.823L46.176,75.928L46.29,76.035L46.406,76.142L46.521,76.247L46.637,76.352L46.751,76.454L46.87,76.559L46.989,76.663L47.105,76.763L47.223,76.863L47.345,76.965L47.464,77.065L47.585,77.163L47.708,77.263L47.829,77.36L47.953,77.458L48.075,77.553L48.198,77.648L48.324,77.744L48.448,77.837L48.572,77.93L48.697,78.022L48.825,78.114L48.953,78.206L49.082,78.297L49.209,78.386L49.337,78.474L49.467,78.562L49.598,78.65L49.728,78.736L49.858,78.821L49.992,78.907L50.123,78.991L50.256,79.074L50.389,79.157L50.522,79.238L50.657,79.32L50.792,79.4L50.928,79.48L51.062,79.558L51.198,79.636L51.336,79.713L51.474,79.789L51.611,79.865L51.75,79.939L51.889,80.013L52.026,80.085L52.167,80.158L52.309,80.23L52.449,80.3L52.59,80.37L52.732,80.439L52.873,80.506L53.015,80.573L53.16,80.64L53.305,80.706L53.447,80.77L53.591,80.833L53.737,80.897L53.883,80.959L54.028,81.02L54.174,81.08L54.321,81.139L54.469,81.198L54.616,81.256L54.764,81.312L54.913,81.369L55.061,81.423L55.212,81.478L55.361,81.531L55.511,81.583L55.662,81.635L55.812,81.685L55.964,81.735L56.116,81.784L56.269,81.832L56.422,81.879L56.574,81.925L56.727,81.97L56.881,82.014L57.036,82.058L57.19,82.1L57.344,82.141L57.501,82.182L57.657,82.222L57.812,82.26L57.968,82.297L58.126,82.334L58.284,82.37L58.44,82.405L58.598,82.439L58.757,82.472L58.916,82.504L59.074,82.535L59.234,82.565L59.394,82.594L59.554,82.622L59.714,82.649L59.876,82.675L60.037,82.7L60.198,82.724L60.36,82.748L60.522,82.77L60.685,82.791L60.847,82.811L61.01,82.83L61.173,82.848L61.338,82.866L61.501,82.882L61.666,82.897L61.831,82.911L61.996,82.924L62.161,82.936L62.327,82.947L62.492,82.957L62.659,82.966L62.826,82.974L62.993,82.981L63.16,82.987L63.327,82.991L63.495,82.995L63.663,82.998L63.831,82.999L64,83L64.169,82.999L64.337,82.998L64.505,82.995L64.673,82.991L64.841,82.987L65.008,82.981L65.175,82.974L65.341,82.966L65.508,82.957L65.674,82.947L65.839,82.936L66.005,82.924L66.17,82.911L66.335,82.897L66.499,82.882L66.663,82.866L66.827,82.848L66.991,82.83L67.154,82.811L67.317,82.791L67.479,82.77L67.641,82.748L67.803,82.724L67.964,82.7L68.125,82.675L68.287,82.649L68.447,82.622L68.607,82.594L68.767,82.565L68.927,82.535L69.086,82.504L69.245,82.472L69.403,82.439L69.561,82.405L69.719,82.37L69.875,82.334L70.032,82.298L70.189,82.26L70.345,82.221L70.501,82.182L70.657,82.141L70.812,82.1L70.965,82.058L71.12,82.014L71.275,81.97L71.427,81.925L71.581,81.879L71.734,81.832L71.885,81.784L72.037,81.735L72.188,81.686L72.339,81.635L72.491,81.583L72.642,81.531L72.791,81.478L72.94,81.423L73.089,81.369L73.236,81.313L73.385,81.256L73.534,81.198L73.681,81.139L73.826,81.081L73.973,81.02L74.121,80.958L74.264,80.897L74.409,80.834L74.554,80.77L74.699,80.705L74.842,80.64L74.986,80.573L75.129,80.506L75.27,80.439L75.411,80.37L75.553,80.3L75.693,80.23L75.835,80.158L75.975,80.085L76.113,80.013L76.252,79.939L76.391,79.865L76.528,79.789L76.666,79.713L76.803,79.636L76.94,79.558L77.074,79.48L77.21,79.4L77.345,79.32L77.48,79.238L77.614,79.156L77.746,79.074L77.877,78.992L78.01,78.907L78.144,78.821L78.274,78.736L78.404,78.65L78.535,78.562L78.665,78.474L78.792,78.386L78.92,78.297L79.048,78.206L79.176,78.114L79.304,78.022L79.428,77.931L79.554,77.837L79.68,77.742L79.802,77.65L79.926,77.553L80.051,77.456L80.173,77.36L80.294,77.263L80.417,77.163L80.537,77.065L80.657,76.965L80.776,76.865L80.894,76.764L81.015,76.661L81.132,76.559L81.248,76.456L81.365,76.352L81.483,76.245L81.598,76.14L81.71,76.037L81.824,75.93L81.939,75.821L82.052,75.713L82.161,75.606L82.275,75.495L82.386,75.384L82.494,75.276L82.603,75.164L82.714,75.05L82.823,74.937L82.928,74.826L83.035,74.711L83.142,74.596L83.246,74.483L83.35,74.367L83.455,74.25L83.559,74.132L83.662,74.013L83.762,73.897L83.864,73.777L83.965,73.657L84.066,73.536L84.164,73.417L84.261,73.297L84.359,73.174L84.457,73.05L84.552,72.928L84.648,72.803L84.744,72.678L84.837,72.554L84.93,72.43L85.021,72.305L85.114,72.177L85.206,72.048L85.296,71.922L85.386,71.791L85.475,71.663L85.562,71.535L85.651,71.403L85.735,71.276L85.821,71.143L85.908,71.009L85.99,70.881L86.073,70.749L86.157,70.613L86.238,70.48L86.319,70.346L86.401,70.209L86.48,70.074L86.557,69.941L86.636,69.802L86.713,69.666L86.788,69.531L86.865,69.39L86.939,69.252L87.013,69.113L87.086,68.974L87.158,68.834L87.23,68.693L87.299,68.555L87.369,68.414L87.438,68.272L87.506,68.129L87.573,67.986L87.64,67.842L87.706,67.697L87.769,67.556L87.833,67.41L87.897,67.265L87.958,67.122L88.019,66.975L88.08,66.827L88.14,66.679L88.198,66.534L88.256,66.385L88.314,66.235L88.367,66.093L88.423,65.942L88.478,65.791L88.531,65.639L88.583,65.491L88.634,65.342L88.685,65.189L88.736,65.035L88.784,64.885L88.831,64.734L88.879,64.579L88.925,64.427L88.97,64.275L89.014,64.123L89.057,63.966L89.1,63.812L89.141,63.658L89.182,63.5L89.221,63.345L89.26,63.189L89.297,63.034L89.334,62.877L89.37,62.717L89.405,62.56L89.438,62.406L89.472,62.244L89.504,62.085L89.535,61.926L89.565,61.767L89.594,61.607L89.622,61.447L89.649,61.286L89.675,61.125L89.7,60.968L89.724,60.802L89.748,60.64L89.77,60.481L89.791,60.318L89.811,60.154L89.83,59.99L89.849,59.826L89.866,59.665L89.882,59.5L89.897,59.334L89.911,59.172L89.924,59.006L89.936,58.839L89.947,58.672L89.957,58.505L89.966,58.341L89.974,58.176L89.981,58.008L89.987,57.839L89.992,57.673L89.995,57.508L89.998,57.337L89.999,57.167L90,57L89.999,56.833L89.998,56.663L89.995,56.493L89.992,56.327L89.987,56.161L89.981,55.993L89.974,55.824L89.966,55.66L89.957,55.496L89.947,55.328L89.936,55.161L89.924,54.995L89.911,54.828L89.897,54.666L89.882,54.501L89.866,54.336L89.849,54.175L89.83,54.011L89.811,53.847L89.791,53.683L89.77,53.52L89.748,53.362L89.725,53.199L89.7,53.033L89.675,52.876L89.649,52.715L89.622,52.554L89.594,52.394L89.565,52.234L89.535,52.075L89.504,51.916L89.472,51.758L89.438,51.596L89.405,51.442L89.37,51.285L89.334,51.124L89.297,50.968L89.26,50.812L89.221,50.657L89.182,50.502L89.141,50.344L89.1,50.19L89.058,50.036L89.014,49.879L88.97,49.727L88.925,49.574L88.879,49.423L88.832,49.268L88.784,49.117L88.736,48.967L88.685,48.813L88.634,48.66L88.583,48.511L88.531,48.363L88.478,48.211L88.423,48.06L88.367,47.91L88.314,47.767L88.256,47.617L88.198,47.468L88.14,47.323L88.08,47.175L88.019,47.028L87.958,46.881L87.897,46.738L87.833,46.592L87.769,46.446L87.706,46.305L87.64,46.161L87.573,46.017L87.506,45.873L87.438,45.731L87.369,45.589L87.299,45.447L87.23,45.309L87.158,45.168L87.086,45.028L87.013,44.889L86.939,44.75L86.865,44.612L86.788,44.471L86.713,44.337L86.636,44.2L86.557,44.061L86.48,43.928L86.401,43.794L86.319,43.656L86.238,43.522L86.157,43.389L86.073,43.253L85.99,43.121L85.908,42.993L85.821,42.859L85.734,42.726L85.65,42.599L85.562,42.467L85.475,42.339L85.386,42.211L85.296,42.081L85.206,41.954L85.114,41.825L85.021,41.697L84.93,41.572L84.837,41.448L84.744,41.324L84.648,41.199L84.552,41.074L84.457,40.952L84.359,40.828L84.261,40.705L84.164,40.585L84.066,40.466L83.965,40.345L83.864,40.225L83.762,40.105L83.662,39.988L83.559,39.87L83.455,39.752L83.35,39.635L83.245,39.519L83.142,39.406L83.035,39.29L82.928,39.176L82.823,39.065L82.714,38.952L82.603,38.837L82.494,38.726L82.386,38.617L82.275,38.507L82.161,38.396L82.052,38.289L81.939,38.181L81.823,38.071L81.71,37.965L81.598,37.861L81.482,37.756L81.365,37.65L81.248,37.546L81.132,37.443L81.014,37.34L80.894,37.237L80.776,37.136L80.657,37.036L80.537,36.937L80.417,36.838L80.294,36.739L80.173,36.641L80.051,36.545L79.926,36.448L79.801,36.351L79.68,36.259L79.554,36.164L79.427,36.07L79.304,35.98L79.176,35.887L79.048,35.795L78.919,35.704L78.792,35.615L78.664,35.527L78.534,35.439L78.403,35.351L78.274,35.265L78.144,35.18L78.01,35.094L77.877,35.009L77.746,34.927L77.614,34.845L77.479,34.763L77.345,34.681L77.21,34.601L77.074,34.521L76.939,34.443L76.803,34.365L76.666,34.288L76.528,34.212L76.39,34.136L76.252,34.061L76.113,33.988L75.975,33.915L75.835,33.843L75.693,33.771L75.552,33.701L75.411,33.631L75.269,33.562L75.129,33.495L74.986,33.428L74.841,33.361L74.698,33.295L74.554,33.231L74.409,33.167L74.264,33.104L74.12,33.042L73.973,32.981L73.826,32.92L73.681,32.861L73.534,32.803L73.385,32.745L73.236,32.688L73.089,32.632L72.939,32.577L72.791,32.523L72.642,32.47L72.49,32.417L72.339,32.365L72.187,32.315L72.037,32.265L71.886,32.217L71.734,32.169L71.58,32.122L71.427,32.075L71.274,32.03L71.12,31.986L70.965,31.943L70.812,31.901L70.657,31.859L70.501,31.819L70.344,31.779L70.189,31.74L70.032,31.703L69.874,31.666L69.719,31.63L69.561,31.595L69.403,31.561L69.245,31.529L69.085,31.496L68.926,31.465L68.767,31.435L68.607,31.406L68.447,31.378L68.286,31.351L68.125,31.325L67.964,31.3L67.803,31.276L67.641,31.253L67.479,31.23L67.316,31.209L67.154,31.189L66.991,31.17L66.827,31.152L66.663,31.134L66.499,31.118L66.335,31.103L66.17,31.089L66.004,31.076L65.839,31.064L65.674,31.053L65.507,31.043L65.341,31.034L65.175,31.026L65.008,31.019L64.841,31.013L64.673,31.009L64.505,31.005L64.337,31.002L64.169,31.001L64,31L63.831,31.001Z" style="fill:white;"/>
            </g>
            <g transform="matrix(1,0,0,0.726562,0,135)">
                <path d="M78.604,40.937L78.835,40.952L79.064,40.978L79.293,41.014L79.519,41.061L79.742,41.118L79.963,41.186L80.181,41.264L80.394,41.351L80.604,41.449L80.809,41.556L81.008,41.672L81.202,41.798L81.39,41.932L81.572,42.075L81.746,42.226L81.914,42.385L82.074,42.551L82.226,42.725L82.37,42.906L82.506,43.093L82.632,43.286L82.75,43.485L82.858,43.689L82.957,43.897L83.046,44.111L83.125,44.328L83.194,44.548L83.253,44.771L83.302,44.997L83.34,45.225L83.367,45.454L83.384,45.685L83.39,45.916L83.385,46.147L83.37,46.377L83.344,46.607L83.308,46.835L83.261,47.061L83.203,47.285L83.136,47.505L83.058,47.723L82.97,47.937L82.873,48.146L82.766,48.351L82.65,48.55L82.524,48.744L82.39,48.932L82.247,49.114L82.096,49.288L81.937,49.456L64.161,67.349L48.716,56.386L48.531,56.248L48.352,56.102L48.18,55.947L48.016,55.785L47.859,55.616L47.711,55.439L47.57,55.255L47.438,55.066L47.316,54.87L47.202,54.669L47.098,54.463L47.003,54.252L46.918,54.037L46.843,53.819L46.779,53.597L46.724,53.373L46.68,53.146L46.647,52.917L46.624,52.687L46.612,52.457L46.611,52.226L46.62,51.995L46.64,51.765L46.67,51.536L46.711,51.309L46.762,51.083L46.824,50.861L46.896,50.641L46.978,50.425L47.07,50.214L47.172,50.006L47.283,49.804L47.403,49.606L47.532,49.415L47.67,49.23L47.817,49.051L47.971,48.879L48.134,48.715L48.303,48.558L48.48,48.41L48.664,48.269L48.853,48.138L49.049,48.015L49.25,47.901L49.456,47.797L49.667,47.702L49.882,47.617L50.1,47.542L50.322,47.478L50.546,47.423L50.773,47.38L51.002,47.346L51.231,47.323L51.462,47.311L51.693,47.31L51.924,47.319L52.154,47.339L52.383,47.369L52.61,47.41L52.835,47.462L53.058,47.523L53.278,47.595L53.493,47.677L53.705,47.769L53.913,47.871L54.115,47.982L54.312,48.102L54.504,48.232L63.039,54.289L74.843,42.408L75.009,42.248L75.183,42.096L75.364,41.952L75.551,41.816L75.744,41.69L75.943,41.572L76.147,41.463L76.355,41.365L76.568,41.276L76.785,41.196L77.006,41.127L77.229,41.069L77.455,41.02L77.683,40.982L77.912,40.955L78.143,40.938L78.374,40.932L78.604,40.937Z" style="fill:white;"/>
            </g>
        </g>
    </g>
</svg>
