<?xml version="1.0" encoding="UTF-8" standalone="no"?>
<!DOCTYPE svg PUBLIC "-//W3C//DTD SVG 1.1//EN" "http://www.w3.org/Graphics/SVG/1.1/DTD/svg11.dtd">
<svg width="100%" height="100%" viewBox="0 0 128 128" version="1.1" xmlns="http://www.w3.org/2000/svg" xmlns:xlink="http://www.w3.org/1999/xlink" xml:space="preserve" style="fill-rule:evenodd;clip-rule:evenodd;stroke-linejoin:round;stroke-miterlimit:1.41421;">
    <g transform="matrix(1,0,0,1,-4608,-640)">
        <g id="textformat_bold" transform="matrix(1,0,0,1.37634,4608,454.194)">
            <rect x="0" y="135" width="128" height="93" style="fill:none;"/>
            <g transform="matrix(1,0,0,0.726562,0.0005,135)">
                <path d="M25.31,9L59.04,9C65.131,9 70.698,9.526 75.745,10.578C80.786,11.629 85.095,13.284 88.667,15.541C92.238,17.798 94.995,20.716 96.938,24.288C98.881,27.86 99.856,32.169 99.856,37.209C99.856,43.513 97.963,48.899 94.18,53.362C90.397,57.831 84.67,60.845 77.001,62.423L77.001,62.737C85.094,63.789 91.397,66.598 95.912,71.169C100.432,75.741 102.689,81.647 102.689,88.899C102.689,94.575 101.451,99.352 98.99,103.238C96.521,107.131 93.257,110.227 89.217,112.536C85.17,114.851 80.572,116.506 75.43,117.506C70.281,118.5 64.971,119 59.508,119L25.31,119L25.31,9ZM46.747,55.33L52.576,55.33C56.36,55.33 59.829,55.151 62.977,54.779C66.132,54.413 68.807,53.676 71.012,52.573C73.218,51.47 74.955,49.925 76.213,47.924C77.476,45.93 78.104,43.359 78.104,40.203C78.104,37.157 77.502,34.688 76.296,32.797C75.084,30.905 73.404,29.411 71.249,28.308C69.095,27.199 66.6,26.442 63.766,26.018C60.932,25.601 57.937,25.39 54.782,25.39L46.747,25.39L46.747,55.33ZM46.747,102.456L53.993,102.456C63.028,102.456 69.697,101.218 74.006,98.749C78.316,96.28 80.471,92.157 80.471,86.38C80.471,80.705 78.239,76.684 73.776,74.324C69.307,71.958 62.349,70.777 52.891,70.777L46.748,70.777L46.748,102.456L46.747,102.456Z" style="fill:rgb(16,23,25);fill-rule:nonzero;"/>
            </g>
        </g>
    </g>
</svg>
