<?xml version="1.0" encoding="UTF-8" standalone="no"?><!DOCTYPE svg PUBLIC "-//W3C//DTD SVG 1.1//EN" "http://www.w3.org/Graphics/SVG/1.1/DTD/svg11.dtd"><svg width="100%" height="100%" viewBox="0 0 128 128" version="1.1" xmlns="http://www.w3.org/2000/svg" xmlns:xlink="http://www.w3.org/1999/xlink" xml:space="preserve" style="fill-rule:evenodd;clip-rule:evenodd;stroke-linejoin:round;stroke-miterlimit:1.41421;"><rect id="textformat" x="0" y="0" width="128" height="128" style="fill:none;"/><path d="M104,19c2.757,0 5,2.243 5,5l0,80c0,2.757 -2.243,5 -5,5l-80,0c-2.757,0 -5,-2.243 -5,-5l0,-80c0,-2.757 2.243,-5 5,-5l80,0m0,-10l-80,0c-8.284,0 -15,6.716 -15,15l0,80c0,8.284 6.716,15 15,15l80,0c8.284,0 15,-6.716 15,-15l0,-80c0,-8.284 -6.716,-15 -15,-15Z" style="fill:#101719;fill-rule:nonzero;"/><path d="M97,97.775l-9.185,0l-7.275,-17.625l-33.475,0l-7.157,17.625l-8.908,0l28.546,-67.551l8.611,0l28.843,67.551Zm-28.545,-47.616c-0.323,-0.709 -0.686,-1.611 -1.119,-2.707c-0.405,-1.096 -0.854,-2.256 -1.306,-3.48c-0.452,-1.224 -0.888,-2.42 -1.305,-3.583c-0.42,-1.157 -0.759,-2.189 -1.015,-3.096l-0.192,0c-0.323,0.907 -0.678,1.939 -1.063,3.096c-0.392,1.162 -0.808,2.325 -1.262,3.486c-0.454,1.16 -0.884,2.303 -1.303,3.434c-0.419,1.125 -0.792,2.077 -1.115,2.851l-9.101,23.219l28.079,0l-9.298,-23.22Z" style="fill:#101719;fill-rule:nonzero;"/></svg>