<?xml version="1.0" encoding="UTF-8" standalone="no"?><!DOCTYPE svg PUBLIC "-//W3C//DTD SVG 1.1//EN" "http://www.w3.org/Graphics/SVG/1.1/DTD/svg11.dtd"><svg width="100%" height="100%" viewBox="0 0 128 128" version="1.1" xmlns="http://www.w3.org/2000/svg" xmlns:xlink="http://www.w3.org/1999/xlink" xml:space="preserve" style="fill-rule:evenodd;clip-rule:evenodd;stroke-linejoin:round;stroke-miterlimit:1.41421;"><rect id="textformat_underline" x="0" y="0" width="128" height="128" style="fill:none;"/><path d="M43.729,9l0,58.461c0,9.297 1.638,16.029 4.925,20.195c3.28,4.181 8.343,6.262 15.202,6.262c7.423,0 12.851,-2.081 16.276,-6.262c3.431,-4.166 5.141,-10.898 5.141,-20.195l0,-58.461l19.273,0l0,59.88c0,13.661 -3.426,23.924 -10.272,30.789c-6.848,6.88 -17.049,10.322 -30.561,10.322c-14.28,0 -24.564,-3.464 -30.835,-10.383c-6.288,-6.919 -9.425,-17.162 -9.425,-30.729l0,-59.879l20.276,0Z" style="fill:#101719;fill-rule:nonzero;"/><rect x="23.453" y="118" width="81.094" height="10" style="fill:#101719;"/></svg>