<?xml version="1.0" encoding="UTF-8" standalone="no"?><!DOCTYPE svg PUBLIC "-//W3C//DTD SVG 1.1//EN" "http://www.w3.org/Graphics/SVG/1.1/DTD/svg11.dtd"><svg width="100%" height="100%" viewBox="0 0 128 128" version="1.1" xmlns="http://www.w3.org/2000/svg" xmlns:xlink="http://www.w3.org/1999/xlink" xml:space="preserve" style="fill-rule:evenodd;clip-rule:evenodd;stroke-linejoin:round;stroke-miterlimit:1.41421;"><rect id="theme" x="0" y="0" width="128" height="128" style="fill:none;"/><path d="M106.018,49.465c-0.001,-1.18 -0.598,-2.292 -1.581,-3.267c-4.246,-4.221 -8.481,-8.453 -12.704,-12.698c-2.776,-2.775 -5.098,-2.782 -7.858,-0.023l-62.597,62.586c-2.75,2.75 -5.555,5.5 -8.29,8.28c-2,2.03 -2.095,4.66 -0.193,6.592c4.527,4.598 9.091,9.161 13.693,13.688c1.89,1.86 4.447,1.81 6.41,0.032c0.282,-0.25 0.547,-0.532 0.817,-0.802l70.25,-70.235c0.33,-0.33 0.67,-0.653 0.97,-1c0.74,-0.88 1.126,-2.005 1.082,-3.153Zm-7.152,1.308c-8,8.025 -16.01,16.042 -24.03,24.052c-0.515,0.518 -0.78,0.368 -1.207,-0.062c-3.623,-3.643 -7.251,-7.28 -10.91,-10.88c-0.596,-0.585 -0.478,-0.873 0.044,-1.395c7.941,-7.909 15.867,-15.83 23.781,-23.763c0.629,-0.63 1.319,-1.057 2.224,-1c0.883,-0.032 1.558,0.36 2.15,0.955c2.638,2.645 5.295,5.273 7.915,7.933c1.293,1.305 1.32,2.865 0.03,4.16l0.003,0Z" style="fill:url(#_Linear1);fill-rule:nonzero;"/><path d="M63.273,23.03l3.122,11.048l0.275,-0.053l3.102,-11c0.18,-1.09 0.823,-1.585 1.918,-1.788c1.315,-0.25 2.595,-0.685 3.885,-1.057c2.352,-0.678 4.7,-1.37 7.38,-2.15c-4.1,-1.185 -7.833,-2.31 -11.595,-3.315c-0.933,-0.25 -1.295,-0.718 -1.53,-1.568c-0.925,-3.35 -1.895,-6.687 -2.873,-10.022c-0.105,-0.355 -0.087,-0.813 -0.527,-1.125c-1.075,3.767 -2.158,7.422 -3.143,11.105c-0.25,0.91 -0.682,1.292 -1.56,1.535c-3.79,1.057 -7.56,2.192 -11.68,3.402c4.018,1.148 7.688,2.233 11.383,3.23c0.997,0.27 1.655,0.728 1.842,1.758Z" style="fill:url(#_Linear2);fill-rule:nonzero;"/><path d="M91.765,17.588c0.42,1.769 1,3.499 1.597,5.609c0.656,-2.317 1.225,-4.225 1.725,-6.15c0.218,-0.835 0.66,-1.225 1.501,-1.427c1.879,-0.455 3.73,-1.035 5.927,-1.66c-2.36,-0.688 -4.343,-1.293 -6.345,-1.833c-0.708,-0.19 -0.978,-0.535 -1.145,-1.272c-0.435,-1.91 -1.04,-3.783 -1.668,-6c-0.66,2.275 -1.25,4.215 -1.772,6.175c-0.096,0.544 -0.524,0.973 -1.067,1.07c-2.001,0.545 -3.981,1.157 -6.288,1.837c2.032,0.62 3.75,1.285 5.515,1.635c1.255,0.253 1.755,0.863 2.02,2.015Z" style="fill:url(#_Linear3);fill-rule:nonzero;"/><path d="M116.55,58c-1.055,-0.3 -2.097,-0.663 -3.17,-0.883c-0.877,-0.179 -1.25,-0.664 -1.453,-1.499c-0.249,-1.063 -0.592,-2.1 -0.982,-3.45c-0.418,1.41 -0.785,2.527 -1.073,3.662c-0.162,0.645 -0.457,1 -1.142,1.163c-1.19,0.28 -2.35,0.682 -3.81,1.12c1.322,0.4 2.382,0.805 3.48,1.025c0.935,0.187 1.302,0.677 1.527,1.56c0.275,1.077 0.455,2.207 1.073,3.315c0.382,-1.305 0.782,-2.468 1.045,-3.658c0.153,-0.697 0.525,-0.977 1.155,-1.142c1.132,-0.298 2.25,-0.645 3.375,-0.973l-0.025,-0.24Z" style="fill:url(#_Linear4);fill-rule:nonzero;"/><path d="M49.917,36.5c0.235,1.07 0.58,2.115 0.878,3.172l0.267,0.001c0.313,-1.085 0.678,-2.158 0.918,-3.25c0.177,-0.813 0.602,-1.198 1.392,-1.39c1.06,-0.25 2.15,-0.48 3.363,-1.105c-1.3,-0.375 -2.338,-0.735 -3.403,-0.958c-0.827,-0.172 -1.182,-0.623 -1.37,-1.405c-0.25,-1.09 -0.627,-2.155 -1.04,-3.528c-0.385,1.34 -0.732,2.338 -0.945,3.363c-0.185,0.898 -0.622,1.36 -1.527,1.578c-1.075,0.249 -2.183,0.484 -3.37,1.097c1.25,0.357 2.297,0.705 3.362,0.942c0.863,0.183 1.29,0.643 1.475,1.483Z" style="fill:url(#_Linear5);fill-rule:nonzero;"/><rect x="0" y="0" width="0.11" height="0.11" style="fill:none;"/><rect x="0" y="127.89" width="0.11" height="0.11" style="fill:none;"/><rect x="127.89" y="127.89" width="0.11" height="0.11" style="fill:none;"/><rect x="127.89" y="0" width="0.11" height="0.11" style="fill:none;"/><defs><linearGradient id="_Linear1" x1="0" y1="0" x2="1" y2="0" gradientUnits="userSpaceOnUse" gradientTransform="matrix(7.58255e-15,123.832,-123.832,7.58255e-15,58.7225,1.87)"><stop offset="0" style="stop-color:#728dae;stop-opacity:1"/><stop offset="1" style="stop-color:#426080;stop-opacity:1"/></linearGradient><linearGradient id="_Linear2" x1="0" y1="0" x2="1" y2="0" gradientUnits="userSpaceOnUse" gradientTransform="matrix(7.58255e-15,123.832,-123.832,7.58255e-15,66.5,1.87)"><stop offset="0" style="stop-color:#728dae;stop-opacity:1"/><stop offset="1" style="stop-color:#426080;stop-opacity:1"/></linearGradient><linearGradient id="_Linear3" x1="0" y1="0" x2="1" y2="0" gradientUnits="userSpaceOnUse" gradientTransform="matrix(7.58255e-15,123.832,-123.832,7.58255e-15,93.3775,1.87)"><stop offset="0" style="stop-color:#728dae;stop-opacity:1"/><stop offset="1" style="stop-color:#426080;stop-opacity:1"/></linearGradient><linearGradient id="_Linear4" x1="0" y1="0" x2="1" y2="0" gradientUnits="userSpaceOnUse" gradientTransform="matrix(7.58255e-15,123.832,-123.832,7.58255e-15,110.748,1.87)"><stop offset="0" style="stop-color:#728dae;stop-opacity:1"/><stop offset="1" style="stop-color:#426080;stop-opacity:1"/></linearGradient><linearGradient id="_Linear5" x1="0" y1="0" x2="1" y2="0" gradientUnits="userSpaceOnUse" gradientTransform="matrix(7.58255e-15,123.832,-123.832,7.58255e-15,50.91,1.87)"><stop offset="0" style="stop-color:#728dae;stop-opacity:1"/><stop offset="1" style="stop-color:#426080;stop-opacity:1"/></linearGradient></defs></svg>