<?xml version="1.0" encoding="UTF-8" standalone="no"?><!DOCTYPE svg PUBLIC "-//W3C//DTD SVG 1.1//EN" "http://www.w3.org/Graphics/SVG/1.1/DTD/svg11.dtd"><svg width="100%" height="100%" viewBox="0 0 128 128" version="1.1" xmlns="http://www.w3.org/2000/svg" xmlns:xlink="http://www.w3.org/1999/xlink" xml:space="preserve" style="fill-rule:evenodd;clip-rule:evenodd;stroke-linejoin:round;stroke-miterlimit:1.41421;"><rect id="toggle_server_query_clients" x="0" y="0" width="128" height="128" style="fill:none;"/><path d="M94,62.728c13.521,0 24.528,10.736 24.979,24.147c-0.448,-24.158 -9.318,-60.706 -27.765,-60.052c-9.798,0.347 -12.333,6.264 -15.398,14.119c-2.542,-0.849 -9.19,-1.395 -11.815,-1.395c-2.625,0 -9.273,0.545 -11.815,1.395c-3.065,-7.855 -5.601,-13.771 -15.398,-14.119c-18.449,-0.653 -27.318,35.894 -27.767,60.052c0.45,-13.411 11.458,-24.147 24.979,-24.147c13.807,0 25,11.193 25,24.999c0,1.155 -0.085,2.289 -0.236,3.402c1.742,-1.753 3.641,-2.166 5.236,-2.166c1.595,0 3.494,0.413 5.236,2.166c-0.151,-1.113 -0.236,-2.247 -0.236,-3.402c0,-13.806 11.193,-24.999 25,-24.999Z" style="fill:#404547;fill-rule:nonzero;"/><path d="M34,69.728c9.925,0 18,8.074 18,17.999c0,9.926 -8.075,18.001 -18,18.001c-9.925,0 -18,-8.075 -18,-18.001c0,-9.925 8.075,-17.999 18,-17.999" style="fill:#1a91d0;fill-rule:nonzero;"/><circle cx="37.396" cy="32.875" r="10.604" style="fill:#404547;"/><circle cx="90.604" cy="32.875" r="10.604" style="fill:#404547;"/><path d="M94,69.728c9.925,0 18,8.074 18,17.999c0,9.926 -8.075,18.001 -18,18.001c-9.925,0 -18,-8.075 -18,-18.001c0,-9.925 8.075,-17.999 18,-17.999" style="fill:#1a91d0;fill-rule:nonzero;"/></svg>