<?xml version="1.0" encoding="UTF-8" standalone="no"?><!DOCTYPE svg PUBLIC "-//W3C//DTD SVG 1.1//EN" "http://www.w3.org/Graphics/SVG/1.1/DTD/svg11.dtd"><svg width="100%" height="100%" viewBox="0 0 128 128" version="1.1" xmlns="http://www.w3.org/2000/svg" xmlns:xlink="http://www.w3.org/1999/xlink" xml:space="preserve" style="fill-rule:evenodd;clip-rule:evenodd;stroke-linejoin:round;stroke-miterlimit:1.41421;"><rect id="token" x="0" y="0" width="128" height="128" style="fill:none;"/><path d="M71.705,77.742l10.032,-10.031l35.686,35.685c2.103,2.107 2.102,5.52 -0.001,7.622l-2.411,2.41c-2.102,2.103 -5.517,2.104 -7.62,0l-35.686,-35.686Z" style="fill:#878b8c;fill-rule:nonzero;"/><path d="M10.578,45.061c-2.105,-2.105 -2.104,-5.519 0.002,-7.621l22.862,-22.866c2.105,-2.105 5.516,-2.105 7.621,0l36.528,36.531c2.107,2.106 2.106,5.516 0.001,7.62l-22.861,22.862c-2.106,2.109 -5.52,2.11 -7.624,0.002l-36.529,-36.528Zm34.146,-6.852c1.814,-1.814 1.814,-4.756 0,-6.57l-4.213,-4.212c-1.813,-1.814 -4.755,-1.814 -6.568,0l-10.513,10.511c-1.815,1.813 -1.813,4.756 0,6.571l4.212,4.21c1.814,1.816 4.754,1.817 6.571,0l10.511,-10.51Z" style="fill:#404547;fill-rule:nonzero;"/></svg>