<?xml version="1.0" encoding="UTF-8" standalone="no"?>
<!DOCTYPE svg PUBLIC "-//W3C//DTD SVG 1.1//EN" "http://www.w3.org/Graphics/SVG/1.1/DTD/svg11.dtd">
<svg width="100%" height="100%" viewBox="0 0 128 128" version="1.1" xmlns="http://www.w3.org/2000/svg" xmlns:xlink="http://www.w3.org/1999/xlink" xml:space="preserve" style="fill-rule:evenodd;clip-rule:evenodd;stroke-linejoin:round;stroke-miterlimit:1.41421;">
    <g transform="matrix(1,0,0,1,-4992,0)">
        <g id="translation" transform="matrix(1,0,0,1,4992,0)">
            <rect x="0" y="0" width="128" height="128" style="fill:none;"/>
            <g transform="matrix(0.25,0,0,0.25,-9.09495e-13,0)">
                <path d="M467.47,240.81C467.47,180.18 467.47,119.56 467.23,58.93C467.345,54.237 466.82,49.551 465.67,45C459.717,23.032 439.509,7.748 416.75,8C324.97,8 233.187,8 141.4,8C125.48,8 109.56,7.9 93.64,8C67.02,8.21 44.64,30.82 44.64,57.35C44.64,119.497 44.613,181.647 44.56,243.8C44.56,245.8 44.7,247.85 44.77,249.88C44.717,294.247 44.663,338.613 44.61,382.98C44.581,383.825 44.625,384.672 44.74,385.51C49.39,412.51 71.43,429.28 96.35,428.9C122.59,428.5 148.85,428.9 175.1,428.74C177.945,428.622 180.7,429.778 182.61,431.89C205.94,455.26 229.41,478.49 252.7,501.89C255.37,504.58 256.7,504.62 259.37,501.89C282.53,478.59 305.89,455.49 329.09,432.22C331.219,429.858 334.293,428.564 337.47,428.69C364.73,428.82 392,428.99 419.26,428.69C444.69,428.37 467.14,406.6 467.33,381.46C467.69,335.57 467.33,289.68 467.33,243.79C467.33,242.83 467.47,241.82 467.47,240.81ZM258.38,279.25C251.2,272.56 244.04,265.84 237.1,258.9C230.16,251.96 229.1,251.77 222.1,258.84C208.233,272.747 194.35,286.637 180.45,300.51C175.3,305.65 173.45,305.61 168.3,300.51L167.94,300.15C158.82,290.94 158.8,289.89 167.94,280.81C177.867,270.91 187.807,261.027 197.76,251.16C196.99,251.01 196.23,250.83 195.47,250.65C196.23,250.83 196.99,251.01 197.76,251.16C201.35,247.83 205,244.57 208.51,241.16C213.74,236.08 213.86,234.24 209.2,228.77C199.872,217.794 191.91,205.725 185.49,192.83C182.3,186.47 183.01,185.28 190.08,184.83C201.95,184.14 206.17,186.56 211.38,197.14C215.16,204.82 220.78,211.14 226.23,217.65C228.5,220.34 230.86,220.11 233.05,217.51C245.167,203.105 254.901,186.852 261.88,169.37C263.69,164.86 262.25,163.37 256.61,163.37C221.89,163.37 187.167,163.39 152.44,163.43C141.77,163.43 138.2,158.8 140.23,148.1C141.23,142.84 143.34,140.87 149.09,141C168.9,141.46 188.72,141.21 208.54,141.22C216,141.22 218.46,138.88 218.45,131.22C218.45,116.8 218.2,118.87 231.14,118.76C239.34,118.69 240.77,120.2 240.7,128.55C240.6,140.79 239.27,141.24 252.95,141.15C271.75,141.02 290.55,141.09 309.35,141.1C316.54,141.1 317.94,142.54 318.02,149.68C318.2,165.79 317.12,163.26 304.57,163.3C286.95,163.36 286.89,163.3 279.82,179.44C271.92,197.44 262.31,214.44 249.42,229.38C245.35,234.11 245.57,236.27 250.07,240.61C255.42,245.77 260.84,250.84 266.23,255.95C268.08,258.65 271.91,260.36 271.23,264.31C270.3,269.97 268.78,275.62 265.32,280.31C263,283.38 260.31,281.05 258.38,279.25ZM378.76,339.16C375.54,339.16 372.33,339.16 369.11,339.07C362.11,338.94 359.3,336.96 357.81,330.23C356.32,323.5 353.07,317.23 350.93,310.69C349.86,307.42 347.35,305.97 343.93,305.97C330.21,305.97 316.49,305.97 302.77,305.97C298.61,305.97 296.27,308.24 294.93,311.97C292.46,318.81 289.83,325.58 287.47,332.45C285.88,337.08 282.95,339.14 278.01,339.18C258.74,339.32 262.57,338.7 267.48,324.47C273.13,308.1 280.48,292.37 285.62,275.83C287.62,269.5 290.34,263.42 292.73,257.22C292.466,256.677 292.129,256.173 291.73,255.72C292.129,256.173 292.466,256.677 292.73,257.22C298.22,245.22 302.02,232.67 306.86,220.47C308.04,217.47 308.97,214.36 310.55,211.61C315.28,203.35 323.26,208.4 329.73,207.27C333.61,206.59 335.41,209.11 336.65,212.48C340.65,223.48 344.2,234.65 349.27,245.23C358.757,270.637 368.233,296.05 377.7,321.47C379.34,325.89 381.35,330.17 382.29,334.86C382.88,338 381.62,339.14 378.75,339.16L378.76,339.16Z" style="fill:url(#_Linear1);fill-rule:nonzero;"/>
            </g>
            <g transform="matrix(0.25,0,0,0.25,-9.09495e-13,0)">
                <rect x="511.56" y="0" width="0.44" height="0.44" style="fill:none;"/>
            </g>
        </g>
    </g>
    <defs>
        <linearGradient id="_Linear1" x1="0" y1="0" x2="1" y2="0" gradientUnits="userSpaceOnUse" gradientTransform="matrix(3.03712e-14,496,-496,3.03712e-14,256,8)"><stop offset="0" style="stop-color:rgb(114,141,174);stop-opacity:1"/><stop offset="1" style="stop-color:rgb(66,96,128);stop-opacity:1"/></linearGradient>
    </defs>
</svg>
