<?xml version="1.0" encoding="UTF-8" standalone="no"?>
<!DOCTYPE svg PUBLIC "-//W3C//DTD SVG 1.1//EN" "http://www.w3.org/Graphics/SVG/1.1/DTD/svg11.dtd">
<svg width="100%" height="100%" viewBox="0 0 128 128" version="1.1" xmlns="http://www.w3.org/2000/svg" xmlns:xlink="http://www.w3.org/1999/xlink" xml:space="preserve" style="fill-rule:evenodd;clip-rule:evenodd;stroke-linejoin:round;stroke-miterlimit:1.41421;">
    <g transform="matrix(1,0,0,1,-4992,-480)">
        <g id="unsubscribe_mode" transform="matrix(1,0,0,1.37634,4992,294.194)">
            <rect x="0" y="135" width="128" height="93" style="fill:none;"/>
            <g transform="matrix(1,0,0,0.726562,8.07161,140.887)">
                <path d="M111,28.49C111,15.49 101.35,4.9 88.48,4.7C66.84,4.36 45.19,4.39 23.54,4.7C11.7,4.84 1.64,14.39 1,25.49C0.67,31.49 1,37.49 1.1,43.49C1.1,48.15 0.98,52.8 0.97,57.49C0.94,72.1 10.53,81.87 25.19,82C34.84,82.08 44.49,82.24 54.13,81.91C58.3,81.77 59.6,83.41 60.05,87.18C61,95 58.12,101.43 52.63,107C53.096,107.176 53.584,107.29 54.08,107.34C54.902,107.236 55.714,107.068 56.51,106.84C67.89,103.43 76.37,96.28 82.37,86.2C84.03,83.41 85.66,82.03 89.22,81.78C102.22,80.86 110.93,70.98 110.91,57.88C110.91,52.39 110.82,46.88 110.77,41.42C110.83,37.13 111,32.81 111,28.49ZM47.38,41.41C48.5,41.41 49.64,41.31 50.76,41.35C49.64,41.3 48.51,41.41 47.38,41.41Z" style="fill:rgb(66,97,128);fill-rule:nonzero;"/>
            </g>
            <g transform="matrix(1,0,0,0.726562,8.07161,140.887)">
                <ellipse cx="56" cy="42.01" rx="34" ry="24.5" style="fill:rgb(129,156,189);"/>
            </g>
            <g transform="matrix(1,0,0,0.726562,8.07161,140.887)">
                <path d="M76.92,42C76.92,42.003 76.92,42.007 76.92,42.01C76.92,53.531 67.44,63.01 55.92,63.01C44.4,63.01 34.92,53.531 34.92,42.01C34.92,30.49 44.4,21.01 55.92,21.01C58.94,21.01 61.925,21.662 64.67,22.92C59.675,23.804 55.999,28.187 55.999,33.26C55.999,39.02 60.739,43.76 66.499,43.76C70.845,43.76 74.762,41.061 76.31,37C76.715,38.636 76.92,40.315 76.92,42L76.92,42Z" style="fill:rgb(66,97,128);fill-rule:nonzero;"/>
            </g>
        </g>
    </g>
</svg>
