<?xml version="1.0" encoding="UTF-8" standalone="no"?>
<!DOCTYPE svg PUBLIC "-//W3C//DTD SVG 1.1//EN" "http://www.w3.org/Graphics/SVG/1.1/DTD/svg11.dtd">
<svg width="100%" height="100%" viewBox="0 0 128 128" version="1.1" xmlns="http://www.w3.org/2000/svg" xmlns:xlink="http://www.w3.org/1999/xlink" xml:space="preserve" style="fill-rule:evenodd;clip-rule:evenodd;stroke-linejoin:round;stroke-miterlimit:1.41421;">
    <g transform="matrix(1,0,0,1,-4992,-800)">
        <g id="upload_avatar" transform="matrix(1,0,0,1.09402,4992,362.393)">
            <rect x="0" y="400" width="128" height="117" style="fill:none;"/>
            <g transform="matrix(1,0,0,0.914062,0,400)">
                <path d="M84.661,85.97C83.114,85.551 81.663,85.143 80.243,84.435C78.385,83.522 72.399,79.225 73.249,78.322C77.594,73.748 79.254,72.533 81.42,67.327L82.12,65.682L83.631,64.908C84.925,64.262 86.605,61.797 87.541,57.72C88.061,55.403 88.167,53.05 87.829,51.278C87.578,50.016 87.18,49.349 86.898,49.154L85.111,47.903L84.844,45.647C83.476,33.756 76.503,25.563 64.049,25.563C51.598,25.563 44.617,33.755 43.22,45.645L42.954,47.921L41.153,49.155C40.865,49.349 40.461,50.011 40.214,51.279C39.883,53.051 39.992,55.404 40.521,57.723C41.444,61.807 43.142,64.269 44.415,64.912L45.961,65.683L46.656,67.348C48.813,72.545 50.664,73.918 54.83,78.32C55.938,79.509 49.706,83.518 47.826,84.436C46.39,85.148 44.947,85.552 43.417,85.971C39.17,87.127 34.353,88.467 28.503,97.157C26.871,99.594 25.573,104.222 24.565,109.655C26.106,110.299 27.798,110.657 29.575,110.657L98.442,110.657C100.263,110.657 101.991,110.273 103.565,109.595C102.608,104.33 101.282,99.722 99.573,97.157C93.723,88.468 88.903,87.126 84.661,85.97Z" style="fill:rgb(201,7,9);fill-rule:nonzero;"/>
            </g>
            <g transform="matrix(1,0,0,0.914062,0,400)">
                <path d="M104,19C106.757,19 109,21.243 109,24L109,104C109,106.757 106.757,109 104,109L24,109C21.243,109 19,106.757 19,104L19,24C19,21.243 21.243,19 24,19L104,19M104,9L24,9C15.716,9 9,15.716 9,24L9,104C9,112.284 15.716,119 24,119L104,119C112.284,119 119,112.284 119,104L119,24C119,15.716 112.284,9 104,9Z" style="fill:rgb(64,69,71);fill-rule:nonzero;"/>
            </g>
        </g>
    </g>
</svg>
