<?xml version="1.0" encoding="UTF-8" standalone="no"?><!DOCTYPE svg PUBLIC "-//W3C//DTD SVG 1.1//EN" "http://www.w3.org/Graphics/SVG/1.1/DTD/svg11.dtd"><svg width="100%" height="100%" viewBox="0 0 128 128" version="1.1" xmlns="http://www.w3.org/2000/svg" xmlns:xlink="http://www.w3.org/1999/xlink" xml:space="preserve" style="fill-rule:evenodd;clip-rule:evenodd;stroke-linejoin:round;stroke-miterlimit:1.41421;"><rect id="upload" x="0" y="0" width="128" height="128" style="fill:none;"/><path d="M29.784,98.152l68.517,0l0,-18.296l20.8,0l0,20.128l-0.001,0.19l-0.004,0.242l-0.007,0.243l-0.009,0.217l-0.011,0.216l-0.015,0.244l-0.019,0.244l-0.019,0.217l-0.021,0.218l-0.024,0.218l-0.029,0.244l-0.03,0.218l-0.031,0.219l-0.038,0.244l-0.037,0.218l-0.039,0.218l-0.042,0.219l-0.045,0.218l-0.047,0.218l-0.049,0.218l-0.052,0.218l-0.055,0.217l-0.057,0.218l-0.068,0.243l-0.063,0.217l-0.05,0.166l-0.067,0.217l-0.079,0.241l-0.074,0.216l-0.067,0.191l-0.078,0.215l-0.081,0.215l-0.075,0.19l-0.086,0.214l-0.089,0.213l-0.092,0.213l-0.084,0.188l-0.086,0.189l-0.099,0.21l-0.103,0.21l-0.094,0.188l-0.096,0.186l-0.11,0.209l-0.101,0.185l-0.115,0.206l-0.107,0.184l-0.107,0.184l-0.125,0.204l-0.113,0.181l-0.116,0.183l-0.117,0.179l-0.121,0.18l-0.136,0.199l-0.128,0.179l-0.113,0.157l-0.144,0.196l-0.134,0.175l-0.134,0.173l-0.139,0.174l-0.141,0.173l-0.143,0.171l-0.131,0.152l-0.148,0.17l-0.164,0.183l-0.155,0.168l-0.141,0.148l-0.142,0.148l-0.16,0.163l-0.178,0.175l-0.152,0.147l-0.152,0.143l-0.169,0.155l-0.172,0.155l-0.177,0.154l-0.162,0.138l-0.165,0.138l-0.182,0.148l-0.185,0.146l-0.171,0.132l-0.175,0.132l-0.178,0.131l-0.192,0.138l-0.184,0.127l-0.182,0.124l-0.201,0.132l-0.188,0.121l-0.204,0.127l-0.195,0.118l-0.182,0.107l-0.21,0.121l-0.2,0.11l-0.2,0.108l-0.208,0.108l-0.205,0.104l-0.209,0.102l-0.208,0.099l-0.213,0.097l-0.206,0.091l-0.223,0.095l-0.22,0.091l-0.211,0.083l-0.218,0.083l-0.226,0.082l-0.227,0.08l-0.224,0.074l-0.221,0.071l-0.22,0.067l-0.238,0.069l-0.234,0.065l-0.22,0.057l-0.237,0.059l-0.236,0.054l-0.229,0.05l-0.243,0.05l-0.234,0.044l-0.23,0.04l-0.243,0.04l-0.247,0.036l-0.235,0.031l-0.239,0.028l-0.243,0.026l-0.243,0.022l-0.248,0.019l-0.243,0.015l-0.242,0.012l-0.243,0.008l-0.246,0.006l-0.212,0.001l-73.763,0l-0.212,-0.001l-0.246,-0.006l-0.243,-0.008l-0.242,-0.012l-0.243,-0.015l-0.248,-0.019l-0.243,-0.022l-0.243,-0.026l-0.239,-0.028l-0.235,-0.031l-0.247,-0.036l-0.242,-0.04l-0.231,-0.04l-0.234,-0.044l-0.243,-0.05l-0.229,-0.05l-0.236,-0.054l-0.237,-0.059l-0.22,-0.057l-0.234,-0.065l-0.238,-0.069l-0.22,-0.067l-0.221,-0.071l-0.224,-0.074l-0.227,-0.08l-0.226,-0.082l-0.218,-0.083l-0.211,-0.083l-0.22,-0.091l-0.223,-0.095l-0.206,-0.091l-0.213,-0.097l-0.208,-0.099l-0.209,-0.102l-0.205,-0.104l-0.208,-0.108l-0.2,-0.108l-0.2,-0.11l-0.21,-0.121l-0.182,-0.107l-0.195,-0.118l-0.204,-0.127l-0.188,-0.121l-0.201,-0.132l-0.182,-0.124l-0.184,-0.127l-0.192,-0.138l-0.178,-0.131l-0.175,-0.132l-0.171,-0.132l-0.185,-0.146l-0.182,-0.148l-0.165,-0.138l-0.162,-0.138l-0.177,-0.154l-0.172,-0.155l-0.169,-0.155l-0.152,-0.143l-0.152,-0.147l-0.178,-0.175l-0.16,-0.163l-0.142,-0.148l-0.141,-0.148l-0.155,-0.168l-0.164,-0.183l-0.148,-0.17l-0.131,-0.152l-0.143,-0.171l-0.141,-0.173l-0.139,-0.174l-0.134,-0.173l-0.134,-0.175l-0.144,-0.196l-0.113,-0.157l-0.128,-0.179l-0.136,-0.199l-0.121,-0.18l-0.117,-0.179l-0.116,-0.183l-0.113,-0.181l-0.125,-0.204l-0.107,-0.184l-0.107,-0.184l-0.115,-0.206l-0.101,-0.185l-0.11,-0.209l-0.096,-0.186l-0.094,-0.188l-0.103,-0.21l-0.099,-0.21l-0.086,-0.189l-0.084,-0.188l-0.092,-0.213l-0.089,-0.213l-0.086,-0.214l-0.075,-0.19l-0.081,-0.215l-0.078,-0.215l-0.067,-0.191l-0.074,-0.216l-0.079,-0.241l-0.059,-0.191l-0.059,-0.192l-0.07,-0.242l-0.06,-0.218l-0.057,-0.218l-0.055,-0.217l-0.052,-0.218l-0.049,-0.218l-0.047,-0.218l-0.045,-0.218l-0.042,-0.219l-0.039,-0.218l-0.037,-0.218l-0.038,-0.244l-0.031,-0.219l-0.03,-0.218l-0.029,-0.244l-0.024,-0.218l-0.021,-0.218l-0.019,-0.217l-0.019,-0.244l-0.015,-0.244l-0.011,-0.216l-0.009,-0.217l-0.007,-0.243l-0.003,-0.216l-0.002,-0.19l0,-20.154l20.8,0l0,18.296Z" style="fill:#404547;"/><path d="M91.872,41.953l-26.867,-32.953l-26.876,32.953l16.486,0l0,30.384c-0.006,2.057 0.72,3.801 2.16,5.292c1.424,1.471 3.222,2.227 5.344,2.224l5.758,0.004c2.119,-0.004 3.916,-0.718 5.344,-2.196c1.444,-1.425 2.163,-3.216 2.165,-5.327l0,-30.38l16.486,0l0,-0.001Z" style="fill:#1ca037;fill-rule:nonzero;"/></svg>