<?xml version="1.0" encoding="UTF-8" standalone="no"?><!DOCTYPE svg PUBLIC "-//W3C//DTD SVG 1.1//EN" "http://www.w3.org/Graphics/SVG/1.1/DTD/svg11.dtd"><svg width="100%" height="100%" viewBox="0 0 128 128" version="1.1" xmlns="http://www.w3.org/2000/svg" xmlns:xlink="http://www.w3.org/1999/xlink" xml:space="preserve" style="fill-rule:evenodd;clip-rule:evenodd;stroke-linejoin:round;stroke-miterlimit:1.41421;"><rect id="urlcatcher" x="0" y="0" width="128" height="128" style="fill:none;"/><path d="M110.405,30.915l-45.547,0l0,-6.016c0,-4.746 -3.847,-8.594 -8.594,-8.594l-38.671,0c-4.746,0.001 -8.594,3.848 -8.594,8.594l0,78.202c0,4.746 3.848,8.594 8.594,8.594l92.813,0c4.747,0 8.594,-3.848 8.594,-8.594l0,-57.577l0,-0.859l0,-5.156c-0.001,-4.746 -3.848,-8.594 -8.595,-8.594Z" style="fill:#afa201;fill-rule:nonzero;"/><path d="M63.999,36.501c-19.299,0 -35,15.7 -35,34.999c0,19.3 15.701,35.002 35,35.002c19.299,0 35,-15.702 35,-35.002c0,-19.299 -15.701,-34.999 -35,-34.999Z" style="fill:#fff;fill-rule:nonzero;"/><path d="M88.999,71.499c0,13.808 -11.194,25.002 -25,25.002c-13.81,0 -25,-11.194 -25,-25.002c0,-13.801 11.19,-24.998 25,-24.998c13.806,0 25,11.197 25,24.998Z" style="fill:#426180;fill-rule:nonzero;"/><path d="M60.95,77.492c0.067,-0.795 0.992,-0.393 0.983,-0.31c0.101,-0.985 -1.229,-0.266 -1.851,-0.688c-1.021,-0.693 0.035,-1.521 -0.493,-2.306c-0.423,-0.627 -1.603,-0.283 -2.157,-0.445c0.341,-0.504 1.435,-2.757 0.019,-2.271c-1.195,0.41 -0.934,2.012 -2.606,0.996c-0.944,-0.573 -0.922,-3.295 -0.385,-3.946c0.835,-1.015 1.887,-0.543 2.881,-0.421c0.027,-0.908 1.939,-0.558 2.206,-0.29c0.438,0.439 0.569,1.902 1.176,2.127c0.492,0.181 0.202,-0.935 0.169,-1.095c-0.236,-1.143 -0.373,-1.617 0.457,-2.422c1.081,-1.049 1.714,-0.84 1.074,-2.285c0.093,-0.049 0.186,-0.098 0.279,-0.146c0.078,0.111 0.155,0.222 0.233,0.333c0.6,-0.937 0.733,-1.498 1.953,-1.596c-0.496,-1.121 1.604,-1.968 2.469,-1.685c-0.011,0.013 -1.532,0.351 -0.762,0.688c0.188,0.082 0.447,-0.251 0.663,-0.316c0.623,-0.189 1.183,-0.456 1.322,-1.104c-0.757,0.8 -2.281,-0.139 -1.775,-0.527c0.558,-0.429 -0.263,-0.553 -0.614,-0.453c-0.685,0.195 -1.182,0.758 -1.729,1.187c0.144,-0.277 0.343,-0.52 0.586,-0.716l-0.428,-0.101c0.764,0 1.037,-0.771 1.694,-0.903c0.726,0 1.038,0.149 1.525,0.008c-0.011,-0.001 -0.019,-0.008 -0.028,-0.011c0.757,-0.026 1.005,-0.59 1.759,-0.7c0.152,0.517 -0.459,0.722 -0.577,1.167c-0.222,0.258 1.423,0.64 1.83,0.806c0.61,-0.848 -0.42,-1.233 -1.091,-1.434c0.029,-0.121 0.411,-0.796 -0.038,-0.651c-0.031,-0.813 -0.887,-0.907 -1.622,-0.57c0.199,-0.224 0.595,-0.503 0.939,-0.607c-0.611,-0.037 -1.2,-0.321 -1.589,-0.799c0.112,-0.448 -0.683,-1.045 -1.028,-1.626l-0.085,0.135l-0.825,-0.918c0.118,0.026 0.244,0.072 0.354,0.127c-0.17,-0.229 -0.508,-0.596 -0.794,-0.854c0.385,0.183 0.765,0.377 1.139,0.583c-0.032,-0.74 -0.341,-1.002 -1.053,-1.514c0.069,-0.082 0.146,-0.155 0.231,-0.22c0.286,0.307 0.706,0.475 1.013,0.684c0.842,-0.916 -0.26,-1.236 -1.267,-1.499c-0.041,-0.331 0.05,-0.142 0.262,-0.297c-0.189,-0.03 -0.386,-0.078 -0.128,-0.181c-0.306,-0.315 -0.552,-0.444 -1,-0.522l0.134,-0.1c-0.641,-0.23 -1.071,-0.642 -1.783,-0.28c0.33,-0.958 -0.887,-0.558 -0.725,0.257c-0.399,-0.323 -0.115,-0.54 0.258,-0.882c-0.58,0 -1.013,0.286 -1.224,0.857c0.192,-0.007 0.33,0.035 0.349,0.207c-0.14,0.017 -0.219,-0.051 -0.367,0.01c0.221,0.152 0.469,0.272 0.798,0.364c-0.211,0.307 -0.447,0.711 -0.859,1.079c0.012,-0.179 -0.159,-0.587 -0.14,-0.794c-0.098,0.065 -0.196,0.13 -0.294,0.195c-0.451,-1.778 -0.413,-0.795 -1.117,0c0.168,-0.001 0.324,-0.051 0.464,-0.146c-0.167,0.342 -0.502,0.396 -0.708,0.741c-0.179,-0.135 -0.158,-0.269 0.025,-0.399c-0.049,0 -0.098,0 -0.146,0c0.225,-0.276 0.468,-0.361 0.146,-0.684c-0.699,1.403 -1.964,-0.203 -2.74,1.245c0.157,-0.613 -0.294,-0.707 -0.93,-0.61c0.13,-0.08 0.195,-0.177 0.374,-0.195c-0.322,-0.443 -0.633,-0.699 -1.196,-0.5l0.219,-0.289c-0.126,0.132 -0.301,0.217 -0.451,0.195c0.092,-0.109 0.185,-0.218 0.277,-0.328c-0.367,0.14 -0.993,0.378 -1.486,0.49c0.354,-0.143 0.704,-0.283 1.057,-0.423c-0.53,0.079 -1.501,0.561 -1.422,0.059l-0.206,-0.052c0.138,-0.218 -0.016,-0.197 -0.201,-0.135l0.089,-0.116c-1.45,-0.247 -4.105,2.249 -5.261,3.355c0.11,0.025 0.22,0.05 0.33,0.075c-0.289,0.195 -0.584,0.524 -0.891,0.75c0.417,-0.17 0.879,-0.398 1.184,-0.582c0.019,0.702 0.35,0.5 0.367,1.359c0.344,-0.077 -0.038,1.596 -0.207,2.039c-0.366,0.958 0.854,1.743 0.353,2.909c-0.112,-0.467 -0.162,-0.885 -0.148,-1.261c-0.198,0 -0.308,-0.243 -0.547,-0.292c0.749,2.516 -1.794,4.63 -0.551,7.279c0.708,0.075 1.591,2.676 1.282,2.939c-0.213,0.183 1.21,2.063 1.316,2.464c0.207,-0.335 -1.306,-4.033 -1.063,-4.047c0.358,-0.019 2.409,4.148 2.801,4.783c-0.985,0.896 2.747,2.232 3.337,2.428c0.466,0.154 0.894,0.314 1.555,0.732c0.703,0 1.022,0.552 1.416,0.378c0.264,0.156 1.049,1.569 1.178,1.514c0.249,-0.114 1.691,0.8 2.063,1Z" style="fill:#fff;fill-rule:nonzero;"/><path d="M77.994,81.98c-0.569,0 -0.938,-0.797 -1.428,-0.628c-0.345,0.01 -1.305,0.162 -1.55,0.004c0.031,-0.083 0.031,-0.083 0.243,-0.22c-1.134,-0.8 -1.078,-0.146 -1.855,-0.146c0.021,-0.259 0.123,-0.341 0.33,-0.461c-0.367,-0.757 -0.852,0.161 -1.136,0.119c0.039,-0.483 0.712,-0.617 0.471,-1.123c-0.395,0 -0.104,-0.791 -0.623,-1.044c-0.696,-0.339 -0.957,-0.357 -1.675,-0.406c-1.131,-0.194 -1.447,-1.257 -2.443,-1.409c-0.045,-0.349 -0.076,-0.21 0.175,-0.412c-0.459,-0.634 -1.171,0.458 -1.594,0.106c-0.354,-0.296 -1.12,-0.434 -1.521,-0.644c-0.834,-0.437 -0.772,0.843 -0.906,1.185c-0.542,-0.307 -0.179,-1.151 0.136,-1.429c-0.823,-0.02 -2.66,0.94 -2.94,2.148c1.272,1.156 -2.019,3.461 -0.688,3.613c0.017,0.43 -0.515,0.564 -0.484,1.185c0.026,0.554 1.655,2.414 2.013,2.927c0.484,0.695 0.637,0.573 1.291,1.035c1.024,0.724 0.637,0.754 0.833,1.763c0,0.877 -0.241,1.79 -0.62,2.604c0,1.064 -0.836,2.563 -0.601,3.406c0.072,0.054 0.154,0.07 0.244,0.048c0.093,-0.238 -0.114,-0.356 0.22,-0.356c0,0.223 -0.162,0.57 -0.201,0.842c-0.236,-0.057 -0.051,-0.207 -0.229,-0.207c0.071,0.123 0.125,0.253 0.161,0.391c-0.655,-0.439 0.016,0.361 0.025,0.409c-0.333,0.026 -0.407,0.347 -0.098,0.551l-0.063,0.017c0.229,0.314 0.953,0.936 1.406,0.548c-0.934,-0.19 0.037,-1.08 0.403,-1.263c0.013,-0.045 -0.766,-0.438 -0.135,-0.506c0.172,0 0.727,-0.501 0.849,-0.657c0.038,-0.16 -0.282,-0.026 -0.277,-0.026c0,-0.114 0,-0.228 0,-0.342c0.745,0 0.694,-0.344 1.432,-0.556c1.3,0 0.931,-0.604 0.791,-1.179c0.178,-0.002 3.02,-0.507 2.478,-1.049c-0.042,0.049 -0.094,0.115 -0.124,0.178c1.366,-0.079 1.057,-2.326 2.623,-2.326c1.11,-0.434 1.705,-0.51 2.411,-1.64c0.588,-0.941 0.743,-1.895 1.601,-2.616c0.322,-0.272 2.072,-1.969 1.055,-2.434c-0.122,0 0.113,0.052 0,0Z" style="fill:#fff;fill-rule:nonzero;"/></svg>