<?xml version="1.0" encoding="UTF-8" standalone="no"?><!DOCTYPE svg PUBLIC "-//W3C//DTD SVG 1.1//EN" "http://www.w3.org/Graphics/SVG/1.1/DTD/svg11.dtd"><svg width="100%" height="100%" viewBox="0 0 128 128" version="1.1" xmlns="http://www.w3.org/2000/svg" xmlns:xlink="http://www.w3.org/1999/xlink" xml:space="preserve" style="fill-rule:evenodd;clip-rule:evenodd;stroke-linejoin:round;stroke-miterlimit:1.41421;"><rect id="user.-account" x="0" y="0" width="128" height="128" style="fill:none;"/><path d="M59.518,85.647c-0.001,-1.46 0.762,-2.482 1.137,-3.627c0.46,-1.408 1.117,-2.75 1.712,-4.115c0.25,-0.565 0.06,-0.928 -0.43,-1.215c-1,-0.583 -1.545,-1.585 -2.232,-2.443c-0.359,-0.479 -0.333,-1.151 0.062,-1.602c1.033,-1.223 2.3,-1.95 3.98,-1.75c0.621,0.051 1.243,0.066 1.865,0.045c1.526,0 2.41,0.97 3.195,2.085c0.303,0.43 0.033,0.795 -0.215,1.132c-0.544,0.738 -1.064,1.52 -1.822,2.043c-0.912,0.63 -0.918,1.337 -0.522,2.262c0.835,1.948 1.575,3.935 2.41,5.883c0.372,0.867 0.287,1.56 -0.32,2.292c-0.993,1.179 -2.107,2.249 -3.323,3.195c-0.532,0.423 -0.983,0.473 -1.553,0.03c-1.267,-1.001 -2.45,-2.105 -3.537,-3.3c-0.317,-0.352 -0.425,-0.675 -0.407,-0.915Z" style="fill:#fefefe;fill-rule:nonzero;"/><path d="M47.68,54.538c1.722,3.279 3.5,6.524 6.078,9.249c5.814,6.1 14.232,6.225 20.177,0.25c1.743,-1.753 3.225,-3.749 4.4,-5.925c0.89,-1.637 1.808,-3.25 2.71,-4.887c0.353,-0.53 0.69,-1.068 1.058,-1.588c1.465,-2.082 2.052,-4.365 1.605,-6.895c-0.151,-0.845 -0.478,-1.6 -1.326,-1.885c-0.847,-0.285 -0.89,-0.77 -0.797,-1.557c0.31,-2.573 0.55,-5.15 0.37,-7.75c-0.385,-5.645 -3.015,-9.838 -8,-12.478c-3.358,-1.775 -7,-2.452 -10.8,-2.35c-4.75,0.125 -9,1.575 -12.563,4.733c-2.73,2.417 -4.2,5.5 -4.5,9.172c-0.25,2.95 -0.027,5.87 0.303,8.793c0.082,0.725 -0.033,1.185 -0.825,1.46c-0.793,0.275 -1.153,0.97 -1.285,1.778c-0.43,2.592 -0.108,5 1.645,7.102c0.697,0.837 1.455,1.667 1.75,2.777Zm-1.063,-8.695c0.025,-0.802 0.225,-1.582 1.105,-1.817c0.843,-0.228 1.173,0.48 1.55,1.052c0.15,0.228 0.165,0.588 0.665,0.665c0.013,-1.68 -0.442,-3.265 -0.715,-4.855c-0.915,-5.327 1.873,-8.427 5.175,-10.064c1.15,-0.57 2.138,-0.443 3.12,0.52c4.263,4.172 9.553,6.107 15.358,6.835c1.605,0.202 3.22,0.367 4.835,0.442c1,0.045 1.25,0.5 1.12,1.383c-0.278,1.925 -0.5,3.857 -1,5.827c0.775,-0.05 0.75,-0.697 1.035,-1.052c0.342,-0.433 0.605,-1 1.285,-0.858c0.72,0.145 1.075,0.693 1.17,1.367c0.227,1.62 -0.013,3.251 -1,4.501c-1.408,1.8 -2.385,3.812 -3.41,5.815c-1.108,2.042 -2.073,4.165 -3.583,5.967c-2.289,2.792 -5.716,4.414 -9.327,4.414c-3.7,0 -7.202,-1.703 -9.488,-4.614c-1.346,-1.69 -2.47,-3.545 -3.345,-5.52c-1.097,-2.23 -2.212,-4.438 -3.702,-6.457c-0.745,-0.988 -0.893,-2.29 -0.848,-3.548l0,-0.002Z" style="fill:none;"/><path d="M66.585,76.25c0.775,-0.535 1.307,-1.338 1.865,-2.09c0.25,-0.345 0.532,-0.72 0.22,-1.16c-0.803,-1.142 -1.71,-2.14 -3.27,-2.135c-0.637,0.022 -1.275,0.007 -1.91,-0.045c-1.723,-0.198 -3.018,0.547 -4.075,1.8c-0.405,0.461 -0.432,1.149 -0.065,1.64c0.705,0.877 1.27,1.905 2.285,2.5c0.5,0.295 0.692,0.665 0.44,1.25c-0.61,1.395 -1.283,2.772 -1.75,4.213c-0.385,1.172 -1.168,2.22 -1.168,3.712c-0.03,0.25 0.093,0.575 0.423,0.933c1.112,1.224 2.323,2.355 3.62,3.382c0.583,0.453 1.045,0.403 1.59,-0.03c1.244,-0.969 2.383,-2.065 3.4,-3.27c0.62,-0.75 0.707,-1.46 0.325,-2.347c-0.855,-2.001 -1.612,-4.028 -2.465,-6.023c-0.405,-0.95 -0.4,-1.675 0.535,-2.33Z" style="fill:none;"/><path d="M93.658,76.64c-5.201,-2.365 -10.781,-3.555 -16.156,-5.377c-0.635,-0.216 -1.04,-0.083 -0.982,0.764c0.095,1.445 0.227,2.918 -0.135,4.333c-1.75,6.873 -5.938,12.052 -11.485,16.25c-0.75,0.563 -1.413,0.325 -2.093,-0.18c-2.106,-1.526 -3.994,-3.334 -5.61,-5.373c-3.457,-4.439 -6.467,-9.06 -5.75,-15.092c0.105,-0.865 -0.337,-0.915 -0.982,-0.725c-5.405,1.625 -10.89,3 -16.065,5.338c-3.65,1.672 -5.9,4.437 -7.038,8.265c-0.835,2.805 -0.667,5.65 -0.665,8.5c0,3.34 1.363,4.75 4.678,4.932c0.34,0.02 0.682,0 1.022,0l63.585,0c2.816,0 4.873,-1.77 5.21,-4.575c0.225,-2.123 0.188,-4.266 -0.11,-6.38c-0.602,-4.847 -2.784,-8.57 -7.424,-10.68Z" style="fill:none;"/><path d="M124.895,53.035c-0.433,-4.028 -1.795,-7.815 -3.213,-11.553c-3.96,-10.422 -10.585,-18.922 -19.182,-25.94c-2.525,-2.051 -5.229,-3.873 -8.077,-5.444c-13.201,-7.323 -27.328,-9.908 -42.088,-6.813c-23.155,4.85 -38.835,18.685 -47.018,40.913c-1.25,3.419 -2.2,6.952 -2.5,10.619c-0.763,4.496 -0.967,9.068 -0.607,13.613c2.257,32.252 29.42,57.582 61.752,57.582c4.746,0 9.476,-0.546 14.098,-1.627c27.9,-6.458 47.857,-31.565 47.87,-60.173c0.015,-3.765 -0.483,-7.462 -1.035,-11.177Zm-80.615,-8.38c0.132,-0.807 0.5,-1.513 1.285,-1.778c0.785,-0.265 0.905,-0.735 0.825,-1.46c-0.33,-2.922 -0.55,-5.842 -0.303,-8.792c0.308,-3.67 1.775,-6.75 4.5,-9.173c3.568,-3.157 7.82,-4.607 12.563,-4.732c3.8,-0.102 7.442,0.573 10.8,2.35c4.98,2.637 7.61,6.83 8,12.477c0.18,2.608 -0.063,5.186 -0.37,7.751c-0.093,0.787 -0.048,1.272 0.797,1.557c0.845,0.285 1.175,1.042 1.325,1.885c0.448,2.528 -0.14,4.813 -1.605,6.895c-0.365,0.52 -0.705,1.057 -1.057,1.587c-0.903,1.63 -1.82,3.25 -2.71,4.888c-1.175,2.176 -2.657,4.171 -4.4,5.925c-5.93,5.965 -14.358,5.847 -20.18,-0.252c-2.59,-2.718 -4.355,-5.963 -6.078,-9.25c-0.295,-1.11 -1.052,-1.94 -1.75,-2.783c-1.75,-2.097 -2.072,-4.5 -1.642,-7.095Zm21.773,33.923c0.852,1.999 1.61,4.027 2.465,6.022c0.382,0.887 0.295,1.595 -0.325,2.347c-1.017,1.206 -2.157,2.301 -3.4,3.27c-0.545,0.433 -1,0.483 -1.59,0.03c-1.298,-1.024 -2.509,-2.153 -3.623,-3.375c-0.33,-0.355 -0.452,-0.685 -0.422,-0.932c0,-1.5 0.782,-2.543 1.167,-3.713c0.47,-1.44 1.145,-2.817 1.75,-4.212c0.25,-0.578 0.063,-0.95 -0.44,-1.25c-1.015,-0.598 -1.583,-1.623 -2.285,-2.5c-0.367,-0.491 -0.34,-1.179 0.065,-1.64c1.057,-1.25 2.352,-2 4.075,-1.8c0.635,0.052 1.273,0.067 1.91,0.045c1.56,0 2.468,1 3.27,2.135c0.313,0.44 0.035,0.815 -0.22,1.16c-0.558,0.75 -1.09,1.555 -1.865,2.09c-0.935,0.65 -0.94,1.375 -0.532,2.322l0,0Zm35.142,15.12c-0.337,2.805 -2.395,4.575 -5.21,4.575c-10.703,0 -21.407,0 -32.11,0l-31.475,0c-0.34,0 -0.683,0.015 -1.023,0c-3.317,-0.19 -4.672,-1.592 -4.677,-4.932c0,-2.845 -0.17,-5.693 0.665,-8.5c1.14,-3.825 3.382,-6.603 7.047,-8.25c5.175,-2.335 10.66,-3.713 16.065,-5.338c0.645,-0.192 1.088,-0.14 0.983,0.725c-0.73,6.033 2.28,10.653 5.75,15.093c1.616,2.039 3.503,3.846 5.61,5.372c0.68,0.5 1.347,0.75 2.092,0.18c5.548,-4.202 9.728,-9.382 11.485,-16.25c0.363,-1.415 0.23,-2.887 0.135,-4.332c-0.057,-0.848 0.348,-0.98 0.983,-0.765c5.375,1.822 10.952,3 16.155,5.377c4.64,2.113 6.822,5.833 7.427,10.678c0.293,2.111 0.326,4.249 0.098,6.367l0,0Z" style="fill:url(#_Linear1);fill-rule:nonzero;"/><path d="M51.158,55.858c0.873,1.976 1.997,3.831 3.342,5.522c2.285,2.911 5.787,4.614 9.488,4.614c3.611,0 7.037,-1.622 9.327,-4.414c1.5,-1.805 2.475,-3.925 3.582,-5.967c1.023,-2 2.001,-4.015 3.41,-5.815c1.001,-1.268 1.231,-2.888 1.001,-4.5c-0.096,-0.673 -0.451,-1.22 -1.171,-1.368c-0.68,-0.135 -0.942,0.425 -1.284,0.858c-0.28,0.352 -0.25,1 -1.035,1.052c0.5,-1.97 0.732,-3.902 1,-5.827c0.127,-0.88 -0.12,-1.335 -1.12,-1.383c-1.615,-0.075 -3.23,-0.25 -4.835,-0.442c-5.805,-0.73 -11.095,-2.665 -15.358,-6.835c-0.982,-0.963 -1.97,-1.09 -3.12,-0.52c-3.302,1.637 -6.09,4.737 -5.175,10.065c0.273,1.59 0.728,3.175 0.715,4.855c-0.5,-0.078 -0.515,-0.438 -0.665,-0.665c-0.38,-0.57 -0.71,-1.28 -1.55,-1.053c-0.88,0.235 -1.08,1.013 -1.105,1.818c-0.042,1.25 0.103,2.562 0.838,3.557c1.5,2.01 2.617,4.22 3.715,6.447Z" style="fill:url(#_Linear2);fill-rule:nonzero;"/><rect x="0" y="0" width="0.11" height="0.11" style="fill:none;"/><rect x="0" y="127.89" width="0.11" height="0.11" style="fill:none;"/><rect x="127.89" y="127.89" width="0.11" height="0.11" style="fill:none;"/><rect x="127.89" y="0" width="0.11" height="0.11" style="fill:none;"/><defs><linearGradient id="_Linear1" x1="0" y1="0" x2="1" y2="0" gradientUnits="userSpaceOnUse" gradientTransform="matrix(7.56908e-15,123.612,-123.612,7.56908e-15,64,2)"><stop offset="0" style="stop-color:#728dae;stop-opacity:1"/><stop offset="1" style="stop-color:#426080;stop-opacity:1"/></linearGradient><linearGradient id="_Linear2" x1="0" y1="0" x2="1" y2="0" gradientUnits="userSpaceOnUse" gradientTransform="matrix(7.56893e-15,123.61,-123.61,7.56893e-15,64,2.1025)"><stop offset="0" style="stop-color:#728dae;stop-opacity:1"/><stop offset="1" style="stop-color:#426080;stop-opacity:1"/></linearGradient></defs></svg>