<?xml version="1.0" encoding="UTF-8" standalone="no"?><!DOCTYPE svg PUBLIC "-//W3C//DTD SVG 1.1//EN" "http://www.w3.org/Graphics/SVG/1.1/DTD/svg11.dtd"><svg width="100%" height="100%" viewBox="0 0 128 128" version="1.1" xmlns="http://www.w3.org/2000/svg" xmlns:xlink="http://www.w3.org/1999/xlink" xml:space="preserve" style="fill-rule:evenodd;clip-rule:evenodd;stroke-linejoin:round;stroke-miterlimit:1.41421;"><rect id="virtualserver_edit" x="0" y="0" width="128" height="128" style="fill:none;"/><path d="M54.547,110.407l15.05,0c-1.282,-4.162 -1.594,-8.604 -0.896,-13.053l-14.154,0l0,13.053Z" style="fill:none;"/><path d="M54.547,110.407l0,-14.052l-8.594,0l0,14.053l-36.953,0l0,8.593l64.971,0c-1.972,-2.638 -3.433,-5.538 -4.374,-8.594l-15.05,0Z" style="fill:#404547;fill-rule:nonzero;"/><path d="M89.5,19.624c1.104,0 2,0.896 2,2l0,11.439c0,1.104 -0.896,2 -2,2l-28.874,0l34.313,34.049c2.278,-0.565 4.587,-0.863 6.873,-0.904l0,-50.707c0,-4.694 -3.806,-8.5 -8.5,-8.5l-39.286,0c2.401,3.216 4.047,6.823 4.914,10.623l30.56,0Z" style="fill:#878b8c;fill-rule:nonzero;"/><path d="M68.701,97.355c0.136,-0.867 0.297,-1.733 0.51,-2.599l-36.154,-35.877c-2.279,0.567 -4.59,0.866 -6.879,0.908l0,29.067c0,4.694 3.806,8.5 8.5,8.5l34.023,0l0,0.001Z" style="fill:#878b8c;fill-rule:nonzero;"/><path d="M91.5,33.064l0,-11.44c0,-1.104 -0.896,-2 -2,-2l-30.56,0c1.001,4.388 0.972,9.027 -0.156,13.611l1.842,1.828l28.874,0c1.104,0.001 2,-0.895 2,-1.999Z" style="fill:#fff;fill-rule:nonzero;"/><path d="M92.392,80.672l-45.2,-44.852c3.99,-7.731 3.369,-16.634 -3.045,-23c-4.469,-4.434 -21.491,-3.787 -21.491,-3.787l-1.37,4.134l12.197,4.259c0,0 7.902,4.16 -2.16,14.147c-10.063,9.986 -13.59,1.48 -13.59,1.48l-4.371,-12.026l-4.105,1.304c0,0 -1.596,17.248 3.168,21.973c6.411,6.363 15.389,6.979 23.176,3.012l45.204,44.856c-3.992,7.731 -3.37,16.645 3.039,22.999c4.468,4.442 21.499,3.796 21.499,3.796l1.371,-4.134l-12.201,-4.255c0,0 -7.903,-4.167 2.161,-14.151c10.064,-9.989 13.591,-1.481 13.591,-1.481l4.372,12.024l4.112,-1.304c0,0 1.579,-17.249 -3.185,-21.978c-6.406,-6.353 -15.378,-6.975 -23.172,-3.016Z" style="fill:#426180;fill-rule:nonzero;"/></svg>