<?xml version="1.0" encoding="UTF-8" standalone="no"?><!DOCTYPE svg PUBLIC "-//W3C//DTD SVG 1.1//EN" "http://www.w3.org/Graphics/SVG/1.1/DTD/svg11.dtd"><svg width="100%" height="100%" viewBox="0 0 128 128" version="1.1" xmlns="http://www.w3.org/2000/svg" xmlns:xlink="http://www.w3.org/1999/xlink" xml:space="preserve" style="fill-rule:evenodd;clip-rule:evenodd;stroke-linejoin:round;stroke-miterlimit:1.41421;"><rect id="volume" x="0" y="0" width="128" height="128" style="fill:none;"/><g><path d="M81.938,100.918c-1.114,0 -2.229,-0.432 -3.069,-1.291c-1.661,-1.696 -1.632,-4.416 0.063,-6.076c3.875,-3.794 6.906,-8.277 9.009,-13.327c2.134,-5.098 3.215,-10.526 3.215,-16.14c0,-5.622 -1.079,-11.049 -3.208,-16.132c-2.104,-5.062 -5.137,-9.55 -9.017,-13.35c-1.695,-1.66 -1.723,-4.381 -0.063,-6.076c1.66,-1.696 4.381,-1.723 6.076,-0.063c4.709,4.611 8.388,10.055 10.934,16.179c2.567,6.13 3.871,12.674 3.871,19.441c0,6.758 -1.306,13.304 -3.878,19.453c-2.547,6.112 -6.224,11.55 -10.927,16.155c-0.836,0.819 -1.922,1.227 -3.006,1.227Z" style="fill:#426180;fill-rule:nonzero;"/><path d="M95.559,114.516c-1.108,0 -2.217,-0.426 -3.057,-1.277c-1.668,-1.688 -1.651,-4.408 0.037,-6.075c5.615,-5.55 10.042,-12.104 13.155,-19.479c3.128,-7.388 4.712,-15.326 4.712,-23.6c0,-8.284 -1.584,-16.224 -4.708,-23.601c-3.124,-7.396 -7.552,-13.992 -13.162,-19.608c-1.678,-1.679 -1.676,-4.399 0.003,-6.077c1.68,-1.678 4.399,-1.676 6.077,0.003c6.397,6.403 11.442,13.918 14.998,22.335c3.574,8.437 5.386,17.505 5.386,26.946c0,9.431 -1.813,18.498 -5.39,26.947c-3.553,8.416 -8.61,15.901 -15.032,22.245c-0.837,0.829 -1.929,1.241 -3.019,1.241Z" style="fill:#426180;fill-rule:nonzero;"/></g><path d="M67.426,9l-28.197,29.662l0,50.657l28.2,29.681l-0.003,-110Z" style="fill:#404547;fill-rule:nonzero;"/><path d="M17.467,38.662c-2.386,0 -4.39,0.843 -6.017,2.515c-1.637,1.673 -2.45,3.659 -2.45,5.953l0,33.723c0,2.287 0.813,4.281 2.45,5.943c1.627,1.682 3.63,2.523 6.017,2.523l13.168,0l0,-50.657l-13.168,0Z" style="fill:#404547;fill-rule:nonzero;"/></svg>