<?xml version="1.0" encoding="UTF-8" standalone="no"?><!DOCTYPE svg PUBLIC "-//W3C//DTD SVG 1.1//EN" "http://www.w3.org/Graphics/SVG/1.1/DTD/svg11.dtd"><svg width="100%" height="100%" viewBox="0 0 128 128" version="1.1" xmlns="http://www.w3.org/2000/svg" xmlns:xlink="http://www.w3.org/1999/xlink" xml:space="preserve" style="fill-rule:evenodd;clip-rule:evenodd;stroke-linejoin:round;stroke-miterlimit:1.41421;"><rect id="warning_error" x="0" y="0" width="128" height="128" style="fill:none;"/><path d="M63.53,118.12c-16.62,0 -33.23,0 -49.85,0c-9.88,0 -13.38,-6 -8.49,-14.43c16.833,-29.213 33.69,-58.41 50.57,-87.59c4.78,-8.25 11.58,-8.32 16.32,-0.1c17,29.333 33.96,58.667 50.88,88c4.67,8.1 1.07,14.08 -8.48,14.11c-16.98,0.05 -33.97,0.01 -50.95,0.01Zm-7.93,-59c0,2.76 0,5.52 0,8.28c0,10.92 0.12,10.9 11.1,10.61c4.34,-0.12 5.84,-2 5.72,-6.1c-0.18,-6.44 0,-12.88 0,-19.33c0,-11.55 0,-11.43 -11.67,-11c-3.87,0.13 -5.25,1.76 -5.13,5.41c0.08,4.01 -0.02,8.07 -0.02,12.12l0,0.01Zm8.2,42.6c8.47,0 8.58,-0.1 8.58,-8.11c0,-8.36 0,-8.39 -7.64,-8.4c-9.13,0 -9.13,0 -9.14,8c-0.01,8.35 0.13,8.49 8.2,8.5l0,0.01Z" style="fill:#c90709;fill-rule:nonzero;"/><rect x="0" y="0" width="0.44" height="0.44" style="fill:none;"/><rect x="127.56" y="0" width="0.44" height="0.44" style="fill:none;"/><rect x="0" y="127.56" width="0.44" height="0.44" style="fill:none;"/><rect x="127.56" y="127.56" width="0.44" height="0.44" style="fill:none;"/></svg>