<?xml version="1.0" encoding="UTF-8" standalone="no"?><!DOCTYPE svg PUBLIC "-//W3C//DTD SVG 1.1//EN" "http://www.w3.org/Graphics/SVG/1.1/DTD/svg11.dtd"><svg width="100%" height="100%" viewBox="0 0 128 128" version="1.1" xmlns="http://www.w3.org/2000/svg" xmlns:xlink="http://www.w3.org/1999/xlink" xml:space="preserve" style="fill-rule:evenodd;clip-rule:evenodd;stroke-linejoin:round;stroke-miterlimit:1.41421;"><rect id="warning_external_link" x="0" y="0" width="128" height="128" style="fill:none;"/><path d="M64,3c-33.464,0 -61,27.536 -61,61c0,33.464 27.536,61 61,61c33.464,0 61,-27.536 61,-61c0,-33.464 -27.536,-61 -61,-61Zm1.11,108.12c-13.67,0 -14,-0.35 -14,-14.14c0,-1.68 0,-3.36 0.09,-5c0.3,-3.53 2.24,-5.51 5.82,-5.64c2.34,-0.09 4.69,0 7,0c12.77,0 12.77,0 12.8,12.93c0.09,10.54 -1.19,11.83 -11.71,11.85Zm11.54,-44.12c-0.05,3.72 -2.26,5.86 -6.13,5.91c-4,0 -8.06,0.12 -12.09,0c-5.52,-0.13 -7.24,-1.81 -7.31,-7.28c-0.12,-6.83 -0.26,-13.72 -0.26,-20.63c0,-7.05 -0.08,-14.11 0,-21.16c0.14,-5.24 2.14,-7.2 7.41,-7.36c3.86,-0.11 7.72,0 11.59,0c4.55,0 7,2.4 7.05,6.76c0.06,14.587 -0.027,29.173 -0.26,43.76Z" style="fill:#c9070a;fill-rule:nonzero;"/><path d="M65,111.12c10.53,0 11.8,-1.31 11.77,-11.9c0,-13 0,-13 -12.8,-12.93c-2.35,0 -4.7,-0.07 -7,0c-3.59,0.13 -5.53,2.11 -5.82,5.64c-0.14,1.67 -0.09,3.35 -0.09,5c-0.06,13.84 0.31,14.21 13.94,14.19Z" style="fill:#fff;fill-rule:nonzero;"/><path d="M64,47.06c-26.24,0 -47.51,16.68 -47.51,37.26c0,20.58 21.27,37.25 47.51,37.25c26.24,0 47.51,-16.68 47.51,-37.26c0,-20.58 -21.27,-37.25 -47.51,-37.25Zm1.11,64.06c-13.67,0 -14,-0.35 -14,-14.14c0,-1.68 0,-3.36 0.09,-5c0.3,-3.53 2.24,-5.51 5.82,-5.64c2.34,-0.09 4.69,0 7,0c12.77,0 12.77,0 12.8,12.93c0.09,10.54 -1.19,11.83 -11.71,11.85Z" style="fill:url(#_Linear1);fill-rule:nonzero;"/><path d="M64,8.62c-26.24,0 -47.51,16.93 -47.51,37.82c0,20.89 21.27,37.81 47.51,37.81c26.24,0 47.51,-16.93 47.51,-37.82c0,-20.89 -21.27,-37.81 -47.51,-37.81Zm12.86,58.38c-0.05,3.72 -2.26,5.86 -6.13,5.91c-4,0 -8.06,0.12 -12.09,0c-5.52,-0.13 -7.24,-1.81 -7.31,-7.28c-0.09,-6.88 -0.26,-13.77 -0.26,-20.65c0,-7.05 -0.08,-14.11 0,-21.16c0.08,-5.27 2.07,-7.23 7.38,-7.39c3.86,-0.11 7.72,0 11.59,0c4.55,0 7,2.4 7.05,6.76c0.08,14.62 0.003,29.223 -0.23,43.81Z" style="fill:url(#_Linear2);fill-rule:nonzero;"/><rect x="0" y="0" width="0.44" height="0.44" style="fill:none;"/><rect x="127.56" y="0" width="0.44" height="0.44" style="fill:none;"/><rect x="127.56" y="127.56" width="0.44" height="0.44" style="fill:none;"/><rect x="0" y="127.56" width="0.44" height="0.44" style="fill:none;"/><defs><linearGradient id="_Linear1" x1="0" y1="0" x2="1" y2="0" gradientUnits="userSpaceOnUse" gradientTransform="matrix(4.52936e-15,73.97,-73.97,4.52936e-15,64,73.27)"><stop offset="0" style="stop-color:#fff;stop-opacity:0"/><stop offset="0.24" style="stop-color:#fff;stop-opacity:0"/><stop offset="1" style="stop-color:#fff;stop-opacity:0.6"/></linearGradient><linearGradient id="_Linear2" x1="0" y1="0" x2="1" y2="0" gradientUnits="userSpaceOnUse" gradientTransform="matrix(4.59732e-15,-75.08,75.08,4.59732e-15,64,71.13)"><stop offset="0" style="stop-color:#fff;stop-opacity:0"/><stop offset="0.06" style="stop-color:#fff;stop-opacity:0"/><stop offset="0.67" style="stop-color:#fff;stop-opacity:0.678431"/><stop offset="0.9" style="stop-color:#fff;stop-opacity:1"/><stop offset="1" style="stop-color:#fff;stop-opacity:1"/></linearGradient></defs></svg>