<?xml version="1.0" encoding="UTF-8" standalone="no"?>
<!DOCTYPE svg PUBLIC "-//W3C//DTD SVG 1.1//EN" "http://www.w3.org/Graphics/SVG/1.1/DTD/svg11.dtd">
<svg width="100%" height="100%" viewBox="0 0 128 128" version="1.1" xmlns="http://www.w3.org/2000/svg" xmlns:xlink="http://www.w3.org/1999/xlink" xml:space="preserve" style="fill-rule:evenodd;clip-rule:evenodd;stroke-linejoin:round;stroke-miterlimit:1.41421;">
    <g transform="matrix(1,0,0,1,-5376,0)">
        <g id="weblist" transform="matrix(1,0,0,1,5376,0)">
            <rect x="0" y="0" width="128" height="128" style="fill:none;"/>
            <path d="M122,89.498C122,107.451 107.451,122 89.5,122C71.549,122 57,107.451 57,89.498C57,71.546 71.549,56.999 89.5,56.999C107.451,56.999 122,71.546 122,89.498Z" style="fill:rgb(66,97,128);fill-rule:nonzero;"/>
            <path d="M53.466,112.001L20.999,112.001C18.237,112.001 15.999,109.763 15.999,107.001L15.999,20.999C15.999,18.237 18.237,15.999 20.999,15.999L93.486,15.999C96.248,15.999 98.486,18.237 98.486,20.999L98.486,47.971C102,48.731 105.351,49.928 108.485,51.5L108.485,20.999C108.485,12.728 101.757,6 93.486,6L20.999,6C12.728,6 6,12.728 6,20.999L6,107.001C6,115.271 12.728,122 20.999,122L62.152,122C58.764,119.145 55.829,115.77 53.466,112.001Z" style="fill:rgb(66,97,128);fill-rule:nonzero;"/>
            <path d="M86.331,41.5L28.161,41.5C25.4,41.5 23.161,39.261 23.161,36.5C23.161,33.739 25.4,31.5 28.161,31.5L86.331,31.5C89.093,31.5 91.331,33.739 91.331,36.5C91.331,39.261 89.093,41.5 86.331,41.5Z" style="fill:rgb(64,69,71);fill-rule:nonzero;"/>
            <path d="M59.945,59L28.161,59C25.4,59 23.161,61.239 23.161,64C23.161,66.762 25.4,69 28.161,69L52.285,69C54.335,65.293 56.926,61.927 59.945,59Z" style="fill:rgb(64,69,71);fill-rule:nonzero;"/>
            <path d="M47.118,86.5L28.161,86.5C25.4,86.5 23.161,88.738 23.161,91.5C23.161,94.262 25.4,96.5 28.161,96.5L47.587,96.5C47.208,94.221 47,91.884 47,89.498C47,88.489 47.048,87.491 47.118,86.5Z" style="fill:rgb(64,69,71);fill-rule:nonzero;"/>
            <path d="M85.378,87.513C85.378,87.513 88.857,81.871 91.113,80.518C93.369,79.165 101.339,75.406 100.286,73.451C99.233,71.496 91.865,57.962 88.707,58.714C85.549,59.466 77.903,58.943 75.022,60.368C70.19,62.76 67.045,65.989 67.045,65.989C67.045,65.989 67.262,73.279 66.961,74.783C66.66,76.287 66.751,83.376 68.405,85.932C70.059,88.488 76.676,93.3 78.48,93.751C80.284,94.202 83.292,96.909 84.194,97.21C85.096,97.511 86.149,98.563 85.848,99.014C85.547,99.465 83.141,102.323 83.893,103.526C84.645,104.729 89.157,110.293 89.157,110.293C89.157,110.293 87.803,119.165 87.954,120.067C88.105,120.969 89.995,121.952 89.995,121.952L91.172,120.223C91.172,120.223 97.879,115.256 99.834,113.903C101.789,112.55 109.759,106.234 108.405,103.527C107.051,100.82 101.939,98.715 99.834,97.663C97.729,96.611 94.571,93.903 92.767,94.054C90.963,94.205 86.679,93.428 85.247,92.7C79.401,89.728 85.378,87.513 85.378,87.513Z" style="fill:white;fill-rule:nonzero;"/>
        </g>
    </g>
</svg>
