<?xml version="1.0" encoding="UTF-8" standalone="no"?>
<!DOCTYPE svg PUBLIC "-//W3C//DTD SVG 1.1//EN" "http://www.w3.org/Graphics/SVG/1.1/DTD/svg11.dtd">
<svg width="100%" height="100%" viewBox="0 0 128 128" version="1.1" xmlns="http://www.w3.org/2000/svg" xmlns:xlink="http://www.w3.org/1999/xlink" xml:space="preserve" style="fill-rule:evenodd;clip-rule:evenodd;stroke-linejoin:round;stroke-miterlimit:1.41421;">
    <g transform="matrix(1,0,0,1,-5376,-160)">
        <g id="whisper" transform="matrix(1,0,0,1,5376,160)">
            <rect x="0" y="0" width="128" height="128" style="fill:none;"/>
            <g transform="matrix(1,0,0,1,0.00299961,0.004)">
                <path d="M75.458,6.496L45.971,37.514L45.971,90.466L75.462,121.496L75.458,6.496Z" style="fill:rgb(64,69,71);fill-rule:nonzero;"/>
            </g>
            <g transform="matrix(1,0,0,1,0.00299961,0.004)">
                <path d="M109.313,49.425C107.4,44.774 104.596,40.647 101.025,37.155C99.646,35.813 97.829,35.067 95.913,35.067C93.903,35.067 92.044,35.856 90.67,37.275C89.284,38.667 88.545,40.525 88.566,42.486C88.592,44.447 89.366,46.279 90.766,47.646C92.915,49.736 94.6,52.231 95.773,55.078C96.963,57.903 97.563,60.934 97.563,64.085C97.563,67.222 96.96,70.269 95.761,73.121C94.599,75.941 92.915,78.423 90.762,80.508C87.887,83.35 87.842,88.007 90.665,90.886C92.045,92.302 93.902,93.096 95.912,93.096C97.824,93.096 99.64,92.353 101.028,91.005C104.595,87.501 107.397,83.389 109.311,78.771C111.253,74.148 112.231,69.199 112.231,64.086C112.232,58.962 111.259,54.026 109.313,49.425Z" style="fill:rgb(129,156,189);fill-rule:nonzero;"/>
            </g>
            <g transform="matrix(1,0,0,1,0.00299961,0.004)">
                <path d="M24.612,37.514C22.12,37.514 20.02,38.387 18.319,40.135C16.613,41.893 15.763,43.968 15.763,46.366L15.763,81.616C15.763,84.005 16.613,86.099 18.319,87.834C20.021,89.595 22.121,90.466 24.612,90.466L38.378,90.466L38.378,37.514L24.612,37.514Z" style="fill:rgb(64,69,71);fill-rule:nonzero;"/>
            </g>
        </g>
    </g>
</svg>
