<?xml version="1.0" encoding="UTF-8" standalone="no"?>
<!DOCTYPE svg PUBLIC "-//W3C//DTD SVG 1.1//EN" "http://www.w3.org/Graphics/SVG/1.1/DTD/svg11.dtd">
<svg width="100%" height="100%" viewBox="0 0 128 128" version="1.1" xmlns="http://www.w3.org/2000/svg" xmlns:xlink="http://www.w3.org/1999/xlink" xml:space="preserve" style="fill-rule:evenodd;clip-rule:evenodd;stroke-linejoin:round;stroke-miterlimit:1.41421;">
    <g transform="matrix(1,0,0,1,-5376,-320)">
        <g id="whisperlists" transform="matrix(1,0,0,1,5376,320)">
            <rect x="0" y="0" width="128" height="128" style="fill:none;"/>
            <g transform="matrix(1,0,0,1,1.5805,-1.1365)">
                <path d="M21,112C18.238,112 16,109.762 16,107L16,20.992C16,18.231 18.238,15.992 21,15.992L93.475,15.992C96.237,15.992 98.475,18.231 98.475,20.992L98.475,33L108.475,33L108.475,20.992C108.475,12.721 101.746,5.992 93.475,5.992L21,5.992C12.729,5.992 6,12.721 6,20.992L6,107C6,115.271 12.729,122 21,122L76.464,122L66.964,112L21,112Z" style="fill:rgb(66,97,128);fill-rule:nonzero;"/>
            </g>
            <g transform="matrix(1,0,0,1,1.5805,-1.1365)">
                <path d="M86.894,32.998C85.987,32.075 84.728,31.5 83.331,31.5L28.161,31.5C25.4,31.5 23.161,33.739 23.161,36.5C23.161,39.261 25.4,41.5 28.161,41.5L78.811,41.5L85.174,34.806L86.894,32.998Z" style="fill:rgb(64,69,71);fill-rule:nonzero;"/>
            </g>
            <g transform="matrix(1,0,0,1,1.5805,-1.1365)">
                <path d="M28.161,59C25.4,59 23.161,61.239 23.161,64C23.161,66.762 25.4,69 28.161,69L39.62,69C39.912,65.215 41.454,61.778 44.123,59L28.161,59Z" style="fill:rgb(64,69,71);fill-rule:nonzero;"/>
            </g>
            <g transform="matrix(1,0,0,1,1.5805,-1.1365)">
                <path d="M39.558,86.5L28.161,86.5C25.4,86.5 23.161,88.738 23.161,91.5C23.161,94.262 25.4,96.5 28.161,96.5L39.598,96.5C39.584,96.214 39.558,95.931 39.558,95.641L39.558,86.5Z" style="fill:rgb(64,69,71);fill-rule:nonzero;"/>
            </g>
            <g transform="matrix(1,0,0,1,1.5805,-1.1365)">
                <path d="M92.423,41.695L71.254,63.965L71.254,101.997L92.425,124.281L92.423,41.695Z" style="fill:rgb(64,69,71);fill-rule:nonzero;"/>
            </g>
            <g transform="matrix(1,0,0,1,1.5805,-1.1365)">
                <path d="M55.915,63.965C54.123,63.965 52.62,64.598 51.398,65.853C50.169,67.11 49.559,68.601 49.559,70.324L49.559,95.641C49.559,97.358 50.169,98.856 51.398,100.103C52.62,101.366 54.123,101.998 55.915,101.998L65.801,101.998L65.801,63.965L55.915,63.965Z" style="fill:rgb(64,69,71);fill-rule:nonzero;"/>
            </g>
            <g transform="matrix(1,0,0,1,1.5805,-1.1365)">
                <path d="M116.744,72.521C115.357,69.182 113.355,66.218 110.791,63.711C109.798,62.743 108.491,62.211 107.111,62.211C105.674,62.211 104.336,62.775 103.346,63.794C102.358,64.798 101.823,66.128 101.839,67.541C101.86,68.947 102.419,70.261 103.418,71.244C104.96,72.746 106.171,74.54 107.019,76.579C107.873,78.61 108.306,80.787 108.306,83.051C108.306,85.308 107.87,87.488 107.01,89.534C106.167,91.557 104.96,93.343 103.415,94.846C101.35,96.885 101.318,100.228 103.344,102.296C104.336,103.317 105.674,103.879 107.112,103.879C108.487,103.879 109.793,103.345 110.793,102.373C113.356,99.867 115.356,96.913 116.735,93.597C118.131,90.268 118.839,86.72 118.839,83.051C118.84,79.369 118.134,75.825 116.744,72.521Z" style="fill:rgb(129,156,189);fill-rule:nonzero;"/>
            </g>
        </g>
    </g>
</svg>
